%TF.GenerationSoftware,KiCad,Pcbnew,(6.0.8)*%
%TF.CreationDate,2022-12-13T14:59:49+09:00*%
%TF.ProjectId,audio,61756469-6f2e-46b6-9963-61645f706362,rev?*%
%TF.SameCoordinates,Original*%
%TF.FileFunction,Soldermask,Bot*%
%TF.FilePolarity,Negative*%
%FSLAX46Y46*%
G04 Gerber Fmt 4.6, Leading zero omitted, Abs format (unit mm)*
G04 Created by KiCad (PCBNEW (6.0.8)) date 2022-12-13 14:59:49*
%MOMM*%
%LPD*%
G01*
G04 APERTURE LIST*
%ADD10O,1.200000X2.200000*%
%ADD11O,1.200000X2.700000*%
%ADD12O,1.200000X2.600000*%
%ADD13C,3.200000*%
%ADD14R,1.524000X1.524000*%
%ADD15C,1.524000*%
%ADD16C,1.800000*%
%ADD17O,1.270000X1.524000*%
%ADD18C,2.630000*%
%ADD19C,2.610000*%
%ADD20C,6.100000*%
%ADD21R,1.700000X1.700000*%
%ADD22O,1.700000X1.700000*%
%ADD23C,3.100000*%
%ADD24C,1.100000*%
%ADD25C,3.400000*%
%ADD26C,2.500000*%
G04 APERTURE END LIST*
D10*
%TO.C,J5*%
X66420000Y-7110000D03*
X57780000Y-7110000D03*
D11*
X66420000Y-1750000D03*
D12*
X57780000Y-1750000D03*
%TD*%
D13*
%TO.C,J2*%
X9637500Y-51807500D03*
X9637500Y-64507500D03*
D14*
X24877500Y-63237500D03*
D15*
X24877500Y-61205500D03*
X24877500Y-59173500D03*
X24877500Y-57141500D03*
X24877500Y-55109500D03*
X24877500Y-53077500D03*
X27417500Y-64253500D03*
X27417500Y-62221500D03*
X27417500Y-60189500D03*
X27417500Y-56125500D03*
X27417500Y-54093500D03*
X27417500Y-52061500D03*
D16*
X29957500Y-64253500D03*
X29957500Y-61713500D03*
X29957500Y-54601500D03*
X29957500Y-52061500D03*
D17*
X17767500Y-63752500D03*
X17767500Y-52572500D03*
X16297500Y-63752500D03*
X16297500Y-52572500D03*
D18*
X6462500Y-66222000D03*
D19*
X6462500Y-50093000D03*
%TD*%
D20*
%TO.C,CM4_MODULE1*%
X71200000Y-61100000D03*
X71200000Y-13100000D03*
X38200000Y-61100000D03*
X38200000Y-13100000D03*
%TD*%
D21*
%TO.C,J6*%
X31000000Y-3000000D03*
D22*
X33540000Y-3000000D03*
X36080000Y-3000000D03*
X38620000Y-3000000D03*
X41160000Y-3000000D03*
X43700000Y-3000000D03*
X46240000Y-3000000D03*
X48780000Y-3000000D03*
X51320000Y-3000000D03*
X53860000Y-3000000D03*
%TD*%
D23*
%TO.C,J3*%
X8200000Y-44240000D03*
X13880000Y-44240000D03*
X8200000Y-31100000D03*
X13880000Y-31100000D03*
D24*
X10200000Y-34170000D03*
X10200000Y-36670000D03*
X10200000Y-38670000D03*
X10200000Y-41170000D03*
X11700000Y-41670000D03*
X11700000Y-39670000D03*
X11700000Y-37670000D03*
X11750000Y-35670000D03*
X11700000Y-33670000D03*
X13400000Y-34170000D03*
X13400000Y-36670000D03*
X13400000Y-38670000D03*
X13400000Y-41170000D03*
X14900000Y-41670000D03*
X14900000Y-39670000D03*
X14900000Y-37670000D03*
X14950000Y-35670000D03*
X14900000Y-33670000D03*
%TD*%
D21*
%TO.C,J10*%
X49960000Y-66250000D03*
D22*
X52500000Y-66250000D03*
X55040000Y-66250000D03*
X57580000Y-66250000D03*
X60120000Y-66250000D03*
X62660000Y-66250000D03*
X65200000Y-66250000D03*
X67740000Y-66250000D03*
X70280000Y-66250000D03*
X72820000Y-66250000D03*
%TD*%
D25*
%TO.C,J1*%
X9228500Y-10842500D03*
X9228500Y-25342500D03*
D26*
X3228500Y-10842500D03*
X3228500Y-25342500D03*
%TD*%
D21*
%TO.C,J7*%
X40000000Y-71000000D03*
D22*
X42540000Y-71000000D03*
X45080000Y-71000000D03*
X47620000Y-71000000D03*
X50160000Y-71000000D03*
X52700000Y-71000000D03*
X55240000Y-71000000D03*
X57780000Y-71000000D03*
X60320000Y-71000000D03*
X62860000Y-71000000D03*
%TD*%
D10*
%TO.C,J4*%
X22090000Y-7130000D03*
X13450000Y-7130000D03*
D11*
X22090000Y-1770000D03*
D12*
X13450000Y-1770000D03*
%TD*%
D21*
%TO.C,J9*%
X116000000Y-71000000D03*
D22*
X118540000Y-71000000D03*
X121080000Y-71000000D03*
X123620000Y-71000000D03*
X126160000Y-71000000D03*
X128700000Y-71000000D03*
X131240000Y-71000000D03*
X133780000Y-71000000D03*
X136320000Y-71000000D03*
X138860000Y-71000000D03*
%TD*%
D21*
%TO.C,J8*%
X107000000Y-3000000D03*
D22*
X109540000Y-3000000D03*
X112080000Y-3000000D03*
X114620000Y-3000000D03*
X117160000Y-3000000D03*
X119700000Y-3000000D03*
X122240000Y-3000000D03*
X124780000Y-3000000D03*
X127320000Y-3000000D03*
X129860000Y-3000000D03*
%TD*%
M02*
