%TF.GenerationSoftware,KiCad,Pcbnew,(6.0.8)*%
%TF.CreationDate,2022-12-13T14:59:49+09:00*%
%TF.ProjectId,audio,61756469-6f2e-46b6-9963-61645f706362,rev?*%
%TF.SameCoordinates,Original*%
%TF.FileFunction,Legend,Bot*%
%TF.FilePolarity,Positive*%
%FSLAX46Y46*%
G04 Gerber Fmt 4.6, Leading zero omitted, Abs format (unit mm)*
G04 Created by KiCad (PCBNEW (6.0.8)) date 2022-12-13 14:59:49*
%MOMM*%
%LPD*%
G01*
G04 APERTURE LIST*
%ADD10C,0.150000*%
%ADD11C,0.120000*%
G04 APERTURE END LIST*
D10*
%TO.C,J9*%
X112682380Y-70666666D02*
X113396666Y-70666666D01*
X113539523Y-70619047D01*
X113634761Y-70523809D01*
X113682380Y-70380952D01*
X113682380Y-70285714D01*
X113682380Y-71190476D02*
X113682380Y-71380952D01*
X113634761Y-71476190D01*
X113587142Y-71523809D01*
X113444285Y-71619047D01*
X113253809Y-71666666D01*
X112872857Y-71666666D01*
X112777619Y-71619047D01*
X112730000Y-71571428D01*
X112682380Y-71476190D01*
X112682380Y-71285714D01*
X112730000Y-71190476D01*
X112777619Y-71142857D01*
X112872857Y-71095238D01*
X113110952Y-71095238D01*
X113206190Y-71142857D01*
X113253809Y-71190476D01*
X113301428Y-71285714D01*
X113301428Y-71476190D01*
X113253809Y-71571428D01*
X113206190Y-71619047D01*
X113110952Y-71666666D01*
%TO.C,J8*%
X103682380Y-2666666D02*
X104396666Y-2666666D01*
X104539523Y-2619047D01*
X104634761Y-2523809D01*
X104682380Y-2380952D01*
X104682380Y-2285714D01*
X104110952Y-3285714D02*
X104063333Y-3190476D01*
X104015714Y-3142857D01*
X103920476Y-3095238D01*
X103872857Y-3095238D01*
X103777619Y-3142857D01*
X103730000Y-3190476D01*
X103682380Y-3285714D01*
X103682380Y-3476190D01*
X103730000Y-3571428D01*
X103777619Y-3619047D01*
X103872857Y-3666666D01*
X103920476Y-3666666D01*
X104015714Y-3619047D01*
X104063333Y-3571428D01*
X104110952Y-3476190D01*
X104110952Y-3285714D01*
X104158571Y-3190476D01*
X104206190Y-3142857D01*
X104301428Y-3095238D01*
X104491904Y-3095238D01*
X104587142Y-3142857D01*
X104634761Y-3190476D01*
X104682380Y-3285714D01*
X104682380Y-3476190D01*
X104634761Y-3571428D01*
X104587142Y-3619047D01*
X104491904Y-3666666D01*
X104301428Y-3666666D01*
X104206190Y-3619047D01*
X104158571Y-3571428D01*
X104110952Y-3476190D01*
D11*
%TO.C,J9*%
X117270000Y-72330000D02*
X140190000Y-72330000D01*
X114670000Y-72330000D02*
X116000000Y-72330000D01*
X117270000Y-69670000D02*
X140190000Y-69670000D01*
X140190000Y-69670000D02*
X140190000Y-72330000D01*
X114670000Y-71000000D02*
X114670000Y-72330000D01*
X117270000Y-69670000D02*
X117270000Y-72330000D01*
%TO.C,J8*%
X105670000Y-3000000D02*
X105670000Y-4330000D01*
X108270000Y-1670000D02*
X131190000Y-1670000D01*
X131190000Y-1670000D02*
X131190000Y-4330000D01*
X108270000Y-1670000D02*
X108270000Y-4330000D01*
X105670000Y-4330000D02*
X107000000Y-4330000D01*
X108270000Y-4330000D02*
X131190000Y-4330000D01*
%TD*%
M02*
