%TF.GenerationSoftware,KiCad,Pcbnew,(6.0.8)*%
%TF.CreationDate,2022-12-13T14:59:49+09:00*%
%TF.ProjectId,audio,61756469-6f2e-46b6-9963-61645f706362,rev?*%
%TF.SameCoordinates,Original*%
%TF.FileFunction,Legend,Top*%
%TF.FilePolarity,Positive*%
%FSLAX46Y46*%
G04 Gerber Fmt 4.6, Leading zero omitted, Abs format (unit mm)*
G04 Created by KiCad (PCBNEW (6.0.8)) date 2022-12-13 14:59:49*
%MOMM*%
%LPD*%
G01*
G04 APERTURE LIST*
%ADD10C,1.000000*%
%ADD11C,0.750000*%
%ADD12C,0.500000*%
%ADD13C,0.150000*%
%ADD14C,0.254000*%
%ADD15C,0.120000*%
%ADD16C,0.100000*%
%ADD17C,0.127000*%
%ADD18C,0.200000*%
%ADD19C,0.420555*%
G04 APERTURE END LIST*
D10*
X94500000Y-29500000D02*
G75*
G03*
X92500000Y-27500000I-2000000J0D01*
G01*
X141500000Y-74500000D02*
X111500000Y-74500000D01*
X92500000Y-27500000D02*
X76500000Y-27500000D01*
X76500000Y-7600000D02*
X83600000Y-7600000D01*
X83600000Y-500000D02*
X133000000Y-500000D01*
X111500000Y-47500000D02*
G75*
G03*
X109500000Y-45500000I-2000000J0D01*
G01*
X111600000Y-61400000D02*
X133200000Y-61400000D01*
X128000000Y-47700000D02*
X128100000Y-13900000D01*
X109500000Y-45500000D02*
X94500000Y-45500000D01*
X133000000Y-8000000D02*
X133000000Y-500000D01*
X128000000Y-14000000D02*
X133000000Y-8000000D01*
X133200000Y-61400000D02*
X128000000Y-47700000D01*
X128100000Y-13900000D02*
X76500000Y-13900000D01*
X141500000Y-69900000D02*
X133200000Y-61400000D01*
X83600000Y-7600000D02*
X83600000Y-500000D01*
X141500000Y-69900000D02*
X141500000Y-74500000D01*
X111500000Y-47500000D02*
X111500000Y-74500000D01*
X76500000Y-27500000D02*
X76500000Y-7600000D01*
X94500000Y-45500000D02*
X94500000Y-29500000D01*
D11*
X99605267Y-35214285D02*
X100015982Y-35357142D01*
X100730267Y-35357142D01*
X101033839Y-35214285D01*
X101194553Y-35071428D01*
X101373125Y-34785714D01*
X101408839Y-34500000D01*
X101301696Y-34214285D01*
X101176696Y-34071428D01*
X100908839Y-33928571D01*
X100355267Y-33785714D01*
X100087410Y-33642857D01*
X99962410Y-33500000D01*
X99855267Y-33214285D01*
X99890982Y-32928571D01*
X100069553Y-32642857D01*
X100230267Y-32500000D01*
X100533839Y-32357142D01*
X101248125Y-32357142D01*
X101658839Y-32500000D01*
X103533839Y-32357142D02*
X104105267Y-32357142D01*
X104373125Y-32500000D01*
X104623125Y-32785714D01*
X104694553Y-33357142D01*
X104569553Y-34357142D01*
X104355267Y-34928571D01*
X104033839Y-35214285D01*
X103730267Y-35357142D01*
X103158839Y-35357142D01*
X102890982Y-35214285D01*
X102640982Y-34928571D01*
X102569553Y-34357142D01*
X102694553Y-33357142D01*
X102908839Y-32785714D01*
X103230267Y-32500000D01*
X103533839Y-32357142D01*
X106105267Y-32357142D02*
X105801696Y-34785714D01*
X105908839Y-35071428D01*
X106033839Y-35214285D01*
X106301696Y-35357142D01*
X106873125Y-35357142D01*
X107176696Y-35214285D01*
X107337410Y-35071428D01*
X107515982Y-34785714D01*
X107819553Y-32357142D01*
X108873125Y-35357142D02*
X109248125Y-32357142D01*
X110587410Y-35357142D01*
X110962410Y-32357142D01*
X112015982Y-35357142D02*
X112390982Y-32357142D01*
X113105267Y-32357142D01*
X113515982Y-32500000D01*
X113765982Y-32785714D01*
X113873125Y-33071428D01*
X113944553Y-33642857D01*
X113890982Y-34071428D01*
X113676696Y-34642857D01*
X113498125Y-34928571D01*
X113176696Y-35214285D01*
X112730267Y-35357142D01*
X112015982Y-35357142D01*
X115015982Y-35357142D02*
X115390982Y-32357142D01*
X116390982Y-32357142D02*
X118105267Y-32357142D01*
X116873125Y-35357142D02*
X117248125Y-32357142D01*
D12*
X56262559Y-40544761D02*
X56512559Y-38544761D01*
X56988750Y-38544761D01*
X57262559Y-38640000D01*
X57429226Y-38830476D01*
X57500654Y-39020952D01*
X57548273Y-39401904D01*
X57512559Y-39687619D01*
X57369702Y-40068571D01*
X57250654Y-40259047D01*
X57036369Y-40449523D01*
X56738750Y-40544761D01*
X56262559Y-40544761D01*
X58179226Y-40449523D02*
X58453035Y-40544761D01*
X58929226Y-40544761D01*
X59131607Y-40449523D01*
X59238750Y-40354285D01*
X59357797Y-40163809D01*
X59381607Y-39973333D01*
X59310178Y-39782857D01*
X59226845Y-39687619D01*
X59048273Y-39592380D01*
X58679226Y-39497142D01*
X58500654Y-39401904D01*
X58417321Y-39306666D01*
X58345892Y-39116190D01*
X58369702Y-38925714D01*
X58488750Y-38735238D01*
X58595892Y-38640000D01*
X58798273Y-38544761D01*
X59274464Y-38544761D01*
X59548273Y-38640000D01*
X60167321Y-40544761D02*
X60417321Y-38544761D01*
X61179226Y-38544761D01*
X61357797Y-38640000D01*
X61441130Y-38735238D01*
X61512559Y-38925714D01*
X61476845Y-39211428D01*
X61357797Y-39401904D01*
X61250654Y-39497142D01*
X61048273Y-39592380D01*
X60286369Y-39592380D01*
X59679226Y-42717142D02*
X59953035Y-42812380D01*
X60036369Y-42907619D01*
X60107797Y-43098095D01*
X60072083Y-43383809D01*
X59953035Y-43574285D01*
X59845892Y-43669523D01*
X59643511Y-43764761D01*
X58881607Y-43764761D01*
X59131607Y-41764761D01*
X59798273Y-41764761D01*
X59976845Y-41860000D01*
X60060178Y-41955238D01*
X60131607Y-42145714D01*
X60107797Y-42336190D01*
X59988750Y-42526666D01*
X59881607Y-42621904D01*
X59679226Y-42717142D01*
X59012559Y-42717142D01*
X61512559Y-41764761D02*
X61893511Y-41764761D01*
X62072083Y-41860000D01*
X62238750Y-42050476D01*
X62286369Y-42431428D01*
X62203035Y-43098095D01*
X62060178Y-43479047D01*
X61845892Y-43669523D01*
X61643511Y-43764761D01*
X61262559Y-43764761D01*
X61083988Y-43669523D01*
X60917321Y-43479047D01*
X60869702Y-43098095D01*
X60953035Y-42431428D01*
X61095892Y-42050476D01*
X61310178Y-41860000D01*
X61512559Y-41764761D01*
X62953035Y-43193333D02*
X63905416Y-43193333D01*
X62691130Y-43764761D02*
X63607797Y-41764761D01*
X64024464Y-43764761D01*
X65833988Y-43764761D02*
X65286369Y-42812380D01*
X64691130Y-43764761D02*
X64941130Y-41764761D01*
X65703035Y-41764761D01*
X65881607Y-41860000D01*
X65964940Y-41955238D01*
X66036369Y-42145714D01*
X66000654Y-42431428D01*
X65881607Y-42621904D01*
X65774464Y-42717142D01*
X65572083Y-42812380D01*
X64810178Y-42812380D01*
X66691130Y-43764761D02*
X66941130Y-41764761D01*
X67417321Y-41764761D01*
X67691130Y-41860000D01*
X67857797Y-42050476D01*
X67929226Y-42240952D01*
X67976845Y-42621904D01*
X67941130Y-42907619D01*
X67798273Y-43288571D01*
X67679226Y-43479047D01*
X67464940Y-43669523D01*
X67167321Y-43764761D01*
X66691130Y-43764761D01*
X104467797Y-12204761D02*
X104717797Y-10204761D01*
X105336845Y-12109523D02*
X105610654Y-12204761D01*
X106086845Y-12204761D01*
X106289226Y-12109523D01*
X106396369Y-12014285D01*
X106515416Y-11823809D01*
X106539226Y-11633333D01*
X106467797Y-11442857D01*
X106384464Y-11347619D01*
X106205892Y-11252380D01*
X105836845Y-11157142D01*
X105658273Y-11061904D01*
X105574940Y-10966666D01*
X105503511Y-10776190D01*
X105527321Y-10585714D01*
X105646369Y-10395238D01*
X105753511Y-10300000D01*
X105955892Y-10204761D01*
X106432083Y-10204761D01*
X106705892Y-10300000D01*
X107955892Y-10204761D02*
X108336845Y-10204761D01*
X108515416Y-10300000D01*
X108682083Y-10490476D01*
X108729702Y-10871428D01*
X108646369Y-11538095D01*
X108503511Y-11919047D01*
X108289226Y-12109523D01*
X108086845Y-12204761D01*
X107705892Y-12204761D01*
X107527321Y-12109523D01*
X107360654Y-11919047D01*
X107313035Y-11538095D01*
X107396369Y-10871428D01*
X107539226Y-10490476D01*
X107753511Y-10300000D01*
X107955892Y-10204761D01*
X110372559Y-12204761D02*
X109420178Y-12204761D01*
X109670178Y-10204761D01*
X111015416Y-11633333D02*
X111967797Y-11633333D01*
X110753511Y-12204761D02*
X111670178Y-10204761D01*
X112086845Y-12204761D01*
X112717797Y-10204761D02*
X113860654Y-10204761D01*
X113039226Y-12204761D02*
X113289226Y-10204761D01*
X114277321Y-12204761D02*
X114527321Y-10204761D01*
X115860654Y-10204761D02*
X116241607Y-10204761D01*
X116420178Y-10300000D01*
X116586845Y-10490476D01*
X116634464Y-10871428D01*
X116551130Y-11538095D01*
X116408273Y-11919047D01*
X116193988Y-12109523D01*
X115991607Y-12204761D01*
X115610654Y-12204761D01*
X115432083Y-12109523D01*
X115265416Y-11919047D01*
X115217797Y-11538095D01*
X115301130Y-10871428D01*
X115443988Y-10490476D01*
X115658273Y-10300000D01*
X115860654Y-10204761D01*
X117324940Y-12204761D02*
X117574940Y-10204761D01*
X118467797Y-12204761D01*
X118717797Y-10204761D01*
X120943988Y-12204761D02*
X121193988Y-10204761D01*
X122027321Y-10395238D02*
X122134464Y-10300000D01*
X122336845Y-10204761D01*
X122813035Y-10204761D01*
X122991607Y-10300000D01*
X123074940Y-10395238D01*
X123146369Y-10585714D01*
X123122559Y-10776190D01*
X122991607Y-11061904D01*
X121705892Y-12204761D01*
X122943988Y-12204761D01*
X123717797Y-12109523D02*
X123991607Y-12204761D01*
X124467797Y-12204761D01*
X124670178Y-12109523D01*
X124777321Y-12014285D01*
X124896369Y-11823809D01*
X124920178Y-11633333D01*
X124848750Y-11442857D01*
X124765416Y-11347619D01*
X124586845Y-11252380D01*
X124217797Y-11157142D01*
X124039226Y-11061904D01*
X123955892Y-10966666D01*
X123884464Y-10776190D01*
X123908273Y-10585714D01*
X124027321Y-10395238D01*
X124134464Y-10300000D01*
X124336845Y-10204761D01*
X124813035Y-10204761D01*
X125086845Y-10300000D01*
X114720178Y-66704761D02*
X114970178Y-64704761D01*
X115589226Y-66609523D02*
X115863035Y-66704761D01*
X116339226Y-66704761D01*
X116541607Y-66609523D01*
X116648750Y-66514285D01*
X116767797Y-66323809D01*
X116791607Y-66133333D01*
X116720178Y-65942857D01*
X116636845Y-65847619D01*
X116458273Y-65752380D01*
X116089226Y-65657142D01*
X115910654Y-65561904D01*
X115827321Y-65466666D01*
X115755892Y-65276190D01*
X115779702Y-65085714D01*
X115898750Y-64895238D01*
X116005892Y-64800000D01*
X116208273Y-64704761D01*
X116684464Y-64704761D01*
X116958273Y-64800000D01*
X118208273Y-64704761D02*
X118589226Y-64704761D01*
X118767797Y-64800000D01*
X118934464Y-64990476D01*
X118982083Y-65371428D01*
X118898750Y-66038095D01*
X118755892Y-66419047D01*
X118541607Y-66609523D01*
X118339226Y-66704761D01*
X117958273Y-66704761D01*
X117779702Y-66609523D01*
X117613035Y-66419047D01*
X117565416Y-66038095D01*
X117648750Y-65371428D01*
X117791607Y-64990476D01*
X118005892Y-64800000D01*
X118208273Y-64704761D01*
X120624940Y-66704761D02*
X119672559Y-66704761D01*
X119922559Y-64704761D01*
X121267797Y-66133333D02*
X122220178Y-66133333D01*
X121005892Y-66704761D02*
X121922559Y-64704761D01*
X122339226Y-66704761D01*
X122970178Y-64704761D02*
X124113035Y-64704761D01*
X123291607Y-66704761D02*
X123541607Y-64704761D01*
X124529702Y-66704761D02*
X124779702Y-64704761D01*
X126113035Y-64704761D02*
X126493988Y-64704761D01*
X126672559Y-64800000D01*
X126839226Y-64990476D01*
X126886845Y-65371428D01*
X126803511Y-66038095D01*
X126660654Y-66419047D01*
X126446369Y-66609523D01*
X126243988Y-66704761D01*
X125863035Y-66704761D01*
X125684464Y-66609523D01*
X125517797Y-66419047D01*
X125470178Y-66038095D01*
X125553511Y-65371428D01*
X125696369Y-64990476D01*
X125910654Y-64800000D01*
X126113035Y-64704761D01*
X127577321Y-66704761D02*
X127827321Y-64704761D01*
X128720178Y-66704761D01*
X128970178Y-64704761D01*
X131196369Y-66704761D02*
X131446369Y-64704761D01*
X132279702Y-64895238D02*
X132386845Y-64800000D01*
X132589226Y-64704761D01*
X133065416Y-64704761D01*
X133243988Y-64800000D01*
X133327321Y-64895238D01*
X133398750Y-65085714D01*
X133374940Y-65276190D01*
X133243988Y-65561904D01*
X131958273Y-66704761D01*
X133196369Y-66704761D01*
X135220178Y-66514285D02*
X135113035Y-66609523D01*
X134815416Y-66704761D01*
X134624940Y-66704761D01*
X134351130Y-66609523D01*
X134184464Y-66419047D01*
X134113035Y-66228571D01*
X134065416Y-65847619D01*
X134101130Y-65561904D01*
X134243988Y-65180952D01*
X134363035Y-64990476D01*
X134577321Y-64800000D01*
X134874940Y-64704761D01*
X135065416Y-64704761D01*
X135339226Y-64800000D01*
X135422559Y-64895238D01*
D11*
X44145267Y-32964285D02*
X44555982Y-33107142D01*
X45270267Y-33107142D01*
X45573839Y-32964285D01*
X45734553Y-32821428D01*
X45913125Y-32535714D01*
X45948839Y-32250000D01*
X45841696Y-31964285D01*
X45716696Y-31821428D01*
X45448839Y-31678571D01*
X44895267Y-31535714D01*
X44627410Y-31392857D01*
X44502410Y-31250000D01*
X44395267Y-30964285D01*
X44430982Y-30678571D01*
X44609553Y-30392857D01*
X44770267Y-30250000D01*
X45073839Y-30107142D01*
X45788125Y-30107142D01*
X46198839Y-30250000D01*
X48073839Y-30107142D02*
X48645267Y-30107142D01*
X48913125Y-30250000D01*
X49163125Y-30535714D01*
X49234553Y-31107142D01*
X49109553Y-32107142D01*
X48895267Y-32678571D01*
X48573839Y-32964285D01*
X48270267Y-33107142D01*
X47698839Y-33107142D01*
X47430982Y-32964285D01*
X47180982Y-32678571D01*
X47109553Y-32107142D01*
X47234553Y-31107142D01*
X47448839Y-30535714D01*
X47770267Y-30250000D01*
X48073839Y-30107142D01*
X50645267Y-30107142D02*
X50341696Y-32535714D01*
X50448839Y-32821428D01*
X50573839Y-32964285D01*
X50841696Y-33107142D01*
X51413125Y-33107142D01*
X51716696Y-32964285D01*
X51877410Y-32821428D01*
X52055982Y-32535714D01*
X52359553Y-30107142D01*
X53413125Y-33107142D02*
X53788125Y-30107142D01*
X55127410Y-33107142D01*
X55502410Y-30107142D01*
X56555982Y-33107142D02*
X56930982Y-30107142D01*
X57645267Y-30107142D01*
X58055982Y-30250000D01*
X58305982Y-30535714D01*
X58413125Y-30821428D01*
X58484553Y-31392857D01*
X58430982Y-31821428D01*
X58216696Y-32392857D01*
X58038125Y-32678571D01*
X57716696Y-32964285D01*
X57270267Y-33107142D01*
X56555982Y-33107142D01*
X59555982Y-33107142D02*
X59930982Y-30107142D01*
X60930982Y-30107142D02*
X62645267Y-30107142D01*
X61413125Y-33107142D02*
X61788125Y-30107142D01*
D12*
X136704761Y-52840952D02*
X134704761Y-52840952D01*
X136609523Y-51983809D02*
X136704761Y-51698095D01*
X136704761Y-51221904D01*
X136609523Y-51031428D01*
X136514285Y-50936190D01*
X136323809Y-50840952D01*
X136133333Y-50840952D01*
X135942857Y-50936190D01*
X135847619Y-51031428D01*
X135752380Y-51221904D01*
X135657142Y-51602857D01*
X135561904Y-51793333D01*
X135466666Y-51888571D01*
X135276190Y-51983809D01*
X135085714Y-51983809D01*
X134895238Y-51888571D01*
X134800000Y-51793333D01*
X134704761Y-51602857D01*
X134704761Y-51126666D01*
X134800000Y-50840952D01*
X134704761Y-49602857D02*
X134704761Y-49221904D01*
X134800000Y-49031428D01*
X134990476Y-48840952D01*
X135371428Y-48745714D01*
X136038095Y-48745714D01*
X136419047Y-48840952D01*
X136609523Y-49031428D01*
X136704761Y-49221904D01*
X136704761Y-49602857D01*
X136609523Y-49793333D01*
X136419047Y-49983809D01*
X136038095Y-50079047D01*
X135371428Y-50079047D01*
X134990476Y-49983809D01*
X134800000Y-49793333D01*
X134704761Y-49602857D01*
X136704761Y-46936190D02*
X136704761Y-47888571D01*
X134704761Y-47888571D01*
X136133333Y-46364761D02*
X136133333Y-45412380D01*
X136704761Y-46555238D02*
X134704761Y-45888571D01*
X136704761Y-45221904D01*
X134704761Y-44840952D02*
X134704761Y-43698095D01*
X136704761Y-44269523D02*
X134704761Y-44269523D01*
X136704761Y-43031428D02*
X134704761Y-43031428D01*
X134704761Y-41698095D02*
X134704761Y-41317142D01*
X134800000Y-41126666D01*
X134990476Y-40936190D01*
X135371428Y-40840952D01*
X136038095Y-40840952D01*
X136419047Y-40936190D01*
X136609523Y-41126666D01*
X136704761Y-41317142D01*
X136704761Y-41698095D01*
X136609523Y-41888571D01*
X136419047Y-42079047D01*
X136038095Y-42174285D01*
X135371428Y-42174285D01*
X134990476Y-42079047D01*
X134800000Y-41888571D01*
X134704761Y-41698095D01*
X136704761Y-39983809D02*
X134704761Y-39983809D01*
X136704761Y-38840952D01*
X134704761Y-38840952D01*
X136133333Y-36460000D02*
X136133333Y-35507619D01*
X136704761Y-36650476D02*
X134704761Y-35983809D01*
X136704761Y-35317142D01*
X136704761Y-34650476D02*
X134704761Y-34650476D01*
X136704761Y-33507619D01*
X134704761Y-33507619D01*
X136133333Y-32650476D02*
X136133333Y-31698095D01*
X136704761Y-32840952D02*
X134704761Y-32174285D01*
X136704761Y-31507619D01*
X136704761Y-29888571D02*
X136704761Y-30840952D01*
X134704761Y-30840952D01*
X134704761Y-28840952D02*
X134704761Y-28460000D01*
X134800000Y-28269523D01*
X134990476Y-28079047D01*
X135371428Y-27983809D01*
X136038095Y-27983809D01*
X136419047Y-28079047D01*
X136609523Y-28269523D01*
X136704761Y-28460000D01*
X136704761Y-28840952D01*
X136609523Y-29031428D01*
X136419047Y-29221904D01*
X136038095Y-29317142D01*
X135371428Y-29317142D01*
X134990476Y-29221904D01*
X134800000Y-29031428D01*
X134704761Y-28840952D01*
X134800000Y-26079047D02*
X134704761Y-26269523D01*
X134704761Y-26555238D01*
X134800000Y-26840952D01*
X134990476Y-27031428D01*
X135180952Y-27126666D01*
X135561904Y-27221904D01*
X135847619Y-27221904D01*
X136228571Y-27126666D01*
X136419047Y-27031428D01*
X136609523Y-26840952D01*
X136704761Y-26555238D01*
X136704761Y-26364761D01*
X136609523Y-26079047D01*
X136514285Y-25983809D01*
X135847619Y-25983809D01*
X135847619Y-26364761D01*
X110522083Y-41053333D02*
X111474464Y-41053333D01*
X110260178Y-41624761D02*
X111176845Y-39624761D01*
X111593511Y-41624761D01*
X112510178Y-39624761D02*
X112307797Y-41243809D01*
X112379226Y-41434285D01*
X112462559Y-41529523D01*
X112641130Y-41624761D01*
X113022083Y-41624761D01*
X113224464Y-41529523D01*
X113331607Y-41434285D01*
X113450654Y-41243809D01*
X113653035Y-39624761D01*
X114355416Y-41624761D02*
X114605416Y-39624761D01*
X115081607Y-39624761D01*
X115355416Y-39720000D01*
X115522083Y-39910476D01*
X115593511Y-40100952D01*
X115641130Y-40481904D01*
X115605416Y-40767619D01*
X115462559Y-41148571D01*
X115343511Y-41339047D01*
X115129226Y-41529523D01*
X114831607Y-41624761D01*
X114355416Y-41624761D01*
X116355416Y-41624761D02*
X116605416Y-39624761D01*
X117938750Y-39624761D02*
X118319702Y-39624761D01*
X118498273Y-39720000D01*
X118664940Y-39910476D01*
X118712559Y-40291428D01*
X118629226Y-40958095D01*
X118486369Y-41339047D01*
X118272083Y-41529523D01*
X118069702Y-41624761D01*
X117688750Y-41624761D01*
X117510178Y-41529523D01*
X117343511Y-41339047D01*
X117295892Y-40958095D01*
X117379226Y-40291428D01*
X117522083Y-39910476D01*
X117736369Y-39720000D01*
X117938750Y-39624761D01*
X115438750Y-43797142D02*
X115712559Y-43892380D01*
X115795892Y-43987619D01*
X115867321Y-44178095D01*
X115831607Y-44463809D01*
X115712559Y-44654285D01*
X115605416Y-44749523D01*
X115403035Y-44844761D01*
X114641130Y-44844761D01*
X114891130Y-42844761D01*
X115557797Y-42844761D01*
X115736369Y-42940000D01*
X115819702Y-43035238D01*
X115891130Y-43225714D01*
X115867321Y-43416190D01*
X115748273Y-43606666D01*
X115641130Y-43701904D01*
X115438750Y-43797142D01*
X114772083Y-43797142D01*
X117272083Y-42844761D02*
X117653035Y-42844761D01*
X117831607Y-42940000D01*
X117998273Y-43130476D01*
X118045892Y-43511428D01*
X117962559Y-44178095D01*
X117819702Y-44559047D01*
X117605416Y-44749523D01*
X117403035Y-44844761D01*
X117022083Y-44844761D01*
X116843511Y-44749523D01*
X116676845Y-44559047D01*
X116629226Y-44178095D01*
X116712559Y-43511428D01*
X116855416Y-43130476D01*
X117069702Y-42940000D01*
X117272083Y-42844761D01*
X118712559Y-44273333D02*
X119664940Y-44273333D01*
X118450654Y-44844761D02*
X119367321Y-42844761D01*
X119783988Y-44844761D01*
X121593511Y-44844761D02*
X121045892Y-43892380D01*
X120450654Y-44844761D02*
X120700654Y-42844761D01*
X121462559Y-42844761D01*
X121641130Y-42940000D01*
X121724464Y-43035238D01*
X121795892Y-43225714D01*
X121760178Y-43511428D01*
X121641130Y-43701904D01*
X121533988Y-43797142D01*
X121331607Y-43892380D01*
X120569702Y-43892380D01*
X122450654Y-44844761D02*
X122700654Y-42844761D01*
X123176845Y-42844761D01*
X123450654Y-42940000D01*
X123617321Y-43130476D01*
X123688750Y-43320952D01*
X123736369Y-43701904D01*
X123700654Y-43987619D01*
X123557797Y-44368571D01*
X123438750Y-44559047D01*
X123224464Y-44749523D01*
X122926845Y-44844761D01*
X122450654Y-44844761D01*
D13*
%TO.C,R33*%
X127257142Y-42882380D02*
X126923809Y-42406190D01*
X126685714Y-42882380D02*
X126685714Y-41882380D01*
X127066666Y-41882380D01*
X127161904Y-41930000D01*
X127209523Y-41977619D01*
X127257142Y-42072857D01*
X127257142Y-42215714D01*
X127209523Y-42310952D01*
X127161904Y-42358571D01*
X127066666Y-42406190D01*
X126685714Y-42406190D01*
X127590476Y-41882380D02*
X128209523Y-41882380D01*
X127876190Y-42263333D01*
X128019047Y-42263333D01*
X128114285Y-42310952D01*
X128161904Y-42358571D01*
X128209523Y-42453809D01*
X128209523Y-42691904D01*
X128161904Y-42787142D01*
X128114285Y-42834761D01*
X128019047Y-42882380D01*
X127733333Y-42882380D01*
X127638095Y-42834761D01*
X127590476Y-42787142D01*
X128542857Y-41882380D02*
X129161904Y-41882380D01*
X128828571Y-42263333D01*
X128971428Y-42263333D01*
X129066666Y-42310952D01*
X129114285Y-42358571D01*
X129161904Y-42453809D01*
X129161904Y-42691904D01*
X129114285Y-42787142D01*
X129066666Y-42834761D01*
X128971428Y-42882380D01*
X128685714Y-42882380D01*
X128590476Y-42834761D01*
X128542857Y-42787142D01*
D14*
%TO.C,J14*%
X143804523Y-16278095D02*
X144711666Y-16278095D01*
X144893095Y-16338571D01*
X145014047Y-16459523D01*
X145074523Y-16640952D01*
X145074523Y-16761904D01*
X145074523Y-15008095D02*
X145074523Y-15733809D01*
X145074523Y-15370952D02*
X143804523Y-15370952D01*
X143985952Y-15491904D01*
X144106904Y-15612857D01*
X144167380Y-15733809D01*
X144227857Y-13919523D02*
X145074523Y-13919523D01*
X143744047Y-14221904D02*
X144651190Y-14524285D01*
X144651190Y-13738095D01*
D13*
%TO.C,J5*%
X61765467Y-2950410D02*
X61765467Y-3667266D01*
X61717676Y-3810637D01*
X61622096Y-3906218D01*
X61478725Y-3954008D01*
X61383144Y-3954008D01*
X62721274Y-2950410D02*
X62243371Y-2950410D01*
X62195580Y-3428314D01*
X62243371Y-3380524D01*
X62338951Y-3332733D01*
X62577903Y-3332733D01*
X62673484Y-3380524D01*
X62721274Y-3428314D01*
X62769065Y-3523895D01*
X62769065Y-3762847D01*
X62721274Y-3858427D01*
X62673484Y-3906218D01*
X62577903Y-3954008D01*
X62338951Y-3954008D01*
X62243371Y-3906218D01*
X62195580Y-3858427D01*
%TO.C,J2*%
X21966666Y-56652380D02*
X21966666Y-57366666D01*
X21919047Y-57509523D01*
X21823809Y-57604761D01*
X21680952Y-57652380D01*
X21585714Y-57652380D01*
X22395238Y-56747619D02*
X22442857Y-56700000D01*
X22538095Y-56652380D01*
X22776190Y-56652380D01*
X22871428Y-56700000D01*
X22919047Y-56747619D01*
X22966666Y-56842857D01*
X22966666Y-56938095D01*
X22919047Y-57080952D01*
X22347619Y-57652380D01*
X22966666Y-57652380D01*
%TO.C,Y1*%
X23853809Y-27616190D02*
X23853809Y-28092380D01*
X23520476Y-27092380D02*
X23853809Y-27616190D01*
X24187142Y-27092380D01*
X25044285Y-28092380D02*
X24472857Y-28092380D01*
X24758571Y-28092380D02*
X24758571Y-27092380D01*
X24663333Y-27235238D01*
X24568095Y-27330476D01*
X24472857Y-27378095D01*
%TO.C,C14*%
X26357142Y-12307142D02*
X26309523Y-12354761D01*
X26166666Y-12402380D01*
X26071428Y-12402380D01*
X25928571Y-12354761D01*
X25833333Y-12259523D01*
X25785714Y-12164285D01*
X25738095Y-11973809D01*
X25738095Y-11830952D01*
X25785714Y-11640476D01*
X25833333Y-11545238D01*
X25928571Y-11450000D01*
X26071428Y-11402380D01*
X26166666Y-11402380D01*
X26309523Y-11450000D01*
X26357142Y-11497619D01*
X27309523Y-12402380D02*
X26738095Y-12402380D01*
X27023809Y-12402380D02*
X27023809Y-11402380D01*
X26928571Y-11545238D01*
X26833333Y-11640476D01*
X26738095Y-11688095D01*
X28166666Y-11735714D02*
X28166666Y-12402380D01*
X27928571Y-11354761D02*
X27690476Y-12069047D01*
X28309523Y-12069047D01*
%TO.C,U5*%
X36609805Y-58092380D02*
X36609805Y-58901904D01*
X36657424Y-58997142D01*
X36705043Y-59044761D01*
X36800281Y-59092380D01*
X36990757Y-59092380D01*
X37085995Y-59044761D01*
X37133614Y-58997142D01*
X37181233Y-58901904D01*
X37181233Y-58092380D01*
X38133614Y-58092380D02*
X37657424Y-58092380D01*
X37609805Y-58568571D01*
X37657424Y-58520952D01*
X37752662Y-58473333D01*
X37990757Y-58473333D01*
X38085995Y-58520952D01*
X38133614Y-58568571D01*
X38181233Y-58663809D01*
X38181233Y-58901904D01*
X38133614Y-58997142D01*
X38085995Y-59044761D01*
X37990757Y-59092380D01*
X37752662Y-59092380D01*
X37657424Y-59044761D01*
X37609805Y-58997142D01*
%TO.C,J6*%
X27852380Y-3533333D02*
X28566666Y-3533333D01*
X28709523Y-3580952D01*
X28804761Y-3676190D01*
X28852380Y-3819047D01*
X28852380Y-3914285D01*
X27852380Y-2628571D02*
X27852380Y-2819047D01*
X27900000Y-2914285D01*
X27947619Y-2961904D01*
X28090476Y-3057142D01*
X28280952Y-3104761D01*
X28661904Y-3104761D01*
X28757142Y-3057142D01*
X28804761Y-3009523D01*
X28852380Y-2914285D01*
X28852380Y-2723809D01*
X28804761Y-2628571D01*
X28757142Y-2580952D01*
X28661904Y-2533333D01*
X28423809Y-2533333D01*
X28328571Y-2580952D01*
X28280952Y-2628571D01*
X28233333Y-2723809D01*
X28233333Y-2914285D01*
X28280952Y-3009523D01*
X28328571Y-3057142D01*
X28423809Y-3104761D01*
%TO.C,J3*%
X9247619Y-37336666D02*
X8533333Y-37336666D01*
X8390476Y-37289047D01*
X8295238Y-37193809D01*
X8247619Y-37050952D01*
X8247619Y-36955714D01*
X9247619Y-37717619D02*
X9247619Y-38336666D01*
X8866666Y-38003333D01*
X8866666Y-38146190D01*
X8819047Y-38241428D01*
X8771428Y-38289047D01*
X8676190Y-38336666D01*
X8438095Y-38336666D01*
X8342857Y-38289047D01*
X8295238Y-38241428D01*
X8247619Y-38146190D01*
X8247619Y-37860476D01*
X8295238Y-37765238D01*
X8342857Y-37717619D01*
%TO.C,J10*%
X47082380Y-67059523D02*
X47796666Y-67059523D01*
X47939523Y-67107142D01*
X48034761Y-67202380D01*
X48082380Y-67345238D01*
X48082380Y-67440476D01*
X48082380Y-66059523D02*
X48082380Y-66630952D01*
X48082380Y-66345238D02*
X47082380Y-66345238D01*
X47225238Y-66440476D01*
X47320476Y-66535714D01*
X47368095Y-66630952D01*
X47082380Y-65440476D02*
X47082380Y-65345238D01*
X47130000Y-65250000D01*
X47177619Y-65202380D01*
X47272857Y-65154761D01*
X47463333Y-65107142D01*
X47701428Y-65107142D01*
X47891904Y-65154761D01*
X47987142Y-65202380D01*
X48034761Y-65250000D01*
X48082380Y-65345238D01*
X48082380Y-65440476D01*
X48034761Y-65535714D01*
X47987142Y-65583333D01*
X47891904Y-65630952D01*
X47701428Y-65678571D01*
X47463333Y-65678571D01*
X47272857Y-65630952D01*
X47177619Y-65583333D01*
X47130000Y-65535714D01*
X47082380Y-65440476D01*
%TO.C,U6*%
X36634805Y-53282380D02*
X36634805Y-54091904D01*
X36682424Y-54187142D01*
X36730043Y-54234761D01*
X36825281Y-54282380D01*
X37015757Y-54282380D01*
X37110995Y-54234761D01*
X37158614Y-54187142D01*
X37206233Y-54091904D01*
X37206233Y-53282380D01*
X38110995Y-53282380D02*
X37920519Y-53282380D01*
X37825281Y-53330000D01*
X37777662Y-53377619D01*
X37682424Y-53520476D01*
X37634805Y-53710952D01*
X37634805Y-54091904D01*
X37682424Y-54187142D01*
X37730043Y-54234761D01*
X37825281Y-54282380D01*
X38015757Y-54282380D01*
X38110995Y-54234761D01*
X38158614Y-54187142D01*
X38206233Y-54091904D01*
X38206233Y-53853809D01*
X38158614Y-53758571D01*
X38110995Y-53710952D01*
X38015757Y-53663333D01*
X37825281Y-53663333D01*
X37730043Y-53710952D01*
X37682424Y-53758571D01*
X37634805Y-53853809D01*
%TO.C,U7*%
X13972380Y-11153614D02*
X14781904Y-11153614D01*
X14877142Y-11105995D01*
X14924761Y-11058376D01*
X14972380Y-10963138D01*
X14972380Y-10772662D01*
X14924761Y-10677424D01*
X14877142Y-10629805D01*
X14781904Y-10582186D01*
X13972380Y-10582186D01*
X13972380Y-10201233D02*
X13972380Y-9534567D01*
X14972380Y-9963138D01*
%TO.C,R24*%
X126057142Y-30022380D02*
X125723809Y-29546190D01*
X125485714Y-30022380D02*
X125485714Y-29022380D01*
X125866666Y-29022380D01*
X125961904Y-29070000D01*
X126009523Y-29117619D01*
X126057142Y-29212857D01*
X126057142Y-29355714D01*
X126009523Y-29450952D01*
X125961904Y-29498571D01*
X125866666Y-29546190D01*
X125485714Y-29546190D01*
X126438095Y-29117619D02*
X126485714Y-29070000D01*
X126580952Y-29022380D01*
X126819047Y-29022380D01*
X126914285Y-29070000D01*
X126961904Y-29117619D01*
X127009523Y-29212857D01*
X127009523Y-29308095D01*
X126961904Y-29450952D01*
X126390476Y-30022380D01*
X127009523Y-30022380D01*
X127866666Y-29355714D02*
X127866666Y-30022380D01*
X127628571Y-28974761D02*
X127390476Y-29689047D01*
X128009523Y-29689047D01*
D14*
%TO.C,J13*%
X143804523Y-30778095D02*
X144711666Y-30778095D01*
X144893095Y-30838571D01*
X145014047Y-30959523D01*
X145074523Y-31140952D01*
X145074523Y-31261904D01*
X145074523Y-29508095D02*
X145074523Y-30233809D01*
X145074523Y-29870952D02*
X143804523Y-29870952D01*
X143985952Y-29991904D01*
X144106904Y-30112857D01*
X144167380Y-30233809D01*
X143804523Y-29084761D02*
X143804523Y-28298571D01*
X144288333Y-28721904D01*
X144288333Y-28540476D01*
X144348809Y-28419523D01*
X144409285Y-28359047D01*
X144530238Y-28298571D01*
X144832619Y-28298571D01*
X144953571Y-28359047D01*
X145014047Y-28419523D01*
X145074523Y-28540476D01*
X145074523Y-28903333D01*
X145014047Y-29024285D01*
X144953571Y-29084761D01*
D13*
%TO.C,R31*%
X126822380Y-29542857D02*
X126346190Y-29876190D01*
X126822380Y-30114285D02*
X125822380Y-30114285D01*
X125822380Y-29733333D01*
X125870000Y-29638095D01*
X125917619Y-29590476D01*
X126012857Y-29542857D01*
X126155714Y-29542857D01*
X126250952Y-29590476D01*
X126298571Y-29638095D01*
X126346190Y-29733333D01*
X126346190Y-30114285D01*
X125822380Y-29209523D02*
X125822380Y-28590476D01*
X126203333Y-28923809D01*
X126203333Y-28780952D01*
X126250952Y-28685714D01*
X126298571Y-28638095D01*
X126393809Y-28590476D01*
X126631904Y-28590476D01*
X126727142Y-28638095D01*
X126774761Y-28685714D01*
X126822380Y-28780952D01*
X126822380Y-29066666D01*
X126774761Y-29161904D01*
X126727142Y-29209523D01*
X126822380Y-27638095D02*
X126822380Y-28209523D01*
X126822380Y-27923809D02*
X125822380Y-27923809D01*
X125965238Y-28019047D01*
X126060476Y-28114285D01*
X126108095Y-28209523D01*
D14*
%TO.C,J12*%
X143804523Y-45278095D02*
X144711666Y-45278095D01*
X144893095Y-45338571D01*
X145014047Y-45459523D01*
X145074523Y-45640952D01*
X145074523Y-45761904D01*
X145074523Y-44008095D02*
X145074523Y-44733809D01*
X145074523Y-44370952D02*
X143804523Y-44370952D01*
X143985952Y-44491904D01*
X144106904Y-44612857D01*
X144167380Y-44733809D01*
X143925476Y-43524285D02*
X143865000Y-43463809D01*
X143804523Y-43342857D01*
X143804523Y-43040476D01*
X143865000Y-42919523D01*
X143925476Y-42859047D01*
X144046428Y-42798571D01*
X144167380Y-42798571D01*
X144348809Y-42859047D01*
X145074523Y-43584761D01*
X145074523Y-42798571D01*
D13*
%TO.C,R34*%
X127257142Y-44582380D02*
X126923809Y-44106190D01*
X126685714Y-44582380D02*
X126685714Y-43582380D01*
X127066666Y-43582380D01*
X127161904Y-43630000D01*
X127209523Y-43677619D01*
X127257142Y-43772857D01*
X127257142Y-43915714D01*
X127209523Y-44010952D01*
X127161904Y-44058571D01*
X127066666Y-44106190D01*
X126685714Y-44106190D01*
X127590476Y-43582380D02*
X128209523Y-43582380D01*
X127876190Y-43963333D01*
X128019047Y-43963333D01*
X128114285Y-44010952D01*
X128161904Y-44058571D01*
X128209523Y-44153809D01*
X128209523Y-44391904D01*
X128161904Y-44487142D01*
X128114285Y-44534761D01*
X128019047Y-44582380D01*
X127733333Y-44582380D01*
X127638095Y-44534761D01*
X127590476Y-44487142D01*
X129066666Y-43915714D02*
X129066666Y-44582380D01*
X128828571Y-43534761D02*
X128590476Y-44249047D01*
X129209523Y-44249047D01*
%TO.C,U2*%
X115038095Y-60452380D02*
X115038095Y-61261904D01*
X115085714Y-61357142D01*
X115133333Y-61404761D01*
X115228571Y-61452380D01*
X115419047Y-61452380D01*
X115514285Y-61404761D01*
X115561904Y-61357142D01*
X115609523Y-61261904D01*
X115609523Y-60452380D01*
X116038095Y-60547619D02*
X116085714Y-60500000D01*
X116180952Y-60452380D01*
X116419047Y-60452380D01*
X116514285Y-60500000D01*
X116561904Y-60547619D01*
X116609523Y-60642857D01*
X116609523Y-60738095D01*
X116561904Y-60880952D01*
X115990476Y-61452380D01*
X116609523Y-61452380D01*
D14*
%TO.C,J1*%
X4365753Y-18153503D02*
X5272896Y-18153503D01*
X5454325Y-18213979D01*
X5575277Y-18334931D01*
X5635753Y-18516360D01*
X5635753Y-18637312D01*
X5635753Y-16883503D02*
X5635753Y-17609217D01*
X5635753Y-17246360D02*
X4365753Y-17246360D01*
X4547182Y-17367312D01*
X4668134Y-17488265D01*
X4728610Y-17609217D01*
%TO.C,J11*%
X143804523Y-59778095D02*
X144711666Y-59778095D01*
X144893095Y-59838571D01*
X145014047Y-59959523D01*
X145074523Y-60140952D01*
X145074523Y-60261904D01*
X145074523Y-58508095D02*
X145074523Y-59233809D01*
X145074523Y-58870952D02*
X143804523Y-58870952D01*
X143985952Y-58991904D01*
X144106904Y-59112857D01*
X144167380Y-59233809D01*
X145074523Y-57298571D02*
X145074523Y-58024285D01*
X145074523Y-57661428D02*
X143804523Y-57661428D01*
X143985952Y-57782380D01*
X144106904Y-57903333D01*
X144167380Y-58024285D01*
D13*
%TO.C,U9*%
X93952380Y-14908782D02*
X94761904Y-14908782D01*
X94857142Y-14861163D01*
X94904761Y-14813544D01*
X94952380Y-14718306D01*
X94952380Y-14527830D01*
X94904761Y-14432592D01*
X94857142Y-14384973D01*
X94761904Y-14337354D01*
X93952380Y-14337354D01*
X94952380Y-13813544D02*
X94952380Y-13623068D01*
X94904761Y-13527830D01*
X94857142Y-13480211D01*
X94714285Y-13384973D01*
X94523809Y-13337354D01*
X94142857Y-13337354D01*
X94047619Y-13384973D01*
X94000000Y-13432592D01*
X93952380Y-13527830D01*
X93952380Y-13718306D01*
X94000000Y-13813544D01*
X94047619Y-13861163D01*
X94142857Y-13908782D01*
X94380952Y-13908782D01*
X94476190Y-13861163D01*
X94523809Y-13813544D01*
X94571428Y-13718306D01*
X94571428Y-13527830D01*
X94523809Y-13432592D01*
X94476190Y-13384973D01*
X94380952Y-13337354D01*
X100098380Y-11241378D02*
X100336476Y-11241378D01*
X100241238Y-11479473D02*
X100336476Y-11241378D01*
X100241238Y-11003282D01*
X100526952Y-11384235D02*
X100336476Y-11241378D01*
X100526952Y-11098520D01*
X100098380Y-11241378D02*
X100336476Y-11241378D01*
X100241238Y-11479473D02*
X100336476Y-11241378D01*
X100241238Y-11003282D01*
X100526952Y-11384235D02*
X100336476Y-11241378D01*
X100526952Y-11098520D01*
%TO.C,C11*%
X29162142Y-30832857D02*
X29209761Y-30880476D01*
X29257380Y-31023333D01*
X29257380Y-31118571D01*
X29209761Y-31261428D01*
X29114523Y-31356666D01*
X29019285Y-31404285D01*
X28828809Y-31451904D01*
X28685952Y-31451904D01*
X28495476Y-31404285D01*
X28400238Y-31356666D01*
X28305000Y-31261428D01*
X28257380Y-31118571D01*
X28257380Y-31023333D01*
X28305000Y-30880476D01*
X28352619Y-30832857D01*
X29257380Y-29880476D02*
X29257380Y-30451904D01*
X29257380Y-30166190D02*
X28257380Y-30166190D01*
X28400238Y-30261428D01*
X28495476Y-30356666D01*
X28543095Y-30451904D01*
X29257380Y-28928095D02*
X29257380Y-29499523D01*
X29257380Y-29213809D02*
X28257380Y-29213809D01*
X28400238Y-29309047D01*
X28495476Y-29404285D01*
X28543095Y-29499523D01*
%TO.C,C16*%
X20162142Y-30862857D02*
X20209761Y-30910476D01*
X20257380Y-31053333D01*
X20257380Y-31148571D01*
X20209761Y-31291428D01*
X20114523Y-31386666D01*
X20019285Y-31434285D01*
X19828809Y-31481904D01*
X19685952Y-31481904D01*
X19495476Y-31434285D01*
X19400238Y-31386666D01*
X19305000Y-31291428D01*
X19257380Y-31148571D01*
X19257380Y-31053333D01*
X19305000Y-30910476D01*
X19352619Y-30862857D01*
X20257380Y-29910476D02*
X20257380Y-30481904D01*
X20257380Y-30196190D02*
X19257380Y-30196190D01*
X19400238Y-30291428D01*
X19495476Y-30386666D01*
X19543095Y-30481904D01*
X19257380Y-29053333D02*
X19257380Y-29243809D01*
X19305000Y-29339047D01*
X19352619Y-29386666D01*
X19495476Y-29481904D01*
X19685952Y-29529523D01*
X20066904Y-29529523D01*
X20162142Y-29481904D01*
X20209761Y-29434285D01*
X20257380Y-29339047D01*
X20257380Y-29148571D01*
X20209761Y-29053333D01*
X20162142Y-29005714D01*
X20066904Y-28958095D01*
X19828809Y-28958095D01*
X19733571Y-29005714D01*
X19685952Y-29053333D01*
X19638333Y-29148571D01*
X19638333Y-29339047D01*
X19685952Y-29434285D01*
X19733571Y-29481904D01*
X19828809Y-29529523D01*
%TO.C,J7*%
X38866666Y-67852380D02*
X38866666Y-68566666D01*
X38819047Y-68709523D01*
X38723809Y-68804761D01*
X38580952Y-68852380D01*
X38485714Y-68852380D01*
X39247619Y-67852380D02*
X39914285Y-67852380D01*
X39485714Y-68852380D01*
%TO.C,J4*%
X17415467Y-3200410D02*
X17415467Y-3917266D01*
X17367676Y-4060637D01*
X17272096Y-4156218D01*
X17128725Y-4204008D01*
X17033144Y-4204008D01*
X18323484Y-3534943D02*
X18323484Y-4204008D01*
X18084532Y-3152620D02*
X17845580Y-3869475D01*
X18466855Y-3869475D01*
%TO.C,U3*%
X28970595Y-33172380D02*
X28970595Y-33981904D01*
X29018214Y-34077142D01*
X29065833Y-34124761D01*
X29161071Y-34172380D01*
X29351547Y-34172380D01*
X29446785Y-34124761D01*
X29494404Y-34077142D01*
X29542023Y-33981904D01*
X29542023Y-33172380D01*
X29922976Y-33172380D02*
X30542023Y-33172380D01*
X30208690Y-33553333D01*
X30351547Y-33553333D01*
X30446785Y-33600952D01*
X30494404Y-33648571D01*
X30542023Y-33743809D01*
X30542023Y-33981904D01*
X30494404Y-34077142D01*
X30446785Y-34124761D01*
X30351547Y-34172380D01*
X30065833Y-34172380D01*
X29970595Y-34124761D01*
X29922976Y-34077142D01*
D14*
%TO.C,PS1*%
X83274523Y-16242142D02*
X82004523Y-16242142D01*
X82004523Y-15758333D01*
X82065000Y-15637380D01*
X82125476Y-15576904D01*
X82246428Y-15516428D01*
X82427857Y-15516428D01*
X82548809Y-15576904D01*
X82609285Y-15637380D01*
X82669761Y-15758333D01*
X82669761Y-16242142D01*
X83214047Y-15032619D02*
X83274523Y-14851190D01*
X83274523Y-14548809D01*
X83214047Y-14427857D01*
X83153571Y-14367380D01*
X83032619Y-14306904D01*
X82911666Y-14306904D01*
X82790714Y-14367380D01*
X82730238Y-14427857D01*
X82669761Y-14548809D01*
X82609285Y-14790714D01*
X82548809Y-14911666D01*
X82488333Y-14972142D01*
X82367380Y-15032619D01*
X82246428Y-15032619D01*
X82125476Y-14972142D01*
X82065000Y-14911666D01*
X82004523Y-14790714D01*
X82004523Y-14488333D01*
X82065000Y-14306904D01*
X83274523Y-13097380D02*
X83274523Y-13823095D01*
X83274523Y-13460238D02*
X82004523Y-13460238D01*
X82185952Y-13581190D01*
X82306904Y-13702142D01*
X82367380Y-13823095D01*
D15*
%TO.C,C10*%
X28760000Y-44792164D02*
X28760000Y-45007836D01*
X28040000Y-44792164D02*
X28040000Y-45007836D01*
%TO.C,R53*%
X91377500Y-19737258D02*
X91377500Y-19262742D01*
X92422500Y-19737258D02*
X92422500Y-19262742D01*
%TO.C,C62*%
X113492164Y-64640000D02*
X113707836Y-64640000D01*
X113492164Y-65360000D02*
X113707836Y-65360000D01*
%TO.C,R1*%
X33446359Y-73420000D02*
X33753641Y-73420000D01*
X33446359Y-74180000D02*
X33753641Y-74180000D01*
%TO.C,R43*%
X96277500Y-7862742D02*
X96277500Y-8337258D01*
X97322500Y-7862742D02*
X97322500Y-8337258D01*
%TO.C,C51*%
X136392164Y-37740000D02*
X136607836Y-37740000D01*
X136392164Y-38460000D02*
X136607836Y-38460000D01*
%TO.C,C8*%
X18561252Y-30935000D02*
X18038748Y-30935000D01*
X18561252Y-29465000D02*
X18038748Y-29465000D01*
%TO.C,C57*%
X132792164Y-36040000D02*
X133007836Y-36040000D01*
X132792164Y-35320000D02*
X133007836Y-35320000D01*
D16*
%TO.C,U12*%
X86300000Y-24925000D02*
X86300000Y-24925000D01*
X86400000Y-24925000D02*
X86400000Y-24925000D01*
X86400000Y-24925000D02*
G75*
G03*
X86300000Y-24925000I-50000J0D01*
G01*
X86300000Y-24925000D02*
G75*
G03*
X86400000Y-24925000I50000J0D01*
G01*
D15*
%TO.C,U1*%
X10560000Y-6500000D02*
X10560000Y-5850000D01*
X7440000Y-6500000D02*
X7440000Y-5850000D01*
X10560000Y-6500000D02*
X10560000Y-7150000D01*
X7440000Y-6500000D02*
X7440000Y-8175000D01*
%TO.C,R33*%
X127746359Y-43220000D02*
X128053641Y-43220000D01*
X127746359Y-43980000D02*
X128053641Y-43980000D01*
%TO.C,C18*%
X39865000Y-7261252D02*
X39865000Y-6738748D01*
X41335000Y-7261252D02*
X41335000Y-6738748D01*
%TO.C,C21*%
X20760000Y-70707836D02*
X20760000Y-70492164D01*
X20040000Y-70707836D02*
X20040000Y-70492164D01*
%TO.C,U8*%
X33320000Y-71530000D02*
X34120000Y-71530000D01*
X33320000Y-68410000D02*
X31520000Y-68410000D01*
X33320000Y-68410000D02*
X34120000Y-68410000D01*
X33320000Y-71530000D02*
X32520000Y-71530000D01*
D16*
%TO.C,J14*%
X145925000Y-21250000D02*
X140700000Y-21250000D01*
X145925000Y-9250000D02*
X140700000Y-9250000D01*
X149950000Y-19450000D02*
X149950000Y-11050000D01*
X140700000Y-21250000D02*
X140700000Y-19050000D01*
X140700000Y-9250000D02*
X140700000Y-11450000D01*
D15*
%TO.C,C2*%
X11140000Y-7107836D02*
X11140000Y-6892164D01*
X11860000Y-7107836D02*
X11860000Y-6892164D01*
%TO.C,C38*%
X17410000Y-44417836D02*
X17410000Y-44202164D01*
X18130000Y-44417836D02*
X18130000Y-44202164D01*
%TO.C,R49*%
X116777500Y-54137258D02*
X116777500Y-53662742D01*
X117822500Y-54137258D02*
X117822500Y-53662742D01*
%TO.C,C68*%
X120340000Y-17507836D02*
X120340000Y-17292164D01*
X121060000Y-17507836D02*
X121060000Y-17292164D01*
%TO.C,C37*%
X16310000Y-44417836D02*
X16310000Y-44202164D01*
X17030000Y-44417836D02*
X17030000Y-44202164D01*
D17*
%TO.C,J5*%
X66570000Y20000D02*
X57630000Y20000D01*
X57630000Y-3450000D02*
X57630000Y-5650000D01*
X66570000Y-3450000D02*
X66570000Y-5650000D01*
D18*
X65248000Y-8830000D02*
G75*
G03*
X65248000Y-8830000I-100000J0D01*
G01*
D15*
%TO.C,J2*%
X25377500Y-67387500D02*
X24377500Y-67387500D01*
X24377500Y-67387500D02*
X24877500Y-66787500D01*
X25377500Y-67387500D02*
X24877500Y-66787500D01*
X-1372500Y-49667500D02*
X-1372500Y-66657500D01*
X31847500Y-49667500D02*
X31847500Y-66657500D01*
X7957500Y-49667500D02*
X31847500Y-49667500D01*
X31847500Y-66657500D02*
X7967500Y-66657500D01*
X-1372500Y-66657500D02*
X4957500Y-66657500D01*
X-1372500Y-49667500D02*
X4967500Y-49667500D01*
%TO.C,Y1*%
X26300000Y-28590000D02*
X22300000Y-28590000D01*
X26300000Y-31790000D02*
X26300000Y-28590000D01*
%TO.C,C25*%
X36735000Y-7261252D02*
X36735000Y-6738748D01*
X35265000Y-7261252D02*
X35265000Y-6738748D01*
%TO.C,C41*%
X84992164Y-23760000D02*
X85207836Y-23760000D01*
X84992164Y-23040000D02*
X85207836Y-23040000D01*
%TO.C,C14*%
X25250000Y-11110000D02*
X29460000Y-11110000D01*
X29460000Y-8090000D02*
X25250000Y-8090000D01*
X29460000Y-11110000D02*
X29460000Y-8090000D01*
%TO.C,R14*%
X8846359Y-3120000D02*
X9153641Y-3120000D01*
X8846359Y-3880000D02*
X9153641Y-3880000D01*
%TO.C,C5*%
X32950000Y-40122164D02*
X32950000Y-40337836D01*
X32230000Y-40122164D02*
X32230000Y-40337836D01*
%TO.C,C22*%
X19497836Y-37510000D02*
X19282164Y-37510000D01*
X19497836Y-38230000D02*
X19282164Y-38230000D01*
%TO.C,C73*%
X51750000Y-8410000D02*
X55960000Y-8410000D01*
X55960000Y-8410000D02*
X55960000Y-5390000D01*
X55960000Y-5390000D02*
X51750000Y-5390000D01*
%TO.C,R35*%
X124106359Y-4710000D02*
X124413641Y-4710000D01*
X124106359Y-5470000D02*
X124413641Y-5470000D01*
%TO.C,C71*%
X134665000Y-17507836D02*
X134665000Y-17292164D01*
X135385000Y-17507836D02*
X135385000Y-17292164D01*
%TO.C,CM4_MODULE1*%
X39590000Y-46000000D02*
X39590000Y-45000000D01*
X39590000Y-23200000D02*
X35810000Y-23200000D01*
X69810000Y-23200000D02*
X69810000Y-24200000D01*
X38200000Y-64600000D02*
X71200000Y-64600000D01*
X73510000Y-46000000D02*
X69810000Y-46000000D01*
X39590000Y-23200000D02*
X39590000Y-24200000D01*
X74700000Y-61100000D02*
X74700000Y-13100000D01*
X39590000Y-46000000D02*
X35810000Y-46000000D01*
X71200000Y-9600000D02*
X38200000Y-9600000D01*
X73510000Y-23200000D02*
X69810000Y-23200000D01*
X34700000Y-13100000D02*
X34700000Y-61100000D01*
X35810000Y-46000000D02*
X35810000Y-45000000D01*
X35810000Y-23200000D02*
X35810000Y-24200000D01*
X73510000Y-23200000D02*
X73510000Y-24200000D01*
X74700000Y-13100000D02*
G75*
G03*
X71200000Y-9600000I-3499999J1D01*
G01*
X34700000Y-61100000D02*
G75*
G03*
X38200000Y-64600000I3500000J0D01*
G01*
X71200000Y-64600000D02*
G75*
G03*
X74700000Y-61100000I1J3499999D01*
G01*
X38200000Y-9600000D02*
G75*
G03*
X34700000Y-13100000I0J-3500000D01*
G01*
%TO.C,U5*%
X36890000Y-54740000D02*
X37890000Y-54740000D01*
X36890000Y-57540000D02*
X38190000Y-57540000D01*
%TO.C,C3*%
X30238748Y-6735000D02*
X30761252Y-6735000D01*
X30238748Y-5265000D02*
X30761252Y-5265000D01*
%TO.C,C54*%
X128440000Y-41592164D02*
X128440000Y-41807836D01*
X129160000Y-41592164D02*
X129160000Y-41807836D01*
%TO.C,C13*%
X31490000Y-42162164D02*
X31490000Y-42377836D01*
X30770000Y-42162164D02*
X30770000Y-42377836D01*
%TO.C,J6*%
X55190000Y-4330000D02*
X55190000Y-1670000D01*
X32270000Y-1670000D02*
X55190000Y-1670000D01*
X32270000Y-4330000D02*
X32270000Y-1670000D01*
X32270000Y-4330000D02*
X55190000Y-4330000D01*
X31000000Y-4330000D02*
X29670000Y-4330000D01*
X29670000Y-4330000D02*
X29670000Y-3000000D01*
%TO.C,C46*%
X123407836Y-35240000D02*
X123192164Y-35240000D01*
X123407836Y-35960000D02*
X123192164Y-35960000D01*
%TO.C,R48*%
X115622500Y-54137258D02*
X115622500Y-53662742D01*
X114577500Y-54137258D02*
X114577500Y-53662742D01*
%TO.C,C45*%
X128060000Y-32107836D02*
X128060000Y-31892164D01*
X127340000Y-32107836D02*
X127340000Y-31892164D01*
%TO.C,R25*%
X128237258Y-29277500D02*
X127762742Y-29277500D01*
X128237258Y-30322500D02*
X127762742Y-30322500D01*
%TO.C,R11*%
X32646359Y-45120000D02*
X32953641Y-45120000D01*
X32646359Y-45880000D02*
X32953641Y-45880000D01*
%TO.C,R27*%
X120346359Y-35180000D02*
X120653641Y-35180000D01*
X120346359Y-34420000D02*
X120653641Y-34420000D01*
%TO.C,C1*%
X6407836Y-7760000D02*
X6192164Y-7760000D01*
X6407836Y-7040000D02*
X6192164Y-7040000D01*
%TO.C,J3*%
X6200000Y-44560000D02*
X-1440000Y-44560000D01*
X-1440000Y-30780000D02*
X6200000Y-30780000D01*
X-1440000Y-30780000D02*
X-1440000Y-44560000D01*
X16060000Y-30780000D02*
X16060000Y-44560000D01*
%TO.C,J10*%
X74150000Y-67580000D02*
X74150000Y-64920000D01*
X51230000Y-64920000D02*
X74150000Y-64920000D01*
X51230000Y-67580000D02*
X74150000Y-67580000D01*
X49960000Y-67580000D02*
X48630000Y-67580000D01*
X51230000Y-67580000D02*
X51230000Y-64920000D01*
X48630000Y-67580000D02*
X48630000Y-66250000D01*
%TO.C,R44*%
X94722500Y-7862742D02*
X94722500Y-8337258D01*
X93677500Y-7862742D02*
X93677500Y-8337258D01*
%TO.C,U6*%
X36915000Y-49930000D02*
X37915000Y-49930000D01*
X36915000Y-52730000D02*
X38215000Y-52730000D01*
%TO.C,C44*%
X124940000Y-32107836D02*
X124940000Y-31892164D01*
X125660000Y-32107836D02*
X125660000Y-31892164D01*
%TO.C,R21*%
X72346359Y-8620000D02*
X72653641Y-8620000D01*
X72346359Y-9380000D02*
X72653641Y-9380000D01*
%TO.C,C15*%
X31582164Y-35400000D02*
X31797836Y-35400000D01*
X31582164Y-34680000D02*
X31797836Y-34680000D01*
%TO.C,R18*%
X11096359Y-1380000D02*
X11403641Y-1380000D01*
X11096359Y-620000D02*
X11403641Y-620000D01*
%TO.C,C58*%
X101960000Y-11592164D02*
X101960000Y-11807836D01*
X101240000Y-11592164D02*
X101240000Y-11807836D01*
%TO.C,C63*%
X84992164Y-20840000D02*
X85207836Y-20840000D01*
X84992164Y-21560000D02*
X85207836Y-21560000D01*
%TO.C,R46*%
X111977500Y-68062742D02*
X111977500Y-68537258D01*
X113022500Y-68062742D02*
X113022500Y-68537258D01*
%TO.C,R51*%
X93077500Y-19737258D02*
X93077500Y-19262742D01*
X94122500Y-19737258D02*
X94122500Y-19262742D01*
%TO.C,C33*%
X26360000Y-44792164D02*
X26360000Y-45007836D01*
X25640000Y-44792164D02*
X25640000Y-45007836D01*
%TO.C,C65*%
X113307836Y-56560000D02*
X113092164Y-56560000D01*
X113307836Y-55840000D02*
X113092164Y-55840000D01*
%TO.C,R20*%
X70346359Y-8130000D02*
X70653641Y-8130000D01*
X70346359Y-7370000D02*
X70653641Y-7370000D01*
D16*
%TO.C,U11*%
X133700000Y-12875000D02*
X133700000Y-12875000D01*
X133800000Y-12875000D02*
X133800000Y-12875000D01*
X133700000Y-12875000D02*
G75*
G03*
X133800000Y-12875000I50000J0D01*
G01*
X133800000Y-12875000D02*
G75*
G03*
X133700000Y-12875000I-50000J0D01*
G01*
D15*
%TO.C,U7*%
X15620000Y-9910000D02*
X15620000Y-11210000D01*
X18420000Y-9910000D02*
X18420000Y-10910000D01*
%TO.C,R24*%
X126853641Y-28020000D02*
X126546359Y-28020000D01*
X126853641Y-28780000D02*
X126546359Y-28780000D01*
%TO.C,C60*%
X85192164Y-6440000D02*
X85407836Y-6440000D01*
X85192164Y-7160000D02*
X85407836Y-7160000D01*
D16*
%TO.C,J13*%
X145925000Y-35750000D02*
X140700000Y-35750000D01*
X145925000Y-23750000D02*
X140700000Y-23750000D01*
X140700000Y-23750000D02*
X140700000Y-25950000D01*
X140700000Y-35750000D02*
X140700000Y-33550000D01*
X149950000Y-33950000D02*
X149950000Y-25550000D01*
D15*
%TO.C,R12*%
X11403641Y-3120000D02*
X11096359Y-3120000D01*
X11403641Y-3880000D02*
X11096359Y-3880000D01*
%TO.C,R45*%
X93122500Y-7862742D02*
X93122500Y-8337258D01*
X92077500Y-7862742D02*
X92077500Y-8337258D01*
%TO.C,C53*%
X132792164Y-38060000D02*
X133007836Y-38060000D01*
X132792164Y-37340000D02*
X133007836Y-37340000D01*
%TO.C,R50*%
X96477500Y-19737258D02*
X96477500Y-19262742D01*
X97522500Y-19737258D02*
X97522500Y-19262742D01*
%TO.C,C61*%
X85192164Y-8360000D02*
X85407836Y-8360000D01*
X85192164Y-7640000D02*
X85407836Y-7640000D01*
%TO.C,R7*%
X25790000Y-69046359D02*
X25790000Y-69353641D01*
X26550000Y-69046359D02*
X26550000Y-69353641D01*
%TO.C,R22*%
X72653641Y-7370000D02*
X72346359Y-7370000D01*
X72653641Y-8130000D02*
X72346359Y-8130000D01*
%TO.C,C17*%
X25235000Y-71001252D02*
X25235000Y-70478748D01*
X23765000Y-71001252D02*
X23765000Y-70478748D01*
%TO.C,C35*%
X18422164Y-34150000D02*
X18637836Y-34150000D01*
X18422164Y-33430000D02*
X18637836Y-33430000D01*
%TO.C,R13*%
X11096359Y-1870000D02*
X11403641Y-1870000D01*
X11096359Y-2630000D02*
X11403641Y-2630000D01*
%TO.C,R31*%
X124820000Y-28746359D02*
X124820000Y-29053641D01*
X125580000Y-28746359D02*
X125580000Y-29053641D01*
%TO.C,C66*%
X101140000Y-17592164D02*
X101140000Y-17807836D01*
X101860000Y-17592164D02*
X101860000Y-17807836D01*
%TO.C,L1*%
X18790000Y-27337221D02*
X18790000Y-27662779D01*
X19810000Y-27337221D02*
X19810000Y-27662779D01*
%TO.C,C47*%
X123407836Y-38640000D02*
X123192164Y-38640000D01*
X123407836Y-39360000D02*
X123192164Y-39360000D01*
D16*
%TO.C,J12*%
X145925000Y-38250000D02*
X140700000Y-38250000D01*
X140700000Y-38250000D02*
X140700000Y-40450000D01*
X140700000Y-50250000D02*
X140700000Y-48050000D01*
X149950000Y-48450000D02*
X149950000Y-40050000D01*
X145925000Y-50250000D02*
X140700000Y-50250000D01*
D15*
%TO.C,R5*%
X24130000Y-5596359D02*
X24130000Y-5903641D01*
X23370000Y-5596359D02*
X23370000Y-5903641D01*
%TO.C,R3*%
X12680000Y-27353641D02*
X12680000Y-27046359D01*
X11920000Y-27353641D02*
X11920000Y-27046359D01*
%TO.C,C50*%
X135840000Y-13392164D02*
X135840000Y-13607836D01*
X136560000Y-13392164D02*
X136560000Y-13607836D01*
%TO.C,C30*%
X19507836Y-39360000D02*
X19292164Y-39360000D01*
X19507836Y-38640000D02*
X19292164Y-38640000D01*
%TO.C,R26*%
X125900000Y-44073641D02*
X125900000Y-43766359D01*
X125140000Y-44073641D02*
X125140000Y-43766359D01*
%TO.C,R6*%
X27566359Y-68370000D02*
X27873641Y-68370000D01*
X27566359Y-69130000D02*
X27873641Y-69130000D01*
%TO.C,R23*%
X125153641Y-26420000D02*
X124846359Y-26420000D01*
X125153641Y-27180000D02*
X124846359Y-27180000D01*
%TO.C,R42*%
X97777500Y-7862742D02*
X97777500Y-8337258D01*
X98822500Y-7862742D02*
X98822500Y-8337258D01*
%TO.C,R2*%
X33753641Y-72940000D02*
X33446359Y-72940000D01*
X33753641Y-72180000D02*
X33446359Y-72180000D01*
%TO.C,C29*%
X18637836Y-36290000D02*
X18422164Y-36290000D01*
X18637836Y-35570000D02*
X18422164Y-35570000D01*
%TO.C,R34*%
X127746359Y-45680000D02*
X128053641Y-45680000D01*
X127746359Y-44920000D02*
X128053641Y-44920000D01*
%TO.C,C72*%
X27560000Y-44792164D02*
X27560000Y-45007836D01*
X26840000Y-44792164D02*
X26840000Y-45007836D01*
%TO.C,R52*%
X95822500Y-19737258D02*
X95822500Y-19262742D01*
X94777500Y-19737258D02*
X94777500Y-19262742D01*
%TO.C,C59*%
X100040000Y-11807836D02*
X100040000Y-11592164D01*
X100760000Y-11807836D02*
X100760000Y-11592164D01*
%TO.C,U2*%
X117560000Y-60700000D02*
X117560000Y-62650000D01*
X112440000Y-60700000D02*
X112440000Y-64150000D01*
X117560000Y-60700000D02*
X117560000Y-58750000D01*
X112440000Y-60700000D02*
X112440000Y-58750000D01*
%TO.C,C36*%
X18422164Y-34430000D02*
X18637836Y-34430000D01*
X18422164Y-35150000D02*
X18637836Y-35150000D01*
%TO.C,Q1*%
X13200000Y-28100000D02*
X13200000Y-26450000D01*
X15000000Y-26450000D02*
X15000000Y-27750000D01*
%TO.C,C55*%
X128440000Y-32607836D02*
X128440000Y-32392164D01*
X129160000Y-32607836D02*
X129160000Y-32392164D01*
%TO.C,C20*%
X37565000Y-7261252D02*
X37565000Y-6738748D01*
X39035000Y-7261252D02*
X39035000Y-6738748D01*
%TO.C,R36*%
X56650000Y-2983641D02*
X56650000Y-2676359D01*
X55890000Y-2983641D02*
X55890000Y-2676359D01*
%TO.C,C52*%
X136392164Y-37460000D02*
X136607836Y-37460000D01*
X136392164Y-36740000D02*
X136607836Y-36740000D01*
D14*
%TO.C,J1*%
X-1321500Y-10592500D02*
X1480500Y-10592500D01*
X-1321500Y-10592500D02*
X-1321500Y-25592500D01*
X-1321500Y-25592500D02*
X1480500Y-25592500D01*
X11956500Y-22646500D02*
G75*
G03*
X11956500Y-22646500I-114000J0D01*
G01*
D16*
%TO.C,J11*%
X149950000Y-62950000D02*
X149950000Y-54550000D01*
X145925000Y-64750000D02*
X140700000Y-64750000D01*
X140700000Y-52750000D02*
X140700000Y-54950000D01*
X140700000Y-64750000D02*
X140700000Y-62550000D01*
X145925000Y-52750000D02*
X140700000Y-52750000D01*
D15*
%TO.C,C19*%
X20530000Y-43402164D02*
X20530000Y-43617836D01*
X19810000Y-43402164D02*
X19810000Y-43617836D01*
%TO.C,C4*%
X18661252Y-25635000D02*
X18138748Y-25635000D01*
X18661252Y-24165000D02*
X18138748Y-24165000D01*
%TO.C,U9*%
X89420000Y-12064078D02*
X89420000Y-16229678D01*
X99580000Y-16229678D02*
X99580000Y-12064078D01*
D19*
X99210277Y-9946878D02*
G75*
G03*
X99210277Y-9946878I-210277J0D01*
G01*
D15*
%TO.C,C23*%
X22890000Y-33507836D02*
X22890000Y-33292164D01*
X23610000Y-33507836D02*
X23610000Y-33292164D01*
D18*
%TO.C,U10*%
X124750000Y-33750000D02*
X124750000Y-40250000D01*
X130600000Y-33750000D02*
X131250000Y-33750000D01*
X131250000Y-40250000D02*
X130600000Y-40250000D01*
X125400000Y-40250000D02*
X124750000Y-40250000D01*
X131250000Y-33750000D02*
X131250000Y-40250000D01*
X124750000Y-33750000D02*
X125400000Y-33750000D01*
D15*
%TO.C,C64*%
X84992164Y-22660000D02*
X85207836Y-22660000D01*
X84992164Y-21940000D02*
X85207836Y-21940000D01*
%TO.C,L3*%
X18382779Y-71040000D02*
X18057221Y-71040000D01*
X18382779Y-72060000D02*
X18057221Y-72060000D01*
%TO.C,R32*%
X127762742Y-26277500D02*
X128237258Y-26277500D01*
X127762742Y-27322500D02*
X128237258Y-27322500D01*
%TO.C,C11*%
X26825000Y-30082164D02*
X26825000Y-30297836D01*
X27545000Y-30082164D02*
X27545000Y-30297836D01*
%TO.C,C69*%
X122160000Y-17507836D02*
X122160000Y-17292164D01*
X121440000Y-17507836D02*
X121440000Y-17292164D01*
%TO.C,R4*%
X15520000Y-27253641D02*
X15520000Y-26946359D01*
X16280000Y-27253641D02*
X16280000Y-26946359D01*
%TO.C,R8*%
X21020000Y-32553641D02*
X21020000Y-32246359D01*
X21780000Y-32553641D02*
X21780000Y-32246359D01*
%TO.C,R28*%
X95822500Y-22562742D02*
X95822500Y-23037258D01*
X94777500Y-22562742D02*
X94777500Y-23037258D01*
%TO.C,U4*%
X26400000Y-3640000D02*
X25600000Y-3640000D01*
X26400000Y-6760000D02*
X25600000Y-6760000D01*
X26400000Y-3640000D02*
X27200000Y-3640000D01*
X26400000Y-6760000D02*
X28200000Y-6760000D01*
%TO.C,C6*%
X33950000Y-40122164D02*
X33950000Y-40337836D01*
X33230000Y-40122164D02*
X33230000Y-40337836D01*
%TO.C,C28*%
X25790000Y-33507836D02*
X25790000Y-33292164D01*
X26510000Y-33507836D02*
X26510000Y-33292164D01*
%TO.C,R29*%
X91377500Y-22562742D02*
X91377500Y-23037258D01*
X92422500Y-22562742D02*
X92422500Y-23037258D01*
%TO.C,C12*%
X29640000Y-69347836D02*
X29640000Y-69132164D01*
X28920000Y-69347836D02*
X28920000Y-69132164D01*
%TO.C,C32*%
X23240000Y-44802164D02*
X23240000Y-45017836D01*
X23960000Y-44802164D02*
X23960000Y-45017836D01*
%TO.C,C56*%
X132792164Y-37030000D02*
X133007836Y-37030000D01*
X132792164Y-36310000D02*
X133007836Y-36310000D01*
%TO.C,C16*%
X21775000Y-30327836D02*
X21775000Y-30112164D01*
X21055000Y-30327836D02*
X21055000Y-30112164D01*
%TO.C,C74*%
X120992164Y-29340000D02*
X121207836Y-29340000D01*
X120992164Y-30060000D02*
X121207836Y-30060000D01*
D18*
%TO.C,PS2*%
X131800000Y-14925000D02*
X131800000Y-25275000D01*
X131800000Y-25275000D02*
X125000000Y-25275000D01*
X125000000Y-25275000D02*
X125000000Y-14925000D01*
X122725000Y-14980000D02*
X124650000Y-14980000D01*
X125000000Y-14925000D02*
X131800000Y-14925000D01*
D15*
%TO.C,C39*%
X33412164Y-63360000D02*
X33627836Y-63360000D01*
X33412164Y-62640000D02*
X33627836Y-62640000D01*
%TO.C,R17*%
X123146359Y-40480000D02*
X123453641Y-40480000D01*
X123146359Y-39720000D02*
X123453641Y-39720000D01*
%TO.C,C34*%
X19727836Y-41040000D02*
X19512164Y-41040000D01*
X19727836Y-40320000D02*
X19512164Y-40320000D01*
%TO.C,R19*%
X70653641Y-8620000D02*
X70346359Y-8620000D01*
X70653641Y-9380000D02*
X70346359Y-9380000D01*
%TO.C,C67*%
X100760000Y-17807836D02*
X100760000Y-17592164D01*
X100040000Y-17807836D02*
X100040000Y-17592164D01*
%TO.C,J7*%
X41270000Y-69670000D02*
X64190000Y-69670000D01*
X41270000Y-72330000D02*
X41270000Y-69670000D01*
X64190000Y-72330000D02*
X64190000Y-69670000D01*
X41270000Y-72330000D02*
X64190000Y-72330000D01*
X40000000Y-72330000D02*
X38670000Y-72330000D01*
X38670000Y-72330000D02*
X38670000Y-71000000D01*
D17*
%TO.C,J4*%
X22240000Y0D02*
X13300000Y0D01*
X13300000Y-3470000D02*
X13300000Y-5670000D01*
X22240000Y-3470000D02*
X22240000Y-5670000D01*
D18*
X20918000Y-8850000D02*
G75*
G03*
X20918000Y-8850000I-100000J0D01*
G01*
D15*
%TO.C,C26*%
X16205000Y-70911252D02*
X16205000Y-70388748D01*
X14735000Y-70911252D02*
X14735000Y-70388748D01*
%TO.C,C40*%
X21465000Y-71001252D02*
X21465000Y-70478748D01*
X22935000Y-71001252D02*
X22935000Y-70478748D01*
%TO.C,R30*%
X94122500Y-22562742D02*
X94122500Y-23037258D01*
X93077500Y-22562742D02*
X93077500Y-23037258D01*
%TO.C,C27*%
X24740000Y-33507836D02*
X24740000Y-33292164D01*
X25460000Y-33507836D02*
X25460000Y-33292164D01*
%TO.C,C43*%
X126860000Y-32107836D02*
X126860000Y-31892164D01*
X126140000Y-32107836D02*
X126140000Y-31892164D01*
%TO.C,C31*%
X31582164Y-36400000D02*
X31797836Y-36400000D01*
X31582164Y-35680000D02*
X31797836Y-35680000D01*
%TO.C,C48*%
X123407836Y-36440000D02*
X123192164Y-36440000D01*
X123407836Y-37160000D02*
X123192164Y-37160000D01*
%TO.C,C24*%
X12485000Y-70911252D02*
X12485000Y-70388748D01*
X13955000Y-70911252D02*
X13955000Y-70388748D01*
%TO.C,R15*%
X9153641Y-1870000D02*
X8846359Y-1870000D01*
X9153641Y-2630000D02*
X8846359Y-2630000D01*
%TO.C,X1*%
X123000000Y-30725000D02*
X119200000Y-30725000D01*
X123000000Y-33875000D02*
X123000000Y-30725000D01*
%TO.C,C49*%
X133040000Y-13412164D02*
X133040000Y-13627836D01*
X133760000Y-13412164D02*
X133760000Y-13627836D01*
%TO.C,U3*%
X21872500Y-35650000D02*
X21872500Y-35100000D01*
X21872500Y-42770000D02*
X21872500Y-43320000D01*
X30092500Y-35100000D02*
X29542500Y-35100000D01*
X30092500Y-43320000D02*
X29542500Y-43320000D01*
X30092500Y-42770000D02*
X30092500Y-43320000D01*
X21872500Y-35100000D02*
X22422500Y-35100000D01*
X30092500Y-35650000D02*
X30092500Y-35100000D01*
%TO.C,C42*%
X86240000Y-24507836D02*
X86240000Y-24292164D01*
X86960000Y-24507836D02*
X86960000Y-24292164D01*
%TO.C,L2*%
X28061252Y-70630000D02*
X27538748Y-70630000D01*
X28061252Y-72850000D02*
X27538748Y-72850000D01*
%TO.C,C9*%
X25160000Y-44802164D02*
X25160000Y-45017836D01*
X24440000Y-44802164D02*
X24440000Y-45017836D01*
%TO.C,R16*%
X8846359Y-1380000D02*
X9153641Y-1380000D01*
X8846359Y-620000D02*
X9153641Y-620000D01*
%TO.C,R9*%
X28020000Y-33553641D02*
X28020000Y-33246359D01*
X28780000Y-33553641D02*
X28780000Y-33246359D01*
%TO.C,C7*%
X37535000Y-70061252D02*
X37535000Y-69538748D01*
X36065000Y-70061252D02*
X36065000Y-69538748D01*
D18*
%TO.C,PS1*%
X77525000Y-11300000D02*
X87875000Y-11300000D01*
X87875000Y-18100000D02*
X77525000Y-18100000D01*
X77525000Y-18100000D02*
X77525000Y-11300000D01*
X87820000Y-9025000D02*
X87820000Y-10950000D01*
X87875000Y-11300000D02*
X87875000Y-18100000D01*
D15*
%TO.C,R10*%
X32646359Y-46320000D02*
X32953641Y-46320000D01*
X32646359Y-47080000D02*
X32953641Y-47080000D01*
%TO.C,C70*%
X135840000Y-17507836D02*
X135840000Y-17292164D01*
X136560000Y-17507836D02*
X136560000Y-17292164D01*
%TO.C,R47*%
X115277500Y-68062742D02*
X115277500Y-68537258D01*
X116322500Y-68062742D02*
X116322500Y-68537258D01*
%TD*%
M02*
