%TF.GenerationSoftware,KiCad,Pcbnew,(6.0.8)*%
%TF.CreationDate,2022-12-14T13:01:19+09:00*%
%TF.ProjectId,audio,61756469-6f2e-46b6-9963-61645f706362,rev?*%
%TF.SameCoordinates,Original*%
%TF.FileFunction,Legend,Top*%
%TF.FilePolarity,Positive*%
%FSLAX46Y46*%
G04 Gerber Fmt 4.6, Leading zero omitted, Abs format (unit mm)*
G04 Created by KiCad (PCBNEW (6.0.8)) date 2022-12-14 13:01:19*
%MOMM*%
%LPD*%
G01*
G04 APERTURE LIST*
%ADD10C,1.000000*%
%ADD11C,0.750000*%
%ADD12C,0.500000*%
%ADD13C,0.150000*%
%ADD14C,0.120000*%
%ADD15C,0.100000*%
%ADD16C,0.127000*%
%ADD17C,0.200000*%
%ADD18C,0.254000*%
%ADD19C,0.420555*%
G04 APERTURE END LIST*
D10*
X94500000Y-29500000D02*
G75*
G03*
X92500000Y-27500000I-2000000J0D01*
G01*
X141500000Y-74500000D02*
X111500000Y-74500000D01*
X92500000Y-27500000D02*
X76500000Y-27500000D01*
X76500000Y-7600000D02*
X83600000Y-7600000D01*
X83600000Y-500000D02*
X133000000Y-500000D01*
X111500000Y-47500000D02*
G75*
G03*
X109500000Y-45500000I-2000000J0D01*
G01*
X111600000Y-61400000D02*
X133200000Y-61400000D01*
X128000000Y-47700000D02*
X128100000Y-13900000D01*
X109500000Y-45500000D02*
X94500000Y-45500000D01*
X133000000Y-8000000D02*
X133000000Y-500000D01*
X128000000Y-14000000D02*
X133000000Y-8000000D01*
X133200000Y-61400000D02*
X128000000Y-47700000D01*
X128100000Y-13900000D02*
X76500000Y-13900000D01*
X141500000Y-69900000D02*
X133200000Y-61400000D01*
X83600000Y-7600000D02*
X83600000Y-500000D01*
X141500000Y-69900000D02*
X141500000Y-74500000D01*
X111500000Y-47500000D02*
X111500000Y-74500000D01*
X76500000Y-27500000D02*
X76500000Y-7600000D01*
X94500000Y-45500000D02*
X94500000Y-29500000D01*
D11*
X104005267Y-29714285D02*
X104415982Y-29857142D01*
X105130267Y-29857142D01*
X105433839Y-29714285D01*
X105594553Y-29571428D01*
X105773125Y-29285714D01*
X105808839Y-29000000D01*
X105701696Y-28714285D01*
X105576696Y-28571428D01*
X105308839Y-28428571D01*
X104755267Y-28285714D01*
X104487410Y-28142857D01*
X104362410Y-28000000D01*
X104255267Y-27714285D01*
X104290982Y-27428571D01*
X104469553Y-27142857D01*
X104630267Y-27000000D01*
X104933839Y-26857142D01*
X105648125Y-26857142D01*
X106058839Y-27000000D01*
X107933839Y-26857142D02*
X108505267Y-26857142D01*
X108773125Y-27000000D01*
X109023125Y-27285714D01*
X109094553Y-27857142D01*
X108969553Y-28857142D01*
X108755267Y-29428571D01*
X108433839Y-29714285D01*
X108130267Y-29857142D01*
X107558839Y-29857142D01*
X107290982Y-29714285D01*
X107040982Y-29428571D01*
X106969553Y-28857142D01*
X107094553Y-27857142D01*
X107308839Y-27285714D01*
X107630267Y-27000000D01*
X107933839Y-26857142D01*
X110505267Y-26857142D02*
X110201696Y-29285714D01*
X110308839Y-29571428D01*
X110433839Y-29714285D01*
X110701696Y-29857142D01*
X111273125Y-29857142D01*
X111576696Y-29714285D01*
X111737410Y-29571428D01*
X111915982Y-29285714D01*
X112219553Y-26857142D01*
X113273125Y-29857142D02*
X113648125Y-26857142D01*
X114987410Y-29857142D01*
X115362410Y-26857142D01*
X116415982Y-29857142D02*
X116790982Y-26857142D01*
X117505267Y-26857142D01*
X117915982Y-27000000D01*
X118165982Y-27285714D01*
X118273125Y-27571428D01*
X118344553Y-28142857D01*
X118290982Y-28571428D01*
X118076696Y-29142857D01*
X117898125Y-29428571D01*
X117576696Y-29714285D01*
X117130267Y-29857142D01*
X116415982Y-29857142D01*
X119415982Y-29857142D02*
X119790982Y-26857142D01*
X120790982Y-26857142D02*
X122505267Y-26857142D01*
X121273125Y-29857142D02*
X121648125Y-26857142D01*
D12*
X56262559Y-40544761D02*
X56512559Y-38544761D01*
X56988750Y-38544761D01*
X57262559Y-38640000D01*
X57429226Y-38830476D01*
X57500654Y-39020952D01*
X57548273Y-39401904D01*
X57512559Y-39687619D01*
X57369702Y-40068571D01*
X57250654Y-40259047D01*
X57036369Y-40449523D01*
X56738750Y-40544761D01*
X56262559Y-40544761D01*
X58179226Y-40449523D02*
X58453035Y-40544761D01*
X58929226Y-40544761D01*
X59131607Y-40449523D01*
X59238750Y-40354285D01*
X59357797Y-40163809D01*
X59381607Y-39973333D01*
X59310178Y-39782857D01*
X59226845Y-39687619D01*
X59048273Y-39592380D01*
X58679226Y-39497142D01*
X58500654Y-39401904D01*
X58417321Y-39306666D01*
X58345892Y-39116190D01*
X58369702Y-38925714D01*
X58488750Y-38735238D01*
X58595892Y-38640000D01*
X58798273Y-38544761D01*
X59274464Y-38544761D01*
X59548273Y-38640000D01*
X60167321Y-40544761D02*
X60417321Y-38544761D01*
X61179226Y-38544761D01*
X61357797Y-38640000D01*
X61441130Y-38735238D01*
X61512559Y-38925714D01*
X61476845Y-39211428D01*
X61357797Y-39401904D01*
X61250654Y-39497142D01*
X61048273Y-39592380D01*
X60286369Y-39592380D01*
X59679226Y-42717142D02*
X59953035Y-42812380D01*
X60036369Y-42907619D01*
X60107797Y-43098095D01*
X60072083Y-43383809D01*
X59953035Y-43574285D01*
X59845892Y-43669523D01*
X59643511Y-43764761D01*
X58881607Y-43764761D01*
X59131607Y-41764761D01*
X59798273Y-41764761D01*
X59976845Y-41860000D01*
X60060178Y-41955238D01*
X60131607Y-42145714D01*
X60107797Y-42336190D01*
X59988750Y-42526666D01*
X59881607Y-42621904D01*
X59679226Y-42717142D01*
X59012559Y-42717142D01*
X61512559Y-41764761D02*
X61893511Y-41764761D01*
X62072083Y-41860000D01*
X62238750Y-42050476D01*
X62286369Y-42431428D01*
X62203035Y-43098095D01*
X62060178Y-43479047D01*
X61845892Y-43669523D01*
X61643511Y-43764761D01*
X61262559Y-43764761D01*
X61083988Y-43669523D01*
X60917321Y-43479047D01*
X60869702Y-43098095D01*
X60953035Y-42431428D01*
X61095892Y-42050476D01*
X61310178Y-41860000D01*
X61512559Y-41764761D01*
X62953035Y-43193333D02*
X63905416Y-43193333D01*
X62691130Y-43764761D02*
X63607797Y-41764761D01*
X64024464Y-43764761D01*
X65833988Y-43764761D02*
X65286369Y-42812380D01*
X64691130Y-43764761D02*
X64941130Y-41764761D01*
X65703035Y-41764761D01*
X65881607Y-41860000D01*
X65964940Y-41955238D01*
X66036369Y-42145714D01*
X66000654Y-42431428D01*
X65881607Y-42621904D01*
X65774464Y-42717142D01*
X65572083Y-42812380D01*
X64810178Y-42812380D01*
X66691130Y-43764761D02*
X66941130Y-41764761D01*
X67417321Y-41764761D01*
X67691130Y-41860000D01*
X67857797Y-42050476D01*
X67929226Y-42240952D01*
X67976845Y-42621904D01*
X67941130Y-42907619D01*
X67798273Y-43288571D01*
X67679226Y-43479047D01*
X67464940Y-43669523D01*
X67167321Y-43764761D01*
X66691130Y-43764761D01*
X104467797Y-12204761D02*
X104717797Y-10204761D01*
X105336845Y-12109523D02*
X105610654Y-12204761D01*
X106086845Y-12204761D01*
X106289226Y-12109523D01*
X106396369Y-12014285D01*
X106515416Y-11823809D01*
X106539226Y-11633333D01*
X106467797Y-11442857D01*
X106384464Y-11347619D01*
X106205892Y-11252380D01*
X105836845Y-11157142D01*
X105658273Y-11061904D01*
X105574940Y-10966666D01*
X105503511Y-10776190D01*
X105527321Y-10585714D01*
X105646369Y-10395238D01*
X105753511Y-10300000D01*
X105955892Y-10204761D01*
X106432083Y-10204761D01*
X106705892Y-10300000D01*
X107955892Y-10204761D02*
X108336845Y-10204761D01*
X108515416Y-10300000D01*
X108682083Y-10490476D01*
X108729702Y-10871428D01*
X108646369Y-11538095D01*
X108503511Y-11919047D01*
X108289226Y-12109523D01*
X108086845Y-12204761D01*
X107705892Y-12204761D01*
X107527321Y-12109523D01*
X107360654Y-11919047D01*
X107313035Y-11538095D01*
X107396369Y-10871428D01*
X107539226Y-10490476D01*
X107753511Y-10300000D01*
X107955892Y-10204761D01*
X110372559Y-12204761D02*
X109420178Y-12204761D01*
X109670178Y-10204761D01*
X111015416Y-11633333D02*
X111967797Y-11633333D01*
X110753511Y-12204761D02*
X111670178Y-10204761D01*
X112086845Y-12204761D01*
X112717797Y-10204761D02*
X113860654Y-10204761D01*
X113039226Y-12204761D02*
X113289226Y-10204761D01*
X114277321Y-12204761D02*
X114527321Y-10204761D01*
X115860654Y-10204761D02*
X116241607Y-10204761D01*
X116420178Y-10300000D01*
X116586845Y-10490476D01*
X116634464Y-10871428D01*
X116551130Y-11538095D01*
X116408273Y-11919047D01*
X116193988Y-12109523D01*
X115991607Y-12204761D01*
X115610654Y-12204761D01*
X115432083Y-12109523D01*
X115265416Y-11919047D01*
X115217797Y-11538095D01*
X115301130Y-10871428D01*
X115443988Y-10490476D01*
X115658273Y-10300000D01*
X115860654Y-10204761D01*
X117324940Y-12204761D02*
X117574940Y-10204761D01*
X118467797Y-12204761D01*
X118717797Y-10204761D01*
X120943988Y-12204761D02*
X121193988Y-10204761D01*
X122027321Y-10395238D02*
X122134464Y-10300000D01*
X122336845Y-10204761D01*
X122813035Y-10204761D01*
X122991607Y-10300000D01*
X123074940Y-10395238D01*
X123146369Y-10585714D01*
X123122559Y-10776190D01*
X122991607Y-11061904D01*
X121705892Y-12204761D01*
X122943988Y-12204761D01*
X123717797Y-12109523D02*
X123991607Y-12204761D01*
X124467797Y-12204761D01*
X124670178Y-12109523D01*
X124777321Y-12014285D01*
X124896369Y-11823809D01*
X124920178Y-11633333D01*
X124848750Y-11442857D01*
X124765416Y-11347619D01*
X124586845Y-11252380D01*
X124217797Y-11157142D01*
X124039226Y-11061904D01*
X123955892Y-10966666D01*
X123884464Y-10776190D01*
X123908273Y-10585714D01*
X124027321Y-10395238D01*
X124134464Y-10300000D01*
X124336845Y-10204761D01*
X124813035Y-10204761D01*
X125086845Y-10300000D01*
X114720178Y-66704761D02*
X114970178Y-64704761D01*
X115589226Y-66609523D02*
X115863035Y-66704761D01*
X116339226Y-66704761D01*
X116541607Y-66609523D01*
X116648750Y-66514285D01*
X116767797Y-66323809D01*
X116791607Y-66133333D01*
X116720178Y-65942857D01*
X116636845Y-65847619D01*
X116458273Y-65752380D01*
X116089226Y-65657142D01*
X115910654Y-65561904D01*
X115827321Y-65466666D01*
X115755892Y-65276190D01*
X115779702Y-65085714D01*
X115898750Y-64895238D01*
X116005892Y-64800000D01*
X116208273Y-64704761D01*
X116684464Y-64704761D01*
X116958273Y-64800000D01*
X118208273Y-64704761D02*
X118589226Y-64704761D01*
X118767797Y-64800000D01*
X118934464Y-64990476D01*
X118982083Y-65371428D01*
X118898750Y-66038095D01*
X118755892Y-66419047D01*
X118541607Y-66609523D01*
X118339226Y-66704761D01*
X117958273Y-66704761D01*
X117779702Y-66609523D01*
X117613035Y-66419047D01*
X117565416Y-66038095D01*
X117648750Y-65371428D01*
X117791607Y-64990476D01*
X118005892Y-64800000D01*
X118208273Y-64704761D01*
X120624940Y-66704761D02*
X119672559Y-66704761D01*
X119922559Y-64704761D01*
X121267797Y-66133333D02*
X122220178Y-66133333D01*
X121005892Y-66704761D02*
X121922559Y-64704761D01*
X122339226Y-66704761D01*
X122970178Y-64704761D02*
X124113035Y-64704761D01*
X123291607Y-66704761D02*
X123541607Y-64704761D01*
X124529702Y-66704761D02*
X124779702Y-64704761D01*
X126113035Y-64704761D02*
X126493988Y-64704761D01*
X126672559Y-64800000D01*
X126839226Y-64990476D01*
X126886845Y-65371428D01*
X126803511Y-66038095D01*
X126660654Y-66419047D01*
X126446369Y-66609523D01*
X126243988Y-66704761D01*
X125863035Y-66704761D01*
X125684464Y-66609523D01*
X125517797Y-66419047D01*
X125470178Y-66038095D01*
X125553511Y-65371428D01*
X125696369Y-64990476D01*
X125910654Y-64800000D01*
X126113035Y-64704761D01*
X127577321Y-66704761D02*
X127827321Y-64704761D01*
X128720178Y-66704761D01*
X128970178Y-64704761D01*
X131196369Y-66704761D02*
X131446369Y-64704761D01*
X132279702Y-64895238D02*
X132386845Y-64800000D01*
X132589226Y-64704761D01*
X133065416Y-64704761D01*
X133243988Y-64800000D01*
X133327321Y-64895238D01*
X133398750Y-65085714D01*
X133374940Y-65276190D01*
X133243988Y-65561904D01*
X131958273Y-66704761D01*
X133196369Y-66704761D01*
X135220178Y-66514285D02*
X135113035Y-66609523D01*
X134815416Y-66704761D01*
X134624940Y-66704761D01*
X134351130Y-66609523D01*
X134184464Y-66419047D01*
X134113035Y-66228571D01*
X134065416Y-65847619D01*
X134101130Y-65561904D01*
X134243988Y-65180952D01*
X134363035Y-64990476D01*
X134577321Y-64800000D01*
X134874940Y-64704761D01*
X135065416Y-64704761D01*
X135339226Y-64800000D01*
X135422559Y-64895238D01*
D11*
X44145267Y-32964285D02*
X44555982Y-33107142D01*
X45270267Y-33107142D01*
X45573839Y-32964285D01*
X45734553Y-32821428D01*
X45913125Y-32535714D01*
X45948839Y-32250000D01*
X45841696Y-31964285D01*
X45716696Y-31821428D01*
X45448839Y-31678571D01*
X44895267Y-31535714D01*
X44627410Y-31392857D01*
X44502410Y-31250000D01*
X44395267Y-30964285D01*
X44430982Y-30678571D01*
X44609553Y-30392857D01*
X44770267Y-30250000D01*
X45073839Y-30107142D01*
X45788125Y-30107142D01*
X46198839Y-30250000D01*
X48073839Y-30107142D02*
X48645267Y-30107142D01*
X48913125Y-30250000D01*
X49163125Y-30535714D01*
X49234553Y-31107142D01*
X49109553Y-32107142D01*
X48895267Y-32678571D01*
X48573839Y-32964285D01*
X48270267Y-33107142D01*
X47698839Y-33107142D01*
X47430982Y-32964285D01*
X47180982Y-32678571D01*
X47109553Y-32107142D01*
X47234553Y-31107142D01*
X47448839Y-30535714D01*
X47770267Y-30250000D01*
X48073839Y-30107142D01*
X50645267Y-30107142D02*
X50341696Y-32535714D01*
X50448839Y-32821428D01*
X50573839Y-32964285D01*
X50841696Y-33107142D01*
X51413125Y-33107142D01*
X51716696Y-32964285D01*
X51877410Y-32821428D01*
X52055982Y-32535714D01*
X52359553Y-30107142D01*
X53413125Y-33107142D02*
X53788125Y-30107142D01*
X55127410Y-33107142D01*
X55502410Y-30107142D01*
X56555982Y-33107142D02*
X56930982Y-30107142D01*
X57645267Y-30107142D01*
X58055982Y-30250000D01*
X58305982Y-30535714D01*
X58413125Y-30821428D01*
X58484553Y-31392857D01*
X58430982Y-31821428D01*
X58216696Y-32392857D01*
X58038125Y-32678571D01*
X57716696Y-32964285D01*
X57270267Y-33107142D01*
X56555982Y-33107142D01*
X59555982Y-33107142D02*
X59930982Y-30107142D01*
X60930982Y-30107142D02*
X62645267Y-30107142D01*
X61413125Y-33107142D02*
X61788125Y-30107142D01*
D12*
X97282083Y-39223333D02*
X98234464Y-39223333D01*
X97020178Y-39794761D02*
X97936845Y-37794761D01*
X98353511Y-39794761D01*
X99270178Y-37794761D02*
X99067797Y-39413809D01*
X99139226Y-39604285D01*
X99222559Y-39699523D01*
X99401130Y-39794761D01*
X99782083Y-39794761D01*
X99984464Y-39699523D01*
X100091607Y-39604285D01*
X100210654Y-39413809D01*
X100413035Y-37794761D01*
X101115416Y-39794761D02*
X101365416Y-37794761D01*
X101841607Y-37794761D01*
X102115416Y-37890000D01*
X102282083Y-38080476D01*
X102353511Y-38270952D01*
X102401130Y-38651904D01*
X102365416Y-38937619D01*
X102222559Y-39318571D01*
X102103511Y-39509047D01*
X101889226Y-39699523D01*
X101591607Y-39794761D01*
X101115416Y-39794761D01*
X103115416Y-39794761D02*
X103365416Y-37794761D01*
X104698750Y-37794761D02*
X105079702Y-37794761D01*
X105258273Y-37890000D01*
X105424940Y-38080476D01*
X105472559Y-38461428D01*
X105389226Y-39128095D01*
X105246369Y-39509047D01*
X105032083Y-39699523D01*
X104829702Y-39794761D01*
X104448750Y-39794761D01*
X104270178Y-39699523D01*
X104103511Y-39509047D01*
X104055892Y-39128095D01*
X104139226Y-38461428D01*
X104282083Y-38080476D01*
X104496369Y-37890000D01*
X104698750Y-37794761D01*
X102198750Y-41967142D02*
X102472559Y-42062380D01*
X102555892Y-42157619D01*
X102627321Y-42348095D01*
X102591607Y-42633809D01*
X102472559Y-42824285D01*
X102365416Y-42919523D01*
X102163035Y-43014761D01*
X101401130Y-43014761D01*
X101651130Y-41014761D01*
X102317797Y-41014761D01*
X102496369Y-41110000D01*
X102579702Y-41205238D01*
X102651130Y-41395714D01*
X102627321Y-41586190D01*
X102508273Y-41776666D01*
X102401130Y-41871904D01*
X102198750Y-41967142D01*
X101532083Y-41967142D01*
X104032083Y-41014761D02*
X104413035Y-41014761D01*
X104591607Y-41110000D01*
X104758273Y-41300476D01*
X104805892Y-41681428D01*
X104722559Y-42348095D01*
X104579702Y-42729047D01*
X104365416Y-42919523D01*
X104163035Y-43014761D01*
X103782083Y-43014761D01*
X103603511Y-42919523D01*
X103436845Y-42729047D01*
X103389226Y-42348095D01*
X103472559Y-41681428D01*
X103615416Y-41300476D01*
X103829702Y-41110000D01*
X104032083Y-41014761D01*
X105472559Y-42443333D02*
X106424940Y-42443333D01*
X105210654Y-43014761D02*
X106127321Y-41014761D01*
X106543988Y-43014761D01*
X108353511Y-43014761D02*
X107805892Y-42062380D01*
X107210654Y-43014761D02*
X107460654Y-41014761D01*
X108222559Y-41014761D01*
X108401130Y-41110000D01*
X108484464Y-41205238D01*
X108555892Y-41395714D01*
X108520178Y-41681428D01*
X108401130Y-41871904D01*
X108293988Y-41967142D01*
X108091607Y-42062380D01*
X107329702Y-42062380D01*
X109210654Y-43014761D02*
X109460654Y-41014761D01*
X109936845Y-41014761D01*
X110210654Y-41110000D01*
X110377321Y-41300476D01*
X110448750Y-41490952D01*
X110496369Y-41871904D01*
X110460654Y-42157619D01*
X110317797Y-42538571D01*
X110198750Y-42729047D01*
X109984464Y-42919523D01*
X109686845Y-43014761D01*
X109210654Y-43014761D01*
D13*
%TO.C,U9*%
X100098380Y-11241378D02*
X100336476Y-11241378D01*
X100241238Y-11479473D02*
X100336476Y-11241378D01*
X100241238Y-11003282D01*
X100526952Y-11384235D02*
X100336476Y-11241378D01*
X100526952Y-11098520D01*
X100098380Y-11241378D02*
X100336476Y-11241378D01*
X100241238Y-11479473D02*
X100336476Y-11241378D01*
X100241238Y-11003282D01*
X100526952Y-11384235D02*
X100336476Y-11241378D01*
X100526952Y-11098520D01*
D14*
%TO.C,C10*%
X28760000Y-44792164D02*
X28760000Y-45007836D01*
X28040000Y-44792164D02*
X28040000Y-45007836D01*
%TO.C,R53*%
X91377500Y-19737258D02*
X91377500Y-19262742D01*
X92422500Y-19737258D02*
X92422500Y-19262742D01*
%TO.C,C62*%
X113492164Y-64640000D02*
X113707836Y-64640000D01*
X113492164Y-65360000D02*
X113707836Y-65360000D01*
%TO.C,C78*%
X123165336Y-65650000D02*
X122949664Y-65650000D01*
X123165336Y-66370000D02*
X122949664Y-66370000D01*
%TO.C,R1*%
X33446359Y-73420000D02*
X33753641Y-73420000D01*
X33446359Y-74180000D02*
X33753641Y-74180000D01*
%TO.C,R43*%
X96277500Y-7862742D02*
X96277500Y-8337258D01*
X97322500Y-7862742D02*
X97322500Y-8337258D01*
%TO.C,C51*%
X136392164Y-37740000D02*
X136607836Y-37740000D01*
X136392164Y-38460000D02*
X136607836Y-38460000D01*
%TO.C,C87*%
X136159420Y-32990000D02*
X136440580Y-32990000D01*
X136159420Y-34010000D02*
X136440580Y-34010000D01*
%TO.C,C8*%
X18561252Y-30935000D02*
X18038748Y-30935000D01*
X18561252Y-29465000D02*
X18038748Y-29465000D01*
%TO.C,C57*%
X132792164Y-36040000D02*
X133007836Y-36040000D01*
X132792164Y-35320000D02*
X133007836Y-35320000D01*
D15*
%TO.C,U12*%
X85780000Y-25485000D02*
X85780000Y-25485000D01*
X85880000Y-25485000D02*
X85880000Y-25485000D01*
X85880000Y-25485000D02*
G75*
G03*
X85780000Y-25485000I-50000J0D01*
G01*
X85780000Y-25485000D02*
G75*
G03*
X85880000Y-25485000I50000J0D01*
G01*
D14*
%TO.C,C79*%
X142150000Y-790000D02*
X134090000Y-790000D01*
X134090000Y-790000D02*
X134090000Y-7010000D01*
X134090000Y-7010000D02*
X142150000Y-7010000D01*
%TO.C,C106*%
X136059420Y-23810000D02*
X136340580Y-23810000D01*
X136059420Y-22790000D02*
X136340580Y-22790000D01*
%TO.C,U1*%
X10560000Y-6500000D02*
X10560000Y-5850000D01*
X7440000Y-6500000D02*
X7440000Y-5850000D01*
X10560000Y-6500000D02*
X10560000Y-7150000D01*
X7440000Y-6500000D02*
X7440000Y-8175000D01*
%TO.C,R33*%
X127746359Y-43220000D02*
X128053641Y-43220000D01*
X127746359Y-43980000D02*
X128053641Y-43980000D01*
%TO.C,C18*%
X39865000Y-7261252D02*
X39865000Y-6738748D01*
X41335000Y-7261252D02*
X41335000Y-6738748D01*
%TO.C,C21*%
X20760000Y-70707836D02*
X20760000Y-70492164D01*
X20040000Y-70707836D02*
X20040000Y-70492164D01*
%TO.C,U8*%
X33320000Y-71530000D02*
X34120000Y-71530000D01*
X33320000Y-68410000D02*
X31520000Y-68410000D01*
X33320000Y-68410000D02*
X34120000Y-68410000D01*
X33320000Y-71530000D02*
X32520000Y-71530000D01*
%TO.C,C112*%
X136159420Y-29210000D02*
X136440580Y-29210000D01*
X136159420Y-28190000D02*
X136440580Y-28190000D01*
%TO.C,C109*%
X133240580Y-32410000D02*
X132959420Y-32410000D01*
X133240580Y-31390000D02*
X132959420Y-31390000D01*
D15*
%TO.C,J14*%
X145925000Y-21250000D02*
X140700000Y-21250000D01*
X145925000Y-9250000D02*
X140700000Y-9250000D01*
X149950000Y-19450000D02*
X149950000Y-11050000D01*
X140700000Y-21250000D02*
X140700000Y-19050000D01*
X140700000Y-9250000D02*
X140700000Y-11450000D01*
D14*
%TO.C,C2*%
X11140000Y-7107836D02*
X11140000Y-6892164D01*
X11860000Y-7107836D02*
X11860000Y-6892164D01*
%TO.C,C38*%
X17410000Y-44417836D02*
X17410000Y-44202164D01*
X18130000Y-44417836D02*
X18130000Y-44202164D01*
%TO.C,R49*%
X116777500Y-54137258D02*
X116777500Y-53662742D01*
X117822500Y-54137258D02*
X117822500Y-53662742D01*
%TO.C,C68*%
X120340000Y-17507836D02*
X120340000Y-17292164D01*
X121060000Y-17507836D02*
X121060000Y-17292164D01*
%TO.C,C37*%
X16310000Y-44417836D02*
X16310000Y-44202164D01*
X17030000Y-44417836D02*
X17030000Y-44202164D01*
%TO.C,C97*%
X136340580Y-56090000D02*
X136059420Y-56090000D01*
X136340580Y-57110000D02*
X136059420Y-57110000D01*
D16*
%TO.C,J5*%
X66570000Y20000D02*
X57630000Y20000D01*
X57630000Y-3450000D02*
X57630000Y-5650000D01*
X66570000Y-3450000D02*
X66570000Y-5650000D01*
D17*
X65248000Y-8830000D02*
G75*
G03*
X65248000Y-8830000I-100000J0D01*
G01*
D14*
%TO.C,J2*%
X25377500Y-67387500D02*
X24377500Y-67387500D01*
X24377500Y-67387500D02*
X24877500Y-66787500D01*
X25377500Y-67387500D02*
X24877500Y-66787500D01*
X-1372500Y-49667500D02*
X-1372500Y-66657500D01*
X31847500Y-49667500D02*
X31847500Y-66657500D01*
X7957500Y-49667500D02*
X31847500Y-49667500D01*
X31847500Y-66657500D02*
X7967500Y-66657500D01*
X-1372500Y-66657500D02*
X4957500Y-66657500D01*
X-1372500Y-49667500D02*
X4967500Y-49667500D01*
%TO.C,Y1*%
X26300000Y-28590000D02*
X22300000Y-28590000D01*
X26300000Y-31790000D02*
X26300000Y-28590000D01*
%TO.C,C25*%
X36735000Y-7261252D02*
X36735000Y-6738748D01*
X35265000Y-7261252D02*
X35265000Y-6738748D01*
%TO.C,C41*%
X84992164Y-23760000D02*
X85207836Y-23760000D01*
X84992164Y-23040000D02*
X85207836Y-23040000D01*
%TO.C,C14*%
X25250000Y-11110000D02*
X29460000Y-11110000D01*
X29460000Y-8090000D02*
X25250000Y-8090000D01*
X29460000Y-11110000D02*
X29460000Y-8090000D01*
%TO.C,R14*%
X8846359Y-3120000D02*
X9153641Y-3120000D01*
X8846359Y-3880000D02*
X9153641Y-3880000D01*
%TO.C,C5*%
X32950000Y-40122164D02*
X32950000Y-40337836D01*
X32230000Y-40122164D02*
X32230000Y-40337836D01*
%TO.C,C22*%
X19497836Y-37510000D02*
X19282164Y-37510000D01*
X19497836Y-38230000D02*
X19282164Y-38230000D01*
%TO.C,C73*%
X51750000Y-8410000D02*
X55960000Y-8410000D01*
X55960000Y-8410000D02*
X55960000Y-5390000D01*
X55960000Y-5390000D02*
X51750000Y-5390000D01*
%TO.C,R35*%
X124106359Y-4710000D02*
X124413641Y-4710000D01*
X124106359Y-5470000D02*
X124413641Y-5470000D01*
%TO.C,C71*%
X134665000Y-17507836D02*
X134665000Y-17292164D01*
X135385000Y-17507836D02*
X135385000Y-17292164D01*
%TO.C,CM4_MODULE1*%
X39590000Y-46000000D02*
X39590000Y-45000000D01*
X39590000Y-23200000D02*
X35810000Y-23200000D01*
X69810000Y-23200000D02*
X69810000Y-24200000D01*
X38200000Y-64600000D02*
X71200000Y-64600000D01*
X73510000Y-46000000D02*
X69810000Y-46000000D01*
X39590000Y-23200000D02*
X39590000Y-24200000D01*
X74700000Y-61100000D02*
X74700000Y-13100000D01*
X39590000Y-46000000D02*
X35810000Y-46000000D01*
X71200000Y-9600000D02*
X38200000Y-9600000D01*
X73510000Y-23200000D02*
X69810000Y-23200000D01*
X34700000Y-13100000D02*
X34700000Y-61100000D01*
X35810000Y-46000000D02*
X35810000Y-45000000D01*
X35810000Y-23200000D02*
X35810000Y-24200000D01*
X73510000Y-23200000D02*
X73510000Y-24200000D01*
X74700000Y-13100000D02*
G75*
G03*
X71200000Y-9600000I-3499999J1D01*
G01*
X34700000Y-61100000D02*
G75*
G03*
X38200000Y-64600000I3500000J0D01*
G01*
X71200000Y-64600000D02*
G75*
G03*
X74700000Y-61100000I1J3499999D01*
G01*
X38200000Y-9600000D02*
G75*
G03*
X34700000Y-13100000I0J-3500000D01*
G01*
%TO.C,U5*%
X36890000Y-54740000D02*
X37890000Y-54740000D01*
X36890000Y-57540000D02*
X38190000Y-57540000D01*
%TO.C,C3*%
X30238748Y-6735000D02*
X30761252Y-6735000D01*
X30238748Y-5265000D02*
X30761252Y-5265000D01*
%TO.C,C54*%
X128440000Y-41592164D02*
X128440000Y-41807836D01*
X129160000Y-41592164D02*
X129160000Y-41807836D01*
%TO.C,C13*%
X31490000Y-42162164D02*
X31490000Y-42377836D01*
X30770000Y-42162164D02*
X30770000Y-42377836D01*
%TO.C,J6*%
X55190000Y-4330000D02*
X55190000Y-1670000D01*
X32270000Y-1670000D02*
X55190000Y-1670000D01*
X32270000Y-4330000D02*
X32270000Y-1670000D01*
X32270000Y-4330000D02*
X55190000Y-4330000D01*
X31000000Y-4330000D02*
X29670000Y-4330000D01*
X29670000Y-4330000D02*
X29670000Y-3000000D01*
%TO.C,C46*%
X123407836Y-35240000D02*
X123192164Y-35240000D01*
X123407836Y-35960000D02*
X123192164Y-35960000D01*
%TO.C,C76*%
X106552164Y-9860000D02*
X106767836Y-9860000D01*
X106552164Y-10580000D02*
X106767836Y-10580000D01*
%TO.C,R48*%
X115622500Y-54137258D02*
X115622500Y-53662742D01*
X114577500Y-54137258D02*
X114577500Y-53662742D01*
D15*
%TO.C,U13*%
X106080000Y-9620000D02*
X106080000Y-9620000D01*
X106080000Y-9520000D02*
X106080000Y-9520000D01*
X106080000Y-9520000D02*
G75*
G03*
X106080000Y-9620000I0J-50000D01*
G01*
X106080000Y-9620000D02*
G75*
G03*
X106080000Y-9520000I0J50000D01*
G01*
D14*
%TO.C,C115*%
X136810000Y-21140580D02*
X136810000Y-20859420D01*
X135790000Y-21140580D02*
X135790000Y-20859420D01*
%TO.C,C45*%
X128060000Y-32107836D02*
X128060000Y-31892164D01*
X127340000Y-32107836D02*
X127340000Y-31892164D01*
%TO.C,R25*%
X128237258Y-29277500D02*
X127762742Y-29277500D01*
X128237258Y-30322500D02*
X127762742Y-30322500D01*
%TO.C,C86*%
X133240580Y-42710000D02*
X132959420Y-42710000D01*
X133240580Y-41690000D02*
X132959420Y-41690000D01*
%TO.C,R11*%
X32646359Y-45120000D02*
X32953641Y-45120000D01*
X32646359Y-45880000D02*
X32953641Y-45880000D01*
%TO.C,R27*%
X120776359Y-37670000D02*
X121083641Y-37670000D01*
X120776359Y-36910000D02*
X121083641Y-36910000D01*
%TO.C,C1*%
X6407836Y-7760000D02*
X6192164Y-7760000D01*
X6407836Y-7040000D02*
X6192164Y-7040000D01*
%TO.C,J3*%
X6200000Y-44560000D02*
X-1440000Y-44560000D01*
X-1440000Y-30780000D02*
X6200000Y-30780000D01*
X-1440000Y-30780000D02*
X-1440000Y-44560000D01*
X16060000Y-30780000D02*
X16060000Y-44560000D01*
%TO.C,J10*%
X74150000Y-67580000D02*
X74150000Y-64920000D01*
X51230000Y-64920000D02*
X74150000Y-64920000D01*
X51230000Y-67580000D02*
X74150000Y-67580000D01*
X49960000Y-67580000D02*
X48630000Y-67580000D01*
X51230000Y-67580000D02*
X51230000Y-64920000D01*
X48630000Y-67580000D02*
X48630000Y-66250000D01*
%TO.C,R44*%
X94722500Y-7862742D02*
X94722500Y-8337258D01*
X93677500Y-7862742D02*
X93677500Y-8337258D01*
%TO.C,C96*%
X136340580Y-58710000D02*
X136059420Y-58710000D01*
X136340580Y-57690000D02*
X136059420Y-57690000D01*
%TO.C,U6*%
X36915000Y-49930000D02*
X37915000Y-49930000D01*
X36915000Y-52730000D02*
X38215000Y-52730000D01*
%TO.C,C44*%
X124940000Y-32107836D02*
X124940000Y-31892164D01*
X125660000Y-32107836D02*
X125660000Y-31892164D01*
%TO.C,R21*%
X72346359Y-8620000D02*
X72653641Y-8620000D01*
X72346359Y-9380000D02*
X72653641Y-9380000D01*
%TO.C,C82*%
X132640000Y-8890000D02*
X132640000Y-11910000D01*
X132640000Y-11910000D02*
X136850000Y-11910000D01*
X136850000Y-8890000D02*
X132640000Y-8890000D01*
%TO.C,C15*%
X31582164Y-35400000D02*
X31797836Y-35400000D01*
X31582164Y-34680000D02*
X31797836Y-34680000D01*
%TO.C,R18*%
X11096359Y-1380000D02*
X11403641Y-1380000D01*
X11096359Y-620000D02*
X11403641Y-620000D01*
%TO.C,C58*%
X101960000Y-11592164D02*
X101960000Y-11807836D01*
X101240000Y-11592164D02*
X101240000Y-11807836D01*
%TO.C,C63*%
X84992164Y-20840000D02*
X85207836Y-20840000D01*
X84992164Y-21560000D02*
X85207836Y-21560000D01*
%TO.C,R46*%
X111977500Y-68062742D02*
X111977500Y-68537258D01*
X113022500Y-68062742D02*
X113022500Y-68537258D01*
%TO.C,R51*%
X93077500Y-19737258D02*
X93077500Y-19262742D01*
X94122500Y-19737258D02*
X94122500Y-19262742D01*
%TO.C,C33*%
X26360000Y-44792164D02*
X26360000Y-45007836D01*
X25640000Y-44792164D02*
X25640000Y-45007836D01*
%TO.C,C77*%
X123135336Y-68560000D02*
X122919664Y-68560000D01*
X123135336Y-69280000D02*
X122919664Y-69280000D01*
%TO.C,C65*%
X113307836Y-56560000D02*
X113092164Y-56560000D01*
X113307836Y-55840000D02*
X113092164Y-55840000D01*
%TO.C,R20*%
X70346359Y-8130000D02*
X70653641Y-8130000D01*
X70346359Y-7370000D02*
X70653641Y-7370000D01*
D15*
%TO.C,U11*%
X134100000Y-12600000D02*
X134100000Y-12600000D01*
X134000000Y-12600000D02*
X134000000Y-12600000D01*
X134000000Y-12600000D02*
G75*
G03*
X134100000Y-12600000I50000J0D01*
G01*
X134100000Y-12600000D02*
G75*
G03*
X134000000Y-12600000I-50000J0D01*
G01*
D14*
%TO.C,C99*%
X136159420Y-31390000D02*
X136440580Y-31390000D01*
X136159420Y-32410000D02*
X136440580Y-32410000D01*
%TO.C,U7*%
X15620000Y-9910000D02*
X15620000Y-11210000D01*
X18420000Y-9910000D02*
X18420000Y-10910000D01*
%TO.C,R24*%
X126853641Y-28020000D02*
X126546359Y-28020000D01*
X126853641Y-28780000D02*
X126546359Y-28780000D01*
%TO.C,C60*%
X85192164Y-6440000D02*
X85407836Y-6440000D01*
X85192164Y-7160000D02*
X85407836Y-7160000D01*
%TO.C,C108*%
X133240580Y-29790000D02*
X132959420Y-29790000D01*
X133240580Y-30810000D02*
X132959420Y-30810000D01*
D15*
%TO.C,J13*%
X145925000Y-35750000D02*
X140700000Y-35750000D01*
X145925000Y-23750000D02*
X140700000Y-23750000D01*
X140700000Y-23750000D02*
X140700000Y-25950000D01*
X140700000Y-35750000D02*
X140700000Y-33550000D01*
X149950000Y-33950000D02*
X149950000Y-25550000D01*
D14*
%TO.C,R12*%
X11403641Y-3120000D02*
X11096359Y-3120000D01*
X11403641Y-3880000D02*
X11096359Y-3880000D01*
%TO.C,R45*%
X93122500Y-7862742D02*
X93122500Y-8337258D01*
X92077500Y-7862742D02*
X92077500Y-8337258D01*
%TO.C,C53*%
X132792164Y-38060000D02*
X133007836Y-38060000D01*
X132792164Y-37340000D02*
X133007836Y-37340000D01*
%TO.C,R50*%
X96477500Y-19737258D02*
X96477500Y-19262742D01*
X97522500Y-19737258D02*
X97522500Y-19262742D01*
%TO.C,C61*%
X85192164Y-8360000D02*
X85407836Y-8360000D01*
X85192164Y-7640000D02*
X85407836Y-7640000D01*
%TO.C,R7*%
X25790000Y-69046359D02*
X25790000Y-69353641D01*
X26550000Y-69046359D02*
X26550000Y-69353641D01*
%TO.C,R22*%
X72653641Y-7370000D02*
X72346359Y-7370000D01*
X72653641Y-8130000D02*
X72346359Y-8130000D01*
%TO.C,C17*%
X25235000Y-71001252D02*
X25235000Y-70478748D01*
X23765000Y-71001252D02*
X23765000Y-70478748D01*
%TO.C,C35*%
X18422164Y-34150000D02*
X18637836Y-34150000D01*
X18422164Y-33430000D02*
X18637836Y-33430000D01*
%TO.C,R13*%
X11096359Y-1870000D02*
X11403641Y-1870000D01*
X11096359Y-2630000D02*
X11403641Y-2630000D01*
%TO.C,R31*%
X124820000Y-28746359D02*
X124820000Y-29053641D01*
X125580000Y-28746359D02*
X125580000Y-29053641D01*
%TO.C,C66*%
X101140000Y-17592164D02*
X101140000Y-17807836D01*
X101860000Y-17592164D02*
X101860000Y-17807836D01*
%TO.C,L1*%
X18790000Y-27337221D02*
X18790000Y-27662779D01*
X19810000Y-27337221D02*
X19810000Y-27662779D01*
D15*
%TO.C,U14*%
X123632500Y-66690000D02*
X123632500Y-66690000D01*
X123632500Y-66790000D02*
X123632500Y-66790000D01*
X123632500Y-66790000D02*
G75*
G03*
X123632500Y-66690000I0J50000D01*
G01*
X123632500Y-66690000D02*
G75*
G03*
X123632500Y-66790000I0J-50000D01*
G01*
D14*
%TO.C,C47*%
X123407836Y-38640000D02*
X123192164Y-38640000D01*
X123407836Y-39360000D02*
X123192164Y-39360000D01*
%TO.C,C103*%
X131159420Y-27010000D02*
X131440580Y-27010000D01*
X131159420Y-25990000D02*
X131440580Y-25990000D01*
D15*
%TO.C,J12*%
X145925000Y-38250000D02*
X140700000Y-38250000D01*
X140700000Y-38250000D02*
X140700000Y-40450000D01*
X140700000Y-50250000D02*
X140700000Y-48050000D01*
X149950000Y-48450000D02*
X149950000Y-40050000D01*
X145925000Y-50250000D02*
X140700000Y-50250000D01*
D14*
%TO.C,R5*%
X24130000Y-5596359D02*
X24130000Y-5903641D01*
X23370000Y-5596359D02*
X23370000Y-5903641D01*
%TO.C,R3*%
X12640000Y-27843641D02*
X12640000Y-27536359D01*
X11880000Y-27843641D02*
X11880000Y-27536359D01*
%TO.C,C50*%
X135840000Y-13392164D02*
X135840000Y-13607836D01*
X136560000Y-13392164D02*
X136560000Y-13607836D01*
%TO.C,C30*%
X19507836Y-39360000D02*
X19292164Y-39360000D01*
X19507836Y-38640000D02*
X19292164Y-38640000D01*
%TO.C,R26*%
X125900000Y-44073641D02*
X125900000Y-43766359D01*
X125140000Y-44073641D02*
X125140000Y-43766359D01*
%TO.C,R6*%
X27566359Y-68370000D02*
X27873641Y-68370000D01*
X27566359Y-69130000D02*
X27873641Y-69130000D01*
%TO.C,C89*%
X136159420Y-45910000D02*
X136440580Y-45910000D01*
X136159420Y-44890000D02*
X136440580Y-44890000D01*
%TO.C,R23*%
X125153641Y-26420000D02*
X124846359Y-26420000D01*
X125153641Y-27180000D02*
X124846359Y-27180000D01*
%TO.C,C80*%
X136159420Y-42710000D02*
X136440580Y-42710000D01*
X136159420Y-41690000D02*
X136440580Y-41690000D01*
%TO.C,R42*%
X97777500Y-7862742D02*
X97777500Y-8337258D01*
X98822500Y-7862742D02*
X98822500Y-8337258D01*
%TO.C,R2*%
X33753641Y-72940000D02*
X33446359Y-72940000D01*
X33753641Y-72180000D02*
X33446359Y-72180000D01*
%TO.C,C29*%
X18637836Y-36290000D02*
X18422164Y-36290000D01*
X18637836Y-35570000D02*
X18422164Y-35570000D01*
%TO.C,R34*%
X127746359Y-45680000D02*
X128053641Y-45680000D01*
X127746359Y-44920000D02*
X128053641Y-44920000D01*
%TO.C,C72*%
X27560000Y-44792164D02*
X27560000Y-45007836D01*
X26840000Y-44792164D02*
X26840000Y-45007836D01*
%TO.C,R52*%
X95822500Y-19737258D02*
X95822500Y-19262742D01*
X94777500Y-19737258D02*
X94777500Y-19262742D01*
%TO.C,C59*%
X100040000Y-11807836D02*
X100040000Y-11592164D01*
X100760000Y-11807836D02*
X100760000Y-11592164D01*
%TO.C,U2*%
X117560000Y-60700000D02*
X117560000Y-62650000D01*
X112440000Y-60700000D02*
X112440000Y-64150000D01*
X117560000Y-60700000D02*
X117560000Y-58750000D01*
X112440000Y-60700000D02*
X112440000Y-58750000D01*
%TO.C,C36*%
X18422164Y-34430000D02*
X18637836Y-34430000D01*
X18422164Y-35150000D02*
X18637836Y-35150000D01*
%TO.C,C90*%
X136159420Y-47510000D02*
X136440580Y-47510000D01*
X136159420Y-46490000D02*
X136440580Y-46490000D01*
%TO.C,Q1*%
X13200000Y-28100000D02*
X13200000Y-26450000D01*
X15000000Y-26450000D02*
X15000000Y-27750000D01*
%TO.C,C55*%
X128440000Y-32607836D02*
X128440000Y-32392164D01*
X129160000Y-32607836D02*
X129160000Y-32392164D01*
%TO.C,C20*%
X37565000Y-7261252D02*
X37565000Y-6738748D01*
X39035000Y-7261252D02*
X39035000Y-6738748D01*
%TO.C,R36*%
X56650000Y-2983641D02*
X56650000Y-2676359D01*
X55890000Y-2983641D02*
X55890000Y-2676359D01*
%TO.C,C52*%
X136392164Y-37460000D02*
X136607836Y-37460000D01*
X136392164Y-36740000D02*
X136607836Y-36740000D01*
D18*
%TO.C,J1*%
X-1321500Y-10592500D02*
X1480500Y-10592500D01*
X-1321500Y-10592500D02*
X-1321500Y-25592500D01*
X-1321500Y-25592500D02*
X1480500Y-25592500D01*
X11956500Y-22646500D02*
G75*
G03*
X11956500Y-22646500I-114000J0D01*
G01*
D15*
%TO.C,J11*%
X149950000Y-62950000D02*
X149950000Y-54550000D01*
X145925000Y-64750000D02*
X140700000Y-64750000D01*
X140700000Y-52750000D02*
X140700000Y-54950000D01*
X140700000Y-64750000D02*
X140700000Y-62550000D01*
X145925000Y-52750000D02*
X140700000Y-52750000D01*
D14*
%TO.C,C19*%
X20530000Y-43402164D02*
X20530000Y-43617836D01*
X19810000Y-43402164D02*
X19810000Y-43617836D01*
%TO.C,C4*%
X18661252Y-25635000D02*
X18138748Y-25635000D01*
X18661252Y-24165000D02*
X18138748Y-24165000D01*
%TO.C,U9*%
X89420000Y-12064078D02*
X89420000Y-16229678D01*
X99580000Y-16229678D02*
X99580000Y-12064078D01*
D19*
X99210277Y-9946878D02*
G75*
G03*
X99210277Y-9946878I-210277J0D01*
G01*
D14*
%TO.C,C23*%
X22890000Y-33507836D02*
X22890000Y-33292164D01*
X23610000Y-33507836D02*
X23610000Y-33292164D01*
%TO.C,C81*%
X136159420Y-44310000D02*
X136440580Y-44310000D01*
X136159420Y-43290000D02*
X136440580Y-43290000D01*
D17*
%TO.C,U10*%
X124750000Y-33750000D02*
X124750000Y-40250000D01*
X130600000Y-33750000D02*
X131250000Y-33750000D01*
X131250000Y-40250000D02*
X130600000Y-40250000D01*
X125400000Y-40250000D02*
X124750000Y-40250000D01*
X131250000Y-33750000D02*
X131250000Y-40250000D01*
X124750000Y-33750000D02*
X125400000Y-33750000D01*
D14*
%TO.C,C64*%
X84992164Y-22660000D02*
X85207836Y-22660000D01*
X84992164Y-21940000D02*
X85207836Y-21940000D01*
%TO.C,C83*%
X136340580Y-55510000D02*
X136059420Y-55510000D01*
X136340580Y-54490000D02*
X136059420Y-54490000D01*
%TO.C,L3*%
X18382779Y-71040000D02*
X18057221Y-71040000D01*
X18382779Y-72060000D02*
X18057221Y-72060000D01*
%TO.C,C88*%
X133240580Y-34010000D02*
X132959420Y-34010000D01*
X133240580Y-32990000D02*
X132959420Y-32990000D01*
%TO.C,R32*%
X127762742Y-26277500D02*
X128237258Y-26277500D01*
X127762742Y-27322500D02*
X128237258Y-27322500D01*
%TO.C,C75*%
X106582164Y-7820000D02*
X106797836Y-7820000D01*
X106582164Y-7100000D02*
X106797836Y-7100000D01*
%TO.C,C11*%
X26825000Y-30082164D02*
X26825000Y-30297836D01*
X27545000Y-30082164D02*
X27545000Y-30297836D01*
%TO.C,C69*%
X122160000Y-17507836D02*
X122160000Y-17292164D01*
X121440000Y-17507836D02*
X121440000Y-17292164D01*
%TO.C,R4*%
X15520000Y-27253641D02*
X15520000Y-26946359D01*
X16280000Y-27253641D02*
X16280000Y-26946359D01*
%TO.C,R8*%
X21020000Y-32553641D02*
X21020000Y-32246359D01*
X21780000Y-32553641D02*
X21780000Y-32246359D01*
%TO.C,C85*%
X133240580Y-46590000D02*
X132959420Y-46590000D01*
X133240580Y-47610000D02*
X132959420Y-47610000D01*
%TO.C,R28*%
X95822500Y-22562742D02*
X95822500Y-23037258D01*
X94777500Y-22562742D02*
X94777500Y-23037258D01*
%TO.C,U4*%
X26400000Y-3640000D02*
X25600000Y-3640000D01*
X26400000Y-6760000D02*
X25600000Y-6760000D01*
X26400000Y-3640000D02*
X27200000Y-3640000D01*
X26400000Y-6760000D02*
X28200000Y-6760000D01*
%TO.C,C6*%
X33950000Y-40122164D02*
X33950000Y-40337836D01*
X33230000Y-40122164D02*
X33230000Y-40337836D01*
%TO.C,C84*%
X133240580Y-40090000D02*
X132959420Y-40090000D01*
X133240580Y-41110000D02*
X132959420Y-41110000D01*
%TO.C,C28*%
X25790000Y-33507836D02*
X25790000Y-33292164D01*
X26510000Y-33507836D02*
X26510000Y-33292164D01*
%TO.C,C91*%
X136159420Y-49210000D02*
X136440580Y-49210000D01*
X136159420Y-48190000D02*
X136440580Y-48190000D01*
%TO.C,R29*%
X91377500Y-22562742D02*
X91377500Y-23037258D01*
X92422500Y-22562742D02*
X92422500Y-23037258D01*
%TO.C,C12*%
X29640000Y-69347836D02*
X29640000Y-69132164D01*
X28920000Y-69347836D02*
X28920000Y-69132164D01*
%TO.C,C32*%
X23240000Y-44802164D02*
X23240000Y-45017836D01*
X23960000Y-44802164D02*
X23960000Y-45017836D01*
%TO.C,C56*%
X132792164Y-37030000D02*
X133007836Y-37030000D01*
X132792164Y-36310000D02*
X133007836Y-36310000D01*
%TO.C,C93*%
X133240580Y-43290000D02*
X132959420Y-43290000D01*
X133240580Y-44310000D02*
X132959420Y-44310000D01*
%TO.C,C92*%
X136159420Y-40090000D02*
X136440580Y-40090000D01*
X136159420Y-41110000D02*
X136440580Y-41110000D01*
%TO.C,C16*%
X21775000Y-30327836D02*
X21775000Y-30112164D01*
X21055000Y-30327836D02*
X21055000Y-30112164D01*
%TO.C,C74*%
X115160000Y-36397836D02*
X115160000Y-36182164D01*
X115880000Y-36397836D02*
X115880000Y-36182164D01*
D17*
%TO.C,PS2*%
X131800000Y-14925000D02*
X131800000Y-25275000D01*
X131800000Y-25275000D02*
X125000000Y-25275000D01*
X125000000Y-25275000D02*
X125000000Y-14925000D01*
X122725000Y-14980000D02*
X124650000Y-14980000D01*
X125000000Y-14925000D02*
X131800000Y-14925000D01*
D14*
%TO.C,C39*%
X33412164Y-63360000D02*
X33627836Y-63360000D01*
X33412164Y-62640000D02*
X33627836Y-62640000D01*
%TO.C,R17*%
X123146359Y-40480000D02*
X123453641Y-40480000D01*
X123146359Y-39720000D02*
X123453641Y-39720000D01*
%TO.C,C34*%
X19727836Y-41040000D02*
X19512164Y-41040000D01*
X19727836Y-40320000D02*
X19512164Y-40320000D01*
%TO.C,R19*%
X70653641Y-8620000D02*
X70346359Y-8620000D01*
X70653641Y-9380000D02*
X70346359Y-9380000D01*
%TO.C,C67*%
X100760000Y-17807836D02*
X100760000Y-17592164D01*
X100040000Y-17807836D02*
X100040000Y-17592164D01*
%TO.C,J7*%
X41270000Y-69670000D02*
X64190000Y-69670000D01*
X41270000Y-72330000D02*
X41270000Y-69670000D01*
X64190000Y-72330000D02*
X64190000Y-69670000D01*
X41270000Y-72330000D02*
X64190000Y-72330000D01*
X40000000Y-72330000D02*
X38670000Y-72330000D01*
X38670000Y-72330000D02*
X38670000Y-71000000D01*
D16*
%TO.C,J4*%
X22240000Y0D02*
X13300000Y0D01*
X13300000Y-3470000D02*
X13300000Y-5670000D01*
X22240000Y-3470000D02*
X22240000Y-5670000D01*
D17*
X20918000Y-8850000D02*
G75*
G03*
X20918000Y-8850000I-100000J0D01*
G01*
D14*
%TO.C,C26*%
X16205000Y-70911252D02*
X16205000Y-70388748D01*
X14735000Y-70911252D02*
X14735000Y-70388748D01*
%TO.C,C40*%
X21465000Y-71001252D02*
X21465000Y-70478748D01*
X22935000Y-71001252D02*
X22935000Y-70478748D01*
%TO.C,R30*%
X94122500Y-22562742D02*
X94122500Y-23037258D01*
X93077500Y-22562742D02*
X93077500Y-23037258D01*
%TO.C,C102*%
X136159420Y-30810000D02*
X136440580Y-30810000D01*
X136159420Y-29790000D02*
X136440580Y-29790000D01*
%TO.C,C98*%
X136340580Y-53910000D02*
X136059420Y-53910000D01*
X136340580Y-52890000D02*
X136059420Y-52890000D01*
%TO.C,C27*%
X24740000Y-33507836D02*
X24740000Y-33292164D01*
X25460000Y-33507836D02*
X25460000Y-33292164D01*
%TO.C,C43*%
X126860000Y-32107836D02*
X126860000Y-31892164D01*
X126140000Y-32107836D02*
X126140000Y-31892164D01*
%TO.C,C31*%
X31582164Y-36400000D02*
X31797836Y-36400000D01*
X31582164Y-35680000D02*
X31797836Y-35680000D01*
%TO.C,C48*%
X123407836Y-36440000D02*
X123192164Y-36440000D01*
X123407836Y-37160000D02*
X123192164Y-37160000D01*
%TO.C,C24*%
X12485000Y-70911252D02*
X12485000Y-70388748D01*
X13955000Y-70911252D02*
X13955000Y-70388748D01*
%TO.C,R15*%
X9153641Y-1870000D02*
X8846359Y-1870000D01*
X9153641Y-2630000D02*
X8846359Y-2630000D01*
%TO.C,X1*%
X116545000Y-34390000D02*
X116545000Y-38190000D01*
X119695000Y-34390000D02*
X116545000Y-34390000D01*
%TO.C,C49*%
X133040000Y-13412164D02*
X133040000Y-13627836D01*
X133760000Y-13412164D02*
X133760000Y-13627836D01*
%TO.C,C94*%
X133240580Y-44890000D02*
X132959420Y-44890000D01*
X133240580Y-45910000D02*
X132959420Y-45910000D01*
%TO.C,U3*%
X21872500Y-35650000D02*
X21872500Y-35100000D01*
X21872500Y-42770000D02*
X21872500Y-43320000D01*
X30092500Y-35100000D02*
X29542500Y-35100000D01*
X30092500Y-43320000D02*
X29542500Y-43320000D01*
X30092500Y-42770000D02*
X30092500Y-43320000D01*
X21872500Y-35100000D02*
X22422500Y-35100000D01*
X30092500Y-35650000D02*
X30092500Y-35100000D01*
%TO.C,C42*%
X86240000Y-24507836D02*
X86240000Y-24292164D01*
X86960000Y-24507836D02*
X86960000Y-24292164D01*
%TO.C,L2*%
X28061252Y-70630000D02*
X27538748Y-70630000D01*
X28061252Y-72850000D02*
X27538748Y-72850000D01*
%TO.C,C9*%
X25160000Y-44802164D02*
X25160000Y-45017836D01*
X24440000Y-44802164D02*
X24440000Y-45017836D01*
%TO.C,R16*%
X8846359Y-1380000D02*
X9153641Y-1380000D01*
X8846359Y-620000D02*
X9153641Y-620000D01*
%TO.C,R9*%
X28020000Y-33553641D02*
X28020000Y-33246359D01*
X28780000Y-33553641D02*
X28780000Y-33246359D01*
%TO.C,C95*%
X136340580Y-60310000D02*
X136059420Y-60310000D01*
X136340580Y-59290000D02*
X136059420Y-59290000D01*
%TO.C,C7*%
X37535000Y-70061252D02*
X37535000Y-69538748D01*
X36065000Y-70061252D02*
X36065000Y-69538748D01*
D17*
%TO.C,PS1*%
X77525000Y-11300000D02*
X87875000Y-11300000D01*
X87875000Y-18100000D02*
X77525000Y-18100000D01*
X77525000Y-18100000D02*
X77525000Y-11300000D01*
X87820000Y-9025000D02*
X87820000Y-10950000D01*
X87875000Y-11300000D02*
X87875000Y-18100000D01*
D14*
%TO.C,R10*%
X32646359Y-46320000D02*
X32953641Y-46320000D01*
X32646359Y-47080000D02*
X32953641Y-47080000D01*
%TO.C,C70*%
X135840000Y-17507836D02*
X135840000Y-17292164D01*
X136560000Y-17507836D02*
X136560000Y-17292164D01*
%TO.C,R47*%
X115277500Y-68062742D02*
X115277500Y-68537258D01*
X116322500Y-68062742D02*
X116322500Y-68537258D01*
%TD*%
M02*
