M48
; DRILL file {KiCad (6.0.8)} date Tue Dec 13 14:59:58 2022
; FORMAT={-:-/ absolute / inch / decimal}
; #@! TF.CreationDate,2022-12-13T14:59:58+09:00
; #@! TF.GenerationSoftware,Kicad,Pcbnew,(6.0.8)
; #@! TF.FileFunction,Plated,1,4,PTH
FMAT,2
INCH
; #@! TA.AperFunction,Plated,PTH,ViaDrill
T1C0.0079
; #@! TA.AperFunction,Plated,PTH,ComponentDrill
T2C0.0079
; #@! TA.AperFunction,Plated,PTH,ComponentDrill
T3C0.0256
; #@! TA.AperFunction,Plated,PTH,ComponentDrill
T4C0.0276
; #@! TA.AperFunction,Plated,PTH,ComponentDrill
T5C0.0350
; #@! TA.AperFunction,Plated,PTH,ComponentDrill
T6C0.0394
; #@! TA.AperFunction,Plated,PTH,ComponentDrill
T7C0.0404
; #@! TA.AperFunction,Plated,PTH,ComponentDrill
T8C0.0618
; #@! TA.AperFunction,Plated,PTH,ComponentDrill
T9C0.0634
; #@! TA.AperFunction,Plated,PTH,ComponentDrill
T10C0.0890
; #@! TA.AperFunction,Plated,PTH,ComponentDrill
T11C0.0906
; #@! TA.AperFunction,Plated,PTH,ViaDrill
T12C0.1260
%
G90
G05
T1
X0.0784Y-2.4006
X0.0787Y-0.315
X0.0787Y-0.5118
X0.0787Y-0.7087
X0.0787Y-0.9055
X0.0787Y-1.1417
X0.0787Y-1.3386
X0.0787Y-1.5748
X0.0787Y-1.811
X0.0787Y-2.0079
X0.0787Y-2.2047
X0.0787Y-2.5984
X0.1142Y-0.5591
X0.1339Y-0.5984
X0.1969Y-1.378
X0.248Y-0.937
X0.2756Y-0.5512
X0.2756Y-0.6693
X0.2756Y-0.8268
X0.2756Y-0.937
X0.2953Y-2.1654
X0.2953Y-2.3622
X0.315Y-0.5748
X0.315Y-0.6929
X0.315Y-0.752
X0.315Y-0.811
X0.315Y-0.8701
X0.315Y-2.7953
X0.3189Y-0.2126
X0.3189Y-0.2402
X0.3346Y-0.1378
X0.3642Y-1.8602
X0.3935Y-1.825
X0.3935Y-1.8467
X0.3937Y-1.7992
X0.4057Y-0.1612
X0.4232Y-1.8602
X0.4252Y-2.7402
X0.4252Y-2.7717
X0.4252Y-2.8031
X0.4331Y-2.9134
X0.4409Y-2.7559
X0.4409Y-2.7874
X0.4409Y-2.8189
X0.4528Y-0.0906
X0.4528Y-0.1378
X0.4567Y-2.7402
X0.4567Y-2.7717
X0.4567Y-2.8031
X0.4646Y-0.6929
X0.4646Y-0.752
X0.4674Y-0.8107
X0.4674Y-0.8698
X0.4724Y-0.2126
X0.5197Y-0.9331
X0.5394Y-0.9882
X0.563Y-0.6614
X0.5748Y-0.9882
X0.5748Y-1.0669
X0.5866Y-0.9291
X0.5906Y-2.9134
X0.6488Y-0.3469
X0.6496Y-1.6654
X0.66Y-0.2111
X0.6654Y-0.9016
X0.6685Y-0.3335
X0.6693Y-0.3575
X0.685Y-0.6614
X0.685Y-1.0197
X0.685Y-1.0472
X0.685Y-1.4134
X0.7087Y-1.5512
X0.7087Y-1.6654
X0.7126Y-0.9449
X0.7126Y-1.0197
X0.7126Y-1.0472
X0.7228Y-0.3508
X0.7343Y-0.3295
X0.7402Y-0.1612
X0.7402Y-0.2126
X0.748Y-1.248
X0.748Y-1.2795
X0.7484Y-1.4146
X0.7565Y-0.3504
X0.7677Y-0.1417
X0.7756Y-1.248
X0.7756Y-1.2795
X0.7795Y-0.3307
X0.7823Y-1.4909
X0.7831Y-1.5437
X0.7835Y-2.2244
X0.7874Y-0.9016
X0.7874Y-1.7835
X0.7889Y-2.914
X0.7913Y-1.6016
X0.7941Y-1.6941
X0.7992Y-0.3583
X0.7992Y-0.6614
X0.8014Y-2.2559
X0.8031Y-1.248
X0.8031Y-1.2795
X0.8081Y-1.7972
X0.8091Y-0.9646
X0.8091Y-0.9941
X0.8091Y-1.0236
X0.8091Y-1.0531
X0.8234Y-1.8125
X0.828Y-1.5093
X0.828Y-1.5309
X0.8307Y-1.8346
X0.8445Y-0.9646
X0.8445Y-0.9941
X0.8445Y-1.0236
X0.8445Y-1.0531
X0.8976Y-0.9055
X0.9016Y-0.6614
X0.9134Y-1.1571
X0.9154Y-1.3339
X0.9173Y-1.2717
X0.9291Y-1.7492
X0.9488Y-0.9528
X0.9757Y-1.7485
X0.9843Y-0.6614
X0.9843Y-2.9134
X0.9882Y-1.2677
X0.9882Y-1.3339
X0.9961Y-0.122
X1.0Y-1.2201
X1.0118Y-1.0118
X1.0236Y-1.7488
X1.0276Y-1.2677
X1.0295Y-1.3339
X1.0354Y-0.7087
X1.0394Y-0.1614
X1.0394Y-0.185
X1.0394Y-0.2087
X1.0394Y-0.2323
X1.0709Y-0.2047
X1.0709Y-0.2441
X1.0709Y-1.0709
X1.0709Y-1.7488
X1.0787Y-1.2953
X1.0827Y-0.1181
X1.0945Y-0.2047
X1.0945Y-0.2441
X1.0984Y-0.7756
X1.1181Y-0.2047
X1.1181Y-1.3346
X1.1181Y-1.7488
X1.1299Y-0.185
X1.1299Y-1.248
X1.1378Y-1.1378
X1.1417Y-2.9134
X1.1457Y-0.1378
X1.1457Y-0.1654
X1.1478Y-1.4189
X1.1535Y-0.248
X1.1614Y-0.8386
X1.1654Y-0.0984
X1.1732Y-0.248
X1.185Y-1.3819
X1.185Y-2.7126
X1.185Y-2.7323
X1.185Y-2.752
X1.1917Y-1.861
X1.2047Y-0.1732
X1.2047Y-2.7126
X1.2047Y-2.7323
X1.2047Y-2.752
X1.2084Y-1.4585
X1.215Y-1.5913
X1.2205Y-2.7953
X1.2244Y-0.9016
X1.2244Y-2.7126
X1.2244Y-2.7323
X1.2244Y-2.752
X1.2252Y-1.6449
X1.2287Y-1.3795
X1.2287Y-1.4189
X1.2323Y-1.2362
X1.2402Y-0.1732
X1.2402Y-1.8386
X1.2717Y-0.1614
X1.2756Y-2.9055
X1.2795Y-1.7165
X1.2795Y-1.7441
X1.2992Y-0.1732
X1.2992Y-0.9764
X1.3031Y-1.7165
X1.3036Y-1.7436
X1.315Y-2.5276
X1.3228Y-1.3622
X1.3425Y-0.1732
X1.3465Y-1.0354
X1.3543Y-1.2441
X1.3543Y-1.3189
X1.3583Y-0.0748
X1.3622Y-0.1535
X1.3819Y-1.689
X1.3937Y-1.7205
X1.4059Y-0.9252
X1.4296Y-2.0215
X1.4314Y-2.2111
X1.4441Y-0.9252
X1.4547Y-0.376
X1.4567Y-2.9134
X1.4823Y-0.376
X1.4882Y-1.3937
X1.4882Y-1.4764
X1.4882Y-1.5551
X1.4882Y-1.622
X1.5039Y-1.0157
X1.5039Y-1.063
X1.5039Y-1.1102
X1.5039Y-1.1575
X1.5039Y-1.2047
X1.5039Y-1.252
X1.5039Y-1.2992
X1.5079Y-0.9528
X1.5098Y-0.376
X1.5115Y-2.2109
X1.5162Y-2.0215
X1.5354Y-1.9291
X1.5374Y-0.376
X1.5748Y-2.2736
X1.5748Y-2.5984
X1.5748Y-2.6772
X1.6337Y-1.8365
X1.6535Y-2.2736
X1.6535Y-2.4803
X1.6929Y-2.3622
X1.6929Y-2.9134
X1.6957Y-1.7745
X1.7028Y-2.2244
X1.7323Y-2.6772
X1.752Y-2.1752
X1.7745Y-1.6957
X1.811Y-2.2835
X1.8209Y-2.1063
X1.8898Y-2.0374
X1.8898Y-2.5984
X1.8898Y-2.6772
X1.8898Y-2.9134
X1.9528Y-1.6478
X1.9587Y-1.9685
X1.9685Y-0.5512
X1.9685Y-0.7087
X1.9685Y-0.8268
X1.9685Y-0.9449
X1.9685Y-1.063
X1.9685Y-1.1811
X1.9685Y-1.3386
X1.9685Y-1.4567
X1.9685Y-2.2047
X2.0079Y-1.9291
X2.0079Y-2.5197
X2.0866Y-1.3373
X2.0866Y-0.7087
X2.0866Y-0.8268
X2.0866Y-0.9449
X2.0866Y-1.063
X2.0866Y-1.1811
X2.0866Y-1.4567
X2.0866Y-2.1654
X2.0866Y-2.9134
X2.0945Y-1.6451
X2.0945Y-1.9291
X2.1063Y-2.0276
X2.1063Y-2.0669
X2.1063Y-2.1063
X2.126Y-2.4803
X2.1457Y-2.0276
X2.1457Y-2.0669
X2.1457Y-2.1063
X2.1535Y-0.748
X2.1535Y-0.8031
X2.1535Y-0.8583
X2.1535Y-0.9134
X2.185Y-2.0276
X2.185Y-2.0669
X2.185Y-2.1063
X2.1969Y-1.6451
X2.1969Y-1.9291
X2.2047Y-0.3937
X2.2047Y-0.4724
X2.2126Y-0.8031
X2.2126Y-0.8583
X2.2126Y-0.9134
X2.2244Y-2.0276
X2.2244Y-2.0669
X2.2244Y-2.1063
X2.2441Y-2.1654
X2.2441Y-2.4409
X2.2441Y-2.7165
X2.2638Y-2.0276
X2.2638Y-2.0669
X2.2638Y-2.1063
X2.2717Y-0.8583
X2.2717Y-0.9134
X2.2835Y-0.5512
X2.2835Y-2.9134
X2.3031Y-0.2047
X2.3031Y-0.3346
X2.3031Y-2.0276
X2.3031Y-2.0669
X2.3031Y-2.1063
X2.3071Y-1.6451
X2.3228Y-0.2047
X2.3228Y-0.3346
X2.3228Y-1.9291
X2.3228Y-2.3622
X2.3307Y-0.9134
X2.3425Y-0.2047
X2.3425Y-0.3346
X2.3425Y-2.0276
X2.3425Y-2.0669
X2.3425Y-2.1063
X2.3622Y-0.2047
X2.3622Y-0.3346
X2.3819Y-0.2047
X2.3819Y-0.3346
X2.3819Y-2.0276
X2.3819Y-2.0669
X2.3819Y-2.1063
X2.4016Y-0.2047
X2.4016Y-0.3346
X2.4016Y-0.3937
X2.4016Y-0.5118
X2.4016Y-0.6299
X2.4016Y-1.063
X2.4016Y-1.1811
X2.4016Y-1.2992
X2.4016Y-1.4173
X2.4016Y-1.5354
X2.4016Y-1.9291
X2.4016Y-2.1654
X2.4016Y-2.2835
X2.4213Y-0.2047
X2.4213Y-0.3346
X2.4213Y-1.6451
X2.4409Y-0.2047
X2.4606Y-0.2047
X2.4606Y-0.3346
X2.4803Y-0.2047
X2.4803Y-0.3346
X2.4803Y-2.9134
X2.4961Y-2.0315
X2.4961Y-2.063
X2.5Y-0.2047
X2.5118Y-2.0472
X2.5118Y-2.0787
X2.5197Y-0.2047
X2.5197Y-0.3346
X2.5276Y-2.0315
X2.5276Y-2.063
X2.5394Y-0.2047
X2.5394Y-0.3346
X2.5591Y-0.2047
X2.5591Y-0.3346
X2.5787Y-0.2047
X2.5787Y-0.3346
X2.5906Y-1.9567
X2.6012Y-1.5551
X2.6134Y-1.9646
X2.6177Y-1.5787
X2.6181Y-0.4488
X2.6299Y-1.9843
X2.634Y-1.6024
X2.6346Y-1.4776
X2.6378Y-2.7165
X2.6378Y-2.7953
X2.6378Y-2.9134
X2.6531Y-1.452
X2.6756Y-1.2563
X2.6929Y-0.6181
X2.7008Y-1.0787
X2.7008Y-1.1024
X2.7008Y-1.126
X2.7047Y-1.9134
X2.7155Y-1.5592
X2.7165Y-0.7461
X2.7165Y-0.8543
X2.7165Y-0.9094
X2.7165Y-1.6071
X2.7165Y-1.6299
X2.7244Y-1.0787
X2.7244Y-1.1024
X2.7244Y-1.126
X2.7248Y-0.9921
X2.7272Y-1.7008
X2.7295Y-1.7484
X2.7756Y-0.7441
X2.7756Y-0.8543
X2.7756Y-0.9094
X2.7835Y-1.9094
X2.7953Y-0.3031
X2.8071Y-1.7992
X2.824Y-1.6583
X2.8307Y-0.7441
X2.8307Y-0.9094
X2.8307Y-0.9646
X2.8307Y-1.0197
X2.8307Y-1.0748
X2.8307Y-1.1299
X2.8346Y-0.3031
X2.8346Y-1.2205
X2.8346Y-1.4567
X2.8346Y-2.0866
X2.8346Y-2.2441
X2.8465Y-1.6378
X2.8504Y-1.6142
X2.8508Y-1.7008
X2.8579Y-1.5433
X2.8579Y-1.3701
X2.8677Y-1.9413
X2.8976Y-0.7953
X2.9016Y-0.6417
X2.9063Y-1.9319
X2.9134Y-0.2756
X2.9134Y-0.3937
X2.916Y-1.2173
X2.9291Y-1.2598
X3.0709Y-0.9843
X3.0787Y-0.8228
X3.0827Y-0.4528
X3.1102Y-0.6299
X3.1772Y-0.8268
X3.185Y-0.4528
X3.2244Y-0.8268
X3.2283Y-1.0236
X3.3465Y-0.6299
X3.3701Y-0.8346
X3.3701Y-0.878
X3.3701Y-0.9213
X3.3819Y-0.4528
X3.3819Y-0.7638
X3.4055Y-0.2677
X3.4055Y-0.315
X3.4094Y-0.874
X3.4094Y-0.9016
X3.4331Y-0.4528
X3.4331Y-0.7638
X3.5039Y-1.0236
X3.5433Y-0.4016
X3.5433Y-0.7126
X3.622Y-0.5906
X3.7205Y-1.0335
X3.7396Y-0.5901
X3.7795Y-1.1811
X3.7795Y-1.378
X3.7795Y-1.5748
X3.7795Y-1.7323
X3.8583Y-0.5906
X3.937Y-1.7323
X3.9528Y-0.4803
X3.9528Y-0.7165
X3.9961Y-0.7165
X4.0Y-0.4803
X4.0945Y-0.6299
X4.1732Y-1.7323
X4.252Y-1.5354
X4.2756Y-1.5079
X4.2913Y-0.6299
X4.2913Y-1.5236
X4.2913Y-1.5748
X4.3071Y-1.5394
X4.3228Y-1.5551
X4.3307Y-1.4528
X4.3465Y-1.4685
X4.3622Y-1.4843
X4.3701Y-1.4173
X4.3701Y-1.7323
X4.378Y-1.5
X4.4094Y-1.4567
X4.4488Y-1.811
X4.4488Y-1.9685
X4.4488Y-2.874
X4.452Y-0.4417
X4.4764Y-2.1772
X4.4882Y-0.6299
X4.4933Y-2.7012
X4.5118Y-0.4417
X4.5138Y-2.5594
X4.528Y-2.5382
X4.5528Y-2.5504
X4.6142Y-2.6917
X4.622Y-1.8189
X4.6378Y-1.8543
X4.6378Y-2.2913
X4.685Y-0.6299
X4.685Y-1.2402
X4.685Y-2.4803
X4.7205Y-1.1693
X4.7244Y-1.5787
X4.7244Y-1.6063
X4.752Y-0.5906
X4.752Y-0.6181
X4.752Y-0.6417
X4.7638Y-2.2835
X4.8031Y-2.4803
X4.8346Y-1.4016
X4.8346Y-1.4488
X4.8346Y-1.5354
X4.8696Y-0.8666
X4.8696Y-0.9663
X4.8732Y-1.4488
X4.8744Y-1.5366
X4.8819Y-1.1417
X4.8819Y-1.2598
X4.8819Y-1.811
X4.9213Y-1.6142
X4.9213Y-2.4803
X4.9331Y-1.2402
X4.9606Y-0.5906
X4.9606Y-0.7087
X4.9606Y-0.8268
X4.9606Y-0.9449
X4.9606Y-2.0079
X4.9606Y-2.2835
X4.9724Y-1.4094
X4.9724Y-1.4567
X4.9724Y-1.5039
X4.9803Y-1.2402
X4.9803Y-1.7835
X5.0039Y-1.4094
X5.0039Y-1.4567
X5.0039Y-1.5039
X5.0394Y-2.2047
X5.0551Y-1.7165
X5.0551Y-1.7835
X5.0709Y-1.2984
X5.0709Y-1.6228
X5.0709Y-1.6614
X5.0787Y-1.2165
X5.0787Y-2.4803
X5.1378Y-1.622
X5.1378Y-1.7165
X5.1378Y-1.7835
X5.1417Y-1.2957
X5.1575Y-0.5118
X5.1575Y-1.063
X5.1575Y-1.9685
X5.1884Y-1.4055
X5.1969Y-2.126
X5.1969Y-2.4803
X5.2244Y-0.5512
X5.2756Y-1.4843
X5.2756Y-2.3228
X5.2795Y-1.4055
X5.2795Y-1.4409
X5.3041Y-0.8169
X5.3041Y-0.8661
X5.3071Y-0.9665
X5.315Y-0.3937
X5.315Y-2.5984
X5.3347Y-0.5512
X5.3543Y-0.0787
X5.3543Y-0.2362
X5.3543Y-2.4409
X5.3622Y-0.5945
X5.3622Y-0.6181
X5.3622Y-0.6457
X5.3937Y-0.748
X5.3937Y-2.6772
X5.4213Y-1.4606
X5.4213Y-1.5
X5.4331Y-0.5118
X5.4724Y-2.5591
X5.5394Y-0.7736
X5.5509Y-0.0781
X5.5512Y-0.1969
X5.5906Y-0.315
X5.5906Y-2.5984
X5.6388Y-1.2894
X5.6447Y-2.4311
X5.6476Y-1.8602
X5.7087Y-0.3543
X5.7874Y-2.5984
X5.8346Y-0.3396
X5.8346Y-0.8573
X5.8346Y-0.9144
X5.8346Y-1.3248
X5.8346Y-1.5945
X5.8346Y-2.003
X5.8346Y-2.0551
X5.8346Y-2.4636
X5.8661Y-0.5118
X5.8661Y-0.5906
X5.8661Y-0.6693
X5.8661Y-1.063
X5.8661Y-1.1417
X5.8661Y-1.2205
X5.8661Y-1.6535
X5.8661Y-1.7323
X5.8661Y-1.811
X5.8661Y-2.2047
X5.8661Y-2.2835
X5.8661Y-2.3622
T2
X0.9304Y-1.4512
X0.9304Y-1.4974
X0.9304Y-1.5437
X0.9304Y-1.59
X0.9304Y-1.6362
X0.9767Y-1.4512
X0.9767Y-1.4974
X0.9767Y-1.5437
X0.9767Y-1.59
X0.9767Y-1.6362
X1.0229Y-1.4512
X1.0229Y-1.4974
X1.0229Y-1.5437
X1.0229Y-1.59
X1.0229Y-1.6362
X1.0692Y-1.4512
X1.0692Y-1.4974
X1.0692Y-1.5437
X1.0692Y-1.59
X1.0692Y-1.6362
X1.1155Y-1.4512
X1.1155Y-1.4974
X1.1155Y-1.5437
X1.1155Y-1.59
X1.1155Y-1.6362
T4
X0.4016Y-1.3453
X0.4016Y-1.4437
X0.4016Y-1.5224
X0.4016Y-1.6209
X0.4606Y-1.3256
X0.4606Y-1.4831
X0.4606Y-1.5618
X0.4606Y-1.6406
X0.4626Y-1.4043
X0.5276Y-1.3453
X0.5276Y-1.4437
X0.5276Y-1.5224
X0.5276Y-1.6209
X0.5866Y-1.3256
X0.5866Y-1.4831
X0.5866Y-1.5618
X0.5866Y-1.6406
X0.5886Y-1.4043
T5
X0.6416Y-2.0698
X0.6416Y-2.5099
X0.6995Y-2.0698
X0.6995Y-2.5099
X0.9794Y-2.0897
X0.9794Y-2.1697
X0.9794Y-2.2497
X0.9794Y-2.3297
X0.9794Y-2.4097
X0.9794Y-2.4897
X1.0794Y-2.0497
X1.0794Y-2.1297
X1.0794Y-2.2097
X1.0794Y-2.3697
X1.0794Y-2.4497
X1.0794Y-2.5297
T6
X1.2205Y-0.1181
X1.3205Y-0.1181
X1.4205Y-0.1181
X1.5205Y-0.1181
X1.5748Y-2.7953
X1.6205Y-0.1181
X1.6748Y-2.7953
X1.7205Y-0.1181
X1.7748Y-2.7953
X1.8205Y-0.1181
X1.8748Y-2.7953
X1.9205Y-0.1181
X1.9669Y-2.6083
X1.9748Y-2.7953
X2.0205Y-0.1181
X2.0669Y-2.6083
X2.0748Y-2.7953
X2.1205Y-0.1181
X2.1669Y-2.6083
X2.1748Y-2.7953
X2.2669Y-2.6083
X2.2748Y-2.7953
X2.3669Y-2.6083
X2.3748Y-2.7953
X2.4669Y-2.6083
X2.4748Y-2.7953
X2.5669Y-2.6083
X2.6669Y-2.6083
X2.7669Y-2.6083
X2.8669Y-2.6083
X4.2126Y-0.1181
X4.3126Y-0.1181
X4.4126Y-0.1181
X4.5126Y-0.1181
X4.5669Y-2.7953
X4.6126Y-0.1181
X4.6669Y-2.7953
X4.7126Y-0.1181
X4.7669Y-2.7953
X4.8126Y-0.1181
X4.8669Y-2.7953
X4.9126Y-0.1181
X4.9669Y-2.7953
X5.0126Y-0.1181
X5.0669Y-2.7953
X5.1126Y-0.1181
X5.1669Y-2.7953
X5.2669Y-2.7953
X5.3669Y-2.7953
X5.4669Y-2.7953
T7
X1.1794Y-2.0497
X1.1794Y-2.1497
X1.1794Y-2.4297
X1.1794Y-2.5297
T8
X0.2544Y-1.9722
X0.2544Y-2.6072
T9
X0.1271Y-0.4269
X0.1271Y-0.9977
T10
X0.3633Y-0.4269
X0.3633Y-0.9977
T11
X0.3228Y-1.2244
X0.3228Y-1.7417
X0.5465Y-1.2244
X0.5465Y-1.7417
T12
X0.1378Y-0.1378
X0.1378Y-2.815
X2.815Y-0.1378
X2.815Y-2.815
X3.1299Y-0.1378
X5.8071Y-0.1378
X5.8071Y-2.815
T3
G00X0.5295Y-0.0997
M15
G01X0.5295Y-0.0397
M16
G05
G00X0.5295Y-0.3019
M15
G01X0.5295Y-0.2595
M16
G05
G00X0.8697Y-0.0997
M15
G01X0.8697Y-0.0397
M16
G05
G00X0.8697Y-0.3014
M15
G01X0.8697Y-0.26
M16
G05
G00X2.2748Y-0.0989
M15
G01X2.2748Y-0.0389
M16
G05
G00X2.2748Y-0.3011
M15
G01X2.2748Y-0.2588
M16
G05
G00X2.615Y-0.0989
M15
G01X2.615Y-0.0389
M16
G05
G00X2.615Y-0.3006
M15
G01X2.615Y-0.2592
M16
G05
T0
M30
