%TF.GenerationSoftware,KiCad,Pcbnew,(7.0.0)*%
%TF.CreationDate,2023-02-14T07:36:11+09:00*%
%TF.ProjectId,audio,61756469-6f2e-46b6-9963-61645f706362,rev?*%
%TF.SameCoordinates,Original*%
%TF.FileFunction,Soldermask,Top*%
%TF.FilePolarity,Negative*%
%FSLAX46Y46*%
G04 Gerber Fmt 4.6, Leading zero omitted, Abs format (unit mm)*
G04 Created by KiCad (PCBNEW (7.0.0)) date 2023-02-14 07:36:11*
%MOMM*%
%LPD*%
G01*
G04 APERTURE LIST*
G04 Aperture macros list*
%AMRoundRect*
0 Rectangle with rounded corners*
0 $1 Rounding radius*
0 $2 $3 $4 $5 $6 $7 $8 $9 X,Y pos of 4 corners*
0 Add a 4 corners polygon primitive as box body*
4,1,4,$2,$3,$4,$5,$6,$7,$8,$9,$2,$3,0*
0 Add four circle primitives for the rounded corners*
1,1,$1+$1,$2,$3*
1,1,$1+$1,$4,$5*
1,1,$1+$1,$6,$7*
1,1,$1+$1,$8,$9*
0 Add four rect primitives between the rounded corners*
20,1,$1+$1,$2,$3,$4,$5,0*
20,1,$1+$1,$4,$5,$6,$7,0*
20,1,$1+$1,$6,$7,$8,$9,0*
20,1,$1+$1,$8,$9,$2,$3,0*%
%AMOutline5P*
0 Free polygon, 5 corners , with rotation*
0 The origin of the aperture is its center*
0 number of corners: always 5*
0 $1 to $10 corner X, Y*
0 $11 Rotation angle, in degrees counterclockwise*
0 create outline with 5 corners*
4,1,5,$1,$2,$3,$4,$5,$6,$7,$8,$9,$10,$1,$2,$11*%
%AMOutline6P*
0 Free polygon, 6 corners , with rotation*
0 The origin of the aperture is its center*
0 number of corners: always 6*
0 $1 to $12 corner X, Y*
0 $13 Rotation angle, in degrees counterclockwise*
0 create outline with 6 corners*
4,1,6,$1,$2,$3,$4,$5,$6,$7,$8,$9,$10,$11,$12,$1,$2,$13*%
%AMOutline7P*
0 Free polygon, 7 corners , with rotation*
0 The origin of the aperture is its center*
0 number of corners: always 7*
0 $1 to $14 corner X, Y*
0 $15 Rotation angle, in degrees counterclockwise*
0 create outline with 7 corners*
4,1,7,$1,$2,$3,$4,$5,$6,$7,$8,$9,$10,$11,$12,$13,$14,$1,$2,$15*%
%AMOutline8P*
0 Free polygon, 8 corners , with rotation*
0 The origin of the aperture is its center*
0 number of corners: always 8*
0 $1 to $16 corner X, Y*
0 $17 Rotation angle, in degrees counterclockwise*
0 create outline with 8 corners*
4,1,8,$1,$2,$3,$4,$5,$6,$7,$8,$9,$10,$11,$12,$13,$14,$15,$16,$1,$2,$17*%
G04 Aperture macros list end*
%ADD10C,1.200000*%
%ADD11RoundRect,0.135000X0.135000X0.185000X-0.135000X0.185000X-0.135000X-0.185000X0.135000X-0.185000X0*%
%ADD12RoundRect,0.140000X-0.140000X-0.170000X0.140000X-0.170000X0.140000X0.170000X-0.140000X0.170000X0*%
%ADD13RoundRect,0.140000X-0.170000X0.140000X-0.170000X-0.140000X0.170000X-0.140000X0.170000X0.140000X0*%
%ADD14C,3.200000*%
%ADD15RoundRect,0.200000X0.275000X-0.200000X0.275000X0.200000X-0.275000X0.200000X-0.275000X-0.200000X0*%
%ADD16RoundRect,0.140000X0.140000X0.170000X-0.140000X0.170000X-0.140000X-0.170000X0.140000X-0.170000X0*%
%ADD17RoundRect,0.200000X-0.275000X0.200000X-0.275000X-0.200000X0.275000X-0.200000X0.275000X0.200000X0*%
%ADD18Outline5P,-0.125000X0.200000X0.000000X0.200000X0.125000X0.075000X0.125000X-0.200000X-0.125000X-0.200000X90.000000*%
%ADD19Outline5P,-0.125000X0.075000X0.000000X0.200000X0.125000X0.200000X0.125000X-0.200000X-0.125000X-0.200000X90.000000*%
%ADD20Outline5P,-0.125000X0.200000X0.125000X0.200000X0.125000X-0.200000X0.000000X-0.200000X-0.125000X-0.075000X90.000000*%
%ADD21Outline5P,-0.125000X0.200000X0.125000X0.200000X0.125000X-0.075000X0.000000X-0.200000X-0.125000X-0.200000X90.000000*%
%ADD22Outline5P,-0.200000X0.200000X0.200000X0.200000X0.200000X-0.200000X-0.120000X-0.200000X-0.200000X-0.120000X135.000000*%
%ADD23RoundRect,0.150000X0.150000X-0.587500X0.150000X0.587500X-0.150000X0.587500X-0.150000X-0.587500X0*%
%ADD24RoundRect,0.135000X-0.135000X-0.185000X0.135000X-0.185000X0.135000X0.185000X-0.135000X0.185000X0*%
%ADD25RoundRect,0.140000X0.170000X-0.140000X0.170000X0.140000X-0.170000X0.140000X-0.170000X-0.140000X0*%
%ADD26R,0.700000X0.300000*%
%ADD27R,0.700000X1.000000*%
%ADD28O,2.200000X1.200000*%
%ADD29O,2.700000X1.200000*%
%ADD30O,2.600000X1.200000*%
%ADD31R,1.524000X1.524000*%
%ADD32C,1.524000*%
%ADD33C,1.800000*%
%ADD34O,1.270000X1.524000*%
%ADD35C,2.630000*%
%ADD36C,2.610000*%
%ADD37RoundRect,0.250000X0.925000X-0.412500X0.925000X0.412500X-0.925000X0.412500X-0.925000X-0.412500X0*%
%ADD38C,6.100000*%
%ADD39R,0.700000X0.200000*%
%ADD40R,0.550000X0.300000*%
%ADD41R,0.550000X0.400000*%
%ADD42R,1.700000X1.700000*%
%ADD43O,1.700000X1.700000*%
%ADD44Outline5P,-0.125000X0.200000X0.000000X0.200000X0.125000X0.075000X0.125000X-0.200000X-0.125000X-0.200000X0.000000*%
%ADD45Outline5P,-0.125000X0.075000X0.000000X0.200000X0.125000X0.200000X0.125000X-0.200000X-0.125000X-0.200000X0.000000*%
%ADD46Outline5P,-0.125000X0.200000X0.125000X0.200000X0.125000X-0.200000X0.000000X-0.200000X-0.125000X-0.075000X0.000000*%
%ADD47Outline5P,-0.125000X0.200000X0.125000X0.200000X0.125000X-0.075000X0.000000X-0.200000X-0.125000X-0.200000X0.000000*%
%ADD48Outline5P,-0.200000X0.200000X0.200000X0.200000X0.200000X-0.200000X-0.120000X-0.200000X-0.200000X-0.120000X45.000000*%
%ADD49RoundRect,0.200000X0.200000X0.275000X-0.200000X0.275000X-0.200000X-0.275000X0.200000X-0.275000X0*%
%ADD50RoundRect,0.250000X-0.412500X-0.925000X0.412500X-0.925000X0.412500X0.925000X-0.412500X0.925000X0*%
%ADD51Outline5P,-0.125000X0.200000X0.000000X0.200000X0.125000X0.075000X0.125000X-0.200000X-0.125000X-0.200000X270.000000*%
%ADD52Outline5P,-0.125000X0.075000X0.000000X0.200000X0.125000X0.200000X0.125000X-0.200000X-0.125000X-0.200000X270.000000*%
%ADD53Outline5P,-0.125000X0.200000X0.125000X0.200000X0.125000X-0.200000X0.000000X-0.200000X-0.125000X-0.075000X270.000000*%
%ADD54Outline5P,-0.125000X0.200000X0.125000X0.200000X0.125000X-0.075000X0.000000X-0.200000X-0.125000X-0.200000X270.000000*%
%ADD55Outline5P,-0.200000X0.200000X0.200000X0.200000X0.200000X-0.200000X-0.120000X-0.200000X-0.200000X-0.120000X315.000000*%
%ADD56R,0.300000X0.550000*%
%ADD57R,0.400000X0.550000*%
%ADD58RoundRect,0.135000X-0.185000X0.135000X-0.185000X-0.135000X0.185000X-0.135000X0.185000X0.135000X0*%
%ADD59Outline5P,-0.125000X0.200000X0.000000X0.200000X0.125000X0.075000X0.125000X-0.200000X-0.125000X-0.200000X180.000000*%
%ADD60Outline5P,-0.125000X0.075000X0.000000X0.200000X0.125000X0.200000X0.125000X-0.200000X-0.125000X-0.200000X180.000000*%
%ADD61Outline5P,-0.125000X0.200000X0.125000X0.200000X0.125000X-0.200000X0.000000X-0.200000X-0.125000X-0.075000X180.000000*%
%ADD62Outline5P,-0.125000X0.200000X0.125000X0.200000X0.125000X-0.075000X0.000000X-0.200000X-0.125000X-0.200000X180.000000*%
%ADD63Outline5P,-0.200000X0.200000X0.200000X0.200000X0.200000X-0.200000X-0.120000X-0.200000X-0.200000X-0.120000X225.000000*%
%ADD64RoundRect,0.225000X0.225000X0.250000X-0.225000X0.250000X-0.225000X-0.250000X0.225000X-0.250000X0*%
%ADD65RoundRect,0.135000X0.185000X-0.135000X0.185000X0.135000X-0.185000X0.135000X-0.185000X-0.135000X0*%
%ADD66RoundRect,0.150000X0.150000X-0.825000X0.150000X0.825000X-0.150000X0.825000X-0.150000X-0.825000X0*%
%ADD67R,2.600000X0.280000*%
%ADD68C,3.400000*%
%ADD69C,2.500000*%
%ADD70R,0.558000X1.391399*%
%ADD71R,0.800000X0.200000*%
%ADD72R,0.200000X0.800000*%
%ADD73Outline5P,-2.100000X1.750000X-1.750000X2.100000X2.100000X2.100000X2.100000X-2.100000X-2.100000X-2.100000X0.000000*%
%ADD74RoundRect,0.200000X-0.200000X-0.275000X0.200000X-0.275000X0.200000X0.275000X-0.200000X0.275000X0*%
%ADD75R,1.925000X0.650000*%
%ADD76R,0.300000X0.700000*%
%ADD77R,1.000000X0.700000*%
%ADD78O,1.200000X2.200000*%
%ADD79O,1.200000X2.700000*%
%ADD80O,1.200000X2.600000*%
%ADD81R,1.100000X1.300000*%
%ADD82R,0.650000X1.925000*%
G04 APERTURE END LIST*
D10*
%TO.C,U24*%
X-23000000Y-74000000D03*
X-21000000Y-74000000D03*
X-21000000Y-72000000D03*
X-23000000Y-72000000D03*
%TD*%
%TO.C,U22*%
X-17000000Y-74000000D03*
X-15000000Y-74000000D03*
X-15000000Y-72000000D03*
X-17000000Y-72000000D03*
%TD*%
%TO.C,U20*%
X-11000000Y-74000000D03*
X-9000000Y-74000000D03*
X-9000000Y-72000000D03*
X-11000000Y-72000000D03*
%TD*%
D11*
%TO.C,R63*%
X-22490000Y-69500000D03*
X-23510000Y-69500000D03*
%TD*%
%TO.C,R62*%
X-22490000Y-67500000D03*
X-23510000Y-67500000D03*
%TD*%
%TO.C,R61*%
X-16490000Y-69500000D03*
X-17510000Y-69500000D03*
%TD*%
%TO.C,R60*%
X-16490000Y-67500000D03*
X-17510000Y-67500000D03*
%TD*%
%TO.C,R59*%
X-10490000Y-69500000D03*
X-11510000Y-69500000D03*
%TD*%
%TO.C,R58*%
X-10490000Y-67500000D03*
X-11510000Y-67500000D03*
%TD*%
D12*
%TO.C,C14*%
X-23480000Y-70500000D03*
X-22520000Y-70500000D03*
%TD*%
D13*
%TO.C,C13*%
X-20640000Y-68320000D03*
X-20640000Y-69280000D03*
%TD*%
D12*
%TO.C,C12*%
X-23480000Y-68500000D03*
X-22520000Y-68500000D03*
%TD*%
%TO.C,C11*%
X-17480000Y-70500000D03*
X-16520000Y-70500000D03*
%TD*%
D13*
%TO.C,C10*%
X-14640000Y-68320000D03*
X-14640000Y-69280000D03*
%TD*%
D12*
%TO.C,C9*%
X-17480000Y-68500000D03*
X-16520000Y-68500000D03*
%TD*%
%TO.C,C8*%
X-11480000Y-70500000D03*
X-10520000Y-70500000D03*
%TD*%
D13*
%TO.C,C7*%
X-8640000Y-68320000D03*
X-8640000Y-69280000D03*
%TD*%
D12*
%TO.C,C6*%
X-11480000Y-68500000D03*
X-10520000Y-68500000D03*
%TD*%
D14*
%TO.C,*%
X92000000Y-60000000D03*
%TD*%
%TO.C,*%
X182000000Y-60000000D03*
%TD*%
%TO.C,*%
X182000000Y30000000D03*
%TD*%
%TO.C,*%
X92000000Y30000000D03*
%TD*%
D11*
%TO.C,R57*%
X155410000Y-7600000D03*
X154390000Y-7600000D03*
%TD*%
%TO.C,R56*%
X158910000Y-11700000D03*
X157890000Y-11700000D03*
%TD*%
%TO.C,R55*%
X158810000Y-18600000D03*
X157790000Y-18600000D03*
%TD*%
%TO.C,R54*%
X156010000Y-21000000D03*
X154990000Y-21000000D03*
%TD*%
D10*
%TO.C,U17*%
X195055358Y-71641145D03*
X193641144Y-73055359D03*
X192226931Y-71641145D03*
X193641144Y-70226931D03*
%TD*%
D11*
%TO.C,R41*%
X155410000Y-5600000D03*
X154390000Y-5600000D03*
%TD*%
%TO.C,R40*%
X155410000Y-6600000D03*
X154390000Y-6600000D03*
%TD*%
%TO.C,R39*%
X158910000Y-9700000D03*
X157890000Y-9700000D03*
%TD*%
%TO.C,R38*%
X158910000Y-10700000D03*
X157890000Y-10700000D03*
%TD*%
%TO.C,R37*%
X158810000Y-16600000D03*
X157790000Y-16600000D03*
%TD*%
%TO.C,R9*%
X158810000Y-17600000D03*
X157790000Y-17600000D03*
%TD*%
%TO.C,R8*%
X156010000Y-19000000D03*
X154990000Y-19000000D03*
%TD*%
%TO.C,R7*%
X156010000Y-20000000D03*
X154990000Y-20000000D03*
%TD*%
D15*
%TO.C,R53*%
X115400000Y2175000D03*
X115400000Y3825000D03*
%TD*%
D12*
%TO.C,C62*%
X136620000Y-42500000D03*
X137580000Y-42500000D03*
%TD*%
D16*
%TO.C,C78*%
X147037500Y-43510000D03*
X146077500Y-43510000D03*
%TD*%
D17*
%TO.C,R43*%
X120300000Y15225000D03*
X120300000Y13575000D03*
%TD*%
D12*
%TO.C,C51*%
X159520000Y-15600000D03*
X160480000Y-15600000D03*
%TD*%
%TO.C,C57*%
X155920000Y-13180000D03*
X156880000Y-13180000D03*
%TD*%
D18*
%TO.C,U12*%
X109029999Y-2709999D03*
D19*
X109029999Y-2059999D03*
D20*
X108129999Y-2059999D03*
D21*
X108129999Y-2709999D03*
D22*
X108579999Y-2384999D03*
%TD*%
D23*
%TO.C,U1*%
X8050000Y-7437500D03*
X9950000Y-7437500D03*
X9000000Y-5562500D03*
%TD*%
D24*
%TO.C,R33*%
X150890000Y-21100000D03*
X151910000Y-21100000D03*
%TD*%
D14*
%TO.C,REF\u002A\u002A*%
X3500000Y-71500000D03*
%TD*%
D25*
%TO.C,C2*%
X11500000Y-7480000D03*
X11500000Y-6520000D03*
%TD*%
D13*
%TO.C,C4*%
X-2620000Y-68320000D03*
X-2620000Y-69280000D03*
%TD*%
D15*
%TO.C,R49*%
X140800000Y-32225000D03*
X140800000Y-30575000D03*
%TD*%
D25*
%TO.C,C68*%
X144200000Y4620000D03*
X144200000Y5580000D03*
%TD*%
D26*
%TO.C,J5*%
X7369999Y-34499999D03*
X7369999Y-34999999D03*
X7369999Y-35499999D03*
X7369999Y-35999999D03*
X7369999Y-36499999D03*
X7369999Y-36999999D03*
X7369999Y-37999999D03*
X7369999Y-38499999D03*
X7369999Y-38999999D03*
X7369999Y-39499999D03*
X7369999Y-39999999D03*
X7369999Y-40499999D03*
D27*
X6069999Y-40599999D03*
D26*
X6069999Y-39749999D03*
X6069999Y-39249999D03*
X6069999Y-38749999D03*
X6069999Y-38249999D03*
X6069999Y-37749999D03*
X6069999Y-37249999D03*
X6069999Y-36749999D03*
X6069999Y-36249999D03*
X6069999Y-35749999D03*
X6069999Y-35249999D03*
D27*
X6069999Y-34399999D03*
D28*
X6959999Y-33179999D03*
X6959999Y-41819999D03*
D29*
X1599999Y-33179999D03*
D30*
X1599999Y-41819999D03*
%TD*%
D24*
%TO.C,R1*%
X31490000Y-41750000D03*
X32510000Y-41750000D03*
%TD*%
D14*
%TO.C,J2*%
X9637500Y-64507500D03*
X9637500Y-51807500D03*
D31*
X24877499Y-63237499D03*
D32*
X24877500Y-61205500D03*
X24877500Y-59173500D03*
X24877500Y-57141500D03*
X24877500Y-55109500D03*
X24877500Y-53077500D03*
X27417500Y-64253500D03*
X27417500Y-62221500D03*
X27417500Y-60189500D03*
X27417500Y-56125500D03*
X27417500Y-54093500D03*
X27417500Y-52061500D03*
D33*
X29957500Y-64253500D03*
X29957500Y-61713500D03*
X29957500Y-54601500D03*
X29957500Y-52061500D03*
D34*
X17767499Y-63752499D03*
X17767499Y-52572499D03*
X16297499Y-63752499D03*
X16297499Y-52572499D03*
D35*
X6462500Y-66222000D03*
D36*
X6462500Y-50093000D03*
%TD*%
D12*
%TO.C,C41*%
X108120000Y-900000D03*
X109080000Y-900000D03*
%TD*%
%TO.C,C5*%
X-5460000Y-70500000D03*
X-4500000Y-70500000D03*
%TD*%
D24*
%TO.C,R14*%
X8490000Y-3500000D03*
X9510000Y-3500000D03*
%TD*%
D37*
%TO.C,C73*%
X14900000Y-44437500D03*
X14900000Y-41362500D03*
%TD*%
D24*
%TO.C,R2*%
X31490000Y-42750000D03*
X32510000Y-42750000D03*
%TD*%
%TO.C,R35*%
X147250000Y17410000D03*
X148270000Y17410000D03*
%TD*%
D25*
%TO.C,C71*%
X158525000Y4620000D03*
X158525000Y5580000D03*
%TD*%
D38*
%TO.C,CM4_MODULE1*%
X71200000Y-61100000D03*
X71200000Y-13100000D03*
X38200000Y-61100000D03*
X38200000Y-13100000D03*
D39*
X73239999Y-44399999D03*
X70159999Y-44399999D03*
X73239999Y-43999999D03*
X70159999Y-43999999D03*
X73239999Y-43599999D03*
X70159999Y-43599999D03*
X73239999Y-43199999D03*
X70159999Y-43199999D03*
X73239999Y-42799999D03*
X70159999Y-42799999D03*
X73239999Y-42399999D03*
X70159999Y-42399999D03*
X73239999Y-41999999D03*
X70159999Y-41999999D03*
X73239999Y-41599999D03*
X70159999Y-41599999D03*
X73239999Y-41199999D03*
X70159999Y-41199999D03*
X73239999Y-40799999D03*
X70159999Y-40799999D03*
X73239999Y-40399999D03*
X70159999Y-40399999D03*
X73239999Y-39999999D03*
X70159999Y-39999999D03*
X73239999Y-39599999D03*
X70159999Y-39599999D03*
X73239999Y-39199999D03*
X70159999Y-39199999D03*
X73239999Y-38799999D03*
X70159999Y-38799999D03*
X73239999Y-38399999D03*
X70159999Y-38399999D03*
X73239999Y-37999999D03*
X70159999Y-37999999D03*
X73239999Y-37599999D03*
X70159999Y-37599999D03*
X73239999Y-37199999D03*
X70159999Y-37199999D03*
X73239999Y-36799999D03*
X70159999Y-36799999D03*
X73239999Y-36399999D03*
X70159999Y-36399999D03*
X73239999Y-35999999D03*
X70159999Y-35999999D03*
X73239999Y-35599999D03*
X70159999Y-35599999D03*
X73239999Y-35199999D03*
X70159999Y-35199999D03*
X73239999Y-34799999D03*
X70159999Y-34799999D03*
X73239999Y-34399999D03*
X70159999Y-34399999D03*
X73239999Y-33999999D03*
X70159999Y-33999999D03*
X73239999Y-33599999D03*
X70159999Y-33599999D03*
X73239999Y-33199999D03*
X70159999Y-33199999D03*
X73239999Y-32799999D03*
X70159999Y-32799999D03*
X73239999Y-32399999D03*
X70159999Y-32399999D03*
X73239999Y-31999999D03*
X70159999Y-31999999D03*
X73239999Y-31599999D03*
X70159999Y-31599999D03*
X73239999Y-31199999D03*
X70159999Y-31199999D03*
X73239999Y-30799999D03*
X70159999Y-30799999D03*
X73239999Y-30399999D03*
X70159999Y-30399999D03*
X73239999Y-29999999D03*
X70159999Y-29999999D03*
X73239999Y-29599999D03*
X70159999Y-29599999D03*
X73239999Y-29199999D03*
X70159999Y-29199999D03*
X73239999Y-28799999D03*
X70159999Y-28799999D03*
X73239999Y-28399999D03*
X70159999Y-28399999D03*
X73239999Y-27999999D03*
X70159999Y-27999999D03*
X73239999Y-27599999D03*
X70159999Y-27599999D03*
X73239999Y-27199999D03*
X70159999Y-27199999D03*
X73239999Y-26799999D03*
X70159999Y-26799999D03*
X73239999Y-26399999D03*
X70159999Y-26399999D03*
X73239999Y-25999999D03*
X70159999Y-25999999D03*
X73239999Y-25599999D03*
X70159999Y-25599999D03*
X73239999Y-25199999D03*
X70159999Y-25199999D03*
X73239999Y-24799999D03*
X70159999Y-24799999D03*
X39239999Y-44399999D03*
X36159999Y-44399999D03*
X39239999Y-43999999D03*
X36159999Y-43999999D03*
X39239999Y-43599999D03*
X36159999Y-43599999D03*
X39239999Y-43199999D03*
X36159999Y-43199999D03*
X39239999Y-42799999D03*
X36159999Y-42799999D03*
X39239999Y-42399999D03*
X36159999Y-42399999D03*
X39239999Y-41999999D03*
X36159999Y-41999999D03*
X39239999Y-41599999D03*
X36159999Y-41599999D03*
X39239999Y-41199999D03*
X36159999Y-41199999D03*
X39239999Y-40799999D03*
X36159999Y-40799999D03*
X39239999Y-40399999D03*
X36159999Y-40399999D03*
X39239999Y-39999999D03*
X36159999Y-39999999D03*
X39239999Y-39599999D03*
X36159999Y-39599999D03*
X39239999Y-39199999D03*
X36159999Y-39199999D03*
X39239999Y-38799999D03*
X36159999Y-38799999D03*
X39239999Y-38399999D03*
X36159999Y-38399999D03*
X39239999Y-37999999D03*
X36159999Y-37999999D03*
X39239999Y-37599999D03*
X36159999Y-37599999D03*
X39239999Y-37199999D03*
X36159999Y-37199999D03*
X39239999Y-36799999D03*
X36159999Y-36799999D03*
X39239999Y-36399999D03*
X36159999Y-36399999D03*
X39239999Y-35999999D03*
X36159999Y-35999999D03*
X39239999Y-35599999D03*
X36159999Y-35599999D03*
X39239999Y-35199999D03*
X36159999Y-35199999D03*
X39239999Y-34799999D03*
X36159999Y-34799999D03*
X39239999Y-34399999D03*
X36159999Y-34399999D03*
X39239999Y-33999999D03*
X36159999Y-33999999D03*
X39239999Y-33599999D03*
X36159999Y-33599999D03*
X39239999Y-33199999D03*
X36159999Y-33199999D03*
X39239999Y-32799999D03*
X36159999Y-32799999D03*
X39239999Y-32399999D03*
X36159999Y-32399999D03*
X39239999Y-31999999D03*
X36159999Y-31999999D03*
X39239999Y-31599999D03*
X36159999Y-31599999D03*
X39239999Y-31199999D03*
X36159999Y-31199999D03*
X39239999Y-30799999D03*
X36159999Y-30799999D03*
X39239999Y-30399999D03*
X36159999Y-30399999D03*
X39239999Y-29999999D03*
X36159999Y-29999999D03*
X39239999Y-29599999D03*
X36159999Y-29599999D03*
X39239999Y-29199999D03*
X36159999Y-29199999D03*
X39239999Y-28799999D03*
X36159999Y-28799999D03*
X39239999Y-28399999D03*
X36159999Y-28399999D03*
X39239999Y-27999999D03*
X36159999Y-27999999D03*
X39239999Y-27599999D03*
X36159999Y-27599999D03*
X39239999Y-27199999D03*
X36159999Y-27199999D03*
X39239999Y-26799999D03*
X36159999Y-26799999D03*
X39239999Y-26399999D03*
X36159999Y-26399999D03*
X39239999Y-25999999D03*
X36159999Y-25999999D03*
X39239999Y-25599999D03*
X36159999Y-25599999D03*
X39239999Y-25199999D03*
X36159999Y-25199999D03*
X39239999Y-24799999D03*
X36159999Y-24799999D03*
%TD*%
D40*
%TO.C,U5*%
X37774999Y-57139999D03*
X37774999Y-56639999D03*
D41*
X37774999Y-56139999D03*
D40*
X37774999Y-55639999D03*
X37774999Y-55139999D03*
X37004999Y-55139999D03*
X37004999Y-55639999D03*
D41*
X37004999Y-56139999D03*
D40*
X37004999Y-56639999D03*
X37004999Y-57139999D03*
%TD*%
%TO.C,U3*%
X9364999Y-37249999D03*
X9364999Y-37749999D03*
D41*
X9364999Y-38249999D03*
D40*
X9364999Y-38749999D03*
X9364999Y-39249999D03*
X10134999Y-39249999D03*
X10134999Y-38749999D03*
D41*
X10134999Y-38249999D03*
D40*
X10134999Y-37749999D03*
X10134999Y-37249999D03*
%TD*%
D13*
%TO.C,C54*%
X152300000Y-18720000D03*
X152300000Y-19680000D03*
%TD*%
D24*
%TO.C,R4*%
X31490000Y-44750000D03*
X32510000Y-44750000D03*
%TD*%
D42*
%TO.C,J6*%
X30999999Y-2999999D03*
D43*
X33539999Y-2999999D03*
X36079999Y-2999999D03*
X38619999Y-2999999D03*
X41159999Y-2999999D03*
X43699999Y-2999999D03*
X46239999Y-2999999D03*
X48779999Y-2999999D03*
X51319999Y-2999999D03*
X53859999Y-2999999D03*
%TD*%
D12*
%TO.C,C3*%
X-5460000Y-68500000D03*
X-4500000Y-68500000D03*
%TD*%
D16*
%TO.C,C46*%
X147280000Y-13100000D03*
X146320000Y-13100000D03*
%TD*%
D12*
%TO.C,C76*%
X129680000Y12280000D03*
X130640000Y12280000D03*
%TD*%
D15*
%TO.C,R48*%
X138600000Y-32225000D03*
X138600000Y-30575000D03*
%TD*%
D44*
%TO.C,U13*%
X129854999Y13229999D03*
D45*
X130504999Y13229999D03*
D46*
X130504999Y14129999D03*
D47*
X129854999Y14129999D03*
D48*
X130179999Y13679999D03*
%TD*%
D25*
%TO.C,C45*%
X151200000Y-9980000D03*
X151200000Y-9020000D03*
%TD*%
D14*
%TO.C,REF\u002A\u002A*%
X3500000Y-3500000D03*
%TD*%
D49*
%TO.C,R25*%
X152325000Y-7300000D03*
X150675000Y-7300000D03*
%TD*%
D24*
%TO.C,R11*%
X31490000Y-45750000D03*
X32510000Y-45750000D03*
%TD*%
%TO.C,R27*%
X143920000Y-14790000D03*
X144940000Y-14790000D03*
%TD*%
D16*
%TO.C,C1*%
X6780000Y-7400000D03*
X5820000Y-7400000D03*
%TD*%
D17*
%TO.C,R44*%
X117700000Y15225000D03*
X117700000Y13575000D03*
%TD*%
D40*
%TO.C,U6*%
X37799999Y-52329999D03*
X37799999Y-51829999D03*
D41*
X37799999Y-51329999D03*
D40*
X37799999Y-50829999D03*
X37799999Y-50329999D03*
X37029999Y-50329999D03*
X37029999Y-50829999D03*
D41*
X37029999Y-51329999D03*
D40*
X37029999Y-51829999D03*
X37029999Y-52329999D03*
%TD*%
D25*
%TO.C,C44*%
X148800000Y-9980000D03*
X148800000Y-9020000D03*
%TD*%
D24*
%TO.C,R21*%
X14740000Y-34010000D03*
X15760000Y-34010000D03*
%TD*%
D50*
%TO.C,C82*%
X157062500Y12100000D03*
X160137500Y12100000D03*
%TD*%
D10*
%TO.C,U15*%
X79044642Y41641144D03*
X80458856Y43055358D03*
X81873069Y41641144D03*
X80458856Y40226930D03*
%TD*%
D24*
%TO.C,R18*%
X10740000Y-1000000D03*
X11760000Y-1000000D03*
%TD*%
D13*
%TO.C,C58*%
X125100000Y11280000D03*
X125100000Y10320000D03*
%TD*%
D12*
%TO.C,C63*%
X108120000Y1300000D03*
X109080000Y1300000D03*
%TD*%
D17*
%TO.C,R46*%
X136000000Y-44975000D03*
X136000000Y-46625000D03*
%TD*%
D15*
%TO.C,R51*%
X117100000Y2175000D03*
X117100000Y3825000D03*
%TD*%
D10*
%TO.C,U18*%
X80358856Y-73055358D03*
X78944642Y-71641144D03*
X80358856Y-70226931D03*
X81773070Y-71641144D03*
%TD*%
D16*
%TO.C,C77*%
X147007500Y-46420000D03*
X146047500Y-46420000D03*
%TD*%
%TO.C,C65*%
X137180000Y-33700000D03*
X136220000Y-33700000D03*
%TD*%
D24*
%TO.C,R20*%
X12740000Y-32760000D03*
X13760000Y-32760000D03*
%TD*%
D51*
%TO.C,U11*%
X157849999Y9624999D03*
D52*
X157849999Y8974999D03*
D53*
X158749999Y8974999D03*
D54*
X158749999Y9624999D03*
D55*
X158299999Y9299999D03*
%TD*%
D56*
%TO.C,U7*%
X16019999Y-10794999D03*
X16519999Y-10794999D03*
D57*
X17019999Y-10794999D03*
D56*
X17519999Y-10794999D03*
X18019999Y-10794999D03*
X18019999Y-10024999D03*
X17519999Y-10024999D03*
D57*
X17019999Y-10024999D03*
D56*
X16519999Y-10024999D03*
X16019999Y-10024999D03*
%TD*%
D11*
%TO.C,R24*%
X150710000Y-5900000D03*
X149690000Y-5900000D03*
%TD*%
D12*
%TO.C,C60*%
X108320000Y15700000D03*
X109280000Y15700000D03*
%TD*%
D11*
%TO.C,R12*%
X11760000Y-3500000D03*
X10740000Y-3500000D03*
%TD*%
D14*
%TO.C,REF\u002A\u002A*%
X71500000Y-71500000D03*
%TD*%
D17*
%TO.C,R45*%
X116100000Y15225000D03*
X116100000Y13575000D03*
%TD*%
D12*
%TO.C,C53*%
X155920000Y-15200000D03*
X156880000Y-15200000D03*
%TD*%
D15*
%TO.C,R50*%
X120500000Y2175000D03*
X120500000Y3825000D03*
%TD*%
D12*
%TO.C,C61*%
X108320000Y14500000D03*
X109280000Y14500000D03*
%TD*%
D11*
%TO.C,R22*%
X15760000Y-32760000D03*
X14740000Y-32760000D03*
%TD*%
D24*
%TO.C,R13*%
X10740000Y-2250000D03*
X11760000Y-2250000D03*
%TD*%
D58*
%TO.C,R31*%
X148700000Y-5890000D03*
X148700000Y-6910000D03*
%TD*%
D13*
%TO.C,C66*%
X125000000Y5280000D03*
X125000000Y4320000D03*
%TD*%
D11*
%TO.C,R6*%
X-4470000Y-69500000D03*
X-5490000Y-69500000D03*
%TD*%
D59*
%TO.C,U14*%
X146857499Y-44539999D03*
D60*
X146207499Y-44539999D03*
D61*
X146207499Y-45439999D03*
D62*
X146857499Y-45439999D03*
D63*
X146532499Y-44989999D03*
%TD*%
D16*
%TO.C,C47*%
X147280000Y-16500000D03*
X146320000Y-16500000D03*
%TD*%
D64*
%TO.C,C103*%
X155650000Y-3900000D03*
X154100000Y-3900000D03*
%TD*%
D13*
%TO.C,C50*%
X159700000Y9480000D03*
X159700000Y8520000D03*
%TD*%
D65*
%TO.C,R26*%
X149020000Y-21930000D03*
X149020000Y-20910000D03*
%TD*%
D11*
%TO.C,R23*%
X149010000Y-4300000D03*
X147990000Y-4300000D03*
%TD*%
D17*
%TO.C,R42*%
X121800000Y15225000D03*
X121800000Y13575000D03*
%TD*%
D24*
%TO.C,R34*%
X150890000Y-22800000D03*
X151910000Y-22800000D03*
%TD*%
D15*
%TO.C,R52*%
X118800000Y2175000D03*
X118800000Y3825000D03*
%TD*%
D25*
%TO.C,C59*%
X123900000Y10320000D03*
X123900000Y11280000D03*
%TD*%
D66*
%TO.C,U2*%
X136595000Y-40675000D03*
X137865000Y-40675000D03*
X139135000Y-40675000D03*
X140405000Y-40675000D03*
X140405000Y-35725000D03*
X139135000Y-35725000D03*
X137865000Y-35725000D03*
X136595000Y-35725000D03*
%TD*%
D10*
%TO.C,U16*%
X193541145Y43055358D03*
X194955359Y41641144D03*
X193541145Y40226931D03*
X192126931Y41641144D03*
%TD*%
D25*
%TO.C,C55*%
X152300000Y-10480000D03*
X152300000Y-9520000D03*
%TD*%
D65*
%TO.C,R36*%
X56299968Y-3341480D03*
X56299968Y-2321480D03*
%TD*%
D12*
%TO.C,C52*%
X159520000Y-14600000D03*
X160480000Y-14600000D03*
%TD*%
D67*
%TO.C,J1*%
X10028499Y-22592499D03*
X10028499Y-22092499D03*
X10028499Y-21592499D03*
X10028499Y-21092499D03*
X10028499Y-20592499D03*
X10028499Y-20092499D03*
X10028499Y-19592499D03*
X10028499Y-19092499D03*
X10028499Y-18592499D03*
X10028499Y-18092499D03*
X10028499Y-17592499D03*
X10028499Y-17092499D03*
X10028499Y-16592499D03*
X10028499Y-16092499D03*
X10028499Y-15592499D03*
X10028499Y-15092499D03*
X10028499Y-14592499D03*
X10028499Y-14092499D03*
X10028499Y-13592499D03*
D68*
X9228500Y-10842500D03*
X9228500Y-25342500D03*
D69*
X3228500Y-10842500D03*
X3228500Y-25342500D03*
%TD*%
D70*
%TO.C,U9*%
X122444999Y11004619D03*
X121174999Y11004619D03*
X119904999Y11004619D03*
X118634999Y11004619D03*
X117364999Y11004619D03*
X116094999Y11004619D03*
X114824999Y11004619D03*
X113554999Y11004619D03*
X113554999Y5701623D03*
X114824999Y5701623D03*
X116094999Y5701623D03*
X117364999Y5701623D03*
X118634999Y5701623D03*
X119904999Y5701623D03*
X121174999Y5701623D03*
X122444999Y5701623D03*
%TD*%
D71*
%TO.C,U10*%
X148499999Y-12299999D03*
X148499999Y-12699999D03*
X148499999Y-13099999D03*
X148499999Y-13499999D03*
X148499999Y-13899999D03*
X148499999Y-14299999D03*
X148499999Y-14699999D03*
X148499999Y-15099999D03*
X148499999Y-15499999D03*
X148499999Y-15899999D03*
X148499999Y-16299999D03*
X148499999Y-16699999D03*
D72*
X149299999Y-17499999D03*
X149699999Y-17499999D03*
X150099999Y-17499999D03*
X150499999Y-17499999D03*
X150899999Y-17499999D03*
X151299999Y-17499999D03*
X151699999Y-17499999D03*
X152099999Y-17499999D03*
X152499999Y-17499999D03*
X152899999Y-17499999D03*
X153299999Y-17499999D03*
X153699999Y-17499999D03*
D71*
X154499999Y-16699999D03*
X154499999Y-16299999D03*
X154499999Y-15899999D03*
X154499999Y-15499999D03*
X154499999Y-15099999D03*
X154499999Y-14699999D03*
X154499999Y-14299999D03*
X154499999Y-13899999D03*
X154499999Y-13499999D03*
X154499999Y-13099999D03*
X154499999Y-12699999D03*
X154499999Y-12299999D03*
D72*
X153699999Y-11499999D03*
X153299999Y-11499999D03*
X152899999Y-11499999D03*
X152499999Y-11499999D03*
X152099999Y-11499999D03*
X151699999Y-11499999D03*
X151299999Y-11499999D03*
X150899999Y-11499999D03*
X150499999Y-11499999D03*
X150099999Y-11499999D03*
X149699999Y-11499999D03*
X149299999Y-11499999D03*
D73*
X151499999Y-14499999D03*
%TD*%
D11*
%TO.C,R5*%
X-4470000Y-67500000D03*
X-5490000Y-67500000D03*
%TD*%
D12*
%TO.C,C64*%
X108120000Y200000D03*
X109080000Y200000D03*
%TD*%
D10*
%TO.C,U8*%
X-5000000Y-73990000D03*
X-3000000Y-73990000D03*
X-3000000Y-71990000D03*
X-5000000Y-71990000D03*
%TD*%
D74*
%TO.C,R32*%
X150675000Y-4300000D03*
X152325000Y-4300000D03*
%TD*%
D12*
%TO.C,C75*%
X129710000Y15040000D03*
X130670000Y15040000D03*
%TD*%
D25*
%TO.C,C69*%
X145300000Y4620000D03*
X145300000Y5580000D03*
%TD*%
D17*
%TO.C,R28*%
X118800000Y525000D03*
X118800000Y-1125000D03*
%TD*%
D14*
%TO.C,REF\u002A\u002A*%
X71500000Y-3500000D03*
%TD*%
D17*
%TO.C,R29*%
X115400000Y525000D03*
X115400000Y-1125000D03*
%TD*%
D12*
%TO.C,C56*%
X155920000Y-14170000D03*
X156880000Y-14170000D03*
%TD*%
D25*
%TO.C,C74*%
X139020000Y-14270000D03*
X139020000Y-13310000D03*
%TD*%
D75*
%TO.C,PS2*%
X147187999Y6844999D03*
X147187999Y5574999D03*
X147187999Y4304999D03*
X147187999Y3034999D03*
X147187999Y1764999D03*
X147187999Y494999D03*
X147187999Y-774999D03*
X147187999Y-2044999D03*
X156611999Y-2044999D03*
X156611999Y-774999D03*
X156611999Y494999D03*
X156611999Y1764999D03*
X156611999Y3034999D03*
X156611999Y4304999D03*
X156611999Y5574999D03*
X156611999Y6844999D03*
%TD*%
D12*
%TO.C,C39*%
X33040000Y-63000000D03*
X34000000Y-63000000D03*
%TD*%
D24*
%TO.C,R17*%
X146290000Y-17600000D03*
X147310000Y-17600000D03*
%TD*%
D11*
%TO.C,R19*%
X13760000Y-34010000D03*
X12740000Y-34010000D03*
%TD*%
D25*
%TO.C,C67*%
X123900000Y4320000D03*
X123900000Y5280000D03*
%TD*%
D42*
%TO.C,J7*%
X39999999Y-70999999D03*
D43*
X42539999Y-70999999D03*
X45079999Y-70999999D03*
X47619999Y-70999999D03*
X50159999Y-70999999D03*
X52699999Y-70999999D03*
X55239999Y-70999999D03*
X57779999Y-70999999D03*
X60319999Y-70999999D03*
X62859999Y-70999999D03*
%TD*%
D76*
%TO.C,J4*%
X20769999Y-7539999D03*
X20269999Y-7539999D03*
X19769999Y-7539999D03*
X19269999Y-7539999D03*
X18769999Y-7539999D03*
X18269999Y-7539999D03*
X17269999Y-7539999D03*
X16769999Y-7539999D03*
X16269999Y-7539999D03*
X15769999Y-7539999D03*
X15269999Y-7539999D03*
X14769999Y-7539999D03*
D77*
X14669999Y-6239999D03*
D76*
X15519999Y-6239999D03*
X16019999Y-6239999D03*
X16519999Y-6239999D03*
X17019999Y-6239999D03*
X17519999Y-6239999D03*
X18019999Y-6239999D03*
X18519999Y-6239999D03*
X19019999Y-6239999D03*
X19519999Y-6239999D03*
X20019999Y-6239999D03*
D77*
X20869999Y-6239999D03*
D78*
X22089999Y-7129999D03*
X13449999Y-7129999D03*
D79*
X22089999Y-1769999D03*
D80*
X13449999Y-1769999D03*
%TD*%
D17*
%TO.C,R30*%
X117100000Y525000D03*
X117100000Y-1125000D03*
%TD*%
D25*
%TO.C,C43*%
X150000000Y-9980000D03*
X150000000Y-9020000D03*
%TD*%
D16*
%TO.C,C48*%
X147280000Y-14300000D03*
X146320000Y-14300000D03*
%TD*%
D11*
%TO.C,R15*%
X9510000Y-2250000D03*
X8490000Y-2250000D03*
%TD*%
D81*
%TO.C,X1*%
X140794999Y-12739999D03*
X140794999Y-14839999D03*
X142444999Y-14839999D03*
X142444999Y-12739999D03*
%TD*%
D13*
%TO.C,C49*%
X156900000Y9460000D03*
X156900000Y8500000D03*
%TD*%
D25*
%TO.C,C42*%
X110100000Y-2380000D03*
X110100000Y-1420000D03*
%TD*%
D24*
%TO.C,R16*%
X8490000Y-1000000D03*
X9510000Y-1000000D03*
%TD*%
%TO.C,R3*%
X31490000Y-43750000D03*
X32510000Y-43750000D03*
%TD*%
D82*
%TO.C,PS1*%
X110644999Y12511999D03*
X109374999Y12511999D03*
X108104999Y12511999D03*
X106834999Y12511999D03*
X105564999Y12511999D03*
X104294999Y12511999D03*
X103024999Y12511999D03*
X101754999Y12511999D03*
X101754999Y3087999D03*
X103024999Y3087999D03*
X104294999Y3087999D03*
X105564999Y3087999D03*
X106834999Y3087999D03*
X108104999Y3087999D03*
X109374999Y3087999D03*
X110644999Y3087999D03*
%TD*%
D24*
%TO.C,R10*%
X31490000Y-46700000D03*
X32510000Y-46700000D03*
%TD*%
D25*
%TO.C,C70*%
X159700000Y4620000D03*
X159700000Y5580000D03*
%TD*%
D17*
%TO.C,R47*%
X139300000Y-44975000D03*
X139300000Y-46625000D03*
%TD*%
D42*
%TO.C,J9*%
X139499999Y-48499999D03*
D43*
X142039999Y-48499999D03*
X144579999Y-48499999D03*
X147119999Y-48499999D03*
X149659999Y-48499999D03*
X152199999Y-48499999D03*
X154739999Y-48499999D03*
X157279999Y-48499999D03*
X159819999Y-48499999D03*
X162359999Y-48499999D03*
%TD*%
D42*
%TO.C,J8*%
X130499999Y19499999D03*
D43*
X133039999Y19499999D03*
X135579999Y19499999D03*
X138119999Y19499999D03*
X140659999Y19499999D03*
X143199999Y19499999D03*
X145739999Y19499999D03*
X148279999Y19499999D03*
X150819999Y19499999D03*
X153359999Y19499999D03*
%TD*%
M02*
