%TF.GenerationSoftware,KiCad,Pcbnew,(7.0.0)*%
%TF.CreationDate,2023-02-14T07:36:11+09:00*%
%TF.ProjectId,audio,61756469-6f2e-46b6-9963-61645f706362,rev?*%
%TF.SameCoordinates,Original*%
%TF.FileFunction,Legend,Top*%
%TF.FilePolarity,Positive*%
%FSLAX46Y46*%
G04 Gerber Fmt 4.6, Leading zero omitted, Abs format (unit mm)*
G04 Created by KiCad (PCBNEW (7.0.0)) date 2023-02-14 07:36:11*
%MOMM*%
%LPD*%
G01*
G04 APERTURE LIST*
%ADD10C,0.500000*%
%ADD11C,1.000000*%
%ADD12C,0.750000*%
%ADD13C,0.150000*%
%ADD14C,0.120000*%
%ADD15C,0.100000*%
%ADD16C,0.127000*%
%ADD17C,0.200000*%
%ADD18C,0.254000*%
%ADD19C,0.420555*%
G04 APERTURE END LIST*
D10*
X81830891Y36291781D02*
X80416678Y37705994D01*
X80416678Y37705994D02*
X81898235Y37167246D01*
X81898235Y37167246D02*
X81359487Y38648804D01*
X81359487Y38648804D02*
X82773700Y37234590D01*
X83447135Y37908025D02*
X82032921Y39322238D01*
X84794005Y39524269D02*
X84794005Y39389582D01*
X84794005Y39389582D02*
X84659318Y39120208D01*
X84659318Y39120208D02*
X84524631Y38985521D01*
X84524631Y38985521D02*
X84255257Y38850834D01*
X84255257Y38850834D02*
X83985883Y38850834D01*
X83985883Y38850834D02*
X83783853Y38918177D01*
X83783853Y38918177D02*
X83447135Y39120208D01*
X83447135Y39120208D02*
X83245105Y39322238D01*
X83245105Y39322238D02*
X83043074Y39658956D01*
X83043074Y39658956D02*
X82975731Y39860986D01*
X82975731Y39860986D02*
X82975731Y40130360D01*
X82975731Y40130360D02*
X83110418Y40399734D01*
X83110418Y40399734D02*
X83245105Y40534421D01*
X83245105Y40534421D02*
X83514479Y40669108D01*
X83514479Y40669108D02*
X83649166Y40669108D01*
X85198066Y41544574D02*
X86140875Y40601765D01*
X84322601Y41746605D02*
X84996036Y40399734D01*
X84996036Y40399734D02*
X85871501Y41275200D01*
D11*
X165000000Y-52000000D02*
X135000000Y-52000000D01*
X105000000Y22000000D02*
X156500000Y22000000D01*
X135000000Y-25000000D02*
G75*
G03*
X133000000Y-23000000I-2000000J0D01*
G01*
X135100000Y-38900000D02*
X156700000Y-38900000D01*
X151500000Y-25200000D02*
X151600000Y8600000D01*
X133000000Y-23000000D02*
X100000000Y-23000000D01*
X156500000Y14500000D02*
X156500000Y22000000D01*
X151500000Y8500000D02*
X156500000Y14500000D01*
X156700000Y-38900000D02*
X151500000Y-25200000D01*
X151600000Y8600000D02*
X100000000Y8600000D01*
X165000000Y-47400000D02*
X156700000Y-38900000D01*
X105000000Y22000000D02*
X100000000Y17000000D01*
X165000000Y-47400000D02*
X165000000Y-52000000D01*
X135000000Y-25000000D02*
X135000000Y-52000000D01*
X100000000Y-23000000D02*
X100000000Y17000000D01*
D12*
X127807143Y-6959285D02*
X128217858Y-7102142D01*
X128217858Y-7102142D02*
X128932143Y-7102142D01*
X128932143Y-7102142D02*
X129235715Y-6959285D01*
X129235715Y-6959285D02*
X129396429Y-6816428D01*
X129396429Y-6816428D02*
X129575001Y-6530714D01*
X129575001Y-6530714D02*
X129610715Y-6245000D01*
X129610715Y-6245000D02*
X129503572Y-5959285D01*
X129503572Y-5959285D02*
X129378572Y-5816428D01*
X129378572Y-5816428D02*
X129110715Y-5673571D01*
X129110715Y-5673571D02*
X128557143Y-5530714D01*
X128557143Y-5530714D02*
X128289286Y-5387857D01*
X128289286Y-5387857D02*
X128164286Y-5245000D01*
X128164286Y-5245000D02*
X128057143Y-4959285D01*
X128057143Y-4959285D02*
X128092858Y-4673571D01*
X128092858Y-4673571D02*
X128271429Y-4387857D01*
X128271429Y-4387857D02*
X128432143Y-4245000D01*
X128432143Y-4245000D02*
X128735715Y-4102142D01*
X128735715Y-4102142D02*
X129450001Y-4102142D01*
X129450001Y-4102142D02*
X129860715Y-4245000D01*
X131735715Y-4102142D02*
X132307144Y-4102142D01*
X132307144Y-4102142D02*
X132575001Y-4245000D01*
X132575001Y-4245000D02*
X132825001Y-4530714D01*
X132825001Y-4530714D02*
X132896429Y-5102142D01*
X132896429Y-5102142D02*
X132771429Y-6102142D01*
X132771429Y-6102142D02*
X132557144Y-6673571D01*
X132557144Y-6673571D02*
X132235715Y-6959285D01*
X132235715Y-6959285D02*
X131932144Y-7102142D01*
X131932144Y-7102142D02*
X131360715Y-7102142D01*
X131360715Y-7102142D02*
X131092858Y-6959285D01*
X131092858Y-6959285D02*
X130842858Y-6673571D01*
X130842858Y-6673571D02*
X130771429Y-6102142D01*
X130771429Y-6102142D02*
X130896429Y-5102142D01*
X130896429Y-5102142D02*
X131110715Y-4530714D01*
X131110715Y-4530714D02*
X131432144Y-4245000D01*
X131432144Y-4245000D02*
X131735715Y-4102142D01*
X134307143Y-4102142D02*
X134003572Y-6530714D01*
X134003572Y-6530714D02*
X134110715Y-6816428D01*
X134110715Y-6816428D02*
X134235715Y-6959285D01*
X134235715Y-6959285D02*
X134503572Y-7102142D01*
X134503572Y-7102142D02*
X135075001Y-7102142D01*
X135075001Y-7102142D02*
X135378572Y-6959285D01*
X135378572Y-6959285D02*
X135539286Y-6816428D01*
X135539286Y-6816428D02*
X135717858Y-6530714D01*
X135717858Y-6530714D02*
X136021429Y-4102142D01*
X137075000Y-7102142D02*
X137450000Y-4102142D01*
X137450000Y-4102142D02*
X138789286Y-7102142D01*
X138789286Y-7102142D02*
X139164286Y-4102142D01*
X140217857Y-7102142D02*
X140592857Y-4102142D01*
X140592857Y-4102142D02*
X141307143Y-4102142D01*
X141307143Y-4102142D02*
X141717857Y-4245000D01*
X141717857Y-4245000D02*
X141967857Y-4530714D01*
X141967857Y-4530714D02*
X142075000Y-4816428D01*
X142075000Y-4816428D02*
X142146429Y-5387857D01*
X142146429Y-5387857D02*
X142092857Y-5816428D01*
X142092857Y-5816428D02*
X141878572Y-6387857D01*
X141878572Y-6387857D02*
X141700000Y-6673571D01*
X141700000Y-6673571D02*
X141378572Y-6959285D01*
X141378572Y-6959285D02*
X140932143Y-7102142D01*
X140932143Y-7102142D02*
X140217857Y-7102142D01*
X143217857Y-7102142D02*
X143592857Y-4102142D01*
X144592857Y-4102142D02*
X146307143Y-4102142D01*
X145075000Y-7102142D02*
X145450000Y-4102142D01*
D10*
X56625714Y-40364761D02*
X56875714Y-38364761D01*
X56875714Y-38364761D02*
X57351904Y-38364761D01*
X57351904Y-38364761D02*
X57625714Y-38460000D01*
X57625714Y-38460000D02*
X57792380Y-38650476D01*
X57792380Y-38650476D02*
X57863809Y-38840952D01*
X57863809Y-38840952D02*
X57911428Y-39221904D01*
X57911428Y-39221904D02*
X57875714Y-39507619D01*
X57875714Y-39507619D02*
X57732857Y-39888571D01*
X57732857Y-39888571D02*
X57613809Y-40079047D01*
X57613809Y-40079047D02*
X57399523Y-40269523D01*
X57399523Y-40269523D02*
X57101904Y-40364761D01*
X57101904Y-40364761D02*
X56625714Y-40364761D01*
X58542380Y-40269523D02*
X58816190Y-40364761D01*
X58816190Y-40364761D02*
X59292380Y-40364761D01*
X59292380Y-40364761D02*
X59494761Y-40269523D01*
X59494761Y-40269523D02*
X59601904Y-40174285D01*
X59601904Y-40174285D02*
X59720952Y-39983809D01*
X59720952Y-39983809D02*
X59744761Y-39793333D01*
X59744761Y-39793333D02*
X59673333Y-39602857D01*
X59673333Y-39602857D02*
X59589999Y-39507619D01*
X59589999Y-39507619D02*
X59411428Y-39412380D01*
X59411428Y-39412380D02*
X59042380Y-39317142D01*
X59042380Y-39317142D02*
X58863809Y-39221904D01*
X58863809Y-39221904D02*
X58780476Y-39126666D01*
X58780476Y-39126666D02*
X58709047Y-38936190D01*
X58709047Y-38936190D02*
X58732857Y-38745714D01*
X58732857Y-38745714D02*
X58851904Y-38555238D01*
X58851904Y-38555238D02*
X58959047Y-38460000D01*
X58959047Y-38460000D02*
X59161428Y-38364761D01*
X59161428Y-38364761D02*
X59637619Y-38364761D01*
X59637619Y-38364761D02*
X59911428Y-38460000D01*
X60530476Y-40364761D02*
X60780476Y-38364761D01*
X60780476Y-38364761D02*
X61542381Y-38364761D01*
X61542381Y-38364761D02*
X61720952Y-38460000D01*
X61720952Y-38460000D02*
X61804285Y-38555238D01*
X61804285Y-38555238D02*
X61875714Y-38745714D01*
X61875714Y-38745714D02*
X61840000Y-39031428D01*
X61840000Y-39031428D02*
X61720952Y-39221904D01*
X61720952Y-39221904D02*
X61613809Y-39317142D01*
X61613809Y-39317142D02*
X61411428Y-39412380D01*
X61411428Y-39412380D02*
X60649523Y-39412380D01*
X59070952Y-42557142D02*
X59344761Y-42652380D01*
X59344761Y-42652380D02*
X59428095Y-42747619D01*
X59428095Y-42747619D02*
X59499523Y-42938095D01*
X59499523Y-42938095D02*
X59463809Y-43223809D01*
X59463809Y-43223809D02*
X59344761Y-43414285D01*
X59344761Y-43414285D02*
X59237618Y-43509523D01*
X59237618Y-43509523D02*
X59035238Y-43604761D01*
X59035238Y-43604761D02*
X58273333Y-43604761D01*
X58273333Y-43604761D02*
X58523333Y-41604761D01*
X58523333Y-41604761D02*
X59189999Y-41604761D01*
X59189999Y-41604761D02*
X59368571Y-41700000D01*
X59368571Y-41700000D02*
X59451904Y-41795238D01*
X59451904Y-41795238D02*
X59523333Y-41985714D01*
X59523333Y-41985714D02*
X59499523Y-42176190D01*
X59499523Y-42176190D02*
X59380476Y-42366666D01*
X59380476Y-42366666D02*
X59273333Y-42461904D01*
X59273333Y-42461904D02*
X59070952Y-42557142D01*
X59070952Y-42557142D02*
X58404285Y-42557142D01*
X60904285Y-41604761D02*
X61285238Y-41604761D01*
X61285238Y-41604761D02*
X61463809Y-41700000D01*
X61463809Y-41700000D02*
X61630476Y-41890476D01*
X61630476Y-41890476D02*
X61678095Y-42271428D01*
X61678095Y-42271428D02*
X61594761Y-42938095D01*
X61594761Y-42938095D02*
X61451904Y-43319047D01*
X61451904Y-43319047D02*
X61237618Y-43509523D01*
X61237618Y-43509523D02*
X61035238Y-43604761D01*
X61035238Y-43604761D02*
X60654285Y-43604761D01*
X60654285Y-43604761D02*
X60475714Y-43509523D01*
X60475714Y-43509523D02*
X60309047Y-43319047D01*
X60309047Y-43319047D02*
X60261428Y-42938095D01*
X60261428Y-42938095D02*
X60344761Y-42271428D01*
X60344761Y-42271428D02*
X60487618Y-41890476D01*
X60487618Y-41890476D02*
X60701904Y-41700000D01*
X60701904Y-41700000D02*
X60904285Y-41604761D01*
X62344761Y-43033333D02*
X63297142Y-43033333D01*
X62082856Y-43604761D02*
X62999523Y-41604761D01*
X62999523Y-41604761D02*
X63416190Y-43604761D01*
X65225714Y-43604761D02*
X64678095Y-42652380D01*
X64082857Y-43604761D02*
X64332857Y-41604761D01*
X64332857Y-41604761D02*
X65094762Y-41604761D01*
X65094762Y-41604761D02*
X65273333Y-41700000D01*
X65273333Y-41700000D02*
X65356666Y-41795238D01*
X65356666Y-41795238D02*
X65428095Y-41985714D01*
X65428095Y-41985714D02*
X65392381Y-42271428D01*
X65392381Y-42271428D02*
X65273333Y-42461904D01*
X65273333Y-42461904D02*
X65166190Y-42557142D01*
X65166190Y-42557142D02*
X64963809Y-42652380D01*
X64963809Y-42652380D02*
X64201904Y-42652380D01*
X66082857Y-43604761D02*
X66332857Y-41604761D01*
X66332857Y-41604761D02*
X66809047Y-41604761D01*
X66809047Y-41604761D02*
X67082857Y-41700000D01*
X67082857Y-41700000D02*
X67249523Y-41890476D01*
X67249523Y-41890476D02*
X67320952Y-42080952D01*
X67320952Y-42080952D02*
X67368571Y-42461904D01*
X67368571Y-42461904D02*
X67332857Y-42747619D01*
X67332857Y-42747619D02*
X67190000Y-43128571D01*
X67190000Y-43128571D02*
X67070952Y-43319047D01*
X67070952Y-43319047D02*
X66856666Y-43509523D01*
X66856666Y-43509523D02*
X66559047Y-43604761D01*
X66559047Y-43604761D02*
X66082857Y-43604761D01*
X85708218Y-70169108D02*
X84294005Y-71583321D01*
X84294005Y-71583321D02*
X84832753Y-70101764D01*
X84832753Y-70101764D02*
X83351195Y-70640512D01*
X83351195Y-70640512D02*
X84765409Y-69226299D01*
X84091974Y-68552864D02*
X82677761Y-69967078D01*
X82475730Y-67205994D02*
X82610417Y-67205994D01*
X82610417Y-67205994D02*
X82879791Y-67340681D01*
X82879791Y-67340681D02*
X83014478Y-67475368D01*
X83014478Y-67475368D02*
X83149165Y-67744742D01*
X83149165Y-67744742D02*
X83149165Y-68014116D01*
X83149165Y-68014116D02*
X83081822Y-68216146D01*
X83081822Y-68216146D02*
X82879791Y-68552864D01*
X82879791Y-68552864D02*
X82677761Y-68754894D01*
X82677761Y-68754894D02*
X82341043Y-68956925D01*
X82341043Y-68956925D02*
X82139013Y-69024268D01*
X82139013Y-69024268D02*
X81869639Y-69024268D01*
X81869639Y-69024268D02*
X81600265Y-68889581D01*
X81600265Y-68889581D02*
X81465578Y-68754894D01*
X81465578Y-68754894D02*
X81330891Y-68485520D01*
X81330891Y-68485520D02*
X81330891Y-68350833D01*
X81263547Y-65724437D02*
X82071669Y-66532559D01*
X81667608Y-66128498D02*
X80253394Y-67542711D01*
X80253394Y-67542711D02*
X80590112Y-67475368D01*
X80590112Y-67475368D02*
X80859486Y-67475368D01*
X80859486Y-67475368D02*
X81061517Y-67542711D01*
X128330952Y10465238D02*
X128580952Y12465238D01*
X129199999Y10560476D02*
X129473809Y10465238D01*
X129473809Y10465238D02*
X129949999Y10465238D01*
X129949999Y10465238D02*
X130152380Y10560476D01*
X130152380Y10560476D02*
X130259523Y10655714D01*
X130259523Y10655714D02*
X130378571Y10846190D01*
X130378571Y10846190D02*
X130402380Y11036666D01*
X130402380Y11036666D02*
X130330952Y11227142D01*
X130330952Y11227142D02*
X130247618Y11322380D01*
X130247618Y11322380D02*
X130069047Y11417619D01*
X130069047Y11417619D02*
X129699999Y11512857D01*
X129699999Y11512857D02*
X129521428Y11608095D01*
X129521428Y11608095D02*
X129438095Y11703333D01*
X129438095Y11703333D02*
X129366666Y11893809D01*
X129366666Y11893809D02*
X129390476Y12084285D01*
X129390476Y12084285D02*
X129509523Y12274761D01*
X129509523Y12274761D02*
X129616666Y12370000D01*
X129616666Y12370000D02*
X129819047Y12465238D01*
X129819047Y12465238D02*
X130295238Y12465238D01*
X130295238Y12465238D02*
X130569047Y12370000D01*
X131819047Y12465238D02*
X132200000Y12465238D01*
X132200000Y12465238D02*
X132378571Y12370000D01*
X132378571Y12370000D02*
X132545238Y12179523D01*
X132545238Y12179523D02*
X132592857Y11798571D01*
X132592857Y11798571D02*
X132509523Y11131904D01*
X132509523Y11131904D02*
X132366666Y10750952D01*
X132366666Y10750952D02*
X132152380Y10560476D01*
X132152380Y10560476D02*
X131950000Y10465238D01*
X131950000Y10465238D02*
X131569047Y10465238D01*
X131569047Y10465238D02*
X131390476Y10560476D01*
X131390476Y10560476D02*
X131223809Y10750952D01*
X131223809Y10750952D02*
X131176190Y11131904D01*
X131176190Y11131904D02*
X131259523Y11798571D01*
X131259523Y11798571D02*
X131402380Y12179523D01*
X131402380Y12179523D02*
X131616666Y12370000D01*
X131616666Y12370000D02*
X131819047Y12465238D01*
X134235714Y10465238D02*
X133283333Y10465238D01*
X133283333Y10465238D02*
X133533333Y12465238D01*
X134878571Y11036666D02*
X135830952Y11036666D01*
X134616666Y10465238D02*
X135533333Y12465238D01*
X135533333Y12465238D02*
X135950000Y10465238D01*
X136580952Y12465238D02*
X137723810Y12465238D01*
X136902381Y10465238D02*
X137152381Y12465238D01*
X138140477Y10465238D02*
X138390477Y12465238D01*
X139723810Y12465238D02*
X140104763Y12465238D01*
X140104763Y12465238D02*
X140283334Y12370000D01*
X140283334Y12370000D02*
X140450001Y12179523D01*
X140450001Y12179523D02*
X140497620Y11798571D01*
X140497620Y11798571D02*
X140414286Y11131904D01*
X140414286Y11131904D02*
X140271429Y10750952D01*
X140271429Y10750952D02*
X140057143Y10560476D01*
X140057143Y10560476D02*
X139854763Y10465238D01*
X139854763Y10465238D02*
X139473810Y10465238D01*
X139473810Y10465238D02*
X139295239Y10560476D01*
X139295239Y10560476D02*
X139128572Y10750952D01*
X139128572Y10750952D02*
X139080953Y11131904D01*
X139080953Y11131904D02*
X139164286Y11798571D01*
X139164286Y11798571D02*
X139307143Y12179523D01*
X139307143Y12179523D02*
X139521429Y12370000D01*
X139521429Y12370000D02*
X139723810Y12465238D01*
X141188096Y10465238D02*
X141438096Y12465238D01*
X141438096Y12465238D02*
X142330953Y10465238D01*
X142330953Y10465238D02*
X142580953Y12465238D01*
X144483334Y10465238D02*
X144733334Y12465238D01*
X145566667Y12274761D02*
X145673810Y12370000D01*
X145673810Y12370000D02*
X145876191Y12465238D01*
X145876191Y12465238D02*
X146352381Y12465238D01*
X146352381Y12465238D02*
X146530953Y12370000D01*
X146530953Y12370000D02*
X146614286Y12274761D01*
X146614286Y12274761D02*
X146685715Y12084285D01*
X146685715Y12084285D02*
X146661905Y11893809D01*
X146661905Y11893809D02*
X146530953Y11608095D01*
X146530953Y11608095D02*
X145245239Y10465238D01*
X145245239Y10465238D02*
X146483334Y10465238D01*
X147257143Y10560476D02*
X147530953Y10465238D01*
X147530953Y10465238D02*
X148007143Y10465238D01*
X148007143Y10465238D02*
X148209524Y10560476D01*
X148209524Y10560476D02*
X148316667Y10655714D01*
X148316667Y10655714D02*
X148435715Y10846190D01*
X148435715Y10846190D02*
X148459524Y11036666D01*
X148459524Y11036666D02*
X148388096Y11227142D01*
X148388096Y11227142D02*
X148304762Y11322380D01*
X148304762Y11322380D02*
X148126191Y11417619D01*
X148126191Y11417619D02*
X147757143Y11512857D01*
X147757143Y11512857D02*
X147578572Y11608095D01*
X147578572Y11608095D02*
X147495239Y11703333D01*
X147495239Y11703333D02*
X147423810Y11893809D01*
X147423810Y11893809D02*
X147447620Y12084285D01*
X147447620Y12084285D02*
X147566667Y12274761D01*
X147566667Y12274761D02*
X147673810Y12370000D01*
X147673810Y12370000D02*
X147876191Y12465238D01*
X147876191Y12465238D02*
X148352382Y12465238D01*
X148352382Y12465238D02*
X148626191Y12370000D01*
X138583333Y-44034761D02*
X138833333Y-42034761D01*
X139452380Y-43939523D02*
X139726190Y-44034761D01*
X139726190Y-44034761D02*
X140202380Y-44034761D01*
X140202380Y-44034761D02*
X140404761Y-43939523D01*
X140404761Y-43939523D02*
X140511904Y-43844285D01*
X140511904Y-43844285D02*
X140630952Y-43653809D01*
X140630952Y-43653809D02*
X140654761Y-43463333D01*
X140654761Y-43463333D02*
X140583333Y-43272857D01*
X140583333Y-43272857D02*
X140499999Y-43177619D01*
X140499999Y-43177619D02*
X140321428Y-43082380D01*
X140321428Y-43082380D02*
X139952380Y-42987142D01*
X139952380Y-42987142D02*
X139773809Y-42891904D01*
X139773809Y-42891904D02*
X139690476Y-42796666D01*
X139690476Y-42796666D02*
X139619047Y-42606190D01*
X139619047Y-42606190D02*
X139642857Y-42415714D01*
X139642857Y-42415714D02*
X139761904Y-42225238D01*
X139761904Y-42225238D02*
X139869047Y-42130000D01*
X139869047Y-42130000D02*
X140071428Y-42034761D01*
X140071428Y-42034761D02*
X140547619Y-42034761D01*
X140547619Y-42034761D02*
X140821428Y-42130000D01*
X142071428Y-42034761D02*
X142452381Y-42034761D01*
X142452381Y-42034761D02*
X142630952Y-42130000D01*
X142630952Y-42130000D02*
X142797619Y-42320476D01*
X142797619Y-42320476D02*
X142845238Y-42701428D01*
X142845238Y-42701428D02*
X142761904Y-43368095D01*
X142761904Y-43368095D02*
X142619047Y-43749047D01*
X142619047Y-43749047D02*
X142404761Y-43939523D01*
X142404761Y-43939523D02*
X142202381Y-44034761D01*
X142202381Y-44034761D02*
X141821428Y-44034761D01*
X141821428Y-44034761D02*
X141642857Y-43939523D01*
X141642857Y-43939523D02*
X141476190Y-43749047D01*
X141476190Y-43749047D02*
X141428571Y-43368095D01*
X141428571Y-43368095D02*
X141511904Y-42701428D01*
X141511904Y-42701428D02*
X141654761Y-42320476D01*
X141654761Y-42320476D02*
X141869047Y-42130000D01*
X141869047Y-42130000D02*
X142071428Y-42034761D01*
X144488095Y-44034761D02*
X143535714Y-44034761D01*
X143535714Y-44034761D02*
X143785714Y-42034761D01*
X145130952Y-43463333D02*
X146083333Y-43463333D01*
X144869047Y-44034761D02*
X145785714Y-42034761D01*
X145785714Y-42034761D02*
X146202381Y-44034761D01*
X146833333Y-42034761D02*
X147976191Y-42034761D01*
X147154762Y-44034761D02*
X147404762Y-42034761D01*
X148392858Y-44034761D02*
X148642858Y-42034761D01*
X149976191Y-42034761D02*
X150357144Y-42034761D01*
X150357144Y-42034761D02*
X150535715Y-42130000D01*
X150535715Y-42130000D02*
X150702382Y-42320476D01*
X150702382Y-42320476D02*
X150750001Y-42701428D01*
X150750001Y-42701428D02*
X150666667Y-43368095D01*
X150666667Y-43368095D02*
X150523810Y-43749047D01*
X150523810Y-43749047D02*
X150309524Y-43939523D01*
X150309524Y-43939523D02*
X150107144Y-44034761D01*
X150107144Y-44034761D02*
X149726191Y-44034761D01*
X149726191Y-44034761D02*
X149547620Y-43939523D01*
X149547620Y-43939523D02*
X149380953Y-43749047D01*
X149380953Y-43749047D02*
X149333334Y-43368095D01*
X149333334Y-43368095D02*
X149416667Y-42701428D01*
X149416667Y-42701428D02*
X149559524Y-42320476D01*
X149559524Y-42320476D02*
X149773810Y-42130000D01*
X149773810Y-42130000D02*
X149976191Y-42034761D01*
X151440477Y-44034761D02*
X151690477Y-42034761D01*
X151690477Y-42034761D02*
X152583334Y-44034761D01*
X152583334Y-44034761D02*
X152833334Y-42034761D01*
X154735715Y-44034761D02*
X154985715Y-42034761D01*
X155819048Y-42225238D02*
X155926191Y-42130000D01*
X155926191Y-42130000D02*
X156128572Y-42034761D01*
X156128572Y-42034761D02*
X156604762Y-42034761D01*
X156604762Y-42034761D02*
X156783334Y-42130000D01*
X156783334Y-42130000D02*
X156866667Y-42225238D01*
X156866667Y-42225238D02*
X156938096Y-42415714D01*
X156938096Y-42415714D02*
X156914286Y-42606190D01*
X156914286Y-42606190D02*
X156783334Y-42891904D01*
X156783334Y-42891904D02*
X155497620Y-44034761D01*
X155497620Y-44034761D02*
X156735715Y-44034761D01*
X158759524Y-43844285D02*
X158652382Y-43939523D01*
X158652382Y-43939523D02*
X158354763Y-44034761D01*
X158354763Y-44034761D02*
X158164286Y-44034761D01*
X158164286Y-44034761D02*
X157890477Y-43939523D01*
X157890477Y-43939523D02*
X157723810Y-43749047D01*
X157723810Y-43749047D02*
X157652382Y-43558571D01*
X157652382Y-43558571D02*
X157604763Y-43177619D01*
X157604763Y-43177619D02*
X157640477Y-42891904D01*
X157640477Y-42891904D02*
X157783334Y-42510952D01*
X157783334Y-42510952D02*
X157902382Y-42320476D01*
X157902382Y-42320476D02*
X158116667Y-42130000D01*
X158116667Y-42130000D02*
X158414286Y-42034761D01*
X158414286Y-42034761D02*
X158604763Y-42034761D01*
X158604763Y-42034761D02*
X158878572Y-42130000D01*
X158878572Y-42130000D02*
X158961905Y-42225238D01*
D12*
X44447143Y-32709285D02*
X44857858Y-32852142D01*
X44857858Y-32852142D02*
X45572143Y-32852142D01*
X45572143Y-32852142D02*
X45875715Y-32709285D01*
X45875715Y-32709285D02*
X46036429Y-32566428D01*
X46036429Y-32566428D02*
X46215001Y-32280714D01*
X46215001Y-32280714D02*
X46250715Y-31995000D01*
X46250715Y-31995000D02*
X46143572Y-31709285D01*
X46143572Y-31709285D02*
X46018572Y-31566428D01*
X46018572Y-31566428D02*
X45750715Y-31423571D01*
X45750715Y-31423571D02*
X45197143Y-31280714D01*
X45197143Y-31280714D02*
X44929286Y-31137857D01*
X44929286Y-31137857D02*
X44804286Y-30995000D01*
X44804286Y-30995000D02*
X44697143Y-30709285D01*
X44697143Y-30709285D02*
X44732858Y-30423571D01*
X44732858Y-30423571D02*
X44911429Y-30137857D01*
X44911429Y-30137857D02*
X45072143Y-29995000D01*
X45072143Y-29995000D02*
X45375715Y-29852142D01*
X45375715Y-29852142D02*
X46090001Y-29852142D01*
X46090001Y-29852142D02*
X46500715Y-29995000D01*
X48375715Y-29852142D02*
X48947144Y-29852142D01*
X48947144Y-29852142D02*
X49215001Y-29995000D01*
X49215001Y-29995000D02*
X49465001Y-30280714D01*
X49465001Y-30280714D02*
X49536429Y-30852142D01*
X49536429Y-30852142D02*
X49411429Y-31852142D01*
X49411429Y-31852142D02*
X49197144Y-32423571D01*
X49197144Y-32423571D02*
X48875715Y-32709285D01*
X48875715Y-32709285D02*
X48572144Y-32852142D01*
X48572144Y-32852142D02*
X48000715Y-32852142D01*
X48000715Y-32852142D02*
X47732858Y-32709285D01*
X47732858Y-32709285D02*
X47482858Y-32423571D01*
X47482858Y-32423571D02*
X47411429Y-31852142D01*
X47411429Y-31852142D02*
X47536429Y-30852142D01*
X47536429Y-30852142D02*
X47750715Y-30280714D01*
X47750715Y-30280714D02*
X48072144Y-29995000D01*
X48072144Y-29995000D02*
X48375715Y-29852142D01*
X50947143Y-29852142D02*
X50643572Y-32280714D01*
X50643572Y-32280714D02*
X50750715Y-32566428D01*
X50750715Y-32566428D02*
X50875715Y-32709285D01*
X50875715Y-32709285D02*
X51143572Y-32852142D01*
X51143572Y-32852142D02*
X51715001Y-32852142D01*
X51715001Y-32852142D02*
X52018572Y-32709285D01*
X52018572Y-32709285D02*
X52179286Y-32566428D01*
X52179286Y-32566428D02*
X52357858Y-32280714D01*
X52357858Y-32280714D02*
X52661429Y-29852142D01*
X53715000Y-32852142D02*
X54090000Y-29852142D01*
X54090000Y-29852142D02*
X55429286Y-32852142D01*
X55429286Y-32852142D02*
X55804286Y-29852142D01*
X56857857Y-32852142D02*
X57232857Y-29852142D01*
X57232857Y-29852142D02*
X57947143Y-29852142D01*
X57947143Y-29852142D02*
X58357857Y-29995000D01*
X58357857Y-29995000D02*
X58607857Y-30280714D01*
X58607857Y-30280714D02*
X58715000Y-30566428D01*
X58715000Y-30566428D02*
X58786429Y-31137857D01*
X58786429Y-31137857D02*
X58732857Y-31566428D01*
X58732857Y-31566428D02*
X58518572Y-32137857D01*
X58518572Y-32137857D02*
X58340000Y-32423571D01*
X58340000Y-32423571D02*
X58018572Y-32709285D01*
X58018572Y-32709285D02*
X57572143Y-32852142D01*
X57572143Y-32852142D02*
X56857857Y-32852142D01*
X59857857Y-32852142D02*
X60232857Y-29852142D01*
X61232857Y-29852142D02*
X62947143Y-29852142D01*
X61715000Y-32852142D02*
X62090000Y-29852142D01*
D10*
X188291781Y40669108D02*
X189705994Y42083321D01*
X189705994Y42083321D02*
X189167246Y40601764D01*
X189167246Y40601764D02*
X190648804Y41140512D01*
X190648804Y41140512D02*
X189234590Y39726299D01*
X189908025Y39052864D02*
X191322238Y40467078D01*
X191524269Y37705994D02*
X191389582Y37705994D01*
X191389582Y37705994D02*
X191120208Y37840681D01*
X191120208Y37840681D02*
X190985521Y37975368D01*
X190985521Y37975368D02*
X190850834Y38244742D01*
X190850834Y38244742D02*
X190850834Y38514116D01*
X190850834Y38514116D02*
X190918177Y38716146D01*
X190918177Y38716146D02*
X191120208Y39052864D01*
X191120208Y39052864D02*
X191322238Y39254894D01*
X191322238Y39254894D02*
X191658956Y39456925D01*
X191658956Y39456925D02*
X191860986Y39524268D01*
X191860986Y39524268D02*
X192130360Y39524268D01*
X192130360Y39524268D02*
X192399734Y39389581D01*
X192399734Y39389581D02*
X192534421Y39254894D01*
X192534421Y39254894D02*
X192669108Y38985520D01*
X192669108Y38985520D02*
X192669108Y38850833D01*
X193275200Y38514116D02*
X194150666Y37638650D01*
X194150666Y37638650D02*
X193140513Y37571307D01*
X193140513Y37571307D02*
X193342543Y37369276D01*
X193342543Y37369276D02*
X193409887Y37167246D01*
X193409887Y37167246D02*
X193409887Y37032559D01*
X193409887Y37032559D02*
X193342543Y36830528D01*
X193342543Y36830528D02*
X193005826Y36493811D01*
X193005826Y36493811D02*
X192803795Y36426467D01*
X192803795Y36426467D02*
X192669108Y36426467D01*
X192669108Y36426467D02*
X192467078Y36493811D01*
X192467078Y36493811D02*
X192063017Y36897872D01*
X192063017Y36897872D02*
X191995673Y37099902D01*
X191995673Y37099902D02*
X191995673Y37234589D01*
X194409108Y-56071781D02*
X195823321Y-57485994D01*
X195823321Y-57485994D02*
X194341764Y-56947246D01*
X194341764Y-56947246D02*
X194880512Y-58428804D01*
X194880512Y-58428804D02*
X193466299Y-57014590D01*
X192792864Y-57688025D02*
X194207078Y-59102238D01*
X191445994Y-59304269D02*
X191445994Y-59169582D01*
X191445994Y-59169582D02*
X191580681Y-58900208D01*
X191580681Y-58900208D02*
X191715368Y-58765521D01*
X191715368Y-58765521D02*
X191984742Y-58630834D01*
X191984742Y-58630834D02*
X192254116Y-58630834D01*
X192254116Y-58630834D02*
X192456146Y-58698177D01*
X192456146Y-58698177D02*
X192792864Y-58900208D01*
X192792864Y-58900208D02*
X192994894Y-59102238D01*
X192994894Y-59102238D02*
X193196925Y-59438956D01*
X193196925Y-59438956D02*
X193264268Y-59640986D01*
X193264268Y-59640986D02*
X193264268Y-59910360D01*
X193264268Y-59910360D02*
X193129581Y-60179734D01*
X193129581Y-60179734D02*
X192994894Y-60314421D01*
X192994894Y-60314421D02*
X192725520Y-60449108D01*
X192725520Y-60449108D02*
X192590833Y-60449108D01*
X192052085Y-60987856D02*
X192052085Y-61122543D01*
X192052085Y-61122543D02*
X191984742Y-61324574D01*
X191984742Y-61324574D02*
X191648024Y-61661292D01*
X191648024Y-61661292D02*
X191445994Y-61728635D01*
X191445994Y-61728635D02*
X191311307Y-61728635D01*
X191311307Y-61728635D02*
X191109276Y-61661292D01*
X191109276Y-61661292D02*
X190974589Y-61526605D01*
X190974589Y-61526605D02*
X190839902Y-61257230D01*
X190839902Y-61257230D02*
X190839902Y-59640986D01*
X190839902Y-59640986D02*
X189964437Y-60516452D01*
X120335714Y-16543333D02*
X121288095Y-16543333D01*
X120073809Y-17114761D02*
X120990476Y-15114761D01*
X120990476Y-15114761D02*
X121407143Y-17114761D01*
X122323810Y-15114761D02*
X122121429Y-16733809D01*
X122121429Y-16733809D02*
X122192857Y-16924285D01*
X122192857Y-16924285D02*
X122276191Y-17019523D01*
X122276191Y-17019523D02*
X122454762Y-17114761D01*
X122454762Y-17114761D02*
X122835715Y-17114761D01*
X122835715Y-17114761D02*
X123038095Y-17019523D01*
X123038095Y-17019523D02*
X123145238Y-16924285D01*
X123145238Y-16924285D02*
X123264286Y-16733809D01*
X123264286Y-16733809D02*
X123466667Y-15114761D01*
X124169048Y-17114761D02*
X124419048Y-15114761D01*
X124419048Y-15114761D02*
X124895238Y-15114761D01*
X124895238Y-15114761D02*
X125169048Y-15210000D01*
X125169048Y-15210000D02*
X125335714Y-15400476D01*
X125335714Y-15400476D02*
X125407143Y-15590952D01*
X125407143Y-15590952D02*
X125454762Y-15971904D01*
X125454762Y-15971904D02*
X125419048Y-16257619D01*
X125419048Y-16257619D02*
X125276191Y-16638571D01*
X125276191Y-16638571D02*
X125157143Y-16829047D01*
X125157143Y-16829047D02*
X124942857Y-17019523D01*
X124942857Y-17019523D02*
X124645238Y-17114761D01*
X124645238Y-17114761D02*
X124169048Y-17114761D01*
X126169048Y-17114761D02*
X126419048Y-15114761D01*
X127752381Y-15114761D02*
X128133334Y-15114761D01*
X128133334Y-15114761D02*
X128311905Y-15210000D01*
X128311905Y-15210000D02*
X128478572Y-15400476D01*
X128478572Y-15400476D02*
X128526191Y-15781428D01*
X128526191Y-15781428D02*
X128442857Y-16448095D01*
X128442857Y-16448095D02*
X128300000Y-16829047D01*
X128300000Y-16829047D02*
X128085714Y-17019523D01*
X128085714Y-17019523D02*
X127883334Y-17114761D01*
X127883334Y-17114761D02*
X127502381Y-17114761D01*
X127502381Y-17114761D02*
X127323810Y-17019523D01*
X127323810Y-17019523D02*
X127157143Y-16829047D01*
X127157143Y-16829047D02*
X127109524Y-16448095D01*
X127109524Y-16448095D02*
X127192857Y-15781428D01*
X127192857Y-15781428D02*
X127335714Y-15400476D01*
X127335714Y-15400476D02*
X127550000Y-15210000D01*
X127550000Y-15210000D02*
X127752381Y-15114761D01*
X124280952Y-19307142D02*
X124554761Y-19402380D01*
X124554761Y-19402380D02*
X124638095Y-19497619D01*
X124638095Y-19497619D02*
X124709523Y-19688095D01*
X124709523Y-19688095D02*
X124673809Y-19973809D01*
X124673809Y-19973809D02*
X124554761Y-20164285D01*
X124554761Y-20164285D02*
X124447618Y-20259523D01*
X124447618Y-20259523D02*
X124245238Y-20354761D01*
X124245238Y-20354761D02*
X123483333Y-20354761D01*
X123483333Y-20354761D02*
X123733333Y-18354761D01*
X123733333Y-18354761D02*
X124399999Y-18354761D01*
X124399999Y-18354761D02*
X124578571Y-18450000D01*
X124578571Y-18450000D02*
X124661904Y-18545238D01*
X124661904Y-18545238D02*
X124733333Y-18735714D01*
X124733333Y-18735714D02*
X124709523Y-18926190D01*
X124709523Y-18926190D02*
X124590476Y-19116666D01*
X124590476Y-19116666D02*
X124483333Y-19211904D01*
X124483333Y-19211904D02*
X124280952Y-19307142D01*
X124280952Y-19307142D02*
X123614285Y-19307142D01*
X126114285Y-18354761D02*
X126495238Y-18354761D01*
X126495238Y-18354761D02*
X126673809Y-18450000D01*
X126673809Y-18450000D02*
X126840476Y-18640476D01*
X126840476Y-18640476D02*
X126888095Y-19021428D01*
X126888095Y-19021428D02*
X126804761Y-19688095D01*
X126804761Y-19688095D02*
X126661904Y-20069047D01*
X126661904Y-20069047D02*
X126447618Y-20259523D01*
X126447618Y-20259523D02*
X126245238Y-20354761D01*
X126245238Y-20354761D02*
X125864285Y-20354761D01*
X125864285Y-20354761D02*
X125685714Y-20259523D01*
X125685714Y-20259523D02*
X125519047Y-20069047D01*
X125519047Y-20069047D02*
X125471428Y-19688095D01*
X125471428Y-19688095D02*
X125554761Y-19021428D01*
X125554761Y-19021428D02*
X125697618Y-18640476D01*
X125697618Y-18640476D02*
X125911904Y-18450000D01*
X125911904Y-18450000D02*
X126114285Y-18354761D01*
X127554761Y-19783333D02*
X128507142Y-19783333D01*
X127292856Y-20354761D02*
X128209523Y-18354761D01*
X128209523Y-18354761D02*
X128626190Y-20354761D01*
X130435714Y-20354761D02*
X129888095Y-19402380D01*
X129292857Y-20354761D02*
X129542857Y-18354761D01*
X129542857Y-18354761D02*
X130304762Y-18354761D01*
X130304762Y-18354761D02*
X130483333Y-18450000D01*
X130483333Y-18450000D02*
X130566666Y-18545238D01*
X130566666Y-18545238D02*
X130638095Y-18735714D01*
X130638095Y-18735714D02*
X130602381Y-19021428D01*
X130602381Y-19021428D02*
X130483333Y-19211904D01*
X130483333Y-19211904D02*
X130376190Y-19307142D01*
X130376190Y-19307142D02*
X130173809Y-19402380D01*
X130173809Y-19402380D02*
X129411904Y-19402380D01*
X131292857Y-20354761D02*
X131542857Y-18354761D01*
X131542857Y-18354761D02*
X132019047Y-18354761D01*
X132019047Y-18354761D02*
X132292857Y-18450000D01*
X132292857Y-18450000D02*
X132459523Y-18640476D01*
X132459523Y-18640476D02*
X132530952Y-18830952D01*
X132530952Y-18830952D02*
X132578571Y-19211904D01*
X132578571Y-19211904D02*
X132542857Y-19497619D01*
X132542857Y-19497619D02*
X132400000Y-19878571D01*
X132400000Y-19878571D02*
X132280952Y-20069047D01*
X132280952Y-20069047D02*
X132066666Y-20259523D01*
X132066666Y-20259523D02*
X131769047Y-20354761D01*
X131769047Y-20354761D02*
X131292857Y-20354761D01*
D13*
%TO.C,*%
%TO.C,U9*%
X123513380Y11258622D02*
X123751476Y11258622D01*
X123656238Y11020527D02*
X123751476Y11258622D01*
X123751476Y11258622D02*
X123656238Y11496717D01*
X123941952Y11115765D02*
X123751476Y11258622D01*
X123751476Y11258622D02*
X123941952Y11401479D01*
X123513380Y11258622D02*
X123751476Y11258622D01*
X123656238Y11020527D02*
X123751476Y11258622D01*
X123751476Y11258622D02*
X123656238Y11496717D01*
X123941952Y11115765D02*
X123751476Y11258622D01*
X123751476Y11258622D02*
X123941952Y11401479D01*
D14*
%TO.C,U24*%
X-24000000Y-71000000D02*
X-20000000Y-71000000D01*
X-24000000Y-75000000D02*
X-24000000Y-71000000D01*
X-20000000Y-71000000D02*
X-20000000Y-75000000D01*
X-20000000Y-75000000D02*
X-24000000Y-75000000D01*
%TO.C,U22*%
X-18000000Y-71000000D02*
X-14000000Y-71000000D01*
X-18000000Y-75000000D02*
X-18000000Y-71000000D01*
X-14000000Y-71000000D02*
X-14000000Y-75000000D01*
X-14000000Y-75000000D02*
X-18000000Y-75000000D01*
%TO.C,U20*%
X-12000000Y-71000000D02*
X-8000000Y-71000000D01*
X-12000000Y-75000000D02*
X-12000000Y-71000000D01*
X-8000000Y-71000000D02*
X-8000000Y-75000000D01*
X-8000000Y-75000000D02*
X-12000000Y-75000000D01*
%TO.C,R63*%
X-22846359Y-69880000D02*
X-23153641Y-69880000D01*
X-22846359Y-69120000D02*
X-23153641Y-69120000D01*
%TO.C,R62*%
X-22846359Y-67880000D02*
X-23153641Y-67880000D01*
X-22846359Y-67120000D02*
X-23153641Y-67120000D01*
%TO.C,R61*%
X-16846359Y-69880000D02*
X-17153641Y-69880000D01*
X-16846359Y-69120000D02*
X-17153641Y-69120000D01*
%TO.C,R60*%
X-16846359Y-67880000D02*
X-17153641Y-67880000D01*
X-16846359Y-67120000D02*
X-17153641Y-67120000D01*
%TO.C,R59*%
X-10846359Y-69880000D02*
X-11153641Y-69880000D01*
X-10846359Y-69120000D02*
X-11153641Y-69120000D01*
%TO.C,R58*%
X-10846359Y-67880000D02*
X-11153641Y-67880000D01*
X-10846359Y-67120000D02*
X-11153641Y-67120000D01*
%TO.C,C14*%
X-23107836Y-70860000D02*
X-22892164Y-70860000D01*
X-23107836Y-70140000D02*
X-22892164Y-70140000D01*
%TO.C,C13*%
X-21000000Y-68692164D02*
X-21000000Y-68907836D01*
X-20280000Y-68692164D02*
X-20280000Y-68907836D01*
%TO.C,C12*%
X-23107836Y-68860000D02*
X-22892164Y-68860000D01*
X-23107836Y-68140000D02*
X-22892164Y-68140000D01*
%TO.C,C11*%
X-17107836Y-70860000D02*
X-16892164Y-70860000D01*
X-17107836Y-70140000D02*
X-16892164Y-70140000D01*
%TO.C,C10*%
X-15000000Y-68692164D02*
X-15000000Y-68907836D01*
X-14280000Y-68692164D02*
X-14280000Y-68907836D01*
%TO.C,C9*%
X-17107836Y-68860000D02*
X-16892164Y-68860000D01*
X-17107836Y-68140000D02*
X-16892164Y-68140000D01*
%TO.C,C8*%
X-11107836Y-70860000D02*
X-10892164Y-70860000D01*
X-11107836Y-70140000D02*
X-10892164Y-70140000D01*
%TO.C,C7*%
X-9000000Y-68692164D02*
X-9000000Y-68907836D01*
X-8280000Y-68692164D02*
X-8280000Y-68907836D01*
%TO.C,C6*%
X-11107836Y-68860000D02*
X-10892164Y-68860000D01*
X-11107836Y-68140000D02*
X-10892164Y-68140000D01*
%TO.C,R57*%
X155053641Y-7980000D02*
X154746359Y-7980000D01*
X155053641Y-7220000D02*
X154746359Y-7220000D01*
%TO.C,R56*%
X158553641Y-12080000D02*
X158246359Y-12080000D01*
X158553641Y-11320000D02*
X158246359Y-11320000D01*
%TO.C,R55*%
X158453641Y-18980000D02*
X158146359Y-18980000D01*
X158453641Y-18220000D02*
X158146359Y-18220000D01*
%TO.C,R54*%
X155653641Y-21380000D02*
X155346359Y-21380000D01*
X155653641Y-20620000D02*
X155346359Y-20620000D01*
%TO.C,R41*%
X155053641Y-5980000D02*
X154746359Y-5980000D01*
X155053641Y-5220000D02*
X154746359Y-5220000D01*
%TO.C,R40*%
X155053641Y-6980000D02*
X154746359Y-6980000D01*
X155053641Y-6220000D02*
X154746359Y-6220000D01*
%TO.C,R39*%
X158553641Y-10080000D02*
X158246359Y-10080000D01*
X158553641Y-9320000D02*
X158246359Y-9320000D01*
%TO.C,R38*%
X158553641Y-11080000D02*
X158246359Y-11080000D01*
X158553641Y-10320000D02*
X158246359Y-10320000D01*
%TO.C,R37*%
X158453641Y-16980000D02*
X158146359Y-16980000D01*
X158453641Y-16220000D02*
X158146359Y-16220000D01*
%TO.C,R9*%
X158453641Y-17980000D02*
X158146359Y-17980000D01*
X158453641Y-17220000D02*
X158146359Y-17220000D01*
%TO.C,R8*%
X155653641Y-19380000D02*
X155346359Y-19380000D01*
X155653641Y-18620000D02*
X155346359Y-18620000D01*
%TO.C,R7*%
X155653641Y-20380000D02*
X155346359Y-20380000D01*
X155653641Y-19620000D02*
X155346359Y-19620000D01*
%TO.C,R53*%
X114877500Y2762742D02*
X114877500Y3237258D01*
X115922500Y2762742D02*
X115922500Y3237258D01*
%TO.C,C62*%
X136992164Y-42140000D02*
X137207836Y-42140000D01*
X136992164Y-42860000D02*
X137207836Y-42860000D01*
%TO.C,C78*%
X146665336Y-43870000D02*
X146449664Y-43870000D01*
X146665336Y-43150000D02*
X146449664Y-43150000D01*
%TO.C,R43*%
X120822500Y14637258D02*
X120822500Y14162742D01*
X119777500Y14637258D02*
X119777500Y14162742D01*
%TO.C,C51*%
X159892164Y-15240000D02*
X160107836Y-15240000D01*
X159892164Y-15960000D02*
X160107836Y-15960000D01*
%TO.C,C57*%
X156292164Y-12820000D02*
X156507836Y-12820000D01*
X156292164Y-13540000D02*
X156507836Y-13540000D01*
D15*
%TO.C,U12*%
X109280000Y-2985000D02*
X109280000Y-2985000D01*
X109380000Y-2985000D02*
X109380000Y-2985000D01*
X109380000Y-2985000D02*
G75*
G03*
X109280000Y-2985000I-50000J0D01*
G01*
X109280000Y-2985000D02*
G75*
G03*
X109380000Y-2985000I50000J0D01*
G01*
D14*
%TO.C,U1*%
X7440000Y-6500000D02*
X7440000Y-8175000D01*
X7440000Y-6500000D02*
X7440000Y-5850000D01*
X10560000Y-6500000D02*
X10560000Y-7150000D01*
X10560000Y-6500000D02*
X10560000Y-5850000D01*
%TO.C,R33*%
X151246359Y-20720000D02*
X151553641Y-20720000D01*
X151246359Y-21480000D02*
X151553641Y-21480000D01*
%TO.C,C2*%
X11140000Y-7107836D02*
X11140000Y-6892164D01*
X11860000Y-7107836D02*
X11860000Y-6892164D01*
%TO.C,C4*%
X-2260000Y-68692164D02*
X-2260000Y-68907836D01*
X-2980000Y-68692164D02*
X-2980000Y-68907836D01*
%TO.C,R49*%
X140277500Y-31637258D02*
X140277500Y-31162742D01*
X141322500Y-31637258D02*
X141322500Y-31162742D01*
%TO.C,C68*%
X143840000Y4992164D02*
X143840000Y5207836D01*
X144560000Y4992164D02*
X144560000Y5207836D01*
D16*
%TO.C,J5*%
X3300000Y-33030000D02*
X5500000Y-33030000D01*
X-170000Y-33030000D02*
X-170000Y-41970000D01*
X3300000Y-41970000D02*
X5500000Y-41970000D01*
D17*
X8780000Y-34452000D02*
G75*
G03*
X8780000Y-34452000I-100000J0D01*
G01*
D14*
%TO.C,R1*%
X31846359Y-41370000D02*
X32153641Y-41370000D01*
X31846359Y-42130000D02*
X32153641Y-42130000D01*
%TO.C,J2*%
X31847500Y-66657500D02*
X7967500Y-66657500D01*
X31847500Y-49667500D02*
X31847500Y-66657500D01*
X25377500Y-67387500D02*
X24877500Y-66787500D01*
X25377500Y-67387500D02*
X24377500Y-67387500D01*
X24377500Y-67387500D02*
X24877500Y-66787500D01*
X7957500Y-49667500D02*
X31847500Y-49667500D01*
X-1372500Y-66657500D02*
X4957500Y-66657500D01*
X-1372500Y-49667500D02*
X4967500Y-49667500D01*
X-1372500Y-49667500D02*
X-1372500Y-66657500D01*
%TO.C,C41*%
X108492164Y-540000D02*
X108707836Y-540000D01*
X108492164Y-1260000D02*
X108707836Y-1260000D01*
%TO.C,C5*%
X-5087836Y-70140000D02*
X-4872164Y-70140000D01*
X-5087836Y-70860000D02*
X-4872164Y-70860000D01*
%TO.C,R14*%
X8846359Y-3120000D02*
X9153641Y-3120000D01*
X8846359Y-3880000D02*
X9153641Y-3880000D01*
%TO.C,C73*%
X13390000Y-45360000D02*
X16410000Y-45360000D01*
X16410000Y-45360000D02*
X16410000Y-41150000D01*
X13390000Y-41150000D02*
X13390000Y-45360000D01*
%TO.C,R2*%
X31846359Y-42370000D02*
X32153641Y-42370000D01*
X31846359Y-43130000D02*
X32153641Y-43130000D01*
%TO.C,R35*%
X147606359Y17790000D02*
X147913641Y17790000D01*
X147606359Y17030000D02*
X147913641Y17030000D01*
%TO.C,C71*%
X158165000Y4992164D02*
X158165000Y5207836D01*
X158885000Y4992164D02*
X158885000Y5207836D01*
%TO.C,CM4_MODULE1*%
X74700000Y-61100000D02*
X74700000Y-13100000D01*
X73510000Y-46000000D02*
X69810000Y-46000000D01*
X73510000Y-23200000D02*
X73510000Y-24200000D01*
X73510000Y-23200000D02*
X69810000Y-23200000D01*
X71200000Y-9600000D02*
X38200000Y-9600000D01*
X69810000Y-23200000D02*
X69810000Y-24200000D01*
X39590000Y-46000000D02*
X39590000Y-45000000D01*
X39590000Y-46000000D02*
X35810000Y-46000000D01*
X39590000Y-23200000D02*
X39590000Y-24200000D01*
X39590000Y-23200000D02*
X35810000Y-23200000D01*
X38200000Y-64600000D02*
X71200000Y-64600000D01*
X35810000Y-46000000D02*
X35810000Y-45000000D01*
X35810000Y-23200000D02*
X35810000Y-24200000D01*
X34700000Y-13100000D02*
X34700000Y-61100000D01*
X71200000Y-64600000D02*
G75*
G03*
X74700000Y-61100000I1J3499999D01*
G01*
X74700000Y-13100000D02*
G75*
G03*
X71200000Y-9600000I-3499999J1D01*
G01*
X34700000Y-61100000D02*
G75*
G03*
X38200000Y-64600000I3500000J0D01*
G01*
X38200000Y-9600000D02*
G75*
G03*
X34700000Y-13100000I0J-3500000D01*
G01*
%TO.C,U5*%
X36890000Y-57540000D02*
X38190000Y-57540000D01*
X36890000Y-54740000D02*
X37890000Y-54740000D01*
%TO.C,U3*%
X10250000Y-36850000D02*
X8950000Y-36850000D01*
X10250000Y-39650000D02*
X9250000Y-39650000D01*
%TO.C,C54*%
X152660000Y-19092164D02*
X152660000Y-19307836D01*
X151940000Y-19092164D02*
X151940000Y-19307836D01*
%TO.C,R4*%
X31846359Y-44370000D02*
X32153641Y-44370000D01*
X31846359Y-45130000D02*
X32153641Y-45130000D01*
%TO.C,J6*%
X29670000Y-4330000D02*
X29670000Y-3000000D01*
X31000000Y-4330000D02*
X29670000Y-4330000D01*
X32270000Y-4330000D02*
X55190000Y-4330000D01*
X32270000Y-4330000D02*
X32270000Y-1670000D01*
X55190000Y-4330000D02*
X55190000Y-1670000D01*
X32270000Y-1670000D02*
X55190000Y-1670000D01*
%TO.C,C3*%
X-5087836Y-68140000D02*
X-4872164Y-68140000D01*
X-5087836Y-68860000D02*
X-4872164Y-68860000D01*
%TO.C,C46*%
X146907836Y-13460000D02*
X146692164Y-13460000D01*
X146907836Y-12740000D02*
X146692164Y-12740000D01*
%TO.C,C76*%
X130052164Y12640000D02*
X130267836Y12640000D01*
X130052164Y11920000D02*
X130267836Y11920000D01*
%TO.C,R48*%
X138077500Y-31637258D02*
X138077500Y-31162742D01*
X139122500Y-31637258D02*
X139122500Y-31162742D01*
D15*
%TO.C,U13*%
X129580000Y12980000D02*
X129580000Y12980000D01*
X129580000Y12880000D02*
X129580000Y12880000D01*
X129580000Y12880000D02*
G75*
G03*
X129580000Y12980000I0J50000D01*
G01*
X129580000Y12980000D02*
G75*
G03*
X129580000Y12880000I0J-50000D01*
G01*
D14*
%TO.C,C45*%
X150840000Y-9607836D02*
X150840000Y-9392164D01*
X151560000Y-9607836D02*
X151560000Y-9392164D01*
%TO.C,R25*%
X151737258Y-7822500D02*
X151262742Y-7822500D01*
X151737258Y-6777500D02*
X151262742Y-6777500D01*
%TO.C,R11*%
X31846359Y-45370000D02*
X32153641Y-45370000D01*
X31846359Y-46130000D02*
X32153641Y-46130000D01*
%TO.C,R27*%
X144276359Y-14410000D02*
X144583641Y-14410000D01*
X144276359Y-15170000D02*
X144583641Y-15170000D01*
%TO.C,C1*%
X6407836Y-7760000D02*
X6192164Y-7760000D01*
X6407836Y-7040000D02*
X6192164Y-7040000D01*
%TO.C,R44*%
X118222500Y14637258D02*
X118222500Y14162742D01*
X117177500Y14637258D02*
X117177500Y14162742D01*
%TO.C,U6*%
X36915000Y-52730000D02*
X38215000Y-52730000D01*
X36915000Y-49930000D02*
X37915000Y-49930000D01*
%TO.C,C44*%
X148440000Y-9607836D02*
X148440000Y-9392164D01*
X149160000Y-9607836D02*
X149160000Y-9392164D01*
%TO.C,R21*%
X15096359Y-33630000D02*
X15403641Y-33630000D01*
X15096359Y-34390000D02*
X15403641Y-34390000D01*
%TO.C,C82*%
X156140000Y13610000D02*
X156140000Y10590000D01*
X156140000Y10590000D02*
X160350000Y10590000D01*
X160350000Y13610000D02*
X156140000Y13610000D01*
%TO.C,R18*%
X11096359Y-620000D02*
X11403641Y-620000D01*
X11096359Y-1380000D02*
X11403641Y-1380000D01*
%TO.C,C58*%
X125460000Y10907836D02*
X125460000Y10692164D01*
X124740000Y10907836D02*
X124740000Y10692164D01*
%TO.C,C63*%
X108492164Y1660000D02*
X108707836Y1660000D01*
X108492164Y940000D02*
X108707836Y940000D01*
%TO.C,R46*%
X136522500Y-45562742D02*
X136522500Y-46037258D01*
X135477500Y-45562742D02*
X135477500Y-46037258D01*
%TO.C,R51*%
X116577500Y2762742D02*
X116577500Y3237258D01*
X117622500Y2762742D02*
X117622500Y3237258D01*
%TO.C,C77*%
X146635336Y-46780000D02*
X146419664Y-46780000D01*
X146635336Y-46060000D02*
X146419664Y-46060000D01*
%TO.C,C65*%
X136807836Y-34060000D02*
X136592164Y-34060000D01*
X136807836Y-33340000D02*
X136592164Y-33340000D01*
%TO.C,R20*%
X13096359Y-32380000D02*
X13403641Y-32380000D01*
X13096359Y-33140000D02*
X13403641Y-33140000D01*
D15*
%TO.C,U11*%
X157600000Y9900000D02*
X157600000Y9900000D01*
X157500000Y9900000D02*
X157500000Y9900000D01*
X157500000Y9900000D02*
G75*
G03*
X157600000Y9900000I50000J0D01*
G01*
X157600000Y9900000D02*
G75*
G03*
X157500000Y9900000I-50000J0D01*
G01*
D14*
%TO.C,U7*%
X15620000Y-9910000D02*
X15620000Y-11210000D01*
X18420000Y-9910000D02*
X18420000Y-10910000D01*
%TO.C,R24*%
X150353641Y-6280000D02*
X150046359Y-6280000D01*
X150353641Y-5520000D02*
X150046359Y-5520000D01*
%TO.C,C60*%
X108692164Y16060000D02*
X108907836Y16060000D01*
X108692164Y15340000D02*
X108907836Y15340000D01*
%TO.C,R12*%
X11403641Y-3880000D02*
X11096359Y-3880000D01*
X11403641Y-3120000D02*
X11096359Y-3120000D01*
%TO.C,R45*%
X116622500Y14637258D02*
X116622500Y14162742D01*
X115577500Y14637258D02*
X115577500Y14162742D01*
%TO.C,C53*%
X156292164Y-14840000D02*
X156507836Y-14840000D01*
X156292164Y-15560000D02*
X156507836Y-15560000D01*
%TO.C,R50*%
X119977500Y2762742D02*
X119977500Y3237258D01*
X121022500Y2762742D02*
X121022500Y3237258D01*
%TO.C,C61*%
X108692164Y14860000D02*
X108907836Y14860000D01*
X108692164Y14140000D02*
X108907836Y14140000D01*
%TO.C,R22*%
X15403641Y-33140000D02*
X15096359Y-33140000D01*
X15403641Y-32380000D02*
X15096359Y-32380000D01*
%TO.C,R13*%
X11096359Y-1870000D02*
X11403641Y-1870000D01*
X11096359Y-2630000D02*
X11403641Y-2630000D01*
%TO.C,R31*%
X149080000Y-6246359D02*
X149080000Y-6553641D01*
X148320000Y-6246359D02*
X148320000Y-6553641D01*
%TO.C,C66*%
X125360000Y4907836D02*
X125360000Y4692164D01*
X124640000Y4907836D02*
X124640000Y4692164D01*
%TO.C,R6*%
X-4826359Y-69880000D02*
X-5133641Y-69880000D01*
X-4826359Y-69120000D02*
X-5133641Y-69120000D01*
D15*
%TO.C,U14*%
X147132500Y-44290000D02*
X147132500Y-44290000D01*
X147132500Y-44190000D02*
X147132500Y-44190000D01*
X147132500Y-44190000D02*
G75*
G03*
X147132500Y-44290000I0J-50000D01*
G01*
X147132500Y-44290000D02*
G75*
G03*
X147132500Y-44190000I0J50000D01*
G01*
D14*
%TO.C,C47*%
X146907836Y-16860000D02*
X146692164Y-16860000D01*
X146907836Y-16140000D02*
X146692164Y-16140000D01*
%TO.C,C103*%
X155015580Y-4410000D02*
X154734420Y-4410000D01*
X155015580Y-3390000D02*
X154734420Y-3390000D01*
%TO.C,C50*%
X160060000Y9107836D02*
X160060000Y8892164D01*
X159340000Y9107836D02*
X159340000Y8892164D01*
%TO.C,R26*%
X148640000Y-21573641D02*
X148640000Y-21266359D01*
X149400000Y-21573641D02*
X149400000Y-21266359D01*
%TO.C,R23*%
X148653641Y-4680000D02*
X148346359Y-4680000D01*
X148653641Y-3920000D02*
X148346359Y-3920000D01*
%TO.C,R42*%
X122322500Y14637258D02*
X122322500Y14162742D01*
X121277500Y14637258D02*
X121277500Y14162742D01*
%TO.C,R34*%
X151246359Y-22420000D02*
X151553641Y-22420000D01*
X151246359Y-23180000D02*
X151553641Y-23180000D01*
%TO.C,R52*%
X118277500Y2762742D02*
X118277500Y3237258D01*
X119322500Y2762742D02*
X119322500Y3237258D01*
%TO.C,C59*%
X123540000Y10692164D02*
X123540000Y10907836D01*
X124260000Y10692164D02*
X124260000Y10907836D01*
%TO.C,U2*%
X135940000Y-38200000D02*
X135940000Y-41650000D01*
X135940000Y-38200000D02*
X135940000Y-36250000D01*
X141060000Y-38200000D02*
X141060000Y-40150000D01*
X141060000Y-38200000D02*
X141060000Y-36250000D01*
%TO.C,C55*%
X151940000Y-10107836D02*
X151940000Y-9892164D01*
X152660000Y-10107836D02*
X152660000Y-9892164D01*
%TO.C,R36*%
X55919968Y-2985121D02*
X55919968Y-2677839D01*
X56679968Y-2985121D02*
X56679968Y-2677839D01*
%TO.C,C52*%
X159892164Y-14240000D02*
X160107836Y-14240000D01*
X159892164Y-14960000D02*
X160107836Y-14960000D01*
D18*
%TO.C,J1*%
X-1321500Y-10592500D02*
X1480500Y-10592500D01*
X-1321500Y-10592500D02*
X-1321500Y-25592500D01*
X-1321500Y-25592500D02*
X1480500Y-25592500D01*
X11956500Y-22646500D02*
G75*
G03*
X11956500Y-22646500I-114000J0D01*
G01*
D14*
%TO.C,U9*%
X112920000Y10435922D02*
X112920000Y6270322D01*
X123080000Y6270322D02*
X123080000Y10435922D01*
D19*
X122710277Y12553122D02*
G75*
G03*
X122710277Y12553122I-210277J0D01*
G01*
D17*
%TO.C,U10*%
X148250000Y-11250000D02*
X148250000Y-17750000D01*
X148250000Y-11250000D02*
X148900000Y-11250000D01*
X148900000Y-17750000D02*
X148250000Y-17750000D01*
X154100000Y-11250000D02*
X154750000Y-11250000D01*
X154750000Y-11250000D02*
X154750000Y-17750000D01*
X154750000Y-17750000D02*
X154100000Y-17750000D01*
D14*
%TO.C,R5*%
X-4826359Y-67880000D02*
X-5133641Y-67880000D01*
X-4826359Y-67120000D02*
X-5133641Y-67120000D01*
%TO.C,C64*%
X108492164Y560000D02*
X108707836Y560000D01*
X108492164Y-160000D02*
X108707836Y-160000D01*
%TO.C,U8*%
X-6000000Y-70990000D02*
X-2000000Y-70990000D01*
X-6000000Y-74990000D02*
X-6000000Y-70990000D01*
X-2000000Y-70990000D02*
X-2000000Y-74990000D01*
X-2000000Y-74990000D02*
X-6000000Y-74990000D01*
%TO.C,R32*%
X151262742Y-3777500D02*
X151737258Y-3777500D01*
X151262742Y-4822500D02*
X151737258Y-4822500D01*
%TO.C,C75*%
X130082164Y15400000D02*
X130297836Y15400000D01*
X130082164Y14680000D02*
X130297836Y14680000D01*
%TO.C,C69*%
X144940000Y4992164D02*
X144940000Y5207836D01*
X145660000Y4992164D02*
X145660000Y5207836D01*
%TO.C,R28*%
X119322500Y-62742D02*
X119322500Y-537258D01*
X118277500Y-62742D02*
X118277500Y-537258D01*
%TO.C,R29*%
X115922500Y-62742D02*
X115922500Y-537258D01*
X114877500Y-62742D02*
X114877500Y-537258D01*
%TO.C,C56*%
X156292164Y-13810000D02*
X156507836Y-13810000D01*
X156292164Y-14530000D02*
X156507836Y-14530000D01*
%TO.C,C74*%
X138660000Y-13897836D02*
X138660000Y-13682164D01*
X139380000Y-13897836D02*
X139380000Y-13682164D01*
D17*
%TO.C,PS2*%
X146225000Y7520000D02*
X148150000Y7520000D01*
X148500000Y7575000D02*
X155300000Y7575000D01*
X148500000Y-2775000D02*
X148500000Y7575000D01*
X155300000Y7575000D02*
X155300000Y-2775000D01*
X155300000Y-2775000D02*
X148500000Y-2775000D01*
D14*
%TO.C,C39*%
X33412164Y-62640000D02*
X33627836Y-62640000D01*
X33412164Y-63360000D02*
X33627836Y-63360000D01*
%TO.C,R17*%
X146646359Y-17220000D02*
X146953641Y-17220000D01*
X146646359Y-17980000D02*
X146953641Y-17980000D01*
%TO.C,R19*%
X13403641Y-34390000D02*
X13096359Y-34390000D01*
X13403641Y-33630000D02*
X13096359Y-33630000D01*
%TO.C,C67*%
X123540000Y4692164D02*
X123540000Y4907836D01*
X124260000Y4692164D02*
X124260000Y4907836D01*
%TO.C,J7*%
X38670000Y-72330000D02*
X38670000Y-71000000D01*
X40000000Y-72330000D02*
X38670000Y-72330000D01*
X41270000Y-72330000D02*
X64190000Y-72330000D01*
X41270000Y-72330000D02*
X41270000Y-69670000D01*
X64190000Y-72330000D02*
X64190000Y-69670000D01*
X41270000Y-69670000D02*
X64190000Y-69670000D01*
D16*
%TO.C,J4*%
X22240000Y-3470000D02*
X22240000Y-5670000D01*
X22240000Y0D02*
X13300000Y0D01*
X13300000Y-3470000D02*
X13300000Y-5670000D01*
D17*
X20918000Y-8850000D02*
G75*
G03*
X20918000Y-8850000I-100000J0D01*
G01*
D14*
%TO.C,R30*%
X117622500Y-62742D02*
X117622500Y-537258D01*
X116577500Y-62742D02*
X116577500Y-537258D01*
%TO.C,C43*%
X149640000Y-9607836D02*
X149640000Y-9392164D01*
X150360000Y-9607836D02*
X150360000Y-9392164D01*
%TO.C,C48*%
X146907836Y-14660000D02*
X146692164Y-14660000D01*
X146907836Y-13940000D02*
X146692164Y-13940000D01*
%TO.C,R15*%
X9153641Y-2630000D02*
X8846359Y-2630000D01*
X9153641Y-1870000D02*
X8846359Y-1870000D01*
%TO.C,X1*%
X143195000Y-11890000D02*
X140045000Y-11890000D01*
X140045000Y-11890000D02*
X140045000Y-15690000D01*
%TO.C,C49*%
X157260000Y9087836D02*
X157260000Y8872164D01*
X156540000Y9087836D02*
X156540000Y8872164D01*
%TO.C,C42*%
X109740000Y-2007836D02*
X109740000Y-1792164D01*
X110460000Y-2007836D02*
X110460000Y-1792164D01*
%TO.C,R16*%
X8846359Y-620000D02*
X9153641Y-620000D01*
X8846359Y-1380000D02*
X9153641Y-1380000D01*
%TO.C,R3*%
X31846359Y-43370000D02*
X32153641Y-43370000D01*
X31846359Y-44130000D02*
X32153641Y-44130000D01*
D17*
%TO.C,PS1*%
X111320000Y13475000D02*
X111320000Y11550000D01*
X111375000Y11200000D02*
X111375000Y4400000D01*
X101025000Y11200000D02*
X111375000Y11200000D01*
X111375000Y4400000D02*
X101025000Y4400000D01*
X101025000Y4400000D02*
X101025000Y11200000D01*
D14*
%TO.C,R10*%
X31846359Y-46320000D02*
X32153641Y-46320000D01*
X31846359Y-47080000D02*
X32153641Y-47080000D01*
%TO.C,C70*%
X159340000Y4992164D02*
X159340000Y5207836D01*
X160060000Y4992164D02*
X160060000Y5207836D01*
%TO.C,R47*%
X139822500Y-45562742D02*
X139822500Y-46037258D01*
X138777500Y-45562742D02*
X138777500Y-46037258D01*
%TD*%
M02*
