%TF.GenerationSoftware,KiCad,Pcbnew,(7.0.0)*%
%TF.CreationDate,2023-02-14T21:30:46+09:00*%
%TF.ProjectId,audio,61756469-6f2e-46b6-9963-61645f706362,rev?*%
%TF.SameCoordinates,Original*%
%TF.FileFunction,Other,User*%
%FSLAX46Y46*%
G04 Gerber Fmt 4.6, Leading zero omitted, Abs format (unit mm)*
G04 Created by KiCad (PCBNEW (7.0.0)) date 2023-02-14 21:30:46*
%MOMM*%
%LPD*%
G01*
G04 APERTURE LIST*
%ADD10C,0.500000*%
%ADD11C,1.250000*%
G04 APERTURE END LIST*
D10*
X32655919Y-42535000D02*
X32655919Y-166535000D01*
X26655919Y-42535000D02*
X26655919Y-166535000D01*
X44655919Y-42535000D02*
X44655919Y-166535000D01*
X38655919Y-42535000D02*
X38655919Y-166535000D01*
X121655919Y-43035000D02*
X121655919Y-172035000D01*
D11*
X109870205Y-175871904D02*
X111536872Y-180871904D01*
X111536872Y-180871904D02*
X113203538Y-175871904D01*
X114870205Y-178967142D02*
X118679729Y-178967142D01*
X123917824Y-180395714D02*
X123679728Y-180633809D01*
X123679728Y-180633809D02*
X122965443Y-180871904D01*
X122965443Y-180871904D02*
X122489252Y-180871904D01*
X122489252Y-180871904D02*
X121774966Y-180633809D01*
X121774966Y-180633809D02*
X121298776Y-180157619D01*
X121298776Y-180157619D02*
X121060681Y-179681428D01*
X121060681Y-179681428D02*
X120822585Y-178729047D01*
X120822585Y-178729047D02*
X120822585Y-178014761D01*
X120822585Y-178014761D02*
X121060681Y-177062380D01*
X121060681Y-177062380D02*
X121298776Y-176586190D01*
X121298776Y-176586190D02*
X121774966Y-176110000D01*
X121774966Y-176110000D02*
X122489252Y-175871904D01*
X122489252Y-175871904D02*
X122965443Y-175871904D01*
X122965443Y-175871904D02*
X123679728Y-176110000D01*
X123679728Y-176110000D02*
X123917824Y-176348095D01*
X126060681Y-175871904D02*
X126060681Y-179919523D01*
X126060681Y-179919523D02*
X126298776Y-180395714D01*
X126298776Y-180395714D02*
X126536871Y-180633809D01*
X126536871Y-180633809D02*
X127013062Y-180871904D01*
X127013062Y-180871904D02*
X127965443Y-180871904D01*
X127965443Y-180871904D02*
X128441633Y-180633809D01*
X128441633Y-180633809D02*
X128679728Y-180395714D01*
X128679728Y-180395714D02*
X128917824Y-179919523D01*
X128917824Y-179919523D02*
X128917824Y-175871904D01*
X130584490Y-175871904D02*
X133441633Y-175871904D01*
X132013061Y-180871904D02*
X132013061Y-175871904D01*
X28370205Y-170371904D02*
X30036872Y-175371904D01*
X30036872Y-175371904D02*
X31703538Y-170371904D01*
X33370205Y-173467142D02*
X37179729Y-173467142D01*
X42417824Y-174895714D02*
X42179728Y-175133809D01*
X42179728Y-175133809D02*
X41465443Y-175371904D01*
X41465443Y-175371904D02*
X40989252Y-175371904D01*
X40989252Y-175371904D02*
X40274966Y-175133809D01*
X40274966Y-175133809D02*
X39798776Y-174657619D01*
X39798776Y-174657619D02*
X39560681Y-174181428D01*
X39560681Y-174181428D02*
X39322585Y-173229047D01*
X39322585Y-173229047D02*
X39322585Y-172514761D01*
X39322585Y-172514761D02*
X39560681Y-171562380D01*
X39560681Y-171562380D02*
X39798776Y-171086190D01*
X39798776Y-171086190D02*
X40274966Y-170610000D01*
X40274966Y-170610000D02*
X40989252Y-170371904D01*
X40989252Y-170371904D02*
X41465443Y-170371904D01*
X41465443Y-170371904D02*
X42179728Y-170610000D01*
X42179728Y-170610000D02*
X42417824Y-170848095D01*
X44560681Y-170371904D02*
X44560681Y-174419523D01*
X44560681Y-174419523D02*
X44798776Y-174895714D01*
X44798776Y-174895714D02*
X45036871Y-175133809D01*
X45036871Y-175133809D02*
X45513062Y-175371904D01*
X45513062Y-175371904D02*
X46465443Y-175371904D01*
X46465443Y-175371904D02*
X46941633Y-175133809D01*
X46941633Y-175133809D02*
X47179728Y-174895714D01*
X47179728Y-174895714D02*
X47417824Y-174419523D01*
X47417824Y-174419523D02*
X47417824Y-170371904D01*
X49084490Y-170371904D02*
X51941633Y-170371904D01*
X50513061Y-175371904D02*
X50513061Y-170371904D01*
M02*
