%TF.GenerationSoftware,KiCad,Pcbnew,(7.0.0)*%
%TF.CreationDate,2023-02-16T09:01:11+09:00*%
%TF.ProjectId,audio,61756469-6f2e-46b6-9963-61645f706362,rev?*%
%TF.SameCoordinates,Original*%
%TF.FileFunction,Soldermask,Bot*%
%TF.FilePolarity,Negative*%
%FSLAX46Y46*%
G04 Gerber Fmt 4.6, Leading zero omitted, Abs format (unit mm)*
G04 Created by KiCad (PCBNEW (7.0.0)) date 2023-02-16 09:01:11*
%MOMM*%
%LPD*%
G01*
G04 APERTURE LIST*
G04 Aperture macros list*
%AMRoundRect*
0 Rectangle with rounded corners*
0 $1 Rounding radius*
0 $2 $3 $4 $5 $6 $7 $8 $9 X,Y pos of 4 corners*
0 Add a 4 corners polygon primitive as box body*
4,1,4,$2,$3,$4,$5,$6,$7,$8,$9,$2,$3,0*
0 Add four circle primitives for the rounded corners*
1,1,$1+$1,$2,$3*
1,1,$1+$1,$4,$5*
1,1,$1+$1,$6,$7*
1,1,$1+$1,$8,$9*
0 Add four rect primitives between the rounded corners*
20,1,$1+$1,$2,$3,$4,$5,0*
20,1,$1+$1,$4,$5,$6,$7,0*
20,1,$1+$1,$6,$7,$8,$9,0*
20,1,$1+$1,$8,$9,$2,$3,0*%
G04 Aperture macros list end*
%ADD10C,3.200000*%
%ADD11O,2.200000X1.200000*%
%ADD12O,2.700000X1.200000*%
%ADD13O,2.600000X1.200000*%
%ADD14R,1.524000X1.524000*%
%ADD15C,1.524000*%
%ADD16C,1.800000*%
%ADD17O,1.270000X1.524000*%
%ADD18C,2.630000*%
%ADD19C,2.610000*%
%ADD20C,6.100000*%
%ADD21R,1.700000X1.700000*%
%ADD22O,1.700000X1.700000*%
%ADD23C,1.200000*%
%ADD24C,3.400000*%
%ADD25C,2.500000*%
%ADD26O,1.200000X2.200000*%
%ADD27O,1.200000X2.700000*%
%ADD28O,1.200000X2.600000*%
%ADD29RoundRect,0.140000X0.140000X0.170000X-0.140000X0.170000X-0.140000X-0.170000X0.140000X-0.170000X0*%
%ADD30RoundRect,0.140000X-0.170000X0.140000X-0.170000X-0.140000X0.170000X-0.140000X0.170000X0.140000X0*%
%ADD31RoundRect,0.135000X-0.135000X-0.185000X0.135000X-0.185000X0.135000X0.185000X-0.135000X0.185000X0*%
G04 APERTURE END LIST*
D10*
%TO.C,REF\u002A\u002A*%
X-11499970Y8499980D03*
%TD*%
D11*
%TO.C,J5*%
X-8039969Y46819979D03*
X-8039969Y38179979D03*
D12*
X-13399969Y46819979D03*
D13*
X-13399969Y38179979D03*
%TD*%
D10*
%TO.C,J2*%
X-5362470Y15492480D03*
X-5362470Y28192480D03*
D14*
X9877529Y16762479D03*
D15*
X9877530Y18794480D03*
X9877530Y20826480D03*
X9877530Y22858480D03*
X9877530Y24890480D03*
X9877530Y26922480D03*
X12417530Y15746480D03*
X12417530Y17778480D03*
X12417530Y19810480D03*
X12417530Y23874480D03*
X12417530Y25906480D03*
X12417530Y27938480D03*
D16*
X14957530Y15746480D03*
X14957530Y18286480D03*
X14957530Y25398480D03*
X14957530Y27938480D03*
D17*
X2767529Y16247479D03*
X2767529Y27427479D03*
X1297529Y16247479D03*
X1297529Y27427479D03*
D18*
X-8537470Y13777980D03*
D19*
X-8537470Y29906980D03*
%TD*%
D10*
%TO.C,*%
X166995388Y19998836D03*
%TD*%
D20*
%TO.C,CM4_MODULE1*%
X56200030Y18899980D03*
X56200030Y66899980D03*
X23200030Y18899980D03*
X23200030Y66899980D03*
%TD*%
D21*
%TO.C,J6*%
X16000029Y76999979D03*
D22*
X18540029Y76999979D03*
X21080029Y76999979D03*
X23620029Y76999979D03*
X26160029Y76999979D03*
X28700029Y76999979D03*
X31240029Y76999979D03*
X33780029Y76999979D03*
X36320029Y76999979D03*
X38860029Y76999979D03*
%TD*%
D10*
%TO.C,REF\u002A\u002A*%
X-11499970Y76499980D03*
%TD*%
D23*
%TO.C,U15*%
X64040030Y121639980D03*
X65454244Y123054194D03*
X66868457Y121639980D03*
X65454244Y120225766D03*
%TD*%
D10*
%TO.C,*%
X76995388Y109998836D03*
%TD*%
D23*
%TO.C,U18*%
X65354244Y6943478D03*
X63940030Y8357692D03*
X65354244Y9771905D03*
X66768458Y8357692D03*
%TD*%
D10*
%TO.C,REF\u002A\u002A*%
X56500030Y8499980D03*
%TD*%
%TO.C,*%
X76995388Y19998836D03*
%TD*%
D23*
%TO.C,U17*%
X180050746Y8357691D03*
X178636532Y6943477D03*
X177222319Y8357691D03*
X178636532Y9771905D03*
%TD*%
%TO.C,U16*%
X178536533Y123054194D03*
X179950747Y121639980D03*
X178536533Y120225767D03*
X177122319Y121639980D03*
%TD*%
D24*
%TO.C,J1*%
X-5771470Y69157480D03*
X-5771470Y54657480D03*
D25*
X-11771470Y69157480D03*
X-11771470Y54657480D03*
%TD*%
D10*
%TO.C,*%
X166995388Y109998836D03*
%TD*%
%TO.C,REF\u002A\u002A*%
X56500030Y76499980D03*
%TD*%
D21*
%TO.C,J7*%
X25000029Y8999979D03*
D22*
X27540029Y8999979D03*
X30080029Y8999979D03*
X32620029Y8999979D03*
X35160029Y8999979D03*
X37700029Y8999979D03*
X40240029Y8999979D03*
X42780029Y8999979D03*
X45320029Y8999979D03*
X47860029Y8999979D03*
%TD*%
D26*
%TO.C,J4*%
X7090029Y72869979D03*
X-1549969Y72869979D03*
D27*
X7090029Y78229979D03*
D28*
X-1549969Y78229979D03*
%TD*%
D29*
%TO.C,C6*%
X24905530Y104599980D03*
X23945530Y104599980D03*
%TD*%
D30*
%TO.C,C13*%
X10070030Y104779980D03*
X10070030Y103819980D03*
%TD*%
D23*
%TO.C,U24*%
X12430030Y99099980D03*
X10430030Y99099980D03*
X10430030Y101099980D03*
X12430030Y101099980D03*
%TD*%
D21*
%TO.C,J9*%
X124495387Y31498835D03*
D22*
X127035387Y31498835D03*
X129575387Y31498835D03*
X132115387Y31498835D03*
X134655387Y31498835D03*
X137195387Y31498835D03*
X139735387Y31498835D03*
X142275387Y31498835D03*
X144815387Y31498835D03*
X147355387Y31498835D03*
%TD*%
D31*
%TO.C,R58*%
X23915530Y105599980D03*
X24935530Y105599980D03*
%TD*%
%TO.C,R60*%
X17920030Y105599980D03*
X18940030Y105599980D03*
%TD*%
D29*
%TO.C,C11*%
X18910030Y102599980D03*
X17950030Y102599980D03*
%TD*%
D30*
%TO.C,C4*%
X28050030Y104779980D03*
X28050030Y103819980D03*
%TD*%
D23*
%TO.C,U22*%
X18430030Y99099980D03*
X16430030Y99099980D03*
X16430030Y101099980D03*
X18430030Y101099980D03*
%TD*%
D29*
%TO.C,C5*%
X30890030Y102599980D03*
X29930030Y102599980D03*
%TD*%
%TO.C,C3*%
X30890030Y104599980D03*
X29930030Y104599980D03*
%TD*%
%TO.C,C14*%
X12910030Y102599980D03*
X11950030Y102599980D03*
%TD*%
D23*
%TO.C,U20*%
X24425530Y99099980D03*
X22425530Y99099980D03*
X22425530Y101099980D03*
X24425530Y101099980D03*
%TD*%
D30*
%TO.C,C10*%
X16070030Y104779980D03*
X16070030Y103819980D03*
%TD*%
D31*
%TO.C,R6*%
X29900030Y103599980D03*
X30920030Y103599980D03*
%TD*%
%TO.C,R62*%
X11920030Y105599980D03*
X12940030Y105599980D03*
%TD*%
%TO.C,R61*%
X17920030Y103599980D03*
X18940030Y103599980D03*
%TD*%
%TO.C,R5*%
X29900030Y105599980D03*
X30920030Y105599980D03*
%TD*%
D23*
%TO.C,U8*%
X30430030Y99109980D03*
X28430030Y99109980D03*
X28430030Y101109980D03*
X30430030Y101109980D03*
%TD*%
D29*
%TO.C,C12*%
X12910030Y104599980D03*
X11950030Y104599980D03*
%TD*%
D31*
%TO.C,R59*%
X23915530Y103599980D03*
X24935530Y103599980D03*
%TD*%
D29*
%TO.C,C9*%
X18910030Y104599980D03*
X17950030Y104599980D03*
%TD*%
D30*
%TO.C,C7*%
X22065530Y104779980D03*
X22065530Y103819980D03*
%TD*%
D31*
%TO.C,R63*%
X11920030Y103599980D03*
X12940030Y103599980D03*
%TD*%
D29*
%TO.C,C8*%
X24905530Y102599980D03*
X23945530Y102599980D03*
%TD*%
D21*
%TO.C,J8*%
X115495387Y99498835D03*
D22*
X118035387Y99498835D03*
X120575387Y99498835D03*
X123115387Y99498835D03*
X125655387Y99498835D03*
X128195387Y99498835D03*
X130735387Y99498835D03*
X133275387Y99498835D03*
X135815387Y99498835D03*
X138355387Y99498835D03*
%TD*%
M02*
