M48
; DRILL file {KiCad (7.0.0)} date Tue Feb 14 07:36:17 2023
; FORMAT={-:-/ absolute / inch / decimal}
; #@! TF.CreationDate,2023-02-14T07:36:17+09:00
; #@! TF.GenerationSoftware,Kicad,Pcbnew,(7.0.0)
; #@! TF.FileFunction,Plated,1,4,PTH
FMAT,2
INCH
; #@! TA.AperFunction,Plated,PTH,ViaDrill
T1C0.0079
; #@! TA.AperFunction,Plated,PTH,ComponentDrill
T2C0.0256
; #@! TA.AperFunction,Plated,PTH,ComponentDrill
T3C0.0315
; #@! TA.AperFunction,Plated,PTH,ComponentDrill
T4C0.0350
; #@! TA.AperFunction,Plated,PTH,ComponentDrill
T5C0.0394
; #@! TA.AperFunction,Plated,PTH,ComponentDrill
T6C0.0404
; #@! TA.AperFunction,Plated,PTH,ComponentDrill
T7C0.0618
; #@! TA.AperFunction,Plated,PTH,ComponentDrill
T8C0.0634
; #@! TA.AperFunction,Plated,PTH,ComponentDrill
T9C0.0890
%
G90
G05
T1
X-0.9252Y-2.626
X-0.9252Y-2.6969
X-0.8583Y-2.7362
X-0.8386Y-2.7087
X-0.8118Y-2.6374
X-0.8071Y-2.7795
X-0.689Y-2.626
X-0.689Y-2.6969
X-0.622Y-2.7362
X-0.6024Y-2.7087
X-0.5756Y-2.6374
X-0.5709Y-2.7795
X-0.4528Y-2.626
X-0.4528Y-2.6969
X-0.3858Y-2.7362
X-0.3661Y-2.7087
X-0.3394Y-2.6374
X-0.3346Y-2.7795
X-0.2157Y-2.626
X-0.2157Y-2.6969
X-0.1488Y-2.7362
X-0.1291Y-2.7087
X-0.1024Y-2.6374
X-0.0976Y-2.7795
X0.0394Y-0.2756
X0.0472Y-2.6772
X0.0784Y-2.4006
X0.0787Y-0.5118
X0.0787Y-0.7087
X0.0787Y-0.9055
X0.0787Y-1.1417
X0.0787Y-2.0079
X0.0787Y-2.2047
X0.0787Y-2.5984
X0.1772Y-1.3425
X0.1772Y-1.3622
X0.1772Y-1.3819
X0.1772Y-1.4016
X0.1772Y-1.4213
X0.1772Y-1.4409
X0.1772Y-1.4606
X0.1772Y-1.4803
X0.1772Y-1.5
X0.1772Y-1.5197
X0.1772Y-1.5394
X0.1772Y-1.5591
X0.1772Y-1.5787
X0.1772Y-1.5984
X0.1772Y-1.6181
X0.2047Y-1.4961
X0.2138Y-1.4646
X0.252Y-0.0315
X0.2756Y-0.5512
X0.2756Y-0.6693
X0.2756Y-0.8268
X0.2807Y-2.9137
X0.2913Y-1.4762
X0.2953Y-2.1654
X0.2953Y-2.3622
X0.315Y-0.5748
X0.315Y-0.6929
X0.315Y-0.752
X0.315Y-0.811
X0.315Y-0.8701
X0.315Y-2.7953
X0.3189Y-0.2402
X0.3189Y-0.2602
X0.3287Y-1.3425
X0.3287Y-1.3622
X0.3287Y-1.3819
X0.3287Y-1.4016
X0.3287Y-1.5394
X0.3287Y-1.5591
X0.3287Y-1.5787
X0.3287Y-1.5984
X0.3287Y-1.6181
X0.3346Y-0.1378
X0.3878Y-1.4075
X0.4057Y-0.1612
X0.4331Y-2.9134
X0.4474Y-0.139
X0.4646Y-0.6929
X0.4646Y-0.752
X0.4674Y-0.8107
X0.4674Y-0.8698
X0.4709Y-0.0666
X0.4724Y-0.2126
X0.5197Y-0.9331
X0.5413Y-1.2878
X0.563Y-0.6614
X0.5807Y-1.2878
X0.5866Y-0.9291
X0.5906Y-2.9134
X0.6488Y-0.3469
X0.66Y-0.2111
X0.6654Y-0.9016
X0.6685Y-0.3335
X0.6693Y-0.3575
X0.685Y-0.6614
X0.7228Y-0.3508
X0.7343Y-0.3295
X0.7402Y-0.1612
X0.7402Y-0.2126
X0.7565Y-0.3504
X0.7677Y-0.1417
X0.7795Y-0.3307
X0.7835Y-2.2244
X0.7874Y-0.9016
X0.7889Y-2.914
X0.7992Y-0.3583
X0.7992Y-0.6614
X0.8014Y-2.2559
X0.8976Y-0.9055
X0.9016Y-0.6614
X0.9488Y-0.9528
X0.9843Y-0.6614
X0.9843Y-2.9134
X1.0118Y-1.0118
X1.0354Y-0.7087
X1.0709Y-1.0709
X1.0984Y-0.7756
X1.1319Y-1.8602
X1.1378Y-1.1378
X1.1417Y-2.9134
X1.1614Y-0.8386
X1.2106Y-1.6339
X1.2106Y-1.6929
X1.2106Y-1.7618
X1.2244Y-0.9016
X1.2323Y-1.2362
X1.2598Y-1.6043
X1.2992Y-0.9764
X1.3091Y-1.6339
X1.3091Y-1.7028
X1.3091Y-1.8565
X1.32Y-2.91
X1.3465Y-1.0354
X1.35Y-1.4
X1.3543Y-1.2441
X1.3543Y-1.3189
X1.3819Y-1.689
X1.4059Y-0.9252
X1.4296Y-2.0215
X1.4314Y-2.2111
X1.4441Y-0.9252
X1.4567Y-2.9134
X1.4882Y-1.3937
X1.4882Y-1.4764
X1.4882Y-1.5551
X1.4882Y-1.622
X1.5039Y-1.0157
X1.5039Y-1.063
X1.5039Y-1.1102
X1.5039Y-1.1575
X1.5039Y-1.2047
X1.5039Y-1.252
X1.5039Y-1.2992
X1.5079Y-0.9528
X1.5115Y-2.2109
X1.5162Y-2.0215
X1.5354Y-1.9291
X1.5748Y-2.2736
X1.6337Y-1.8365
X1.6535Y-2.2736
X1.6929Y-2.9134
X1.6957Y-1.7745
X1.7028Y-2.2244
X1.752Y-2.1752
X1.7745Y-1.6957
X1.8209Y-2.1063
X1.8898Y-2.0374
X1.8898Y-2.9134
X1.9528Y-1.6478
X1.9587Y-1.9685
X1.9685Y-0.5512
X1.9685Y-0.7087
X1.9685Y-0.8268
X1.9685Y-0.9449
X1.9685Y-1.063
X1.9685Y-1.1811
X1.9685Y-1.3386
X1.9685Y-1.4567
X2.0079Y-1.9291
X2.0866Y-1.3373
X2.0866Y-0.7087
X2.0866Y-0.8268
X2.0866Y-0.9449
X2.0866Y-1.063
X2.0866Y-1.1811
X2.0866Y-1.4567
X2.0866Y-2.9134
X2.0945Y-1.6451
X2.0945Y-1.9291
X2.1969Y-1.6451
X2.1969Y-1.9291
X2.2047Y-0.4724
X2.2441Y-2.7165
X2.2835Y-0.5512
X2.2835Y-2.9134
X2.3071Y-1.6451
X2.3228Y-1.9291
X2.4016Y-0.5118
X2.4016Y-0.6299
X2.4016Y-1.063
X2.4016Y-1.1811
X2.4016Y-1.2992
X2.4016Y-1.4173
X2.4016Y-1.5354
X2.4016Y-1.9291
X2.4213Y-1.6451
X2.4803Y-2.9134
X2.5906Y-1.9567
X2.6012Y-1.5551
X2.6134Y-1.9646
X2.6177Y-1.5787
X2.6181Y-0.4488
X2.6346Y-1.4776
X2.6378Y-2.7165
X2.6378Y-2.7953
X2.6496Y-0.752
X2.6496Y-0.8071
X2.6496Y-0.8543
X2.6496Y-0.9094
X2.6531Y-1.452
X2.6756Y-1.2563
X2.6929Y-0.6181
X2.6929Y-2.9213
X2.7047Y-1.9134
X2.7155Y-1.5592
X2.7165Y-0.752
X2.7165Y-0.8071
X2.7165Y-0.8543
X2.7165Y-0.9094
X2.7165Y-1.6071
X2.7165Y-1.6299
X2.7248Y-0.9921
X2.7272Y-1.7008
X2.7295Y-1.7484
X2.7756Y-0.752
X2.7756Y-0.8071
X2.7756Y-0.8543
X2.7756Y-0.9094
X2.7835Y-1.9094
X2.8071Y-1.7992
X2.824Y-1.6583
X2.8307Y-0.9094
X2.8307Y-0.9646
X2.8307Y-1.0197
X2.8307Y-1.0748
X2.8307Y-1.1299
X2.8346Y-0.752
X2.8346Y-0.8071
X2.8346Y-0.8543
X2.8346Y-1.2205
X2.8346Y-1.4567
X2.8346Y-2.0866
X2.8465Y-1.6378
X2.8504Y-1.6142
X2.8508Y-1.7008
X2.8579Y-1.5433
X2.8579Y-1.3701
X2.8839Y-0.9067
X2.8976Y-0.7953
X2.9016Y-0.6417
X2.9134Y-2.6929
X3.9803Y0.5472
X3.9961Y-0.0984
X4.0039Y0.063
X4.0079Y0.4331
X4.0354Y0.2559
X4.1024Y0.0591
X4.1102Y0.4331
X4.1496Y0.0591
X4.1535Y-0.1378
X4.2638Y0.8228
X4.2717Y0.2559
X4.2748Y-0.0638
X4.2748Y-0.1215
X4.2953Y0.0512
X4.2953Y0.0079
X4.2953Y-0.0354
X4.3071Y0.4331
X4.3071Y0.122
X4.3307Y0.6181
X4.3307Y0.5709
X4.3346Y0.0118
X4.3346Y-0.0157
X4.3346Y-0.0555
X4.3583Y0.4331
X4.3583Y0.122
X4.4291Y-0.1378
X4.4685Y0.4843
X4.4685Y0.1732
X4.4709Y0.0398
X4.472Y0.1276
X4.4945Y-0.0311
X4.5205Y0.3811
X4.524Y0.5035
X4.5264Y0.6417
X4.5472Y0.2953
X4.561Y-0.1047
X4.6028Y0.4984
X4.6457Y-0.1476
X4.6648Y0.2958
X4.6945Y0.7291
X4.698Y-0.1917
X4.7047Y-0.2953
X4.7047Y-0.4921
X4.7047Y-0.689
X4.7047Y-0.8465
X4.7244Y-0.0071
X4.7492Y0.0461
X4.7724Y-0.2622
X4.7835Y0.2953
X4.7902Y0.1213
X4.7925Y0.174
X4.8425Y-0.0831
X4.8567Y0.6291
X4.8583Y0.4988
X4.8622Y-0.8465
X4.878Y0.4055
X4.878Y0.1693
X4.8858Y0.7768
X4.911Y-0.3295
X4.9181Y-0.1839
X4.9213Y0.1693
X4.9252Y0.4055
X4.9713Y-0.278
X5.0181Y0.6346
X5.0197Y0.2559
X5.0354Y-0.4555
X5.0366Y0.7791
X5.0902Y0.5382
X5.0965Y-0.3984
X5.0984Y-0.8465
X5.1331Y0.4134
X5.135Y-0.565
X5.1563Y0.5386
X5.1689Y0.4831
X5.1693Y0.5921
X5.174Y0.5209
X5.1772Y-0.6496
X5.2008Y-0.622
X5.2012Y-0.502
X5.2165Y0.2559
X5.2165Y-0.6378
X5.2165Y-0.689
X5.2323Y-0.6535
X5.248Y-0.6693
X5.2551Y0.6358
X5.2559Y-0.5669
X5.2717Y-0.5827
X5.2874Y-0.5984
X5.2898Y-0.7142
X5.2953Y-0.5315
X5.2953Y-0.8465
X5.3031Y-0.6142
X5.3346Y-0.5709
X5.3476Y-0.7681
X5.3492Y0.4185
X5.3602Y-0.6642
X5.374Y-0.9252
X5.374Y-1.0827
X5.374Y-1.9882
X5.4016Y-1.2913
X5.4134Y0.2559
X5.4185Y-1.8154
X5.4209Y0.6437
X5.424Y-0.8106
X5.4295Y-0.7343
X5.439Y-1.6736
X5.4421Y-1.7984
X5.4531Y-1.6524
X5.461Y-1.1327
X5.4661Y-0.9886
X5.4732Y-0.5902
X5.478Y-1.6646
X5.4858Y0.4917
X5.5094Y-2.0157
X5.5248Y-1.335
X5.5283Y-0.7331
X5.5303Y-0.8142
X5.537Y-1.1346
X5.5382Y0.4118
X5.5394Y-1.8059
X5.5433Y-1.0307
X5.5441Y-0.6256
X5.5472Y-0.9331
X5.5571Y-0.8661
X5.563Y-0.9685
X5.563Y-1.4055
X5.5661Y-1.7933
X5.5882Y0.8146
X5.589Y0.7295
X5.6094Y-0.7339
X5.6102Y0.2559
X5.6102Y-1.5945
X5.6106Y0.6327
X5.6236Y-0.8098
X5.6327Y-0.6437
X5.6496Y-0.6929
X5.6496Y-0.7205
X5.6516Y-0.9217
X5.6665Y-0.5067
X5.6665Y-2.0157
X5.6736Y0.5622
X5.674Y-0.6169
X5.6772Y0.2953
X5.6772Y0.2677
X5.6772Y0.2441
X5.689Y-1.3976
X5.6976Y-0.815
X5.7154Y-0.5232
X5.7251Y-1.8276
X5.7275Y-1.7118
X5.7283Y-1.5945
X5.7306Y-1.7709
X5.731Y-1.748
X5.7594Y-0.7315
X5.7598Y-0.5157
X5.7598Y-0.563
X5.7598Y-0.6496
X5.7948Y0.0192
X5.7948Y-0.0805
X5.7984Y-0.563
X5.7996Y-0.6508
X5.8052Y-0.4842
X5.8054Y-1.7709
X5.8063Y-0.8126
X5.8071Y-0.2559
X5.8071Y-0.374
X5.8071Y-0.9252
X5.8465Y-0.7283
X5.8465Y-1.5945
X5.8575Y-2.0154
X5.8583Y-0.3543
X5.8858Y0.2953
X5.8858Y0.1772
X5.8858Y0.0591
X5.8858Y-0.0591
X5.8858Y-1.122
X5.8858Y-1.3976
X5.8976Y-0.5236
X5.8976Y-0.5709
X5.8976Y-0.6181
X5.9055Y-0.3543
X5.9055Y-0.8976
X5.9291Y-0.5236
X5.9291Y-0.5709
X5.9291Y-0.6181
X5.9646Y-1.3189
X5.9803Y-0.8307
X5.9803Y-0.8976
X5.9961Y-0.4126
X5.9961Y-0.737
X5.9961Y-0.7756
X6.0039Y-0.3307
X6.0039Y-1.5945
X6.0059Y-2.0114
X6.063Y-0.7362
X6.063Y-0.8307
X6.063Y-0.8976
X6.0669Y-0.1535
X6.0669Y-0.4098
X6.0827Y0.374
X6.1136Y-0.5197
X6.122Y-1.5945
X6.1496Y0.3346
X6.1654Y-0.2205
X6.1811Y-0.7677
X6.1906Y-0.2424
X6.2008Y-0.5984
X6.2047Y-0.5197
X6.2047Y-0.5551
X6.2065Y-0.2582
X6.2189Y-2.0122
X6.2293Y0.0689
X6.2293Y0.0197
X6.2319Y0.335
X6.2323Y0.3961
X6.2323Y-0.0807
X6.2333Y-0.8819
X6.2402Y-1.7126
X6.2549Y-0.8819
X6.2598Y0.3346
X6.2874Y0.2913
X6.2874Y0.2677
X6.2874Y0.2402
X6.2874Y-0.3819
X6.2913Y0.0906
X6.2913Y-0.6535
X6.3189Y0.1378
X6.3189Y-1.7913
X6.327Y-0.7518
X6.3382Y-0.394
X6.3423Y-0.7364
X6.3465Y-0.5748
X6.3465Y-0.6142
X6.3541Y-0.4098
X6.3543Y0.4764
X6.3583Y0.374
T3
X-0.9055Y-2.8346
X-0.9055Y-2.9134
X-0.8268Y-2.8346
X-0.8268Y-2.9134
X-0.6693Y-2.8346
X-0.6693Y-2.9134
X-0.5906Y-2.8346
X-0.5906Y-2.9134
X-0.4331Y-2.8346
X-0.4331Y-2.9134
X-0.3543Y-2.8346
X-0.3543Y-2.9134
X-0.1969Y-2.8343
X-0.1969Y-2.913
X-0.1181Y-2.8343
X-0.1181Y-2.913
X3.1081Y-2.8205
X3.112Y1.6394
X3.1637Y-2.7648
X3.1637Y-2.8762
X3.1677Y1.6951
X3.1677Y1.5837
X3.2194Y-2.8205
X3.2233Y1.6394
X7.5641Y1.6394
X7.568Y-2.8205
X7.6197Y1.6951
X7.6197Y1.5837
X7.6237Y-2.7648
X7.6237Y-2.8762
X7.6754Y1.6394
X7.6793Y-2.8205
T4
X0.6416Y-2.0698
X0.6416Y-2.5099
X0.6995Y-2.0698
X0.6995Y-2.5099
X0.9794Y-2.0897
X0.9794Y-2.1697
X0.9794Y-2.2497
X0.9794Y-2.3297
X0.9794Y-2.4097
X0.9794Y-2.4897
X1.0794Y-2.0497
X1.0794Y-2.1297
X1.0794Y-2.2097
X1.0794Y-2.3697
X1.0794Y-2.4497
X1.0794Y-2.5297
T5
X1.2205Y-0.1181
X1.3205Y-0.1181
X1.4205Y-0.1181
X1.5205Y-0.1181
X1.5748Y-2.7953
X1.6205Y-0.1181
X1.6748Y-2.7953
X1.7205Y-0.1181
X1.7748Y-2.7953
X1.8205Y-0.1181
X1.8748Y-2.7953
X1.9205Y-0.1181
X1.9748Y-2.7953
X2.0205Y-0.1181
X2.0748Y-2.7953
X2.1205Y-0.1181
X2.1748Y-2.7953
X2.2748Y-2.7953
X2.3748Y-2.7953
X2.4748Y-2.7953
X5.1378Y0.7677
X5.2378Y0.7677
X5.3378Y0.7677
X5.4378Y0.7677
X5.4921Y-1.9094
X5.5378Y0.7677
X5.5921Y-1.9094
X5.6378Y0.7677
X5.6921Y-1.9094
X5.7378Y0.7677
X5.7921Y-1.9094
X5.8378Y0.7677
X5.8921Y-1.9094
X5.9378Y0.7677
X5.9921Y-1.9094
X6.0378Y0.7677
X6.0921Y-1.9094
X6.1921Y-1.9094
X6.2921Y-1.9094
X6.3921Y-1.9094
T6
X1.1794Y-2.0497
X1.1794Y-2.1497
X1.1794Y-2.4297
X1.1794Y-2.5297
T7
X0.2544Y-1.9722
X0.2544Y-2.6072
T8
X0.1271Y-0.4269
X0.1271Y-0.9977
T9
X0.3633Y-0.4269
X0.3633Y-0.9977
T2
G00X0.093Y-1.3063
M15
G01X0.033Y-1.3063
M16
G05
G00X0.093Y-1.6465
M15
G01X0.033Y-1.6465
M16
G05
G00X0.2947Y-1.3063
M15
G01X0.2533Y-1.3063
M16
G05
G00X0.2952Y-1.6465
M15
G01X0.2528Y-1.6465
M16
G05
G00X0.5295Y-0.0997
M15
G01X0.5295Y-0.0397
M16
G05
G00X0.5295Y-0.3019
M15
G01X0.5295Y-0.2595
M16
G05
G00X0.8697Y-0.0997
M15
G01X0.8697Y-0.0397
M16
G05
G00X0.8697Y-0.3014
M15
G01X0.8697Y-0.26
M16
G05
T0
M30
