%TF.GenerationSoftware,KiCad,Pcbnew,(7.0.0)*%
%TF.CreationDate,2023-02-14T07:36:11+09:00*%
%TF.ProjectId,audio,61756469-6f2e-46b6-9963-61645f706362,rev?*%
%TF.SameCoordinates,Original*%
%TF.FileFunction,Soldermask,Bot*%
%TF.FilePolarity,Negative*%
%FSLAX46Y46*%
G04 Gerber Fmt 4.6, Leading zero omitted, Abs format (unit mm)*
G04 Created by KiCad (PCBNEW (7.0.0)) date 2023-02-14 07:36:11*
%MOMM*%
%LPD*%
G01*
G04 APERTURE LIST*
%ADD10C,1.200000*%
%ADD11C,0.800000*%
%ADD12C,3.200000*%
%ADD13O,2.200000X1.200000*%
%ADD14O,2.700000X1.200000*%
%ADD15O,2.600000X1.200000*%
%ADD16R,1.524000X1.524000*%
%ADD17C,1.524000*%
%ADD18C,1.800000*%
%ADD19O,1.270000X1.524000*%
%ADD20C,2.630000*%
%ADD21C,2.610000*%
%ADD22C,6.100000*%
%ADD23R,1.700000X1.700000*%
%ADD24O,1.700000X1.700000*%
%ADD25C,3.400000*%
%ADD26C,2.500000*%
%ADD27O,1.200000X2.200000*%
%ADD28O,1.200000X2.700000*%
%ADD29O,1.200000X2.600000*%
G04 APERTURE END LIST*
D10*
%TO.C,U24*%
X-23000000Y-74000000D03*
X-21000000Y-74000000D03*
X-21000000Y-72000000D03*
X-23000000Y-72000000D03*
%TD*%
D11*
%TO.C,U23*%
X-21150000Y-70030000D03*
X-21150000Y-67570000D03*
X-22850000Y-67570000D03*
X-22850000Y-70030000D03*
%TD*%
D10*
%TO.C,U22*%
X-17000000Y-74000000D03*
X-15000000Y-74000000D03*
X-15000000Y-72000000D03*
X-17000000Y-72000000D03*
%TD*%
D11*
%TO.C,U21*%
X-15150000Y-70030000D03*
X-15150000Y-67570000D03*
X-16850000Y-67570000D03*
X-16850000Y-70030000D03*
%TD*%
D10*
%TO.C,U20*%
X-11000000Y-74000000D03*
X-9000000Y-74000000D03*
X-9000000Y-72000000D03*
X-11000000Y-72000000D03*
%TD*%
D11*
%TO.C,U19*%
X-10850000Y-70030000D03*
X-10850000Y-67570000D03*
X-9150000Y-67570000D03*
X-9150000Y-70030000D03*
%TD*%
D12*
%TO.C,*%
X92000000Y-60000000D03*
%TD*%
%TO.C,*%
X182000000Y-60000000D03*
%TD*%
%TO.C,*%
X182000000Y30000000D03*
%TD*%
%TO.C,*%
X92000000Y30000000D03*
%TD*%
D10*
%TO.C,U17*%
X195055358Y-71641145D03*
X193641144Y-73055359D03*
X192226931Y-71641145D03*
X193641144Y-70226931D03*
%TD*%
D12*
%TO.C,REF\u002A\u002A*%
X3500000Y-71500000D03*
%TD*%
D13*
%TO.C,J5*%
X6959999Y-33179999D03*
X6959999Y-41819999D03*
D14*
X1599999Y-33179999D03*
D15*
X1599999Y-41819999D03*
%TD*%
D12*
%TO.C,J2*%
X9637500Y-64507500D03*
X9637500Y-51807500D03*
D16*
X24877499Y-63237499D03*
D17*
X24877500Y-61205500D03*
X24877500Y-59173500D03*
X24877500Y-57141500D03*
X24877500Y-55109500D03*
X24877500Y-53077500D03*
X27417500Y-64253500D03*
X27417500Y-62221500D03*
X27417500Y-60189500D03*
X27417500Y-56125500D03*
X27417500Y-54093500D03*
X27417500Y-52061500D03*
D18*
X29957500Y-64253500D03*
X29957500Y-61713500D03*
X29957500Y-54601500D03*
X29957500Y-52061500D03*
D19*
X17767499Y-63752499D03*
X17767499Y-52572499D03*
X16297499Y-63752499D03*
X16297499Y-52572499D03*
D20*
X6462500Y-66222000D03*
D21*
X6462500Y-50093000D03*
%TD*%
D22*
%TO.C,CM4_MODULE1*%
X71200000Y-61100000D03*
X71200000Y-13100000D03*
X38200000Y-61100000D03*
X38200000Y-13100000D03*
%TD*%
D23*
%TO.C,J6*%
X30999999Y-2999999D03*
D24*
X33539999Y-2999999D03*
X36079999Y-2999999D03*
X38619999Y-2999999D03*
X41159999Y-2999999D03*
X43699999Y-2999999D03*
X46239999Y-2999999D03*
X48779999Y-2999999D03*
X51319999Y-2999999D03*
X53859999Y-2999999D03*
%TD*%
D12*
%TO.C,REF\u002A\u002A*%
X3500000Y-3500000D03*
%TD*%
D10*
%TO.C,U15*%
X79044642Y41641144D03*
X80458856Y43055358D03*
X81873069Y41641144D03*
X80458856Y40226930D03*
%TD*%
%TO.C,U18*%
X80358856Y-73055358D03*
X78944642Y-71641144D03*
X80358856Y-70226931D03*
X81773070Y-71641144D03*
%TD*%
D12*
%TO.C,REF\u002A\u002A*%
X71500000Y-71500000D03*
%TD*%
D10*
%TO.C,U16*%
X193541145Y43055358D03*
X194955359Y41641144D03*
X193541145Y40226931D03*
X192126931Y41641144D03*
%TD*%
D25*
%TO.C,J1*%
X9228500Y-10842500D03*
X9228500Y-25342500D03*
D26*
X3228500Y-10842500D03*
X3228500Y-25342500D03*
%TD*%
D10*
%TO.C,U8*%
X-5000000Y-73990000D03*
X-3000000Y-73990000D03*
X-3000000Y-71990000D03*
X-5000000Y-71990000D03*
%TD*%
D12*
%TO.C,REF\u002A\u002A*%
X71500000Y-3500000D03*
%TD*%
D23*
%TO.C,J7*%
X39999999Y-70999999D03*
D24*
X42539999Y-70999999D03*
X45079999Y-70999999D03*
X47619999Y-70999999D03*
X50159999Y-70999999D03*
X52699999Y-70999999D03*
X55239999Y-70999999D03*
X57779999Y-70999999D03*
X60319999Y-70999999D03*
X62859999Y-70999999D03*
%TD*%
D27*
%TO.C,J4*%
X22089999Y-7129999D03*
X13449999Y-7129999D03*
D28*
X22089999Y-1769999D03*
D29*
X13449999Y-1769999D03*
%TD*%
D23*
%TO.C,J9*%
X139499999Y-48499999D03*
D24*
X142039999Y-48499999D03*
X144579999Y-48499999D03*
X147119999Y-48499999D03*
X149659999Y-48499999D03*
X152199999Y-48499999D03*
X154739999Y-48499999D03*
X157279999Y-48499999D03*
X159819999Y-48499999D03*
X162359999Y-48499999D03*
%TD*%
D11*
%TO.C,U4*%
X-3130000Y-70030000D03*
X-3130000Y-67570000D03*
X-4830000Y-67570000D03*
X-4830000Y-70030000D03*
%TD*%
D23*
%TO.C,J8*%
X130499999Y19499999D03*
D24*
X133039999Y19499999D03*
X135579999Y19499999D03*
X138119999Y19499999D03*
X140659999Y19499999D03*
X143199999Y19499999D03*
X145739999Y19499999D03*
X148279999Y19499999D03*
X150819999Y19499999D03*
X153359999Y19499999D03*
%TD*%
M02*
