%TF.GenerationSoftware,KiCad,Pcbnew,(7.0.0)*%
%TF.CreationDate,2023-02-14T07:36:11+09:00*%
%TF.ProjectId,audio,61756469-6f2e-46b6-9963-61645f706362,rev?*%
%TF.SameCoordinates,Original*%
%TF.FileFunction,Legend,Bot*%
%TF.FilePolarity,Positive*%
%FSLAX46Y46*%
G04 Gerber Fmt 4.6, Leading zero omitted, Abs format (unit mm)*
G04 Created by KiCad (PCBNEW (7.0.0)) date 2023-02-14 07:36:11*
%MOMM*%
%LPD*%
G01*
G04 APERTURE LIST*
%ADD10C,0.150000*%
%ADD11C,0.250000*%
%ADD12C,0.120000*%
G04 APERTURE END LIST*
D10*
%TO.C,U23*%
X-23525000Y-68345000D02*
X-23525000Y-69255000D01*
X-21925000Y-70730000D02*
X-22075000Y-70730000D01*
X-20475000Y-68345000D02*
X-20475000Y-69255000D01*
X-21925000Y-66870000D02*
X-22075000Y-66870000D01*
D11*
X-21025000Y-71130000D02*
G75*
G03*
X-21025000Y-71130000I-125000J0D01*
G01*
D10*
%TO.C,U21*%
X-17525000Y-68345000D02*
X-17525000Y-69255000D01*
X-15925000Y-70730000D02*
X-16075000Y-70730000D01*
X-14475000Y-68345000D02*
X-14475000Y-69255000D01*
X-15925000Y-66870000D02*
X-16075000Y-66870000D01*
D11*
X-15025000Y-71130000D02*
G75*
G03*
X-15025000Y-71130000I-125000J0D01*
G01*
%TO.C,U19*%
X-9025000Y-71130000D02*
G75*
G03*
X-9025000Y-71130000I-125000J0D01*
G01*
D10*
X-9925000Y-66870000D02*
X-10075000Y-66870000D01*
X-8475000Y-68345000D02*
X-8475000Y-69255000D01*
X-9925000Y-70730000D02*
X-10075000Y-70730000D01*
X-11525000Y-68345000D02*
X-11525000Y-69255000D01*
D12*
%TO.C,J9*%
X163690000Y-47170000D02*
X163690000Y-49830000D01*
X140770000Y-47170000D02*
X163690000Y-47170000D01*
X140770000Y-47170000D02*
X140770000Y-49830000D01*
X138170000Y-48500000D02*
X138170000Y-49830000D01*
X140770000Y-49830000D02*
X163690000Y-49830000D01*
X138170000Y-49830000D02*
X139500000Y-49830000D01*
D10*
%TO.C,U4*%
X-3905000Y-66870000D02*
X-4055000Y-66870000D01*
X-2455000Y-68345000D02*
X-2455000Y-69255000D01*
X-5505000Y-68345000D02*
X-5505000Y-69255000D01*
X-3905000Y-70730000D02*
X-4055000Y-70730000D01*
D11*
X-3005000Y-71130000D02*
G75*
G03*
X-3005000Y-71130000I-125000J0D01*
G01*
D12*
%TO.C,J8*%
X154690000Y20830000D02*
X154690000Y18170000D01*
X131770000Y20830000D02*
X154690000Y20830000D01*
X131770000Y20830000D02*
X131770000Y18170000D01*
X129170000Y19500000D02*
X129170000Y18170000D01*
X131770000Y18170000D02*
X154690000Y18170000D01*
X129170000Y18170000D02*
X130500000Y18170000D01*
%TD*%
M02*
