M48
; DRILL file {KiCad (7.0.0)} date Mon Feb 20 12:18:17 2023
; FORMAT={-:-/ absolute / inch / decimal}
; #@! TF.CreationDate,2023-02-20T12:18:17+09:00
; #@! TF.GenerationSoftware,Kicad,Pcbnew,(7.0.0)
; #@! TF.FileFunction,Plated,1,4,PTH
FMAT,2
INCH
; #@! TA.AperFunction,Plated,PTH,ViaDrill
T1C0.0079
; #@! TA.AperFunction,Plated,PTH,ComponentDrill
T2C0.0256
; #@! TA.AperFunction,Plated,PTH,ComponentDrill
T3C0.0315
; #@! TA.AperFunction,Plated,PTH,ComponentDrill
T4C0.0350
; #@! TA.AperFunction,Plated,PTH,ComponentDrill
T5C0.0394
; #@! TA.AperFunction,Plated,PTH,ComponentDrill
T6C0.0404
; #@! TA.AperFunction,Plated,PTH,ComponentDrill
T7C0.0618
; #@! TA.AperFunction,Plated,PTH,ComponentDrill
T8C0.0634
; #@! TA.AperFunction,Plated,PTH,ComponentDrill
T9C0.0890
%
G90
G05
T1
X-0.5512Y2.874
X-0.5433Y0.4724
X-0.5122Y0.749
X-0.5118Y2.6378
X-0.5118Y2.4409
X-0.5118Y2.2441
X-0.5118Y2.0079
X-0.5118Y1.1417
X-0.5118Y0.9449
X-0.5118Y0.5512
X-0.4134Y1.8071
X-0.4134Y1.7874
X-0.4134Y1.7677
X-0.4134Y1.748
X-0.4134Y1.7283
X-0.4134Y1.7087
X-0.4134Y1.689
X-0.4134Y1.6693
X-0.4134Y1.6496
X-0.4134Y1.6299
X-0.4134Y1.6102
X-0.4134Y1.5906
X-0.4134Y1.5709
X-0.4134Y1.5512
X-0.4134Y1.5315
X-0.3858Y1.6535
X-0.3768Y1.685
X-0.3386Y3.1181
X-0.315Y2.5984
X-0.315Y2.4803
X-0.315Y2.3228
X-0.3098Y0.2359
X-0.2992Y1.6734
X-0.2953Y0.9843
X-0.2953Y0.7874
X-0.2756Y2.5748
X-0.2756Y2.4567
X-0.2756Y2.3976
X-0.2756Y2.3386
X-0.2756Y2.2795
X-0.2756Y0.3543
X-0.2717Y2.9094
X-0.2717Y2.8894
X-0.2618Y1.8071
X-0.2618Y1.7874
X-0.2618Y1.7677
X-0.2618Y1.748
X-0.2618Y1.6102
X-0.2618Y1.5906
X-0.2618Y1.5709
X-0.2618Y1.5512
X-0.2618Y1.5315
X-0.2559Y3.0118
X-0.2028Y1.7421
X-0.1849Y2.9884
X-0.1575Y0.2362
X-0.1276Y3.0118
X-0.126Y2.4567
X-0.126Y2.3976
X-0.1232Y2.3389
X-0.1232Y2.2798
X-0.1197Y3.083
X-0.1181Y2.937
X-0.0709Y2.2165
X-0.0492Y1.8618
X-0.0276Y2.4882
X-0.0098Y1.8618
X-0.0039Y2.2205
X0.0Y0.2362
X0.0583Y2.8028
X0.0694Y2.9385
X0.0748Y2.248
X0.078Y2.8161
X0.0787Y2.7921
X0.0945Y2.4882
X0.1323Y2.7988
X0.1437Y2.8201
X0.1496Y2.9884
X0.1496Y2.937
X0.1659Y2.7992
X0.1772Y3.0079
X0.189Y2.8189
X0.1929Y0.9252
X0.1969Y2.248
X0.1984Y0.2356
X0.2087Y2.7913
X0.2087Y2.4882
X0.2108Y0.8937
X0.3071Y2.2441
X0.311Y2.4882
X0.3583Y2.1968
X0.3909Y4.0354
X0.3937Y2.4882
X0.3937Y0.2362
X0.3957Y4.1776
X0.4213Y2.1378
X0.4224Y4.1063
X0.4421Y4.0787
X0.4449Y2.4409
X0.4803Y2.0787
X0.5079Y2.374
X0.5091Y4.189
X0.5091Y4.1181
X0.5413Y1.2894
X0.5472Y2.0118
X0.5512Y0.2362
X0.5709Y2.311
X0.6201Y1.5157
X0.6201Y1.4567
X0.6201Y1.3878
X0.6272Y4.0354
X0.6319Y4.1776
X0.6339Y2.248
X0.6417Y1.9134
X0.6587Y4.1063
X0.6693Y1.5453
X0.6783Y4.0787
X0.7087Y2.1732
X0.7185Y1.5157
X0.7185Y1.4468
X0.7185Y1.2931
X0.7294Y0.2396
X0.7453Y4.189
X0.7453Y4.1181
X0.7559Y2.1142
X0.7594Y1.7496
X0.7638Y1.9055
X0.7638Y1.8307
X0.7913Y1.4606
X0.8154Y2.2244
X0.8391Y1.1281
X0.8408Y0.9385
X0.8535Y2.2244
X0.8632Y4.0354
X0.8661Y0.2362
X0.8679Y4.1776
X0.8947Y4.1063
X0.8976Y1.7559
X0.8976Y1.6732
X0.8976Y1.5945
X0.8976Y1.5276
X0.9134Y2.1339
X0.9134Y2.0866
X0.9134Y2.0394
X0.9134Y1.9921
X0.9134Y1.9449
X0.9134Y1.8976
X0.9134Y1.8504
X0.9144Y4.0787
X0.9173Y2.1968
X0.921Y0.9387
X0.9256Y1.1281
X0.9449Y1.2205
X0.9813Y4.189
X0.9813Y4.1181
X0.9843Y0.876
X1.0432Y1.3132
X1.063Y0.876
X1.0988Y4.0354
X1.1024Y0.2362
X1.1035Y4.1776
X1.1052Y1.3751
X1.1122Y0.9252
X1.1303Y4.1063
X1.15Y4.0787
X1.1614Y0.9744
X1.1839Y1.4539
X1.2169Y4.189
X1.2169Y4.1181
X1.2303Y1.0433
X1.2992Y1.1122
X1.2992Y0.2362
X1.3622Y1.5018
X1.3681Y1.1811
X1.378Y2.5984
X1.378Y2.4409
X1.378Y2.3228
X1.378Y2.2047
X1.378Y2.0866
X1.378Y1.9685
X1.378Y1.811
X1.378Y1.6929
X1.4173Y1.2205
X1.4961Y1.8123
X1.4961Y2.4409
X1.4961Y2.3228
X1.4961Y2.2047
X1.4961Y2.0866
X1.4961Y1.9685
X1.4961Y1.6929
X1.4961Y0.2362
X1.5039Y1.5045
X1.5039Y1.2205
X1.6063Y1.5045
X1.6063Y1.2205
X1.6142Y2.6772
X1.6535Y0.4331
X1.6929Y2.5984
X1.6929Y0.2362
X1.7165Y1.5045
X1.7323Y1.2205
X1.811Y2.6378
X1.811Y2.5197
X1.811Y2.0866
X1.811Y1.9685
X1.811Y1.8504
X1.811Y1.7323
X1.811Y1.6142
X1.811Y1.2205
X1.8307Y1.5045
X1.8898Y0.2362
X2.0Y1.1929
X2.0106Y1.5945
X2.0229Y1.185
X2.0271Y1.5709
X2.0276Y2.7008
X2.0441Y1.672
X2.0472Y0.4331
X2.0472Y0.3543
X2.0591Y2.3976
X2.0591Y2.3425
X2.0591Y2.2953
X2.0591Y2.2402
X2.0626Y1.6976
X2.085Y1.8933
X2.1024Y2.5315
X2.1024Y0.2283
X2.1142Y1.2362
X2.125Y1.5904
X2.126Y2.3976
X2.126Y2.3425
X2.126Y2.2953
X2.126Y2.2402
X2.126Y1.5425
X2.126Y1.5197
X2.1343Y2.1575
X2.1366Y1.4488
X2.139Y1.4012
X2.185Y2.3976
X2.185Y2.3425
X2.185Y2.2953
X2.185Y2.2402
X2.1929Y1.2402
X2.2165Y1.3504
X2.2335Y1.4913
X2.2402Y2.2402
X2.2402Y2.185
X2.2402Y2.1299
X2.2402Y2.0748
X2.2402Y2.0197
X2.2441Y2.3976
X2.2441Y2.3425
X2.2441Y2.2953
X2.2441Y1.9291
X2.2441Y1.6929
X2.2441Y1.063
X2.2559Y1.5118
X2.2598Y1.5354
X2.2602Y1.4488
X2.2673Y1.6063
X2.2673Y1.7795
X2.2933Y2.2429
X2.3071Y2.3543
X2.311Y2.5079
X2.3228Y0.4567
X3.3896Y3.6968
X3.4053Y3.0511
X3.4132Y3.2126
X3.4171Y3.5826
X3.4447Y3.4055
X3.5116Y3.2086
X3.5195Y3.5826
X3.5589Y3.2086
X3.5628Y3.0118
X3.673Y3.9724
X3.6809Y3.4055
X3.6841Y3.0858
X3.6841Y3.0281
X3.7045Y3.2007
X3.7045Y3.1574
X3.7045Y3.1141
X3.7164Y3.5826
X3.7164Y3.2716
X3.74Y3.7677
X3.74Y3.7204
X3.7439Y3.1614
X3.7439Y3.1338
X3.7439Y3.094
X3.7675Y3.5826
X3.7675Y3.2716
X3.8384Y3.0118
X3.8778Y3.6338
X3.8778Y3.3228
X3.8801Y3.1893
X3.8813Y3.2771
X3.9038Y3.1185
X3.9297Y3.5307
X3.9333Y3.6531
X3.9356Y3.7913
X3.9565Y3.4448
X3.9703Y3.0448
X4.012Y3.648
X4.0549Y3.0019
X4.0741Y3.4453
X4.1038Y3.8787
X4.1073Y2.9578
X4.114Y2.8543
X4.114Y2.6574
X4.114Y2.4606
X4.114Y2.3031
X4.1337Y3.1425
X4.1585Y3.1956
X4.1817Y2.8874
X4.1927Y3.4448
X4.1994Y3.2708
X4.2018Y3.3236
X4.2518Y3.0665
X4.266Y3.7787
X4.2675Y3.6484
X4.2715Y2.3031
X4.2872Y3.5551
X4.2872Y3.3189
X4.2951Y3.9263
X4.3203Y2.82
X4.3274Y2.9657
X4.3305Y3.3189
X4.3345Y3.5551
X4.3805Y2.8716
X4.4274Y3.7842
X4.429Y3.4055
X4.4447Y2.694
X4.4459Y3.9287
X4.4994Y3.6877
X4.5057Y2.7511
X4.5077Y2.3031
X4.5423Y3.5629
X4.5443Y2.5846
X4.5656Y3.6881
X4.5782Y3.6326
X4.5786Y3.7417
X4.5833Y3.6704
X4.5864Y2.5
X4.6101Y2.5275
X4.6104Y2.6476
X4.6258Y3.4055
X4.6258Y2.5118
X4.6258Y2.4606
X4.6416Y2.496
X4.6573Y2.4803
X4.6644Y3.7854
X4.6652Y2.5826
X4.6809Y2.5669
X4.6967Y2.5511
X4.699Y2.4354
X4.7045Y2.6181
X4.7045Y2.3031
X4.7124Y2.5354
X4.7439Y2.5787
X4.7569Y2.3815
X4.7585Y3.5681
X4.7695Y2.4854
X4.7833Y2.2244
X4.7833Y2.0669
X4.7833Y1.1614
X4.8108Y1.8582
X4.8227Y3.4055
X4.8278Y1.3342
X4.8301Y3.7933
X4.8333Y2.3389
X4.8388Y2.4153
X4.8482Y1.4759
X4.8514Y1.3511
X4.8624Y1.4972
X4.8703Y2.0169
X4.8754Y2.161
X4.8825Y2.5594
X4.8872Y1.485
X4.8951Y3.6413
X4.9187Y1.1338
X4.9341Y1.8145
X4.9376Y2.4165
X4.9396Y2.3354
X4.9463Y2.0149
X4.9475Y3.5614
X4.9486Y1.3437
X4.9526Y2.1189
X4.9534Y2.524
X4.9565Y2.2165
X4.9664Y2.2834
X4.9723Y2.1811
X4.9723Y1.744
X4.9754Y1.3563
X4.9975Y3.9641
X4.9982Y3.8791
X5.0187Y2.4157
X5.0195Y3.4055
X5.0195Y1.5551
X5.0199Y3.7822
X5.0329Y2.3397
X5.0419Y2.5059
X5.0589Y2.4566
X5.0589Y2.4291
X5.0608Y2.2279
X5.0758Y2.6429
X5.0758Y1.1338
X5.0829Y3.7118
X5.0833Y2.5326
X5.0864Y3.4448
X5.0864Y3.4173
X5.0864Y3.3937
X5.0982Y1.7519
X5.1069Y2.3346
X5.1246Y2.6263
X5.1344Y1.322
X5.1367Y1.4377
X5.1376Y1.5551
X5.1399Y1.3787
X5.1403Y1.4015
X5.1687Y2.4181
X5.1691Y2.6338
X5.1691Y2.5866
X5.1691Y2.5
X5.2041Y3.1688
X5.2041Y3.069
X5.2077Y2.5866
X5.2089Y2.4988
X5.2145Y2.6654
X5.2147Y1.3787
X5.2156Y2.337
X5.2164Y2.8937
X5.2164Y2.7755
X5.2164Y2.2244
X5.2557Y2.4212
X5.2557Y1.5551
X5.2667Y1.1342
X5.2675Y2.7952
X5.2951Y3.4448
X5.2951Y3.3267
X5.2951Y3.2086
X5.2951Y3.0905
X5.2951Y2.0275
X5.2951Y1.7519
X5.3069Y2.6259
X5.3069Y2.5787
X5.3069Y2.5315
X5.3148Y2.7952
X5.3148Y2.2519
X5.3384Y2.6259
X5.3384Y2.5787
X5.3384Y2.5315
X5.3738Y1.8307
X5.3896Y2.3189
X5.3896Y2.2519
X5.4053Y2.737
X5.4053Y2.4126
X5.4053Y2.374
X5.4132Y2.8189
X5.4132Y1.5551
X5.4152Y1.1381
X5.4723Y2.4133
X5.4723Y2.3189
X5.4723Y2.2519
X5.4762Y2.996
X5.4762Y2.7397
X5.4919Y3.5236
X5.5229Y2.6299
X5.5313Y1.5551
X5.5589Y3.4842
X5.5746Y2.9291
X5.5893Y2.39
X5.5999Y2.9072
X5.6101Y2.5511
X5.614Y2.6299
X5.614Y2.5944
X5.6157Y2.8913
X5.6282Y1.1374
X5.6386Y3.2185
X5.6386Y3.1692
X5.6412Y3.4846
X5.6416Y3.5456
X5.6416Y3.0689
X5.6425Y2.2677
X5.6494Y1.437
X5.6642Y2.2677
X5.6691Y3.4842
X5.6967Y3.4409
X5.6967Y3.4173
X5.6967Y3.3897
X5.6967Y2.7677
X5.7006Y3.2401
X5.7006Y2.496
X5.7282Y3.2874
X5.7282Y1.3582
X5.7363Y2.3978
X5.7475Y2.7556
X5.7516Y2.4131
X5.7557Y2.5748
X5.7557Y2.5354
X5.7633Y2.7397
X5.7636Y3.6259
X5.7675Y3.5236
T3
X0.4106Y3.9803
X0.4106Y3.9016
X0.4894Y3.9803
X0.4894Y3.9016
X0.6469Y3.9803
X0.6469Y3.9016
X0.7256Y3.9803
X0.7256Y3.9016
X0.8829Y3.9803
X0.8829Y3.9016
X0.9616Y3.9803
X0.9616Y3.9016
X1.1193Y3.9807
X1.1193Y3.902
X1.198Y3.9807
X1.198Y3.902
X2.5173Y0.329
X2.5213Y4.789
X2.573Y0.3847
X2.573Y0.2734
X2.5769Y4.8447
X2.5769Y4.7333
X2.6287Y0.329
X2.6326Y4.789
X6.9733Y4.789
X6.9773Y0.329
X7.029Y4.8447
X7.029Y4.7333
X7.0329Y0.3847
X7.0329Y0.2734
X7.0847Y4.789
X7.0886Y0.329
T4
X0.0511Y1.0798
X0.0511Y0.6397
X0.109Y1.0798
X0.109Y0.6397
X0.3889Y1.0599
X0.3889Y0.9799
X0.3889Y0.8999
X0.3889Y0.8199
X0.3889Y0.7399
X0.3889Y0.6599
X0.4889Y1.0999
X0.4889Y1.0199
X0.4889Y0.9399
X0.4889Y0.7799
X0.4889Y0.6999
X0.4889Y0.6199
T5
X0.6299Y3.0315
X0.7299Y3.0315
X0.8299Y3.0315
X0.9299Y3.0315
X0.9843Y0.3543
X1.0299Y3.0315
X1.0843Y0.3543
X1.1299Y3.0315
X1.1843Y0.3543
X1.2299Y3.0315
X1.2843Y0.3543
X1.3299Y3.0315
X1.3843Y0.3543
X1.4299Y3.0315
X1.4843Y0.3543
X1.5299Y3.0315
X1.5843Y0.3543
X1.6843Y0.3543
X1.7843Y0.3543
X1.8843Y0.3543
X4.5471Y3.9173
X4.6471Y3.9173
X4.7471Y3.9173
X4.8471Y3.9173
X4.9014Y1.2401
X4.9471Y3.9173
X5.0014Y1.2401
X5.0471Y3.9173
X5.1014Y1.2401
X5.1471Y3.9173
X5.2014Y1.2401
X5.2471Y3.9173
X5.3014Y1.2401
X5.3471Y3.9173
X5.4014Y1.2401
X5.4471Y3.9173
X5.5014Y1.2401
X5.6014Y1.2401
X5.7014Y1.2401
X5.8014Y1.2401
T6
X0.5889Y1.0999
X0.5889Y0.9999
X0.5889Y0.7199
X0.5889Y0.6199
T7
X-0.3361Y1.1774
X-0.3361Y0.5424
T8
X-0.4634Y2.7227
X-0.4634Y2.1519
T9
X-0.2272Y2.7227
X-0.2272Y2.1519
T2
G00X-0.4975Y1.8433
M15
G01X-0.5576Y1.8433
M16
G05
G00X-0.4975Y1.5031
M15
G01X-0.5576Y1.5031
M16
G05
G00X-0.2959Y1.8433
M15
G01X-0.3372Y1.8433
M16
G05
G00X-0.2954Y1.5031
M15
G01X-0.3377Y1.5031
M16
G05
G00X-0.061Y3.0499
M15
G01X-0.061Y3.1099
M16
G05
G00X-0.061Y2.8477
M15
G01X-0.061Y2.8901
M16
G05
G00X0.2791Y3.0499
M15
G01X0.2791Y3.1099
M16
G05
G00X0.2791Y2.8482
M15
G01X0.2791Y2.8896
M16
G05
T0
M30
