%TF.GenerationSoftware,KiCad,Pcbnew,(7.0.0)*%
%TF.CreationDate,2023-02-20T12:18:14+09:00*%
%TF.ProjectId,audio,61756469-6f2e-46b6-9963-61645f706362,rev?*%
%TF.SameCoordinates,Original*%
%TF.FileFunction,Soldermask,Top*%
%TF.FilePolarity,Negative*%
%FSLAX46Y46*%
G04 Gerber Fmt 4.6, Leading zero omitted, Abs format (unit mm)*
G04 Created by KiCad (PCBNEW (7.0.0)) date 2023-02-20 12:18:14*
%MOMM*%
%LPD*%
G01*
G04 APERTURE LIST*
G04 Aperture macros list*
%AMRoundRect*
0 Rectangle with rounded corners*
0 $1 Rounding radius*
0 $2 $3 $4 $5 $6 $7 $8 $9 X,Y pos of 4 corners*
0 Add a 4 corners polygon primitive as box body*
4,1,4,$2,$3,$4,$5,$6,$7,$8,$9,$2,$3,0*
0 Add four circle primitives for the rounded corners*
1,1,$1+$1,$2,$3*
1,1,$1+$1,$4,$5*
1,1,$1+$1,$6,$7*
1,1,$1+$1,$8,$9*
0 Add four rect primitives between the rounded corners*
20,1,$1+$1,$2,$3,$4,$5,0*
20,1,$1+$1,$4,$5,$6,$7,0*
20,1,$1+$1,$6,$7,$8,$9,0*
20,1,$1+$1,$8,$9,$2,$3,0*%
%AMOutline5P*
0 Free polygon, 5 corners , with rotation*
0 The origin of the aperture is its center*
0 number of corners: always 5*
0 $1 to $10 corner X, Y*
0 $11 Rotation angle, in degrees counterclockwise*
0 create outline with 5 corners*
4,1,5,$1,$2,$3,$4,$5,$6,$7,$8,$9,$10,$1,$2,$11*%
%AMOutline6P*
0 Free polygon, 6 corners , with rotation*
0 The origin of the aperture is its center*
0 number of corners: always 6*
0 $1 to $12 corner X, Y*
0 $13 Rotation angle, in degrees counterclockwise*
0 create outline with 6 corners*
4,1,6,$1,$2,$3,$4,$5,$6,$7,$8,$9,$10,$11,$12,$1,$2,$13*%
%AMOutline7P*
0 Free polygon, 7 corners , with rotation*
0 The origin of the aperture is its center*
0 number of corners: always 7*
0 $1 to $14 corner X, Y*
0 $15 Rotation angle, in degrees counterclockwise*
0 create outline with 7 corners*
4,1,7,$1,$2,$3,$4,$5,$6,$7,$8,$9,$10,$11,$12,$13,$14,$1,$2,$15*%
%AMOutline8P*
0 Free polygon, 8 corners , with rotation*
0 The origin of the aperture is its center*
0 number of corners: always 8*
0 $1 to $16 corner X, Y*
0 $17 Rotation angle, in degrees counterclockwise*
0 create outline with 8 corners*
4,1,8,$1,$2,$3,$4,$5,$6,$7,$8,$9,$10,$11,$12,$13,$14,$15,$16,$1,$2,$17*%
G04 Aperture macros list end*
%ADD10RoundRect,0.200000X0.275000X-0.200000X0.275000X0.200000X-0.275000X0.200000X-0.275000X-0.200000X0*%
%ADD11RoundRect,0.140000X-0.140000X-0.170000X0.140000X-0.170000X0.140000X0.170000X-0.140000X0.170000X0*%
%ADD12RoundRect,0.140000X0.140000X0.170000X-0.140000X0.170000X-0.140000X-0.170000X0.140000X-0.170000X0*%
%ADD13RoundRect,0.200000X-0.275000X0.200000X-0.275000X-0.200000X0.275000X-0.200000X0.275000X0.200000X0*%
%ADD14RoundRect,0.135000X0.135000X0.185000X-0.135000X0.185000X-0.135000X-0.185000X0.135000X-0.185000X0*%
%ADD15Outline5P,-0.125000X0.200000X0.000000X0.200000X0.125000X0.075000X0.125000X-0.200000X-0.125000X-0.200000X90.000000*%
%ADD16Outline5P,-0.125000X0.075000X0.000000X0.200000X0.125000X0.200000X0.125000X-0.200000X-0.125000X-0.200000X90.000000*%
%ADD17Outline5P,-0.125000X0.200000X0.125000X0.200000X0.125000X-0.200000X0.000000X-0.200000X-0.125000X-0.075000X90.000000*%
%ADD18Outline5P,-0.125000X0.200000X0.125000X0.200000X0.125000X-0.075000X0.000000X-0.200000X-0.125000X-0.200000X90.000000*%
%ADD19Outline5P,-0.200000X0.200000X0.200000X0.200000X0.200000X-0.200000X-0.120000X-0.200000X-0.200000X-0.120000X135.000000*%
%ADD20RoundRect,0.150000X0.150000X-0.587500X0.150000X0.587500X-0.150000X0.587500X-0.150000X-0.587500X0*%
%ADD21RoundRect,0.135000X-0.135000X-0.185000X0.135000X-0.185000X0.135000X0.185000X-0.135000X0.185000X0*%
%ADD22C,3.200000*%
%ADD23RoundRect,0.140000X0.170000X-0.140000X0.170000X0.140000X-0.170000X0.140000X-0.170000X-0.140000X0*%
%ADD24R,0.700000X0.300000*%
%ADD25R,0.700000X1.000000*%
%ADD26O,2.200000X1.200000*%
%ADD27O,2.700000X1.200000*%
%ADD28O,2.600000X1.200000*%
%ADD29R,1.524000X1.524000*%
%ADD30C,1.524000*%
%ADD31C,1.800000*%
%ADD32O,1.270000X1.524000*%
%ADD33C,2.630000*%
%ADD34C,2.610000*%
%ADD35RoundRect,0.250000X0.925000X-0.412500X0.925000X0.412500X-0.925000X0.412500X-0.925000X-0.412500X0*%
%ADD36C,6.100000*%
%ADD37R,0.700000X0.200000*%
%ADD38R,0.550000X0.300000*%
%ADD39R,0.550000X0.400000*%
%ADD40RoundRect,0.140000X-0.170000X0.140000X-0.170000X-0.140000X0.170000X-0.140000X0.170000X0.140000X0*%
%ADD41R,1.700000X1.700000*%
%ADD42O,1.700000X1.700000*%
%ADD43Outline5P,-0.125000X0.200000X0.000000X0.200000X0.125000X0.075000X0.125000X-0.200000X-0.125000X-0.200000X0.000000*%
%ADD44Outline5P,-0.125000X0.075000X0.000000X0.200000X0.125000X0.200000X0.125000X-0.200000X-0.125000X-0.200000X0.000000*%
%ADD45Outline5P,-0.125000X0.200000X0.125000X0.200000X0.125000X-0.200000X0.000000X-0.200000X-0.125000X-0.075000X0.000000*%
%ADD46Outline5P,-0.125000X0.200000X0.125000X0.200000X0.125000X-0.075000X0.000000X-0.200000X-0.125000X-0.200000X0.000000*%
%ADD47Outline5P,-0.200000X0.200000X0.200000X0.200000X0.200000X-0.200000X-0.120000X-0.200000X-0.200000X-0.120000X45.000000*%
%ADD48RoundRect,0.200000X0.200000X0.275000X-0.200000X0.275000X-0.200000X-0.275000X0.200000X-0.275000X0*%
%ADD49RoundRect,0.250000X-0.412500X-0.925000X0.412500X-0.925000X0.412500X0.925000X-0.412500X0.925000X0*%
%ADD50C,1.200000*%
%ADD51Outline5P,-0.125000X0.200000X0.000000X0.200000X0.125000X0.075000X0.125000X-0.200000X-0.125000X-0.200000X270.000000*%
%ADD52Outline5P,-0.125000X0.075000X0.000000X0.200000X0.125000X0.200000X0.125000X-0.200000X-0.125000X-0.200000X270.000000*%
%ADD53Outline5P,-0.125000X0.200000X0.125000X0.200000X0.125000X-0.200000X0.000000X-0.200000X-0.125000X-0.075000X270.000000*%
%ADD54Outline5P,-0.125000X0.200000X0.125000X0.200000X0.125000X-0.075000X0.000000X-0.200000X-0.125000X-0.200000X270.000000*%
%ADD55Outline5P,-0.200000X0.200000X0.200000X0.200000X0.200000X-0.200000X-0.120000X-0.200000X-0.200000X-0.120000X315.000000*%
%ADD56C,0.800000*%
%ADD57R,0.300000X0.550000*%
%ADD58R,0.400000X0.550000*%
%ADD59RoundRect,0.135000X-0.185000X0.135000X-0.185000X-0.135000X0.185000X-0.135000X0.185000X0.135000X0*%
%ADD60Outline5P,-0.125000X0.200000X0.000000X0.200000X0.125000X0.075000X0.125000X-0.200000X-0.125000X-0.200000X180.000000*%
%ADD61Outline5P,-0.125000X0.075000X0.000000X0.200000X0.125000X0.200000X0.125000X-0.200000X-0.125000X-0.200000X180.000000*%
%ADD62Outline5P,-0.125000X0.200000X0.125000X0.200000X0.125000X-0.200000X0.000000X-0.200000X-0.125000X-0.075000X180.000000*%
%ADD63Outline5P,-0.125000X0.200000X0.125000X0.200000X0.125000X-0.075000X0.000000X-0.200000X-0.125000X-0.200000X180.000000*%
%ADD64Outline5P,-0.200000X0.200000X0.200000X0.200000X0.200000X-0.200000X-0.120000X-0.200000X-0.200000X-0.120000X225.000000*%
%ADD65RoundRect,0.225000X0.225000X0.250000X-0.225000X0.250000X-0.225000X-0.250000X0.225000X-0.250000X0*%
%ADD66RoundRect,0.135000X0.185000X-0.135000X0.185000X0.135000X-0.185000X0.135000X-0.185000X-0.135000X0*%
%ADD67RoundRect,0.150000X0.150000X-0.825000X0.150000X0.825000X-0.150000X0.825000X-0.150000X-0.825000X0*%
%ADD68R,2.600000X0.280000*%
%ADD69C,3.400000*%
%ADD70C,2.500000*%
%ADD71R,0.558000X1.391399*%
%ADD72R,0.800000X0.200000*%
%ADD73R,0.200000X0.800000*%
%ADD74Outline5P,-2.100000X1.750000X-1.750000X2.100000X2.100000X2.100000X2.100000X-2.100000X-2.100000X-2.100000X0.000000*%
%ADD75RoundRect,0.200000X-0.200000X-0.275000X0.200000X-0.275000X0.200000X0.275000X-0.200000X0.275000X0*%
%ADD76R,1.925000X0.650000*%
%ADD77R,0.300000X0.700000*%
%ADD78R,1.000000X0.700000*%
%ADD79O,1.200000X2.200000*%
%ADD80O,1.200000X2.700000*%
%ADD81O,1.200000X2.600000*%
%ADD82R,1.100000X1.300000*%
%ADD83R,0.650000X1.925000*%
G04 APERTURE END LIST*
D10*
%TO.C,R53*%
X100395388Y82173836D03*
X100395388Y83823836D03*
%TD*%
D11*
%TO.C,C62*%
X121615388Y37498836D03*
X122575388Y37498836D03*
%TD*%
D12*
%TO.C,C78*%
X132032888Y36488836D03*
X131072888Y36488836D03*
%TD*%
D13*
%TO.C,R43*%
X105295388Y95223836D03*
X105295388Y93573836D03*
%TD*%
D11*
%TO.C,C51*%
X144515388Y64398836D03*
X145475388Y64398836D03*
%TD*%
D14*
%TO.C,R8*%
X141005388Y60998836D03*
X139985388Y60998836D03*
%TD*%
%TO.C,R41*%
X140405388Y74398836D03*
X139385388Y74398836D03*
%TD*%
D11*
%TO.C,C57*%
X140915388Y66818836D03*
X141875388Y66818836D03*
%TD*%
D15*
%TO.C,U12*%
X94025387Y77288835D03*
D16*
X94025387Y77938835D03*
D17*
X93125387Y77938835D03*
D18*
X93125387Y77288835D03*
D19*
X93575387Y77613835D03*
%TD*%
D20*
%TO.C,U1*%
X-6949970Y72562480D03*
X-5049970Y72562480D03*
X-5999970Y74437480D03*
%TD*%
D21*
%TO.C,R33*%
X135885388Y58898836D03*
X136905388Y58898836D03*
%TD*%
D14*
%TO.C,R56*%
X143905388Y68298836D03*
X142885388Y68298836D03*
%TD*%
D22*
%TO.C,REF\u002A\u002A*%
X-11499970Y8499980D03*
%TD*%
D23*
%TO.C,C2*%
X-3499970Y72519980D03*
X-3499970Y73479980D03*
%TD*%
D14*
%TO.C,R38*%
X143905388Y69298836D03*
X142885388Y69298836D03*
%TD*%
D10*
%TO.C,R49*%
X125795388Y47773836D03*
X125795388Y49423836D03*
%TD*%
D23*
%TO.C,C68*%
X129195388Y84618836D03*
X129195388Y85578836D03*
%TD*%
D14*
%TO.C,R37*%
X143805388Y63398836D03*
X142785388Y63398836D03*
%TD*%
D24*
%TO.C,J5*%
X-7629969Y45499979D03*
X-7629969Y44999979D03*
X-7629969Y44499979D03*
X-7629969Y43999979D03*
X-7629969Y43499979D03*
X-7629969Y42999979D03*
X-7629969Y41999979D03*
X-7629969Y41499979D03*
X-7629969Y40999979D03*
X-7629969Y40499979D03*
X-7629969Y39999979D03*
X-7629969Y39499979D03*
D25*
X-8929969Y39399979D03*
D24*
X-8929969Y40249979D03*
X-8929969Y40749979D03*
X-8929969Y41249979D03*
X-8929969Y41749979D03*
X-8929969Y42249979D03*
X-8929969Y42749979D03*
X-8929969Y43249979D03*
X-8929969Y43749979D03*
X-8929969Y44249979D03*
X-8929969Y44749979D03*
D25*
X-8929969Y45599979D03*
D26*
X-8039969Y46819979D03*
X-8039969Y38179979D03*
D27*
X-13399969Y46819979D03*
D28*
X-13399969Y38179979D03*
%TD*%
D14*
%TO.C,R9*%
X143805388Y62398836D03*
X142785388Y62398836D03*
%TD*%
D21*
%TO.C,R1*%
X16490030Y38249980D03*
X17510030Y38249980D03*
%TD*%
D22*
%TO.C,J2*%
X-5362470Y15492480D03*
X-5362470Y28192480D03*
D29*
X9877529Y16762479D03*
D30*
X9877530Y18794480D03*
X9877530Y20826480D03*
X9877530Y22858480D03*
X9877530Y24890480D03*
X9877530Y26922480D03*
X12417530Y15746480D03*
X12417530Y17778480D03*
X12417530Y19810480D03*
X12417530Y23874480D03*
X12417530Y25906480D03*
X12417530Y27938480D03*
D31*
X14957530Y15746480D03*
X14957530Y18286480D03*
X14957530Y25398480D03*
X14957530Y27938480D03*
D32*
X2767529Y16247479D03*
X2767529Y27427479D03*
X1297529Y16247479D03*
X1297529Y27427479D03*
D33*
X-8537470Y13777980D03*
D34*
X-8537470Y29906980D03*
%TD*%
D11*
%TO.C,C41*%
X93115388Y79098836D03*
X94075388Y79098836D03*
%TD*%
D21*
%TO.C,R14*%
X-6509970Y76499980D03*
X-5489970Y76499980D03*
%TD*%
D35*
%TO.C,C73*%
X-99970Y35562480D03*
X-99970Y38637480D03*
%TD*%
D22*
%TO.C,*%
X166995388Y19998836D03*
%TD*%
D21*
%TO.C,R2*%
X16490030Y37249980D03*
X17510030Y37249980D03*
%TD*%
%TO.C,R35*%
X132245388Y97408836D03*
X133265388Y97408836D03*
%TD*%
D23*
%TO.C,C71*%
X143520388Y84618836D03*
X143520388Y85578836D03*
%TD*%
D36*
%TO.C,CM4_MODULE1*%
X56200030Y18899980D03*
X56200030Y66899980D03*
X23200030Y18899980D03*
X23200030Y66899980D03*
D37*
X58240029Y35599979D03*
X55160029Y35599979D03*
X58240029Y35999979D03*
X55160029Y35999979D03*
X58240029Y36399979D03*
X55160029Y36399979D03*
X58240029Y36799979D03*
X55160029Y36799979D03*
X58240029Y37199979D03*
X55160029Y37199979D03*
X58240029Y37599979D03*
X55160029Y37599979D03*
X58240029Y37999979D03*
X55160029Y37999979D03*
X58240029Y38399979D03*
X55160029Y38399979D03*
X58240029Y38799979D03*
X55160029Y38799979D03*
X58240029Y39199979D03*
X55160029Y39199979D03*
X58240029Y39599979D03*
X55160029Y39599979D03*
X58240029Y39999979D03*
X55160029Y39999979D03*
X58240029Y40399979D03*
X55160029Y40399979D03*
X58240029Y40799979D03*
X55160029Y40799979D03*
X58240029Y41199979D03*
X55160029Y41199979D03*
X58240029Y41599979D03*
X55160029Y41599979D03*
X58240029Y41999979D03*
X55160029Y41999979D03*
X58240029Y42399979D03*
X55160029Y42399979D03*
X58240029Y42799979D03*
X55160029Y42799979D03*
X58240029Y43199979D03*
X55160029Y43199979D03*
X58240029Y43599979D03*
X55160029Y43599979D03*
X58240029Y43999979D03*
X55160029Y43999979D03*
X58240029Y44399979D03*
X55160029Y44399979D03*
X58240029Y44799979D03*
X55160029Y44799979D03*
X58240029Y45199979D03*
X55160029Y45199979D03*
X58240029Y45599979D03*
X55160029Y45599979D03*
X58240029Y45999979D03*
X55160029Y45999979D03*
X58240029Y46399979D03*
X55160029Y46399979D03*
X58240029Y46799979D03*
X55160029Y46799979D03*
X58240029Y47199979D03*
X55160029Y47199979D03*
X58240029Y47599979D03*
X55160029Y47599979D03*
X58240029Y47999979D03*
X55160029Y47999979D03*
X58240029Y48399979D03*
X55160029Y48399979D03*
X58240029Y48799979D03*
X55160029Y48799979D03*
X58240029Y49199979D03*
X55160029Y49199979D03*
X58240029Y49599979D03*
X55160029Y49599979D03*
X58240029Y49999979D03*
X55160029Y49999979D03*
X58240029Y50399979D03*
X55160029Y50399979D03*
X58240029Y50799979D03*
X55160029Y50799979D03*
X58240029Y51199979D03*
X55160029Y51199979D03*
X58240029Y51599979D03*
X55160029Y51599979D03*
X58240029Y51999979D03*
X55160029Y51999979D03*
X58240029Y52399979D03*
X55160029Y52399979D03*
X58240029Y52799979D03*
X55160029Y52799979D03*
X58240029Y53199979D03*
X55160029Y53199979D03*
X58240029Y53599979D03*
X55160029Y53599979D03*
X58240029Y53999979D03*
X55160029Y53999979D03*
X58240029Y54399979D03*
X55160029Y54399979D03*
X58240029Y54799979D03*
X55160029Y54799979D03*
X58240029Y55199979D03*
X55160029Y55199979D03*
X24240029Y35599979D03*
X21160029Y35599979D03*
X24240029Y35999979D03*
X21160029Y35999979D03*
X24240029Y36399979D03*
X21160029Y36399979D03*
X24240029Y36799979D03*
X21160029Y36799979D03*
X24240029Y37199979D03*
X21160029Y37199979D03*
X24240029Y37599979D03*
X21160029Y37599979D03*
X24240029Y37999979D03*
X21160029Y37999979D03*
X24240029Y38399979D03*
X21160029Y38399979D03*
X24240029Y38799979D03*
X21160029Y38799979D03*
X24240029Y39199979D03*
X21160029Y39199979D03*
X24240029Y39599979D03*
X21160029Y39599979D03*
X24240029Y39999979D03*
X21160029Y39999979D03*
X24240029Y40399979D03*
X21160029Y40399979D03*
X24240029Y40799979D03*
X21160029Y40799979D03*
X24240029Y41199979D03*
X21160029Y41199979D03*
X24240029Y41599979D03*
X21160029Y41599979D03*
X24240029Y41999979D03*
X21160029Y41999979D03*
X24240029Y42399979D03*
X21160029Y42399979D03*
X24240029Y42799979D03*
X21160029Y42799979D03*
X24240029Y43199979D03*
X21160029Y43199979D03*
X24240029Y43599979D03*
X21160029Y43599979D03*
X24240029Y43999979D03*
X21160029Y43999979D03*
X24240029Y44399979D03*
X21160029Y44399979D03*
X24240029Y44799979D03*
X21160029Y44799979D03*
X24240029Y45199979D03*
X21160029Y45199979D03*
X24240029Y45599979D03*
X21160029Y45599979D03*
X24240029Y45999979D03*
X21160029Y45999979D03*
X24240029Y46399979D03*
X21160029Y46399979D03*
X24240029Y46799979D03*
X21160029Y46799979D03*
X24240029Y47199979D03*
X21160029Y47199979D03*
X24240029Y47599979D03*
X21160029Y47599979D03*
X24240029Y47999979D03*
X21160029Y47999979D03*
X24240029Y48399979D03*
X21160029Y48399979D03*
X24240029Y48799979D03*
X21160029Y48799979D03*
X24240029Y49199979D03*
X21160029Y49199979D03*
X24240029Y49599979D03*
X21160029Y49599979D03*
X24240029Y49999979D03*
X21160029Y49999979D03*
X24240029Y50399979D03*
X21160029Y50399979D03*
X24240029Y50799979D03*
X21160029Y50799979D03*
X24240029Y51199979D03*
X21160029Y51199979D03*
X24240029Y51599979D03*
X21160029Y51599979D03*
X24240029Y51999979D03*
X21160029Y51999979D03*
X24240029Y52399979D03*
X21160029Y52399979D03*
X24240029Y52799979D03*
X21160029Y52799979D03*
X24240029Y53199979D03*
X21160029Y53199979D03*
X24240029Y53599979D03*
X21160029Y53599979D03*
X24240029Y53999979D03*
X21160029Y53999979D03*
X24240029Y54399979D03*
X21160029Y54399979D03*
X24240029Y54799979D03*
X21160029Y54799979D03*
X24240029Y55199979D03*
X21160029Y55199979D03*
%TD*%
D38*
%TO.C,U5*%
X22775029Y22859979D03*
X22775029Y23359979D03*
D39*
X22775029Y23859979D03*
D38*
X22775029Y24359979D03*
X22775029Y24859979D03*
X22005029Y24859979D03*
X22005029Y24359979D03*
D39*
X22005029Y23859979D03*
D38*
X22005029Y23359979D03*
X22005029Y22859979D03*
%TD*%
%TO.C,U3*%
X-5634969Y42749979D03*
X-5634969Y42249979D03*
D39*
X-5634969Y41749979D03*
D38*
X-5634969Y41249979D03*
X-5634969Y40749979D03*
X-4864969Y40749979D03*
X-4864969Y41249979D03*
D39*
X-4864969Y41749979D03*
D38*
X-4864969Y42249979D03*
X-4864969Y42749979D03*
%TD*%
D40*
%TO.C,C54*%
X137295388Y61278836D03*
X137295388Y60318836D03*
%TD*%
D21*
%TO.C,R4*%
X16490030Y35249980D03*
X17510030Y35249980D03*
%TD*%
D41*
%TO.C,J6*%
X16000029Y76999979D03*
D42*
X18540029Y76999979D03*
X21080029Y76999979D03*
X23620029Y76999979D03*
X26160029Y76999979D03*
X28700029Y76999979D03*
X31240029Y76999979D03*
X33780029Y76999979D03*
X36320029Y76999979D03*
X38860029Y76999979D03*
%TD*%
D12*
%TO.C,C46*%
X132275388Y66898836D03*
X131315388Y66898836D03*
%TD*%
D11*
%TO.C,C76*%
X114675388Y92278836D03*
X115635388Y92278836D03*
%TD*%
D10*
%TO.C,R48*%
X123595388Y47773836D03*
X123595388Y49423836D03*
%TD*%
D43*
%TO.C,U13*%
X114850387Y93228835D03*
D44*
X115500387Y93228835D03*
D45*
X115500387Y94128835D03*
D46*
X114850387Y94128835D03*
D47*
X115175387Y93678835D03*
%TD*%
D23*
%TO.C,C45*%
X136195388Y70018836D03*
X136195388Y70978836D03*
%TD*%
D22*
%TO.C,REF\u002A\u002A*%
X-11499970Y76499980D03*
%TD*%
D48*
%TO.C,R25*%
X137320388Y72698836D03*
X135670388Y72698836D03*
%TD*%
D21*
%TO.C,R11*%
X16490030Y34249980D03*
X17510030Y34249980D03*
%TD*%
%TO.C,R27*%
X128915388Y65208836D03*
X129935388Y65208836D03*
%TD*%
D12*
%TO.C,C1*%
X-8219970Y72599980D03*
X-9179970Y72599980D03*
%TD*%
D38*
%TO.C,U6*%
X22800029Y27669979D03*
X22800029Y28169979D03*
D39*
X22800029Y28669979D03*
D38*
X22800029Y29169979D03*
X22800029Y29669979D03*
X22030029Y29669979D03*
X22030029Y29169979D03*
D39*
X22030029Y28669979D03*
D38*
X22030029Y28169979D03*
X22030029Y27669979D03*
%TD*%
D23*
%TO.C,C44*%
X133795388Y70018836D03*
X133795388Y70978836D03*
%TD*%
D21*
%TO.C,R21*%
X-259970Y45989980D03*
X760030Y45989980D03*
%TD*%
D49*
%TO.C,C82*%
X142057888Y92098836D03*
X145132888Y92098836D03*
%TD*%
D50*
%TO.C,U15*%
X64040030Y121639980D03*
X65454244Y123054194D03*
X66868457Y121639980D03*
X65454244Y120225766D03*
%TD*%
D21*
%TO.C,R18*%
X-4259970Y78999980D03*
X-3239970Y78999980D03*
%TD*%
D40*
%TO.C,C58*%
X110095388Y91278836D03*
X110095388Y90318836D03*
%TD*%
D11*
%TO.C,C63*%
X93115388Y81298836D03*
X94075388Y81298836D03*
%TD*%
D22*
%TO.C,*%
X76995388Y109998836D03*
%TD*%
D13*
%TO.C,R46*%
X120995388Y35023836D03*
X120995388Y33373836D03*
%TD*%
D10*
%TO.C,R51*%
X102095388Y82173836D03*
X102095388Y83823836D03*
%TD*%
D50*
%TO.C,U18*%
X65354244Y6943478D03*
X63940030Y8357692D03*
X65354244Y9771905D03*
X66768458Y8357692D03*
%TD*%
D12*
%TO.C,C77*%
X132002888Y33578836D03*
X131042888Y33578836D03*
%TD*%
%TO.C,C65*%
X122175388Y46298836D03*
X121215388Y46298836D03*
%TD*%
D21*
%TO.C,R20*%
X-2259970Y47239980D03*
X-1239970Y47239980D03*
%TD*%
D51*
%TO.C,U11*%
X142845387Y89623835D03*
D52*
X142845387Y88973835D03*
D53*
X143745387Y88973835D03*
D54*
X143745387Y89623835D03*
D55*
X143295387Y89298835D03*
%TD*%
D56*
%TO.C,U19*%
X22575530Y103069980D03*
X22575530Y105529980D03*
X24275530Y105529980D03*
X24275530Y103069980D03*
%TD*%
D57*
%TO.C,U7*%
X1020029Y69204979D03*
X1520029Y69204979D03*
D58*
X2020029Y69204979D03*
D57*
X2520029Y69204979D03*
X3020029Y69204979D03*
X3020029Y69974979D03*
X2520029Y69974979D03*
D58*
X2020029Y69974979D03*
D57*
X1520029Y69974979D03*
X1020029Y69974979D03*
%TD*%
D14*
%TO.C,R24*%
X135705388Y74098836D03*
X134685388Y74098836D03*
%TD*%
D11*
%TO.C,C60*%
X93315388Y95698836D03*
X94275388Y95698836D03*
%TD*%
D14*
%TO.C,R12*%
X-3239970Y76499980D03*
X-4259970Y76499980D03*
%TD*%
D22*
%TO.C,REF\u002A\u002A*%
X56500030Y8499980D03*
%TD*%
D13*
%TO.C,R45*%
X101095388Y95223836D03*
X101095388Y93573836D03*
%TD*%
D11*
%TO.C,C53*%
X140915388Y64798836D03*
X141875388Y64798836D03*
%TD*%
%TO.C,C61*%
X93315388Y94498836D03*
X94275388Y94498836D03*
%TD*%
D14*
%TO.C,R7*%
X141005388Y59998836D03*
X139985388Y59998836D03*
%TD*%
%TO.C,R22*%
X760030Y47239980D03*
X-259970Y47239980D03*
%TD*%
D21*
%TO.C,R13*%
X-4259970Y77749980D03*
X-3239970Y77749980D03*
%TD*%
D59*
%TO.C,R31*%
X133695388Y74108836D03*
X133695388Y73088836D03*
%TD*%
D40*
%TO.C,C66*%
X109995388Y85278836D03*
X109995388Y84318836D03*
%TD*%
D22*
%TO.C,*%
X76995388Y19998836D03*
%TD*%
D60*
%TO.C,U14*%
X131852887Y35458835D03*
D61*
X131202887Y35458835D03*
D62*
X131202887Y34558835D03*
D63*
X131852887Y34558835D03*
D64*
X131527887Y35008835D03*
%TD*%
D12*
%TO.C,C47*%
X132275388Y63498836D03*
X131315388Y63498836D03*
%TD*%
D65*
%TO.C,C103*%
X140645388Y76098836D03*
X139095388Y76098836D03*
%TD*%
D40*
%TO.C,C50*%
X144695388Y89478836D03*
X144695388Y88518836D03*
%TD*%
D66*
%TO.C,R26*%
X134015388Y58068836D03*
X134015388Y59088836D03*
%TD*%
D50*
%TO.C,U17*%
X180050746Y8357691D03*
X178636532Y6943477D03*
X177222319Y8357691D03*
X178636532Y9771905D03*
%TD*%
D14*
%TO.C,R23*%
X134005388Y75698836D03*
X132985388Y75698836D03*
%TD*%
%TO.C,R54*%
X141005388Y58998836D03*
X139985388Y58998836D03*
%TD*%
D56*
%TO.C,U4*%
X28560030Y103069980D03*
X28560030Y105529980D03*
X30260030Y105529980D03*
X30260030Y103069980D03*
%TD*%
D21*
%TO.C,R34*%
X135885388Y57198836D03*
X136905388Y57198836D03*
%TD*%
D23*
%TO.C,C59*%
X108895388Y90318836D03*
X108895388Y91278836D03*
%TD*%
D14*
%TO.C,R55*%
X143805388Y61398836D03*
X142785388Y61398836D03*
%TD*%
D67*
%TO.C,U2*%
X121590388Y39323836D03*
X122860388Y39323836D03*
X124130388Y39323836D03*
X125400388Y39323836D03*
X125400388Y44273836D03*
X124130388Y44273836D03*
X122860388Y44273836D03*
X121590388Y44273836D03*
%TD*%
D50*
%TO.C,U16*%
X178536533Y123054194D03*
X179950747Y121639980D03*
X178536533Y120225767D03*
X177122319Y121639980D03*
%TD*%
D23*
%TO.C,C55*%
X137295388Y69518836D03*
X137295388Y70478836D03*
%TD*%
D56*
%TO.C,U23*%
X10580030Y103069980D03*
X10580030Y105529980D03*
X12280030Y105529980D03*
X12280030Y103069980D03*
%TD*%
D66*
%TO.C,R36*%
X41299998Y76658500D03*
X41299998Y77678500D03*
%TD*%
D11*
%TO.C,C52*%
X144515388Y65398836D03*
X145475388Y65398836D03*
%TD*%
D68*
%TO.C,J1*%
X-4971469Y57407479D03*
X-4971469Y57907479D03*
X-4971469Y58407479D03*
X-4971469Y58907479D03*
X-4971469Y59407479D03*
X-4971469Y59907479D03*
X-4971469Y60407479D03*
X-4971469Y60907479D03*
X-4971469Y61407479D03*
X-4971469Y61907479D03*
X-4971469Y62407479D03*
X-4971469Y62907479D03*
X-4971469Y63407479D03*
X-4971469Y63907479D03*
X-4971469Y64407479D03*
X-4971469Y64907479D03*
X-4971469Y65407479D03*
X-4971469Y65907479D03*
X-4971469Y66407479D03*
D69*
X-5771470Y69157480D03*
X-5771470Y54657480D03*
D70*
X-11771470Y69157480D03*
X-11771470Y54657480D03*
%TD*%
D71*
%TO.C,U9*%
X107440387Y91003455D03*
X106170387Y91003455D03*
X104900387Y91003455D03*
X103630387Y91003455D03*
X102360387Y91003455D03*
X101090387Y91003455D03*
X99820387Y91003455D03*
X98550387Y91003455D03*
X98550387Y85700459D03*
X99820387Y85700459D03*
X101090387Y85700459D03*
X102360387Y85700459D03*
X103630387Y85700459D03*
X104900387Y85700459D03*
X106170387Y85700459D03*
X107440387Y85700459D03*
%TD*%
D72*
%TO.C,U10*%
X133495387Y67698835D03*
X133495387Y67298835D03*
X133495387Y66898835D03*
X133495387Y66498835D03*
X133495387Y66098835D03*
X133495387Y65698835D03*
X133495387Y65298835D03*
X133495387Y64898835D03*
X133495387Y64498835D03*
X133495387Y64098835D03*
X133495387Y63698835D03*
X133495387Y63298835D03*
D73*
X134295387Y62498835D03*
X134695387Y62498835D03*
X135095387Y62498835D03*
X135495387Y62498835D03*
X135895387Y62498835D03*
X136295387Y62498835D03*
X136695387Y62498835D03*
X137095387Y62498835D03*
X137495387Y62498835D03*
X137895387Y62498835D03*
X138295387Y62498835D03*
X138695387Y62498835D03*
D72*
X139495387Y63298835D03*
X139495387Y63698835D03*
X139495387Y64098835D03*
X139495387Y64498835D03*
X139495387Y64898835D03*
X139495387Y65298835D03*
X139495387Y65698835D03*
X139495387Y66098835D03*
X139495387Y66498835D03*
X139495387Y66898835D03*
X139495387Y67298835D03*
X139495387Y67698835D03*
D73*
X138695387Y68498835D03*
X138295387Y68498835D03*
X137895387Y68498835D03*
X137495387Y68498835D03*
X137095387Y68498835D03*
X136695387Y68498835D03*
X136295387Y68498835D03*
X135895387Y68498835D03*
X135495387Y68498835D03*
X135095387Y68498835D03*
X134695387Y68498835D03*
X134295387Y68498835D03*
D74*
X136495387Y65498835D03*
%TD*%
D14*
%TO.C,R40*%
X140405388Y73398836D03*
X139385388Y73398836D03*
%TD*%
D11*
%TO.C,C64*%
X93115388Y80198836D03*
X94075388Y80198836D03*
%TD*%
D75*
%TO.C,R32*%
X135670388Y75698836D03*
X137320388Y75698836D03*
%TD*%
D11*
%TO.C,C75*%
X114705388Y95038836D03*
X115665388Y95038836D03*
%TD*%
D22*
%TO.C,*%
X166995388Y109998836D03*
%TD*%
D23*
%TO.C,C69*%
X130295388Y84618836D03*
X130295388Y85578836D03*
%TD*%
D14*
%TO.C,R57*%
X140405388Y72398836D03*
X139385388Y72398836D03*
%TD*%
D13*
%TO.C,R28*%
X103795388Y80523836D03*
X103795388Y78873836D03*
%TD*%
D22*
%TO.C,REF\u002A\u002A*%
X56500030Y76499980D03*
%TD*%
D13*
%TO.C,R29*%
X100395388Y80523836D03*
X100395388Y78873836D03*
%TD*%
D11*
%TO.C,C56*%
X140915388Y65828836D03*
X141875388Y65828836D03*
%TD*%
D23*
%TO.C,C74*%
X124015388Y65728836D03*
X124015388Y66688836D03*
%TD*%
D76*
%TO.C,PS2*%
X132183387Y86843835D03*
X132183387Y85573835D03*
X132183387Y84303835D03*
X132183387Y83033835D03*
X132183387Y81763835D03*
X132183387Y80493835D03*
X132183387Y79223835D03*
X132183387Y77953835D03*
X141607387Y77953835D03*
X141607387Y79223835D03*
X141607387Y80493835D03*
X141607387Y81763835D03*
X141607387Y83033835D03*
X141607387Y84303835D03*
X141607387Y85573835D03*
X141607387Y86843835D03*
%TD*%
D11*
%TO.C,C39*%
X18040030Y16999980D03*
X19000030Y16999980D03*
%TD*%
D21*
%TO.C,R17*%
X131285388Y62398836D03*
X132305388Y62398836D03*
%TD*%
D14*
%TO.C,R19*%
X-1239970Y45989980D03*
X-2259970Y45989980D03*
%TD*%
D23*
%TO.C,C67*%
X108895388Y84318836D03*
X108895388Y85278836D03*
%TD*%
D41*
%TO.C,J7*%
X25000029Y8999979D03*
D42*
X27540029Y8999979D03*
X30080029Y8999979D03*
X32620029Y8999979D03*
X35160029Y8999979D03*
X37700029Y8999979D03*
X40240029Y8999979D03*
X42780029Y8999979D03*
X45320029Y8999979D03*
X47860029Y8999979D03*
%TD*%
D77*
%TO.C,J4*%
X5770029Y72459979D03*
X5270029Y72459979D03*
X4770029Y72459979D03*
X4270029Y72459979D03*
X3770029Y72459979D03*
X3270029Y72459979D03*
X2270029Y72459979D03*
X1770029Y72459979D03*
X1270029Y72459979D03*
X770029Y72459979D03*
X270029Y72459979D03*
X-229969Y72459979D03*
D78*
X-329969Y73759979D03*
D77*
X520029Y73759979D03*
X1020029Y73759979D03*
X1520029Y73759979D03*
X2020029Y73759979D03*
X2520029Y73759979D03*
X3020029Y73759979D03*
X3520029Y73759979D03*
X4020029Y73759979D03*
X4520029Y73759979D03*
X5020029Y73759979D03*
D78*
X5870029Y73759979D03*
D79*
X7090029Y72869979D03*
X-1549969Y72869979D03*
D80*
X7090029Y78229979D03*
D81*
X-1549969Y78229979D03*
%TD*%
D13*
%TO.C,R30*%
X102095388Y80523836D03*
X102095388Y78873836D03*
%TD*%
D23*
%TO.C,C43*%
X134995388Y70018836D03*
X134995388Y70978836D03*
%TD*%
D12*
%TO.C,C48*%
X132275388Y65698836D03*
X131315388Y65698836D03*
%TD*%
D14*
%TO.C,R15*%
X-5489970Y77749980D03*
X-6509970Y77749980D03*
%TD*%
D82*
%TO.C,X1*%
X125790387Y67258835D03*
X125790387Y65158835D03*
X127440387Y65158835D03*
X127440387Y67258835D03*
%TD*%
D40*
%TO.C,C49*%
X141895388Y89458836D03*
X141895388Y88498836D03*
%TD*%
D23*
%TO.C,C42*%
X95095388Y77618836D03*
X95095388Y78578836D03*
%TD*%
D56*
%TO.C,U21*%
X16580030Y103069980D03*
X16580030Y105529980D03*
X18280030Y105529980D03*
X18280030Y103069980D03*
%TD*%
D21*
%TO.C,R16*%
X-6509970Y78999980D03*
X-5489970Y78999980D03*
%TD*%
%TO.C,R3*%
X16490030Y36249980D03*
X17510030Y36249980D03*
%TD*%
D14*
%TO.C,R39*%
X143905388Y70298836D03*
X142885388Y70298836D03*
%TD*%
D83*
%TO.C,PS1*%
X95640387Y92510835D03*
X94370387Y92510835D03*
X93100387Y92510835D03*
X91830387Y92510835D03*
X90560387Y92510835D03*
X89290387Y92510835D03*
X88020387Y92510835D03*
X86750387Y92510835D03*
X86750387Y83086835D03*
X88020387Y83086835D03*
X89290387Y83086835D03*
X90560387Y83086835D03*
X91830387Y83086835D03*
X93100387Y83086835D03*
X94370387Y83086835D03*
X95640387Y83086835D03*
%TD*%
D21*
%TO.C,R10*%
X16490030Y33299980D03*
X17510030Y33299980D03*
%TD*%
D23*
%TO.C,C70*%
X144695388Y84618836D03*
X144695388Y85578836D03*
%TD*%
D13*
%TO.C,R47*%
X124295388Y35023836D03*
X124295388Y33373836D03*
%TD*%
D50*
%TO.C,U24*%
X12430030Y99099980D03*
X10430030Y99099980D03*
X10430030Y101099980D03*
X12430030Y101099980D03*
%TD*%
D41*
%TO.C,J9*%
X124495387Y31498835D03*
D42*
X127035387Y31498835D03*
X129575387Y31498835D03*
X132115387Y31498835D03*
X134655387Y31498835D03*
X137195387Y31498835D03*
X139735387Y31498835D03*
X142275387Y31498835D03*
X144815387Y31498835D03*
X147355387Y31498835D03*
%TD*%
D50*
%TO.C,U22*%
X18430030Y99099980D03*
X16430030Y99099980D03*
X16430030Y101099980D03*
X18430030Y101099980D03*
%TD*%
%TO.C,U20*%
X24425530Y99099980D03*
X22425530Y99099980D03*
X22425530Y101099980D03*
X24425530Y101099980D03*
%TD*%
%TO.C,U8*%
X30430030Y99109980D03*
X28430030Y99109980D03*
X28430030Y101109980D03*
X30430030Y101109980D03*
%TD*%
D41*
%TO.C,J8*%
X115495387Y99498835D03*
D42*
X118035387Y99498835D03*
X120575387Y99498835D03*
X123115387Y99498835D03*
X125655387Y99498835D03*
X128195387Y99498835D03*
X130735387Y99498835D03*
X133275387Y99498835D03*
X135815387Y99498835D03*
X138355387Y99498835D03*
%TD*%
M02*
