%TF.GenerationSoftware,KiCad,Pcbnew,(7.0.0)*%
%TF.CreationDate,2023-03-22T09:13:44+09:00*%
%TF.ProjectId,audio,61756469-6f2e-46b6-9963-61645f706362,rev?*%
%TF.SameCoordinates,Original*%
%TF.FileFunction,Copper,L1,Top*%
%TF.FilePolarity,Positive*%
%FSLAX46Y46*%
G04 Gerber Fmt 4.6, Leading zero omitted, Abs format (unit mm)*
G04 Created by KiCad (PCBNEW (7.0.0)) date 2023-03-22 09:13:44*
%MOMM*%
%LPD*%
G01*
G04 APERTURE LIST*
G04 Aperture macros list*
%AMRoundRect*
0 Rectangle with rounded corners*
0 $1 Rounding radius*
0 $2 $3 $4 $5 $6 $7 $8 $9 X,Y pos of 4 corners*
0 Add a 4 corners polygon primitive as box body*
4,1,4,$2,$3,$4,$5,$6,$7,$8,$9,$2,$3,0*
0 Add four circle primitives for the rounded corners*
1,1,$1+$1,$2,$3*
1,1,$1+$1,$4,$5*
1,1,$1+$1,$6,$7*
1,1,$1+$1,$8,$9*
0 Add four rect primitives between the rounded corners*
20,1,$1+$1,$2,$3,$4,$5,0*
20,1,$1+$1,$4,$5,$6,$7,0*
20,1,$1+$1,$6,$7,$8,$9,0*
20,1,$1+$1,$8,$9,$2,$3,0*%
G04 Aperture macros list end*
%TA.AperFunction,SMDPad,CuDef*%
%ADD10RoundRect,0.140000X-0.140000X-0.170000X0.140000X-0.170000X0.140000X0.170000X-0.140000X0.170000X0*%
%TD*%
%TA.AperFunction,ComponentPad*%
%ADD11C,1.200000*%
%TD*%
%TA.AperFunction,SMDPad,CuDef*%
%ADD12C,0.800000*%
%TD*%
%TA.AperFunction,SMDPad,CuDef*%
%ADD13RoundRect,0.135000X-0.135000X-0.185000X0.135000X-0.185000X0.135000X0.185000X-0.135000X0.185000X0*%
%TD*%
%TA.AperFunction,SMDPad,CuDef*%
%ADD14RoundRect,0.135000X0.135000X0.185000X-0.135000X0.185000X-0.135000X-0.185000X0.135000X-0.185000X0*%
%TD*%
%TA.AperFunction,SMDPad,CuDef*%
%ADD15RoundRect,0.140000X0.140000X0.170000X-0.140000X0.170000X-0.140000X-0.170000X0.140000X-0.170000X0*%
%TD*%
%TA.AperFunction,ViaPad*%
%ADD16C,0.600000*%
%TD*%
%TA.AperFunction,Conductor*%
%ADD17C,0.300000*%
%TD*%
%TA.AperFunction,Conductor*%
%ADD18C,0.500000*%
%TD*%
G04 APERTURE END LIST*
D10*
%TO.P,C2,1*%
%TO.N,/mic_moudle1/GND*%
X-3980000Y1500000D03*
%TO.P,C2,2*%
%TO.N,/mic_moudle1/VDD*%
X-3020000Y1500000D03*
%TD*%
%TO.P,C1,1*%
%TO.N,/mic_moudle1/GND*%
X-3980000Y3000000D03*
%TO.P,C1,2*%
%TO.N,/mic_moudle1/VDD*%
X-3020000Y3000000D03*
%TD*%
D11*
%TO.P,U8,4,MIC-*%
%TO.N,/mic_moudle1/MIC-*%
X1000000Y3200000D03*
%TO.P,U8,3,MIC+*%
%TO.N,/mic_moudle1/MIC+*%
X-1000000Y3200000D03*
%TO.P,U8,2,GND*%
%TO.N,/mic_moudle1/GND*%
X-1000000Y1200000D03*
%TO.P,U8,1,VCC*%
%TO.N,/mic_moudle1/VDD*%
X1000000Y1200000D03*
%TD*%
D12*
%TO.P,U4,4,OUTPUT*%
%TO.N,/mic_moudle1/OUT*%
X850000Y5120000D03*
%TO.P,U4,3,GAIN*%
%TO.N,/mic_moudle1/GAIN*%
X850000Y7580000D03*
%TO.P,U4,2,GROUND*%
%TO.N,/mic_moudle1/GND*%
X-850000Y7580000D03*
%TO.P,U4,1,VDD*%
%TO.N,/mic_moudle1/VDD*%
X-850000Y5120000D03*
%TD*%
D13*
%TO.P,R6,1*%
%TO.N,/mic_moudle1/OUT*%
X2990000Y4500000D03*
%TO.P,R6,2*%
%TO.N,Net-(C5-Pad1)*%
X4010000Y4500000D03*
%TD*%
D14*
%TO.P,R5,1*%
%TO.N,Net-(C3-Pad2)*%
X4010000Y7600000D03*
%TO.P,R5,2*%
%TO.N,/mic_moudle1/GAIN*%
X2990000Y7600000D03*
%TD*%
D10*
%TO.P,C7,1*%
%TO.N,/mic_moudle1/GND*%
X-3980000Y6000000D03*
%TO.P,C7,2*%
%TO.N,/mic_moudle1/VDD*%
X-3020000Y6000000D03*
%TD*%
%TO.P,C6,1*%
%TO.N,/mic_moudle1/GND*%
X-3980000Y4500000D03*
%TO.P,C6,2*%
%TO.N,/mic_moudle1/VDD*%
X-3020000Y4500000D03*
%TD*%
D15*
%TO.P,C5,1*%
%TO.N,Net-(C5-Pad1)*%
X3950000Y3000000D03*
%TO.P,C5,2*%
%TO.N,/mic_moudle1/MIC+*%
X2990000Y3000000D03*
%TD*%
D10*
%TO.P,C4,1*%
%TO.N,/mic_moudle1/GND*%
X-3980000Y7500000D03*
%TO.P,C4,2*%
%TO.N,/mic_moudle1/VDD*%
X-3020000Y7500000D03*
%TD*%
%TO.P,C3,1*%
%TO.N,/mic_moudle1/GND*%
X3000000Y6000000D03*
%TO.P,C3,2*%
%TO.N,Net-(C3-Pad2)*%
X3960000Y6000000D03*
%TD*%
D16*
%TO.N,/mic_moudle1/GND*%
X-2150000Y5500000D03*
X-2150000Y3950000D03*
X2150000Y3750000D03*
X0Y4150000D03*
X300000Y6300000D03*
X1600000Y6300000D03*
%TD*%
D17*
%TO.N,/mic_moudle1/MIC+*%
X-949391Y3200000D02*
X-1000000Y3200000D01*
X2190000Y2200000D02*
X50609Y2200000D01*
X50609Y2200000D02*
X-949391Y3200000D01*
X2990000Y3000000D02*
X2190000Y2200000D01*
%TO.N,/mic_moudle1/VDD*%
X-2000000Y1700000D02*
X-2007106Y1700000D01*
X-1550000Y2150000D02*
X-2000000Y1700000D01*
X-2007106Y1700000D02*
X-2207106Y1500000D01*
X343503Y1200000D02*
X-606497Y2150000D01*
X-606497Y2150000D02*
X-1550000Y2150000D01*
X-2207106Y1500000D02*
X-3020000Y1500000D01*
X1000000Y1200000D02*
X343503Y1200000D01*
%TO.N,/mic_moudle1/GND*%
X-2160000Y840000D02*
X-3504386Y840000D01*
X-1800000Y1200000D02*
X-2160000Y840000D01*
X-3504386Y840000D02*
X-3980000Y1315614D01*
X-1000000Y1200000D02*
X-1800000Y1200000D01*
%TO.N,/mic_moudle1/GAIN*%
X2990000Y7600000D02*
X870000Y7600000D01*
X870000Y7600000D02*
X850000Y7580000D01*
%TO.N,Net-(C3-Pad2)*%
X3960000Y7550000D02*
X4010000Y7600000D01*
X3960000Y6000000D02*
X3960000Y7550000D01*
%TO.N,Net-(C5-Pad1)*%
X3950000Y4440000D02*
X4010000Y4500000D01*
X3950000Y3000000D02*
X3950000Y4440000D01*
%TO.N,/mic_moudle1/OUT*%
X2940000Y4550000D02*
X2990000Y4500000D01*
X2000000Y4550000D02*
X2940000Y4550000D01*
X1430000Y5120000D02*
X2000000Y4550000D01*
X850000Y5120000D02*
X1430000Y5120000D01*
D18*
%TO.N,/mic_moudle1/VDD*%
X-3020000Y2250000D02*
X-3020000Y7500000D01*
X-3020000Y1500000D02*
X-3020000Y2250000D01*
X-2300000Y7500000D02*
X-3020000Y7500000D01*
X-850000Y6050000D02*
X-2300000Y7500000D01*
X-850000Y5120000D02*
X-850000Y6050000D01*
%TO.N,/mic_moudle1/GND*%
X-3980000Y1315614D02*
X-3980000Y1500000D01*
X-3980000Y7684386D02*
X-3980000Y7500000D01*
X-3980000Y7500000D02*
X-3980000Y1500000D01*
%TD*%
%TA.AperFunction,Conductor*%
%TO.N,/mic_moudle1/GND*%
G36*
X-2233499Y1147133D02*
G01*
X-2231841Y1147064D01*
X-2221791Y1144957D01*
X-2211598Y1146227D01*
X-2207640Y1146064D01*
X-2151113Y1129757D01*
X-2108464Y1089231D01*
X-2089294Y1033609D01*
X-2086432Y1002718D01*
X-2084333Y991495D01*
X-2031685Y806454D01*
X-2027556Y795796D01*
X-2019328Y779272D01*
X-2006460Y718274D01*
X-2024901Y658723D01*
X-2069989Y615671D01*
X-2130328Y600000D01*
X-3368028Y600000D01*
X-3427081Y614965D01*
X-3471881Y656247D01*
X-3491615Y713883D01*
X-3481518Y773960D01*
X-3444029Y821979D01*
X-3439102Y825800D01*
X-3335797Y929105D01*
X-3324311Y943913D01*
X-3273486Y982595D01*
X-3210151Y990849D01*
X-3203926Y990029D01*
X-3203912Y990028D01*
X-3199901Y989500D01*
X-3195847Y989500D01*
X-2844159Y989500D01*
X-2844143Y989500D01*
X-2840100Y989501D01*
X-2836084Y990029D01*
X-2836078Y990030D01*
X-2799917Y994790D01*
X-2799915Y994790D01*
X-2790513Y996028D01*
X-2781916Y1000036D01*
X-2781915Y1000037D01*
X-2691514Y1042192D01*
X-2691513Y1042192D01*
X-2681684Y1046776D01*
X-2674016Y1054443D01*
X-2674013Y1054446D01*
X-2615279Y1113181D01*
X-2575051Y1140061D01*
X-2527598Y1149500D01*
X-2256318Y1149500D01*
X-2233499Y1147133D01*
G37*
%TD.AperFunction*%
%TA.AperFunction,Conductor*%
G36*
X-3792000Y7733387D02*
G01*
X-3746613Y7688000D01*
X-3730000Y7626000D01*
X-3730000Y1374000D01*
X-3746613Y1312000D01*
X-3792000Y1266613D01*
X-3854000Y1250000D01*
X-4106000Y1250000D01*
X-4168000Y1266613D01*
X-4213387Y1312000D01*
X-4230000Y1374000D01*
X-4230000Y7626000D01*
X-4213387Y7688000D01*
X-4168000Y7733387D01*
X-4106000Y7750000D01*
X-3854000Y7750000D01*
X-3792000Y7733387D01*
G37*
%TD.AperFunction*%
%TA.AperFunction,Conductor*%
G36*
X-1320356Y8390561D02*
G01*
X-1280128Y8363681D01*
X-861542Y7945095D01*
X-850000Y7938431D01*
X-838456Y7945096D01*
X-419871Y8363681D01*
X-379643Y8390561D01*
X-332190Y8400000D01*
X637082Y8400000D01*
X701872Y8381727D01*
X747567Y8332295D01*
X760700Y8266271D01*
X737400Y8203115D01*
X684535Y8161439D01*
X547159Y8104536D01*
X421718Y8008282D01*
X416771Y8001835D01*
X392783Y7970573D01*
X325464Y7882841D01*
X322354Y7875333D01*
X269878Y7748645D01*
X232338Y7698919D01*
X175353Y7673727D01*
X113309Y7679430D01*
X61871Y7714588D01*
X34025Y7770324D01*
X33172Y7774334D01*
X-21273Y7941899D01*
X-26530Y7953707D01*
X-54613Y8002348D01*
X-62291Y8010546D01*
X-71832Y8004613D01*
X-484904Y7591542D01*
X-491569Y7580000D01*
X-484904Y7568457D01*
X-71832Y7155385D01*
X-62291Y7149452D01*
X-54613Y7157650D01*
X-26529Y7206294D01*
X-21273Y7218100D01*
X33174Y7385671D01*
X34026Y7389677D01*
X61873Y7445413D01*
X113311Y7480569D01*
X175354Y7486271D01*
X232338Y7461080D01*
X269878Y7411354D01*
X322354Y7284666D01*
X325464Y7277159D01*
X330408Y7270714D01*
X330411Y7270711D01*
X416771Y7158164D01*
X416774Y7158160D01*
X421718Y7151718D01*
X428160Y7146774D01*
X428164Y7146771D01*
X540711Y7060411D01*
X540714Y7060408D01*
X547159Y7055464D01*
X554662Y7052355D01*
X554666Y7052354D01*
X685728Y6998066D01*
X685733Y6998064D01*
X693238Y6994956D01*
X701289Y6993896D01*
X701297Y6993894D01*
X841941Y6975379D01*
X850000Y6974318D01*
X858059Y6975379D01*
X998702Y6993894D01*
X998708Y6993895D01*
X1006762Y6994956D01*
X1014268Y6998065D01*
X1014271Y6998066D01*
X1145333Y7052354D01*
X1152841Y7055464D01*
X1278282Y7151718D01*
X1283230Y7158166D01*
X1316089Y7200987D01*
X1359621Y7236712D01*
X1414464Y7249500D01*
X2494669Y7249500D01*
X2542122Y7240061D01*
X2582350Y7213181D01*
X2651925Y7143605D01*
X2651928Y7143602D01*
X2659596Y7135935D01*
X2669421Y7131353D01*
X2669426Y7131350D01*
X2758230Y7089940D01*
X2758235Y7089938D01*
X2766827Y7085932D01*
X2776224Y7084694D01*
X2776231Y7084693D01*
X2811663Y7080029D01*
X2811668Y7080028D01*
X2815684Y7079500D01*
X3160263Y7079500D01*
X3164316Y7079500D01*
X3168332Y7080028D01*
X3168336Y7080029D01*
X3203768Y7084693D01*
X3203773Y7084694D01*
X3213173Y7085932D01*
X3221766Y7089939D01*
X3221769Y7089940D01*
X3310573Y7131350D01*
X3310575Y7131352D01*
X3320404Y7135935D01*
X3397819Y7213350D01*
X3447182Y7243600D01*
X3504898Y7248142D01*
X3558385Y7225987D01*
X3595985Y7181964D01*
X3609500Y7125669D01*
X3609500Y6853279D01*
X3592725Y6790998D01*
X3546937Y6745569D01*
X3484527Y6729283D01*
X3422379Y6746547D01*
X3402908Y6758061D01*
X3388706Y6764207D01*
X3263857Y6800479D01*
X3252590Y6801054D01*
X3250000Y6790075D01*
X3250000Y5874000D01*
X3233387Y5812000D01*
X3188000Y5766613D01*
X3126000Y5750000D01*
X2238363Y5750000D01*
X2225218Y5746293D01*
X2222690Y5733585D01*
X2224624Y5722994D01*
X2265791Y5581297D01*
X2271939Y5567090D01*
X2346308Y5441339D01*
X2355799Y5429103D01*
X2459103Y5325799D01*
X2471339Y5316308D01*
X2597090Y5241939D01*
X2611297Y5235791D01*
X2683288Y5214876D01*
X2734768Y5185058D01*
X2766435Y5134694D01*
X2771000Y5075377D01*
X2747411Y5020761D01*
X2701098Y4983418D01*
X2659596Y4964065D01*
X2651925Y4956394D01*
X2632350Y4936819D01*
X2592122Y4909939D01*
X2544669Y4900500D01*
X2196543Y4900500D01*
X2149090Y4909939D01*
X2108862Y4936819D01*
X1910987Y5134694D01*
X1712634Y5333046D01*
X1698188Y5350836D01*
X1697060Y5352060D01*
X1691437Y5360669D01*
X1667843Y5379031D01*
X1663899Y5382235D01*
X1660942Y5384739D01*
X1657307Y5388375D01*
X1641620Y5399573D01*
X1637579Y5402586D01*
X1599126Y5432517D01*
X1592107Y5434926D01*
X1586066Y5439240D01*
X1539368Y5453142D01*
X1534569Y5454679D01*
X1488488Y5470500D01*
X1481065Y5470500D01*
X1473954Y5472617D01*
X1425332Y5470606D01*
X1420208Y5470500D01*
X1399116Y5470500D01*
X1344272Y5483288D01*
X1300740Y5519014D01*
X1298786Y5521561D01*
X1278282Y5548282D01*
X1152841Y5644536D01*
X1006762Y5705044D01*
X850000Y5725682D01*
X693238Y5705044D01*
X547159Y5644536D01*
X421718Y5548282D01*
X325464Y5422841D01*
X322354Y5415333D01*
X281337Y5316308D01*
X264956Y5276762D01*
X263895Y5268708D01*
X263894Y5268702D01*
X249889Y5162319D01*
X244318Y5120000D01*
X245379Y5111941D01*
X263894Y4971297D01*
X263896Y4971289D01*
X264956Y4963238D01*
X268064Y4955733D01*
X268066Y4955728D01*
X322354Y4824666D01*
X325464Y4817159D01*
X330408Y4810714D01*
X330411Y4810711D01*
X416771Y4698164D01*
X416774Y4698160D01*
X421718Y4691718D01*
X428160Y4686774D01*
X428164Y4686771D01*
X540711Y4600411D01*
X540714Y4600408D01*
X547159Y4595464D01*
X554662Y4592355D01*
X554666Y4592354D01*
X685728Y4538066D01*
X685733Y4538064D01*
X693238Y4534956D01*
X701289Y4533896D01*
X701297Y4533894D01*
X841941Y4515379D01*
X850000Y4514318D01*
X858059Y4515379D01*
X998702Y4533894D01*
X998708Y4533895D01*
X1006762Y4534956D01*
X1014268Y4538065D01*
X1014271Y4538066D01*
X1145333Y4592354D01*
X1152841Y4595464D01*
X1239718Y4662127D01*
X1293672Y4685867D01*
X1352492Y4682012D01*
X1402885Y4651432D01*
X1717358Y4336959D01*
X1731831Y4319139D01*
X1732946Y4317927D01*
X1738563Y4309331D01*
X1746666Y4303023D01*
X1746669Y4303021D01*
X1762120Y4290995D01*
X1766085Y4287775D01*
X1769077Y4285240D01*
X1772694Y4281625D01*
X1776857Y4278652D01*
X1776860Y4278650D01*
X1788349Y4270447D01*
X1792449Y4267389D01*
X1822770Y4243790D01*
X1822771Y4243789D01*
X1830874Y4237483D01*
X1837892Y4235073D01*
X1843934Y4230760D01*
X1853769Y4227831D01*
X1853773Y4227830D01*
X1890582Y4216871D01*
X1895457Y4215309D01*
X1931790Y4202836D01*
X1931798Y4202834D01*
X1941512Y4199500D01*
X1948935Y4199500D01*
X1956046Y4197383D01*
X1966309Y4197807D01*
X1966313Y4197807D01*
X2004679Y4199394D01*
X2009802Y4199500D01*
X2459678Y4199500D01*
X2526301Y4180082D01*
X2563767Y4137362D01*
X2565127Y4138315D01*
X2571351Y4129426D01*
X2575935Y4119596D01*
X2583602Y4111928D01*
X2583605Y4111925D01*
X2651925Y4043605D01*
X2651928Y4043602D01*
X2659596Y4035935D01*
X2669421Y4031353D01*
X2669426Y4031350D01*
X2758230Y3989940D01*
X2758235Y3989938D01*
X2766827Y3985932D01*
X2776224Y3984694D01*
X2776231Y3984693D01*
X2811663Y3980029D01*
X2811668Y3980028D01*
X2815684Y3979500D01*
X3160263Y3979500D01*
X3164316Y3979500D01*
X3168332Y3980028D01*
X3168336Y3980029D01*
X3203768Y3984693D01*
X3203773Y3984694D01*
X3213173Y3985932D01*
X3221766Y3989939D01*
X3221769Y3989940D01*
X3310573Y4031350D01*
X3310575Y4031352D01*
X3320404Y4035935D01*
X3387819Y4103350D01*
X3437182Y4133600D01*
X3494898Y4138142D01*
X3548385Y4115987D01*
X3585985Y4071964D01*
X3599500Y4015669D01*
X3599500Y3492402D01*
X3590061Y3444949D01*
X3563181Y3404721D01*
X3557681Y3399221D01*
X3502094Y3367127D01*
X3437906Y3367127D01*
X3382319Y3399221D01*
X3376819Y3404721D01*
X3328316Y3453224D01*
X3219487Y3503972D01*
X3169901Y3510500D01*
X2810100Y3510499D01*
X2760513Y3503972D01*
X2651684Y3453224D01*
X2566776Y3368316D01*
X2562192Y3358485D01*
X2520037Y3268084D01*
X2516028Y3259487D01*
X2514790Y3250087D01*
X2514789Y3250082D01*
X2510029Y3213921D01*
X2509500Y3209901D01*
X2509500Y3205848D01*
X2509500Y3066544D01*
X2500061Y3019091D01*
X2473181Y2978863D01*
X2081137Y2586819D01*
X2040909Y2559939D01*
X1993456Y2550500D01*
X1761662Y2550500D01*
X1698661Y2567697D01*
X1653134Y2614519D01*
X1637711Y2677978D01*
X1656668Y2740472D01*
X1722087Y2844586D01*
X1722087Y2844587D01*
X1725789Y2850478D01*
X1785368Y3020745D01*
X1805565Y3200000D01*
X1785368Y3379255D01*
X1725789Y3549522D01*
X1629816Y3702262D01*
X1502262Y3829816D01*
X1349522Y3925789D01*
X1179255Y3985368D01*
X1000000Y4005565D01*
X820745Y3985368D01*
X650478Y3925789D01*
X497738Y3829816D01*
X370184Y3702262D01*
X274211Y3549522D01*
X271914Y3542959D01*
X271913Y3542956D01*
X216930Y3385824D01*
X216928Y3385819D01*
X214632Y3379255D01*
X213852Y3372335D01*
X213852Y3372334D01*
X195978Y3213694D01*
X194435Y3200000D01*
X195215Y3193077D01*
X209471Y3066544D01*
X214632Y3020745D01*
X216928Y3014182D01*
X216930Y3014175D01*
X271913Y2857043D01*
X271915Y2857036D01*
X274211Y2850478D01*
X277908Y2844593D01*
X277914Y2844582D01*
X328431Y2764185D01*
X347090Y2707480D01*
X337090Y2648627D01*
X300749Y2601266D01*
X246489Y2576376D01*
X186887Y2579723D01*
X135760Y2610529D01*
X-178466Y2924757D01*
X-207824Y2971481D01*
X-214003Y3026319D01*
X-195215Y3193077D01*
X-194435Y3200000D01*
X-195978Y3213694D01*
X-213852Y3372334D01*
X-213852Y3372335D01*
X-214632Y3379255D01*
X-216928Y3385819D01*
X-216930Y3385824D01*
X-271913Y3542956D01*
X-271914Y3542959D01*
X-274211Y3549522D01*
X-370184Y3702262D01*
X-497738Y3829816D01*
X-650478Y3925789D01*
X-820745Y3985368D01*
X-1000000Y4005565D01*
X-1179255Y3985368D01*
X-1349522Y3925789D01*
X-1502262Y3829816D01*
X-1629816Y3702262D01*
X-1725789Y3549522D01*
X-1785368Y3379255D01*
X-1805565Y3200000D01*
X-1785368Y3020745D01*
X-1725789Y2850478D01*
X-1629816Y2697738D01*
X-1624887Y2692809D01*
X-1620563Y2688485D01*
X-1590157Y2638637D01*
X-1585934Y2580401D01*
X-1608831Y2526688D01*
X-1653769Y2489410D01*
X-1654555Y2489026D01*
X-1659119Y2487136D01*
X-1665381Y2486092D01*
X-1708216Y2462909D01*
X-1712730Y2460586D01*
X-1756484Y2439198D01*
X-1761732Y2433949D01*
X-1768258Y2430418D01*
X-1801254Y2394572D01*
X-1804756Y2390924D01*
X-2188753Y2006927D01*
X-2204359Y1993709D01*
X-2213589Y1989198D01*
X-2218836Y1983950D01*
X-2225364Y1980418D01*
X-2258344Y1944591D01*
X-2261848Y1940937D01*
X-2315972Y1886814D01*
X-2356197Y1859938D01*
X-2403649Y1850500D01*
X-2445500Y1850500D01*
X-2507500Y1867113D01*
X-2552887Y1912500D01*
X-2569500Y1974500D01*
X-2569500Y2662687D01*
X-2557882Y2715092D01*
X-2550036Y2731916D01*
X-2550034Y2731920D01*
X-2546028Y2740513D01*
X-2544790Y2749910D01*
X-2544789Y2749917D01*
X-2540029Y2786078D01*
X-2540028Y2786083D01*
X-2539500Y2790099D01*
X-2539500Y2978863D01*
X-2539500Y3205840D01*
X-2539500Y3205855D01*
X-2539501Y3209900D01*
X-2546028Y3259487D01*
X-2557882Y3284908D01*
X-2569500Y3337313D01*
X-2569500Y4162687D01*
X-2557882Y4215092D01*
X-2550036Y4231916D01*
X-2550034Y4231920D01*
X-2546028Y4240513D01*
X-2544790Y4249910D01*
X-2544789Y4249917D01*
X-2540029Y4286078D01*
X-2540028Y4286083D01*
X-2539500Y4290099D01*
X-2539500Y4336959D01*
X-2539500Y4705840D01*
X-2539500Y4705855D01*
X-2539501Y4709900D01*
X-2541399Y4724316D01*
X-2544790Y4750082D01*
X-2546028Y4759487D01*
X-2557882Y4784908D01*
X-2569500Y4837313D01*
X-2569500Y5662687D01*
X-2557882Y5715092D01*
X-2550036Y5731916D01*
X-2550034Y5731920D01*
X-2546028Y5740513D01*
X-2544790Y5749910D01*
X-2544789Y5749917D01*
X-2540029Y5786078D01*
X-2540028Y5786083D01*
X-2539500Y5790099D01*
X-2539500Y5899716D01*
X-2539500Y6205840D01*
X-2539500Y6205855D01*
X-2539501Y6209900D01*
X-2546028Y6259487D01*
X-2557882Y6284908D01*
X-2569500Y6337313D01*
X-2569500Y6833034D01*
X-2555985Y6889329D01*
X-2518385Y6933352D01*
X-2464898Y6955507D01*
X-2407182Y6950965D01*
X-2357819Y6920715D01*
X-1336819Y5899716D01*
X-1309939Y5859488D01*
X-1300500Y5812035D01*
X-1300500Y5561419D01*
X-1307081Y5521561D01*
X-1326123Y5485933D01*
X-1374536Y5422841D01*
X-1435044Y5276762D01*
X-1455682Y5120000D01*
X-1435044Y4963238D01*
X-1374536Y4817159D01*
X-1278282Y4691718D01*
X-1152841Y4595464D01*
X-1145333Y4592354D01*
X-1014271Y4538066D01*
X-1014268Y4538065D01*
X-1006762Y4534956D01*
X-998708Y4533895D01*
X-998702Y4533894D01*
X-858059Y4515379D01*
X-850000Y4514318D01*
X-841941Y4515379D01*
X-701297Y4533894D01*
X-701289Y4533896D01*
X-693238Y4534956D01*
X-685733Y4538064D01*
X-685728Y4538066D01*
X-554666Y4592354D01*
X-554662Y4592355D01*
X-547159Y4595464D01*
X-540714Y4600408D01*
X-540711Y4600411D01*
X-428164Y4686771D01*
X-428160Y4686774D01*
X-421718Y4691718D01*
X-416774Y4698160D01*
X-416771Y4698164D01*
X-330411Y4810711D01*
X-330408Y4810714D01*
X-325464Y4817159D01*
X-322354Y4824666D01*
X-268066Y4955728D01*
X-268064Y4955733D01*
X-264956Y4963238D01*
X-263896Y4971289D01*
X-263894Y4971297D01*
X-245379Y5111941D01*
X-244318Y5120000D01*
X-249889Y5162319D01*
X-263894Y5268702D01*
X-263895Y5268708D01*
X-264956Y5276762D01*
X-281337Y5316308D01*
X-322354Y5415333D01*
X-325464Y5422841D01*
X-373876Y5485933D01*
X-392919Y5521561D01*
X-399500Y5561419D01*
X-399500Y6017739D01*
X-398720Y6031622D01*
X-395770Y6057803D01*
X-395770Y6057804D01*
X-394730Y6067035D01*
X-396455Y6076156D01*
X-396456Y6076162D01*
X-405359Y6123219D01*
X-406135Y6127786D01*
X-413267Y6175102D01*
X-413267Y6175105D01*
X-414652Y6184287D01*
X-418377Y6192023D01*
X-419976Y6200471D01*
X-446688Y6251013D01*
X-448776Y6255149D01*
X-454202Y6266415D01*
X2222689Y6266415D01*
X2225217Y6253706D01*
X2238359Y6250000D01*
X2733674Y6250000D01*
X2746549Y6253450D01*
X2750000Y6266326D01*
X2750000Y6790075D01*
X2747409Y6801054D01*
X2736142Y6800479D01*
X2611293Y6764207D01*
X2597091Y6758061D01*
X2471339Y6683691D01*
X2459103Y6674200D01*
X2355799Y6570896D01*
X2346308Y6558660D01*
X2271939Y6432909D01*
X2265791Y6418702D01*
X2224623Y6277002D01*
X2222689Y6266415D01*
X-454202Y6266415D01*
X-469543Y6298271D01*
X-469545Y6298274D01*
X-473575Y6306642D01*
X-479418Y6312940D01*
X-483434Y6320537D01*
X-523834Y6360937D01*
X-527052Y6364277D01*
X-530800Y6368316D01*
X-565945Y6406194D01*
X-571951Y6409661D01*
X-577658Y6414761D01*
X-666072Y6503175D01*
X-698576Y6560333D01*
X-697285Y6626073D01*
X-662563Y6681911D01*
X-604173Y6712146D01*
X-576706Y6717984D01*
X-564420Y6721976D01*
X-426746Y6783271D01*
X-417721Y6790291D01*
X-423630Y6800077D01*
X-1628165Y8004612D01*
X-1637708Y8010546D01*
X-1645384Y8002350D01*
X-1673472Y7953701D01*
X-1678726Y7941901D01*
X-1720686Y7812764D01*
X-1754446Y7760026D01*
X-1809670Y7730508D01*
X-1872276Y7731738D01*
X-1926298Y7763401D01*
X-1958630Y7795733D01*
X-1967896Y7806101D01*
X-1984327Y7826705D01*
X-1984328Y7826706D01*
X-1990121Y7833970D01*
X-2037368Y7866182D01*
X-2041127Y7868849D01*
X-2087118Y7902793D01*
X-2095224Y7905629D01*
X-2102327Y7910472D01*
X-2156981Y7927329D01*
X-2161355Y7928769D01*
X-2215301Y7947646D01*
X-2223886Y7947967D01*
X-2232098Y7950500D01*
X-2241393Y7950500D01*
X-2289262Y7950500D01*
X-2293899Y7950587D01*
X-2294204Y7950598D01*
X-2351010Y7952724D01*
X-2357712Y7950928D01*
X-2365342Y7950500D01*
X-2648352Y7950500D01*
X-2700757Y7962118D01*
X-2730280Y7975884D01*
X-2790513Y8003972D01*
X-2840099Y8010500D01*
X-3199900Y8010499D01*
X-3207746Y8009466D01*
X-3210143Y8009151D01*
X-3273482Y8017402D01*
X-3324310Y8056086D01*
X-3335796Y8070893D01*
X-3439102Y8174199D01*
X-3444029Y8178021D01*
X-3481518Y8226040D01*
X-3491615Y8286117D01*
X-3471881Y8343753D01*
X-3427081Y8385035D01*
X-3368028Y8400000D01*
X-1367809Y8400000D01*
X-1320356Y8390561D01*
G37*
%TD.AperFunction*%
%TD*%
M02*
