%TF.GenerationSoftware,KiCad,Pcbnew,(7.0.0)*%
%TF.CreationDate,2023-02-14T21:30:46+09:00*%
%TF.ProjectId,audio,61756469-6f2e-46b6-9963-61645f706362,rev?*%
%TF.SameCoordinates,Original*%
%TF.FileFunction,Soldermask,Bot*%
%TF.FilePolarity,Negative*%
%FSLAX46Y46*%
G04 Gerber Fmt 4.6, Leading zero omitted, Abs format (unit mm)*
G04 Created by KiCad (PCBNEW (7.0.0)) date 2023-02-14 21:30:46*
%MOMM*%
%LPD*%
G01*
G04 APERTURE LIST*
G04 Aperture macros list*
%AMRoundRect*
0 Rectangle with rounded corners*
0 $1 Rounding radius*
0 $2 $3 $4 $5 $6 $7 $8 $9 X,Y pos of 4 corners*
0 Add a 4 corners polygon primitive as box body*
4,1,4,$2,$3,$4,$5,$6,$7,$8,$9,$2,$3,0*
0 Add four circle primitives for the rounded corners*
1,1,$1+$1,$2,$3*
1,1,$1+$1,$4,$5*
1,1,$1+$1,$6,$7*
1,1,$1+$1,$8,$9*
0 Add four rect primitives between the rounded corners*
20,1,$1+$1,$2,$3,$4,$5,0*
20,1,$1+$1,$4,$5,$6,$7,0*
20,1,$1+$1,$6,$7,$8,$9,0*
20,1,$1+$1,$8,$9,$2,$3,0*%
G04 Aperture macros list end*
%ADD10C,3.200000*%
%ADD11O,2.200000X1.200000*%
%ADD12O,2.700000X1.200000*%
%ADD13O,2.600000X1.200000*%
%ADD14R,1.524000X1.524000*%
%ADD15C,1.524000*%
%ADD16C,1.800000*%
%ADD17O,1.270000X1.524000*%
%ADD18C,2.630000*%
%ADD19C,2.610000*%
%ADD20C,6.100000*%
%ADD21R,1.700000X1.700000*%
%ADD22O,1.700000X1.700000*%
%ADD23C,1.200000*%
%ADD24C,3.400000*%
%ADD25C,2.500000*%
%ADD26O,1.200000X2.200000*%
%ADD27O,1.200000X2.700000*%
%ADD28O,1.200000X2.600000*%
%ADD29RoundRect,0.140000X0.140000X0.170000X-0.140000X0.170000X-0.140000X-0.170000X0.140000X-0.170000X0*%
%ADD30RoundRect,0.140000X-0.170000X0.140000X-0.170000X-0.140000X0.170000X-0.140000X0.170000X0.140000X0*%
%ADD31RoundRect,0.135000X-0.135000X-0.185000X0.135000X-0.185000X0.135000X0.185000X-0.135000X0.185000X0*%
G04 APERTURE END LIST*
D10*
%TO.C,REF\u002A\u002A*%
X49155919Y-158035000D03*
%TD*%
D11*
%TO.C,J5*%
X52615918Y-119714999D03*
X52615918Y-128354999D03*
D12*
X47255918Y-119714999D03*
D13*
X47255918Y-128354999D03*
%TD*%
D10*
%TO.C,J2*%
X55293419Y-151042500D03*
X55293419Y-138342500D03*
D14*
X70533418Y-149772499D03*
D15*
X70533419Y-147740500D03*
X70533419Y-145708500D03*
X70533419Y-143676500D03*
X70533419Y-141644500D03*
X70533419Y-139612500D03*
X73073419Y-150788500D03*
X73073419Y-148756500D03*
X73073419Y-146724500D03*
X73073419Y-142660500D03*
X73073419Y-140628500D03*
X73073419Y-138596500D03*
D16*
X75613419Y-150788500D03*
X75613419Y-148248500D03*
X75613419Y-141136500D03*
X75613419Y-138596500D03*
D17*
X63423418Y-150287499D03*
X63423418Y-139107499D03*
X61953418Y-150287499D03*
X61953418Y-139107499D03*
D18*
X52118419Y-152757000D03*
D19*
X52118419Y-136628000D03*
%TD*%
D10*
%TO.C,*%
X227655919Y-146535000D03*
%TD*%
D20*
%TO.C,CM4_MODULE1*%
X116855919Y-147635000D03*
X116855919Y-99635000D03*
X83855919Y-147635000D03*
X83855919Y-99635000D03*
%TD*%
D21*
%TO.C,J6*%
X76655918Y-89534999D03*
D22*
X79195918Y-89534999D03*
X81735918Y-89534999D03*
X84275918Y-89534999D03*
X86815918Y-89534999D03*
X89355918Y-89534999D03*
X91895918Y-89534999D03*
X94435918Y-89534999D03*
X96975918Y-89534999D03*
X99515918Y-89534999D03*
%TD*%
D10*
%TO.C,REF\u002A\u002A*%
X49155919Y-90035000D03*
%TD*%
D23*
%TO.C,U15*%
X124700561Y-44893856D03*
X126114775Y-43479642D03*
X127528988Y-44893856D03*
X126114775Y-46308070D03*
%TD*%
D10*
%TO.C,*%
X137655919Y-56535000D03*
%TD*%
D23*
%TO.C,U18*%
X126014775Y-159590358D03*
X124600561Y-158176144D03*
X126014775Y-156761931D03*
X127428989Y-158176144D03*
%TD*%
D10*
%TO.C,REF\u002A\u002A*%
X117155919Y-158035000D03*
%TD*%
%TO.C,*%
X137655919Y-146535000D03*
%TD*%
D23*
%TO.C,U17*%
X240711277Y-158176145D03*
X239297063Y-159590359D03*
X237882850Y-158176145D03*
X239297063Y-156761931D03*
%TD*%
%TO.C,U16*%
X239197064Y-43479642D03*
X240611278Y-44893856D03*
X239197064Y-46308069D03*
X237782850Y-44893856D03*
%TD*%
D24*
%TO.C,J1*%
X54884419Y-97377500D03*
X54884419Y-111877500D03*
D25*
X48884419Y-97377500D03*
X48884419Y-111877500D03*
%TD*%
D10*
%TO.C,*%
X227655919Y-56535000D03*
%TD*%
%TO.C,REF\u002A\u002A*%
X117155919Y-90035000D03*
%TD*%
D21*
%TO.C,J7*%
X85655918Y-157534999D03*
D22*
X88195918Y-157534999D03*
X90735918Y-157534999D03*
X93275918Y-157534999D03*
X95815918Y-157534999D03*
X98355918Y-157534999D03*
X100895918Y-157534999D03*
X103435918Y-157534999D03*
X105975918Y-157534999D03*
X108515918Y-157534999D03*
%TD*%
D26*
%TO.C,J4*%
X67745918Y-93664999D03*
X59105918Y-93664999D03*
D27*
X67745918Y-88304999D03*
D28*
X59105918Y-88304999D03*
%TD*%
D29*
%TO.C,C6*%
X37135919Y-155035000D03*
X36175919Y-155035000D03*
%TD*%
D30*
%TO.C,C13*%
X22295919Y-154855000D03*
X22295919Y-155815000D03*
%TD*%
D23*
%TO.C,U24*%
X24655919Y-160535000D03*
X22655919Y-160535000D03*
X22655919Y-158535000D03*
X24655919Y-158535000D03*
%TD*%
D21*
%TO.C,J9*%
X185155918Y-135034999D03*
D22*
X187695918Y-135034999D03*
X190235918Y-135034999D03*
X192775918Y-135034999D03*
X195315918Y-135034999D03*
X197855918Y-135034999D03*
X200395918Y-135034999D03*
X202935918Y-135034999D03*
X205475918Y-135034999D03*
X208015918Y-135034999D03*
%TD*%
D31*
%TO.C,R58*%
X36145919Y-154035000D03*
X37165919Y-154035000D03*
%TD*%
%TO.C,R60*%
X30145919Y-154035000D03*
X31165919Y-154035000D03*
%TD*%
D29*
%TO.C,C11*%
X31135919Y-157035000D03*
X30175919Y-157035000D03*
%TD*%
D30*
%TO.C,C4*%
X40275919Y-154855000D03*
X40275919Y-155815000D03*
%TD*%
D23*
%TO.C,U22*%
X30655919Y-160535000D03*
X28655919Y-160535000D03*
X28655919Y-158535000D03*
X30655919Y-158535000D03*
%TD*%
D29*
%TO.C,C5*%
X43115919Y-157035000D03*
X42155919Y-157035000D03*
%TD*%
%TO.C,C3*%
X43115919Y-155035000D03*
X42155919Y-155035000D03*
%TD*%
%TO.C,C14*%
X25135919Y-157035000D03*
X24175919Y-157035000D03*
%TD*%
D23*
%TO.C,U20*%
X36655919Y-160535000D03*
X34655919Y-160535000D03*
X34655919Y-158535000D03*
X36655919Y-158535000D03*
%TD*%
D30*
%TO.C,C10*%
X28295919Y-154855000D03*
X28295919Y-155815000D03*
%TD*%
D31*
%TO.C,R6*%
X42125919Y-156035000D03*
X43145919Y-156035000D03*
%TD*%
%TO.C,R62*%
X24145919Y-154035000D03*
X25165919Y-154035000D03*
%TD*%
%TO.C,R61*%
X30145919Y-156035000D03*
X31165919Y-156035000D03*
%TD*%
%TO.C,R5*%
X42125919Y-154035000D03*
X43145919Y-154035000D03*
%TD*%
D23*
%TO.C,U8*%
X42655919Y-160525000D03*
X40655919Y-160525000D03*
X40655919Y-158525000D03*
X42655919Y-158525000D03*
%TD*%
D29*
%TO.C,C12*%
X25135919Y-155035000D03*
X24175919Y-155035000D03*
%TD*%
D31*
%TO.C,R59*%
X36145919Y-156035000D03*
X37165919Y-156035000D03*
%TD*%
D29*
%TO.C,C9*%
X31135919Y-155035000D03*
X30175919Y-155035000D03*
%TD*%
D30*
%TO.C,C7*%
X34295919Y-154855000D03*
X34295919Y-155815000D03*
%TD*%
D31*
%TO.C,R63*%
X24145919Y-156035000D03*
X25165919Y-156035000D03*
%TD*%
D29*
%TO.C,C8*%
X37135919Y-157035000D03*
X36175919Y-157035000D03*
%TD*%
D21*
%TO.C,J8*%
X176155918Y-67034999D03*
D22*
X178695918Y-67034999D03*
X181235918Y-67034999D03*
X183775918Y-67034999D03*
X186315918Y-67034999D03*
X188855918Y-67034999D03*
X191395918Y-67034999D03*
X193935918Y-67034999D03*
X196475918Y-67034999D03*
X199015918Y-67034999D03*
%TD*%
M02*
