%TF.GenerationSoftware,KiCad,Pcbnew,(7.0.0)*%
%TF.CreationDate,2023-02-16T09:01:11+09:00*%
%TF.ProjectId,audio,61756469-6f2e-46b6-9963-61645f706362,rev?*%
%TF.SameCoordinates,Original*%
%TF.FileFunction,Legend,Top*%
%TF.FilePolarity,Positive*%
%FSLAX46Y46*%
G04 Gerber Fmt 4.6, Leading zero omitted, Abs format (unit mm)*
G04 Created by KiCad (PCBNEW (7.0.0)) date 2023-02-16 09:01:11*
%MOMM*%
%LPD*%
G01*
G04 APERTURE LIST*
%ADD10C,1.000000*%
%ADD11C,0.200000*%
%ADD12C,0.460555*%
%ADD13C,0.250000*%
%ADD14C,0.750000*%
%ADD15C,0.500000*%
%ADD16C,0.150000*%
%ADD17C,0.120000*%
%ADD18C,0.100000*%
%ADD19C,0.127000*%
%ADD20C,0.254000*%
%ADD21C,0.420555*%
G04 APERTURE END LIST*
D10*
X149995388Y27998836D02*
X119995388Y27998836D01*
D11*
X142739469Y93933836D02*
X142739469Y94933836D01*
D10*
X89995388Y101998836D02*
X141495388Y101998836D01*
X119995369Y54998836D02*
G75*
G03*
X117995388Y56998836I-2000000J0D01*
G01*
D12*
X96169746Y94333836D02*
G75*
G03*
X96169746Y94333836I-230277J0D01*
G01*
D10*
X120095388Y41098836D02*
X141695388Y41098836D01*
D13*
X-7795525Y71824980D02*
G75*
G03*
X-7795525Y71824980I-125000J0D01*
G01*
D10*
X136495388Y54798836D02*
X136595388Y88598836D01*
D12*
X125209191Y68833836D02*
G75*
G03*
X125209191Y68833836I-230277J0D01*
G01*
D10*
X117995388Y56998836D02*
X84995388Y56998836D01*
X141495388Y94498836D02*
X141495388Y101998836D01*
X136495388Y88498836D02*
X141495388Y94498836D01*
X141695388Y41098836D02*
X136495388Y54798836D01*
D13*
X23819111Y27334980D02*
G75*
G03*
X23819111Y27334980I-125000J0D01*
G01*
D10*
X136595388Y88598836D02*
X84995388Y88598836D01*
D13*
X1019111Y68434980D02*
G75*
G03*
X1019111Y68434980I-125000J0D01*
G01*
D10*
X149995388Y32598836D02*
X141695388Y41098836D01*
D11*
X2544111Y34634980D02*
X2544111Y35634980D01*
D10*
X89995388Y101998836D02*
X84995388Y96998836D01*
D13*
X23719111Y22334980D02*
G75*
G03*
X23719111Y22334980I-125000J0D01*
G01*
D10*
X149995388Y32598836D02*
X149995388Y27998836D01*
D11*
X2044111Y35134980D02*
X3044111Y35134980D01*
X142239469Y94433836D02*
X143239469Y94433836D01*
D12*
X130509191Y87033836D02*
G75*
G03*
X130509191Y87033836I-230277J0D01*
G01*
D10*
X119995388Y54998836D02*
X119995388Y27998836D01*
D12*
X121109191Y37833836D02*
G75*
G03*
X121109191Y37833836I-230277J0D01*
G01*
X132309191Y68633836D02*
G75*
G03*
X132309191Y68633836I-230277J0D01*
G01*
D10*
X84995388Y56998836D02*
X84995388Y96998836D01*
D14*
X112802531Y73039550D02*
X113213246Y72896693D01*
X113213246Y72896693D02*
X113927531Y72896693D01*
X113927531Y72896693D02*
X114231103Y73039550D01*
X114231103Y73039550D02*
X114391817Y73182407D01*
X114391817Y73182407D02*
X114570389Y73468121D01*
X114570389Y73468121D02*
X114606103Y73753836D01*
X114606103Y73753836D02*
X114498960Y74039550D01*
X114498960Y74039550D02*
X114373960Y74182407D01*
X114373960Y74182407D02*
X114106103Y74325264D01*
X114106103Y74325264D02*
X113552531Y74468121D01*
X113552531Y74468121D02*
X113284674Y74610978D01*
X113284674Y74610978D02*
X113159674Y74753836D01*
X113159674Y74753836D02*
X113052531Y75039550D01*
X113052531Y75039550D02*
X113088246Y75325264D01*
X113088246Y75325264D02*
X113266817Y75610978D01*
X113266817Y75610978D02*
X113427531Y75753836D01*
X113427531Y75753836D02*
X113731103Y75896693D01*
X113731103Y75896693D02*
X114445389Y75896693D01*
X114445389Y75896693D02*
X114856103Y75753836D01*
X116731103Y75896693D02*
X117302532Y75896693D01*
X117302532Y75896693D02*
X117570389Y75753836D01*
X117570389Y75753836D02*
X117820389Y75468121D01*
X117820389Y75468121D02*
X117891817Y74896693D01*
X117891817Y74896693D02*
X117766817Y73896693D01*
X117766817Y73896693D02*
X117552532Y73325264D01*
X117552532Y73325264D02*
X117231103Y73039550D01*
X117231103Y73039550D02*
X116927532Y72896693D01*
X116927532Y72896693D02*
X116356103Y72896693D01*
X116356103Y72896693D02*
X116088246Y73039550D01*
X116088246Y73039550D02*
X115838246Y73325264D01*
X115838246Y73325264D02*
X115766817Y73896693D01*
X115766817Y73896693D02*
X115891817Y74896693D01*
X115891817Y74896693D02*
X116106103Y75468121D01*
X116106103Y75468121D02*
X116427532Y75753836D01*
X116427532Y75753836D02*
X116731103Y75896693D01*
X119302531Y75896693D02*
X118998960Y73468121D01*
X118998960Y73468121D02*
X119106103Y73182407D01*
X119106103Y73182407D02*
X119231103Y73039550D01*
X119231103Y73039550D02*
X119498960Y72896693D01*
X119498960Y72896693D02*
X120070389Y72896693D01*
X120070389Y72896693D02*
X120373960Y73039550D01*
X120373960Y73039550D02*
X120534674Y73182407D01*
X120534674Y73182407D02*
X120713246Y73468121D01*
X120713246Y73468121D02*
X121016817Y75896693D01*
X122070388Y72896693D02*
X122445388Y75896693D01*
X122445388Y75896693D02*
X123784674Y72896693D01*
X123784674Y72896693D02*
X124159674Y75896693D01*
X125213245Y72896693D02*
X125588245Y75896693D01*
X125588245Y75896693D02*
X126302531Y75896693D01*
X126302531Y75896693D02*
X126713245Y75753836D01*
X126713245Y75753836D02*
X126963245Y75468121D01*
X126963245Y75468121D02*
X127070388Y75182407D01*
X127070388Y75182407D02*
X127141817Y74610978D01*
X127141817Y74610978D02*
X127088245Y74182407D01*
X127088245Y74182407D02*
X126873960Y73610978D01*
X126873960Y73610978D02*
X126695388Y73325264D01*
X126695388Y73325264D02*
X126373960Y73039550D01*
X126373960Y73039550D02*
X125927531Y72896693D01*
X125927531Y72896693D02*
X125213245Y72896693D01*
X128213245Y72896693D02*
X128588245Y75896693D01*
X129588245Y75896693D02*
X131302531Y75896693D01*
X130070388Y72896693D02*
X130445388Y75896693D01*
D15*
X41625744Y39635218D02*
X41875744Y41635218D01*
X41875744Y41635218D02*
X42351934Y41635218D01*
X42351934Y41635218D02*
X42625744Y41539980D01*
X42625744Y41539980D02*
X42792410Y41349503D01*
X42792410Y41349503D02*
X42863839Y41159027D01*
X42863839Y41159027D02*
X42911458Y40778075D01*
X42911458Y40778075D02*
X42875744Y40492360D01*
X42875744Y40492360D02*
X42732887Y40111408D01*
X42732887Y40111408D02*
X42613839Y39920932D01*
X42613839Y39920932D02*
X42399553Y39730456D01*
X42399553Y39730456D02*
X42101934Y39635218D01*
X42101934Y39635218D02*
X41625744Y39635218D01*
X43542410Y39730456D02*
X43816220Y39635218D01*
X43816220Y39635218D02*
X44292410Y39635218D01*
X44292410Y39635218D02*
X44494791Y39730456D01*
X44494791Y39730456D02*
X44601934Y39825694D01*
X44601934Y39825694D02*
X44720982Y40016170D01*
X44720982Y40016170D02*
X44744791Y40206646D01*
X44744791Y40206646D02*
X44673363Y40397122D01*
X44673363Y40397122D02*
X44590029Y40492360D01*
X44590029Y40492360D02*
X44411458Y40587599D01*
X44411458Y40587599D02*
X44042410Y40682837D01*
X44042410Y40682837D02*
X43863839Y40778075D01*
X43863839Y40778075D02*
X43780506Y40873313D01*
X43780506Y40873313D02*
X43709077Y41063789D01*
X43709077Y41063789D02*
X43732887Y41254265D01*
X43732887Y41254265D02*
X43851934Y41444741D01*
X43851934Y41444741D02*
X43959077Y41539980D01*
X43959077Y41539980D02*
X44161458Y41635218D01*
X44161458Y41635218D02*
X44637649Y41635218D01*
X44637649Y41635218D02*
X44911458Y41539980D01*
X45530506Y39635218D02*
X45780506Y41635218D01*
X45780506Y41635218D02*
X46542411Y41635218D01*
X46542411Y41635218D02*
X46720982Y41539980D01*
X46720982Y41539980D02*
X46804315Y41444741D01*
X46804315Y41444741D02*
X46875744Y41254265D01*
X46875744Y41254265D02*
X46840030Y40968551D01*
X46840030Y40968551D02*
X46720982Y40778075D01*
X46720982Y40778075D02*
X46613839Y40682837D01*
X46613839Y40682837D02*
X46411458Y40587599D01*
X46411458Y40587599D02*
X45649553Y40587599D01*
X44070982Y37442837D02*
X44344791Y37347599D01*
X44344791Y37347599D02*
X44428125Y37252360D01*
X44428125Y37252360D02*
X44499553Y37061884D01*
X44499553Y37061884D02*
X44463839Y36776170D01*
X44463839Y36776170D02*
X44344791Y36585694D01*
X44344791Y36585694D02*
X44237648Y36490456D01*
X44237648Y36490456D02*
X44035268Y36395218D01*
X44035268Y36395218D02*
X43273363Y36395218D01*
X43273363Y36395218D02*
X43523363Y38395218D01*
X43523363Y38395218D02*
X44190029Y38395218D01*
X44190029Y38395218D02*
X44368601Y38299980D01*
X44368601Y38299980D02*
X44451934Y38204741D01*
X44451934Y38204741D02*
X44523363Y38014265D01*
X44523363Y38014265D02*
X44499553Y37823789D01*
X44499553Y37823789D02*
X44380506Y37633313D01*
X44380506Y37633313D02*
X44273363Y37538075D01*
X44273363Y37538075D02*
X44070982Y37442837D01*
X44070982Y37442837D02*
X43404315Y37442837D01*
X45904315Y38395218D02*
X46285268Y38395218D01*
X46285268Y38395218D02*
X46463839Y38299980D01*
X46463839Y38299980D02*
X46630506Y38109503D01*
X46630506Y38109503D02*
X46678125Y37728551D01*
X46678125Y37728551D02*
X46594791Y37061884D01*
X46594791Y37061884D02*
X46451934Y36680932D01*
X46451934Y36680932D02*
X46237648Y36490456D01*
X46237648Y36490456D02*
X46035268Y36395218D01*
X46035268Y36395218D02*
X45654315Y36395218D01*
X45654315Y36395218D02*
X45475744Y36490456D01*
X45475744Y36490456D02*
X45309077Y36680932D01*
X45309077Y36680932D02*
X45261458Y37061884D01*
X45261458Y37061884D02*
X45344791Y37728551D01*
X45344791Y37728551D02*
X45487648Y38109503D01*
X45487648Y38109503D02*
X45701934Y38299980D01*
X45701934Y38299980D02*
X45904315Y38395218D01*
X47344791Y36966646D02*
X48297172Y36966646D01*
X47082886Y36395218D02*
X47999553Y38395218D01*
X47999553Y38395218D02*
X48416220Y36395218D01*
X50225744Y36395218D02*
X49678125Y37347599D01*
X49082887Y36395218D02*
X49332887Y38395218D01*
X49332887Y38395218D02*
X50094792Y38395218D01*
X50094792Y38395218D02*
X50273363Y38299980D01*
X50273363Y38299980D02*
X50356696Y38204741D01*
X50356696Y38204741D02*
X50428125Y38014265D01*
X50428125Y38014265D02*
X50392411Y37728551D01*
X50392411Y37728551D02*
X50273363Y37538075D01*
X50273363Y37538075D02*
X50166220Y37442837D01*
X50166220Y37442837D02*
X49963839Y37347599D01*
X49963839Y37347599D02*
X49201934Y37347599D01*
X51082887Y36395218D02*
X51332887Y38395218D01*
X51332887Y38395218D02*
X51809077Y38395218D01*
X51809077Y38395218D02*
X52082887Y38299980D01*
X52082887Y38299980D02*
X52249553Y38109503D01*
X52249553Y38109503D02*
X52320982Y37919027D01*
X52320982Y37919027D02*
X52368601Y37538075D01*
X52368601Y37538075D02*
X52332887Y37252360D01*
X52332887Y37252360D02*
X52190030Y36871408D01*
X52190030Y36871408D02*
X52070982Y36680932D01*
X52070982Y36680932D02*
X51856696Y36490456D01*
X51856696Y36490456D02*
X51559077Y36395218D01*
X51559077Y36395218D02*
X51082887Y36395218D01*
X70703606Y9829727D02*
X69289393Y8415514D01*
X69289393Y8415514D02*
X69828141Y9897071D01*
X69828141Y9897071D02*
X68346583Y9358323D01*
X68346583Y9358323D02*
X69760797Y10772536D01*
X69087362Y11445971D02*
X67673149Y10031757D01*
X67471118Y12792841D02*
X67605805Y12792841D01*
X67605805Y12792841D02*
X67875179Y12658154D01*
X67875179Y12658154D02*
X68009866Y12523467D01*
X68009866Y12523467D02*
X68144553Y12254093D01*
X68144553Y12254093D02*
X68144553Y11984719D01*
X68144553Y11984719D02*
X68077210Y11782689D01*
X68077210Y11782689D02*
X67875179Y11445971D01*
X67875179Y11445971D02*
X67673149Y11243941D01*
X67673149Y11243941D02*
X67336431Y11041910D01*
X67336431Y11041910D02*
X67134401Y10974567D01*
X67134401Y10974567D02*
X66865027Y10974567D01*
X66865027Y10974567D02*
X66595653Y11109254D01*
X66595653Y11109254D02*
X66460966Y11243941D01*
X66460966Y11243941D02*
X66326279Y11513315D01*
X66326279Y11513315D02*
X66326279Y11648002D01*
X66258935Y14274398D02*
X67067057Y13466276D01*
X66662996Y13870337D02*
X65248782Y12456124D01*
X65248782Y12456124D02*
X65585500Y12523467D01*
X65585500Y12523467D02*
X65854874Y12523467D01*
X65854874Y12523467D02*
X66056905Y12456124D01*
X113326340Y90464074D02*
X113576340Y92464074D01*
X114195387Y90559312D02*
X114469197Y90464074D01*
X114469197Y90464074D02*
X114945387Y90464074D01*
X114945387Y90464074D02*
X115147768Y90559312D01*
X115147768Y90559312D02*
X115254911Y90654550D01*
X115254911Y90654550D02*
X115373959Y90845026D01*
X115373959Y90845026D02*
X115397768Y91035502D01*
X115397768Y91035502D02*
X115326340Y91225978D01*
X115326340Y91225978D02*
X115243006Y91321216D01*
X115243006Y91321216D02*
X115064435Y91416455D01*
X115064435Y91416455D02*
X114695387Y91511693D01*
X114695387Y91511693D02*
X114516816Y91606931D01*
X114516816Y91606931D02*
X114433483Y91702169D01*
X114433483Y91702169D02*
X114362054Y91892645D01*
X114362054Y91892645D02*
X114385864Y92083121D01*
X114385864Y92083121D02*
X114504911Y92273597D01*
X114504911Y92273597D02*
X114612054Y92368836D01*
X114612054Y92368836D02*
X114814435Y92464074D01*
X114814435Y92464074D02*
X115290626Y92464074D01*
X115290626Y92464074D02*
X115564435Y92368836D01*
X116814435Y92464074D02*
X117195388Y92464074D01*
X117195388Y92464074D02*
X117373959Y92368836D01*
X117373959Y92368836D02*
X117540626Y92178359D01*
X117540626Y92178359D02*
X117588245Y91797407D01*
X117588245Y91797407D02*
X117504911Y91130740D01*
X117504911Y91130740D02*
X117362054Y90749788D01*
X117362054Y90749788D02*
X117147768Y90559312D01*
X117147768Y90559312D02*
X116945388Y90464074D01*
X116945388Y90464074D02*
X116564435Y90464074D01*
X116564435Y90464074D02*
X116385864Y90559312D01*
X116385864Y90559312D02*
X116219197Y90749788D01*
X116219197Y90749788D02*
X116171578Y91130740D01*
X116171578Y91130740D02*
X116254911Y91797407D01*
X116254911Y91797407D02*
X116397768Y92178359D01*
X116397768Y92178359D02*
X116612054Y92368836D01*
X116612054Y92368836D02*
X116814435Y92464074D01*
X119231102Y90464074D02*
X118278721Y90464074D01*
X118278721Y90464074D02*
X118528721Y92464074D01*
X119873959Y91035502D02*
X120826340Y91035502D01*
X119612054Y90464074D02*
X120528721Y92464074D01*
X120528721Y92464074D02*
X120945388Y90464074D01*
X121576340Y92464074D02*
X122719198Y92464074D01*
X121897769Y90464074D02*
X122147769Y92464074D01*
X123135865Y90464074D02*
X123385865Y92464074D01*
X124719198Y92464074D02*
X125100151Y92464074D01*
X125100151Y92464074D02*
X125278722Y92368836D01*
X125278722Y92368836D02*
X125445389Y92178359D01*
X125445389Y92178359D02*
X125493008Y91797407D01*
X125493008Y91797407D02*
X125409674Y91130740D01*
X125409674Y91130740D02*
X125266817Y90749788D01*
X125266817Y90749788D02*
X125052531Y90559312D01*
X125052531Y90559312D02*
X124850151Y90464074D01*
X124850151Y90464074D02*
X124469198Y90464074D01*
X124469198Y90464074D02*
X124290627Y90559312D01*
X124290627Y90559312D02*
X124123960Y90749788D01*
X124123960Y90749788D02*
X124076341Y91130740D01*
X124076341Y91130740D02*
X124159674Y91797407D01*
X124159674Y91797407D02*
X124302531Y92178359D01*
X124302531Y92178359D02*
X124516817Y92368836D01*
X124516817Y92368836D02*
X124719198Y92464074D01*
X126183484Y90464074D02*
X126433484Y92464074D01*
X126433484Y92464074D02*
X127326341Y90464074D01*
X127326341Y90464074D02*
X127576341Y92464074D01*
X129478722Y90464074D02*
X129728722Y92464074D01*
X130562055Y92273597D02*
X130669198Y92368836D01*
X130669198Y92368836D02*
X130871579Y92464074D01*
X130871579Y92464074D02*
X131347769Y92464074D01*
X131347769Y92464074D02*
X131526341Y92368836D01*
X131526341Y92368836D02*
X131609674Y92273597D01*
X131609674Y92273597D02*
X131681103Y92083121D01*
X131681103Y92083121D02*
X131657293Y91892645D01*
X131657293Y91892645D02*
X131526341Y91606931D01*
X131526341Y91606931D02*
X130240627Y90464074D01*
X130240627Y90464074D02*
X131478722Y90464074D01*
X132252531Y90559312D02*
X132526341Y90464074D01*
X132526341Y90464074D02*
X133002531Y90464074D01*
X133002531Y90464074D02*
X133204912Y90559312D01*
X133204912Y90559312D02*
X133312055Y90654550D01*
X133312055Y90654550D02*
X133431103Y90845026D01*
X133431103Y90845026D02*
X133454912Y91035502D01*
X133454912Y91035502D02*
X133383484Y91225978D01*
X133383484Y91225978D02*
X133300150Y91321216D01*
X133300150Y91321216D02*
X133121579Y91416455D01*
X133121579Y91416455D02*
X132752531Y91511693D01*
X132752531Y91511693D02*
X132573960Y91606931D01*
X132573960Y91606931D02*
X132490627Y91702169D01*
X132490627Y91702169D02*
X132419198Y91892645D01*
X132419198Y91892645D02*
X132443008Y92083121D01*
X132443008Y92083121D02*
X132562055Y92273597D01*
X132562055Y92273597D02*
X132669198Y92368836D01*
X132669198Y92368836D02*
X132871579Y92464074D01*
X132871579Y92464074D02*
X133347770Y92464074D01*
X133347770Y92464074D02*
X133621579Y92368836D01*
X123578721Y35964074D02*
X123828721Y37964074D01*
X124447768Y36059312D02*
X124721578Y35964074D01*
X124721578Y35964074D02*
X125197768Y35964074D01*
X125197768Y35964074D02*
X125400149Y36059312D01*
X125400149Y36059312D02*
X125507292Y36154550D01*
X125507292Y36154550D02*
X125626340Y36345026D01*
X125626340Y36345026D02*
X125650149Y36535502D01*
X125650149Y36535502D02*
X125578721Y36725978D01*
X125578721Y36725978D02*
X125495387Y36821216D01*
X125495387Y36821216D02*
X125316816Y36916455D01*
X125316816Y36916455D02*
X124947768Y37011693D01*
X124947768Y37011693D02*
X124769197Y37106931D01*
X124769197Y37106931D02*
X124685864Y37202169D01*
X124685864Y37202169D02*
X124614435Y37392645D01*
X124614435Y37392645D02*
X124638245Y37583121D01*
X124638245Y37583121D02*
X124757292Y37773597D01*
X124757292Y37773597D02*
X124864435Y37868836D01*
X124864435Y37868836D02*
X125066816Y37964074D01*
X125066816Y37964074D02*
X125543007Y37964074D01*
X125543007Y37964074D02*
X125816816Y37868836D01*
X127066816Y37964074D02*
X127447769Y37964074D01*
X127447769Y37964074D02*
X127626340Y37868836D01*
X127626340Y37868836D02*
X127793007Y37678359D01*
X127793007Y37678359D02*
X127840626Y37297407D01*
X127840626Y37297407D02*
X127757292Y36630740D01*
X127757292Y36630740D02*
X127614435Y36249788D01*
X127614435Y36249788D02*
X127400149Y36059312D01*
X127400149Y36059312D02*
X127197769Y35964074D01*
X127197769Y35964074D02*
X126816816Y35964074D01*
X126816816Y35964074D02*
X126638245Y36059312D01*
X126638245Y36059312D02*
X126471578Y36249788D01*
X126471578Y36249788D02*
X126423959Y36630740D01*
X126423959Y36630740D02*
X126507292Y37297407D01*
X126507292Y37297407D02*
X126650149Y37678359D01*
X126650149Y37678359D02*
X126864435Y37868836D01*
X126864435Y37868836D02*
X127066816Y37964074D01*
X129483483Y35964074D02*
X128531102Y35964074D01*
X128531102Y35964074D02*
X128781102Y37964074D01*
X130126340Y36535502D02*
X131078721Y36535502D01*
X129864435Y35964074D02*
X130781102Y37964074D01*
X130781102Y37964074D02*
X131197769Y35964074D01*
X131828721Y37964074D02*
X132971579Y37964074D01*
X132150150Y35964074D02*
X132400150Y37964074D01*
X133388246Y35964074D02*
X133638246Y37964074D01*
X134971579Y37964074D02*
X135352532Y37964074D01*
X135352532Y37964074D02*
X135531103Y37868836D01*
X135531103Y37868836D02*
X135697770Y37678359D01*
X135697770Y37678359D02*
X135745389Y37297407D01*
X135745389Y37297407D02*
X135662055Y36630740D01*
X135662055Y36630740D02*
X135519198Y36249788D01*
X135519198Y36249788D02*
X135304912Y36059312D01*
X135304912Y36059312D02*
X135102532Y35964074D01*
X135102532Y35964074D02*
X134721579Y35964074D01*
X134721579Y35964074D02*
X134543008Y36059312D01*
X134543008Y36059312D02*
X134376341Y36249788D01*
X134376341Y36249788D02*
X134328722Y36630740D01*
X134328722Y36630740D02*
X134412055Y37297407D01*
X134412055Y37297407D02*
X134554912Y37678359D01*
X134554912Y37678359D02*
X134769198Y37868836D01*
X134769198Y37868836D02*
X134971579Y37964074D01*
X136435865Y35964074D02*
X136685865Y37964074D01*
X136685865Y37964074D02*
X137578722Y35964074D01*
X137578722Y35964074D02*
X137828722Y37964074D01*
X139731103Y35964074D02*
X139981103Y37964074D01*
X140814436Y37773597D02*
X140921579Y37868836D01*
X140921579Y37868836D02*
X141123960Y37964074D01*
X141123960Y37964074D02*
X141600150Y37964074D01*
X141600150Y37964074D02*
X141778722Y37868836D01*
X141778722Y37868836D02*
X141862055Y37773597D01*
X141862055Y37773597D02*
X141933484Y37583121D01*
X141933484Y37583121D02*
X141909674Y37392645D01*
X141909674Y37392645D02*
X141778722Y37106931D01*
X141778722Y37106931D02*
X140493008Y35964074D01*
X140493008Y35964074D02*
X141731103Y35964074D01*
X143754912Y36154550D02*
X143647770Y36059312D01*
X143647770Y36059312D02*
X143350151Y35964074D01*
X143350151Y35964074D02*
X143159674Y35964074D01*
X143159674Y35964074D02*
X142885865Y36059312D01*
X142885865Y36059312D02*
X142719198Y36249788D01*
X142719198Y36249788D02*
X142647770Y36440264D01*
X142647770Y36440264D02*
X142600151Y36821216D01*
X142600151Y36821216D02*
X142635865Y37106931D01*
X142635865Y37106931D02*
X142778722Y37487883D01*
X142778722Y37487883D02*
X142897770Y37678359D01*
X142897770Y37678359D02*
X143112055Y37868836D01*
X143112055Y37868836D02*
X143409674Y37964074D01*
X143409674Y37964074D02*
X143600151Y37964074D01*
X143600151Y37964074D02*
X143873960Y37868836D01*
X143873960Y37868836D02*
X143957293Y37773597D01*
D14*
X29447173Y47290694D02*
X29857888Y47147837D01*
X29857888Y47147837D02*
X30572173Y47147837D01*
X30572173Y47147837D02*
X30875745Y47290694D01*
X30875745Y47290694D02*
X31036459Y47433551D01*
X31036459Y47433551D02*
X31215031Y47719265D01*
X31215031Y47719265D02*
X31250745Y48004980D01*
X31250745Y48004980D02*
X31143602Y48290694D01*
X31143602Y48290694D02*
X31018602Y48433551D01*
X31018602Y48433551D02*
X30750745Y48576408D01*
X30750745Y48576408D02*
X30197173Y48719265D01*
X30197173Y48719265D02*
X29929316Y48862122D01*
X29929316Y48862122D02*
X29804316Y49004980D01*
X29804316Y49004980D02*
X29697173Y49290694D01*
X29697173Y49290694D02*
X29732888Y49576408D01*
X29732888Y49576408D02*
X29911459Y49862122D01*
X29911459Y49862122D02*
X30072173Y50004980D01*
X30072173Y50004980D02*
X30375745Y50147837D01*
X30375745Y50147837D02*
X31090031Y50147837D01*
X31090031Y50147837D02*
X31500745Y50004980D01*
X33375745Y50147837D02*
X33947174Y50147837D01*
X33947174Y50147837D02*
X34215031Y50004980D01*
X34215031Y50004980D02*
X34465031Y49719265D01*
X34465031Y49719265D02*
X34536459Y49147837D01*
X34536459Y49147837D02*
X34411459Y48147837D01*
X34411459Y48147837D02*
X34197174Y47576408D01*
X34197174Y47576408D02*
X33875745Y47290694D01*
X33875745Y47290694D02*
X33572174Y47147837D01*
X33572174Y47147837D02*
X33000745Y47147837D01*
X33000745Y47147837D02*
X32732888Y47290694D01*
X32732888Y47290694D02*
X32482888Y47576408D01*
X32482888Y47576408D02*
X32411459Y48147837D01*
X32411459Y48147837D02*
X32536459Y49147837D01*
X32536459Y49147837D02*
X32750745Y49719265D01*
X32750745Y49719265D02*
X33072174Y50004980D01*
X33072174Y50004980D02*
X33375745Y50147837D01*
X35947173Y50147837D02*
X35643602Y47719265D01*
X35643602Y47719265D02*
X35750745Y47433551D01*
X35750745Y47433551D02*
X35875745Y47290694D01*
X35875745Y47290694D02*
X36143602Y47147837D01*
X36143602Y47147837D02*
X36715031Y47147837D01*
X36715031Y47147837D02*
X37018602Y47290694D01*
X37018602Y47290694D02*
X37179316Y47433551D01*
X37179316Y47433551D02*
X37357888Y47719265D01*
X37357888Y47719265D02*
X37661459Y50147837D01*
X38715030Y47147837D02*
X39090030Y50147837D01*
X39090030Y50147837D02*
X40429316Y47147837D01*
X40429316Y47147837D02*
X40804316Y50147837D01*
X41857887Y47147837D02*
X42232887Y50147837D01*
X42232887Y50147837D02*
X42947173Y50147837D01*
X42947173Y50147837D02*
X43357887Y50004980D01*
X43357887Y50004980D02*
X43607887Y49719265D01*
X43607887Y49719265D02*
X43715030Y49433551D01*
X43715030Y49433551D02*
X43786459Y48862122D01*
X43786459Y48862122D02*
X43732887Y48433551D01*
X43732887Y48433551D02*
X43518602Y47862122D01*
X43518602Y47862122D02*
X43340030Y47576408D01*
X43340030Y47576408D02*
X43018602Y47290694D01*
X43018602Y47290694D02*
X42572173Y47147837D01*
X42572173Y47147837D02*
X41857887Y47147837D01*
X44857887Y47147837D02*
X45232887Y50147837D01*
X46232887Y50147837D02*
X47947173Y50147837D01*
X46715030Y47147837D02*
X47090030Y50147837D01*
D15*
X173287169Y120667944D02*
X174701382Y122082157D01*
X174701382Y122082157D02*
X174162634Y120600600D01*
X174162634Y120600600D02*
X175644192Y121139348D01*
X175644192Y121139348D02*
X174229978Y119725135D01*
X174903413Y119051700D02*
X176317626Y120465914D01*
X176519657Y117704830D02*
X176384970Y117704830D01*
X176384970Y117704830D02*
X176115596Y117839517D01*
X176115596Y117839517D02*
X175980909Y117974204D01*
X175980909Y117974204D02*
X175846222Y118243578D01*
X175846222Y118243578D02*
X175846222Y118512952D01*
X175846222Y118512952D02*
X175913565Y118714982D01*
X175913565Y118714982D02*
X176115596Y119051700D01*
X176115596Y119051700D02*
X176317626Y119253730D01*
X176317626Y119253730D02*
X176654344Y119455761D01*
X176654344Y119455761D02*
X176856374Y119523104D01*
X176856374Y119523104D02*
X177125748Y119523104D01*
X177125748Y119523104D02*
X177395122Y119388417D01*
X177395122Y119388417D02*
X177529809Y119253730D01*
X177529809Y119253730D02*
X177664496Y118984356D01*
X177664496Y118984356D02*
X177664496Y118849669D01*
X178270588Y118512952D02*
X179146054Y117637486D01*
X179146054Y117637486D02*
X178135901Y117570143D01*
X178135901Y117570143D02*
X178337931Y117368112D01*
X178337931Y117368112D02*
X178405275Y117166082D01*
X178405275Y117166082D02*
X178405275Y117031395D01*
X178405275Y117031395D02*
X178337931Y116829364D01*
X178337931Y116829364D02*
X178001214Y116492647D01*
X178001214Y116492647D02*
X177799183Y116425303D01*
X177799183Y116425303D02*
X177664496Y116425303D01*
X177664496Y116425303D02*
X177462466Y116492647D01*
X177462466Y116492647D02*
X177058405Y116896708D01*
X177058405Y116896708D02*
X176991061Y117098738D01*
X176991061Y117098738D02*
X176991061Y117233425D01*
X66826279Y116290617D02*
X65412066Y117704830D01*
X65412066Y117704830D02*
X66893623Y117166082D01*
X66893623Y117166082D02*
X66354875Y118647640D01*
X66354875Y118647640D02*
X67769088Y117233426D01*
X68442523Y117906861D02*
X67028309Y119321074D01*
X69789393Y119523105D02*
X69789393Y119388418D01*
X69789393Y119388418D02*
X69654706Y119119044D01*
X69654706Y119119044D02*
X69520019Y118984357D01*
X69520019Y118984357D02*
X69250645Y118849670D01*
X69250645Y118849670D02*
X68981271Y118849670D01*
X68981271Y118849670D02*
X68779241Y118917013D01*
X68779241Y118917013D02*
X68442523Y119119044D01*
X68442523Y119119044D02*
X68240493Y119321074D01*
X68240493Y119321074D02*
X68038462Y119657792D01*
X68038462Y119657792D02*
X67971119Y119859822D01*
X67971119Y119859822D02*
X67971119Y120129196D01*
X67971119Y120129196D02*
X68105806Y120398570D01*
X68105806Y120398570D02*
X68240493Y120533257D01*
X68240493Y120533257D02*
X68509867Y120667944D01*
X68509867Y120667944D02*
X68644554Y120667944D01*
X70193454Y121543410D02*
X71136263Y120600601D01*
X69317989Y121745441D02*
X69991424Y120398570D01*
X69991424Y120398570D02*
X70866889Y121274036D01*
X177569138Y13808198D02*
X178983351Y12393985D01*
X178983351Y12393985D02*
X177501794Y12932733D01*
X177501794Y12932733D02*
X178040542Y11451175D01*
X178040542Y11451175D02*
X176626329Y12865389D01*
X175952894Y12191954D02*
X177367108Y10777741D01*
X174606024Y10575710D02*
X174606024Y10710397D01*
X174606024Y10710397D02*
X174740711Y10979771D01*
X174740711Y10979771D02*
X174875398Y11114458D01*
X174875398Y11114458D02*
X175144772Y11249145D01*
X175144772Y11249145D02*
X175414146Y11249145D01*
X175414146Y11249145D02*
X175616176Y11181802D01*
X175616176Y11181802D02*
X175952894Y10979771D01*
X175952894Y10979771D02*
X176154924Y10777741D01*
X176154924Y10777741D02*
X176356955Y10441023D01*
X176356955Y10441023D02*
X176424298Y10238993D01*
X176424298Y10238993D02*
X176424298Y9969619D01*
X176424298Y9969619D02*
X176289611Y9700245D01*
X176289611Y9700245D02*
X176154924Y9565558D01*
X176154924Y9565558D02*
X175885550Y9430871D01*
X175885550Y9430871D02*
X175750863Y9430871D01*
X175212115Y8892123D02*
X175212115Y8757436D01*
X175212115Y8757436D02*
X175144772Y8555405D01*
X175144772Y8555405D02*
X174808054Y8218687D01*
X174808054Y8218687D02*
X174606024Y8151344D01*
X174606024Y8151344D02*
X174471337Y8151344D01*
X174471337Y8151344D02*
X174269306Y8218687D01*
X174269306Y8218687D02*
X174134619Y8353374D01*
X174134619Y8353374D02*
X173999932Y8622749D01*
X173999932Y8622749D02*
X173999932Y10238993D01*
X173999932Y10238993D02*
X173124467Y9363527D01*
X105331102Y63455502D02*
X106283483Y63455502D01*
X105069197Y62884074D02*
X105985864Y64884074D01*
X105985864Y64884074D02*
X106402531Y62884074D01*
X107319198Y64884074D02*
X107116817Y63265026D01*
X107116817Y63265026D02*
X107188245Y63074550D01*
X107188245Y63074550D02*
X107271579Y62979312D01*
X107271579Y62979312D02*
X107450150Y62884074D01*
X107450150Y62884074D02*
X107831103Y62884074D01*
X107831103Y62884074D02*
X108033483Y62979312D01*
X108033483Y62979312D02*
X108140626Y63074550D01*
X108140626Y63074550D02*
X108259674Y63265026D01*
X108259674Y63265026D02*
X108462055Y64884074D01*
X109164436Y62884074D02*
X109414436Y64884074D01*
X109414436Y64884074D02*
X109890626Y64884074D01*
X109890626Y64884074D02*
X110164436Y64788836D01*
X110164436Y64788836D02*
X110331102Y64598359D01*
X110331102Y64598359D02*
X110402531Y64407883D01*
X110402531Y64407883D02*
X110450150Y64026931D01*
X110450150Y64026931D02*
X110414436Y63741216D01*
X110414436Y63741216D02*
X110271579Y63360264D01*
X110271579Y63360264D02*
X110152531Y63169788D01*
X110152531Y63169788D02*
X109938245Y62979312D01*
X109938245Y62979312D02*
X109640626Y62884074D01*
X109640626Y62884074D02*
X109164436Y62884074D01*
X111164436Y62884074D02*
X111414436Y64884074D01*
X112747769Y64884074D02*
X113128722Y64884074D01*
X113128722Y64884074D02*
X113307293Y64788836D01*
X113307293Y64788836D02*
X113473960Y64598359D01*
X113473960Y64598359D02*
X113521579Y64217407D01*
X113521579Y64217407D02*
X113438245Y63550740D01*
X113438245Y63550740D02*
X113295388Y63169788D01*
X113295388Y63169788D02*
X113081102Y62979312D01*
X113081102Y62979312D02*
X112878722Y62884074D01*
X112878722Y62884074D02*
X112497769Y62884074D01*
X112497769Y62884074D02*
X112319198Y62979312D01*
X112319198Y62979312D02*
X112152531Y63169788D01*
X112152531Y63169788D02*
X112104912Y63550740D01*
X112104912Y63550740D02*
X112188245Y64217407D01*
X112188245Y64217407D02*
X112331102Y64598359D01*
X112331102Y64598359D02*
X112545388Y64788836D01*
X112545388Y64788836D02*
X112747769Y64884074D01*
X109276340Y60691693D02*
X109550149Y60596455D01*
X109550149Y60596455D02*
X109633483Y60501216D01*
X109633483Y60501216D02*
X109704911Y60310740D01*
X109704911Y60310740D02*
X109669197Y60025026D01*
X109669197Y60025026D02*
X109550149Y59834550D01*
X109550149Y59834550D02*
X109443006Y59739312D01*
X109443006Y59739312D02*
X109240626Y59644074D01*
X109240626Y59644074D02*
X108478721Y59644074D01*
X108478721Y59644074D02*
X108728721Y61644074D01*
X108728721Y61644074D02*
X109395387Y61644074D01*
X109395387Y61644074D02*
X109573959Y61548836D01*
X109573959Y61548836D02*
X109657292Y61453597D01*
X109657292Y61453597D02*
X109728721Y61263121D01*
X109728721Y61263121D02*
X109704911Y61072645D01*
X109704911Y61072645D02*
X109585864Y60882169D01*
X109585864Y60882169D02*
X109478721Y60786931D01*
X109478721Y60786931D02*
X109276340Y60691693D01*
X109276340Y60691693D02*
X108609673Y60691693D01*
X111109673Y61644074D02*
X111490626Y61644074D01*
X111490626Y61644074D02*
X111669197Y61548836D01*
X111669197Y61548836D02*
X111835864Y61358359D01*
X111835864Y61358359D02*
X111883483Y60977407D01*
X111883483Y60977407D02*
X111800149Y60310740D01*
X111800149Y60310740D02*
X111657292Y59929788D01*
X111657292Y59929788D02*
X111443006Y59739312D01*
X111443006Y59739312D02*
X111240626Y59644074D01*
X111240626Y59644074D02*
X110859673Y59644074D01*
X110859673Y59644074D02*
X110681102Y59739312D01*
X110681102Y59739312D02*
X110514435Y59929788D01*
X110514435Y59929788D02*
X110466816Y60310740D01*
X110466816Y60310740D02*
X110550149Y60977407D01*
X110550149Y60977407D02*
X110693006Y61358359D01*
X110693006Y61358359D02*
X110907292Y61548836D01*
X110907292Y61548836D02*
X111109673Y61644074D01*
X112550149Y60215502D02*
X113502530Y60215502D01*
X112288244Y59644074D02*
X113204911Y61644074D01*
X113204911Y61644074D02*
X113621578Y59644074D01*
X115431102Y59644074D02*
X114883483Y60596455D01*
X114288245Y59644074D02*
X114538245Y61644074D01*
X114538245Y61644074D02*
X115300150Y61644074D01*
X115300150Y61644074D02*
X115478721Y61548836D01*
X115478721Y61548836D02*
X115562054Y61453597D01*
X115562054Y61453597D02*
X115633483Y61263121D01*
X115633483Y61263121D02*
X115597769Y60977407D01*
X115597769Y60977407D02*
X115478721Y60786931D01*
X115478721Y60786931D02*
X115371578Y60691693D01*
X115371578Y60691693D02*
X115169197Y60596455D01*
X115169197Y60596455D02*
X114407292Y60596455D01*
X116288245Y59644074D02*
X116538245Y61644074D01*
X116538245Y61644074D02*
X117014435Y61644074D01*
X117014435Y61644074D02*
X117288245Y61548836D01*
X117288245Y61548836D02*
X117454911Y61358359D01*
X117454911Y61358359D02*
X117526340Y61167883D01*
X117526340Y61167883D02*
X117573959Y60786931D01*
X117573959Y60786931D02*
X117538245Y60501216D01*
X117538245Y60501216D02*
X117395388Y60120264D01*
X117395388Y60120264D02*
X117276340Y59929788D01*
X117276340Y59929788D02*
X117062054Y59739312D01*
X117062054Y59739312D02*
X116764435Y59644074D01*
X116764435Y59644074D02*
X116288245Y59644074D01*
D16*
%TO.C,*%
%TO.C,U9*%
X108508768Y91257458D02*
X108746864Y91257458D01*
X108651626Y91019363D02*
X108746864Y91257458D01*
X108746864Y91257458D02*
X108651626Y91495553D01*
X108937340Y91114601D02*
X108746864Y91257458D01*
X108746864Y91257458D02*
X108937340Y91400315D01*
X108508768Y91257458D02*
X108746864Y91257458D01*
X108651626Y91019363D02*
X108746864Y91257458D01*
X108746864Y91257458D02*
X108651626Y91495553D01*
X108937340Y91114601D02*
X108746864Y91257458D01*
X108746864Y91257458D02*
X108937340Y91400315D01*
%TO.C,*%
D17*
%TO.C,R53*%
X99872888Y82761578D02*
X99872888Y83236094D01*
X100917888Y82761578D02*
X100917888Y83236094D01*
%TO.C,C62*%
X121987552Y37858836D02*
X122203224Y37858836D01*
X121987552Y37138836D02*
X122203224Y37138836D01*
%TO.C,C78*%
X131660724Y36128836D02*
X131445052Y36128836D01*
X131660724Y36848836D02*
X131445052Y36848836D01*
%TO.C,R43*%
X105817888Y94636094D02*
X105817888Y94161578D01*
X104772888Y94636094D02*
X104772888Y94161578D01*
%TO.C,C51*%
X144887552Y64758836D02*
X145103224Y64758836D01*
X144887552Y64038836D02*
X145103224Y64038836D01*
%TO.C,R8*%
X140649029Y60618836D02*
X140341747Y60618836D01*
X140649029Y61378836D02*
X140341747Y61378836D01*
%TO.C,R41*%
X140049029Y74018836D02*
X139741747Y74018836D01*
X140049029Y74778836D02*
X139741747Y74778836D01*
%TO.C,C57*%
X141287552Y67178836D02*
X141503224Y67178836D01*
X141287552Y66458836D02*
X141503224Y66458836D01*
D18*
%TO.C,U12*%
X94275388Y77013836D02*
X94275388Y77013836D01*
X94375388Y77013836D02*
X94375388Y77013836D01*
X94375388Y77013836D02*
G75*
G03*
X94275388Y77013836I-50000J0D01*
G01*
X94275388Y77013836D02*
G75*
G03*
X94375388Y77013836I50000J0D01*
G01*
D17*
%TO.C,U1*%
X-7559970Y73499980D02*
X-7559970Y71824980D01*
X-7559970Y73499980D02*
X-7559970Y74149980D01*
X-4439970Y73499980D02*
X-4439970Y72849980D01*
X-4439970Y73499980D02*
X-4439970Y74149980D01*
%TO.C,R33*%
X136241747Y59278836D02*
X136549029Y59278836D01*
X136241747Y58518836D02*
X136549029Y58518836D01*
%TO.C,R56*%
X143549029Y67918836D02*
X143241747Y67918836D01*
X143549029Y68678836D02*
X143241747Y68678836D01*
%TO.C,C2*%
X-3859970Y72892144D02*
X-3859970Y73107816D01*
X-3139970Y72892144D02*
X-3139970Y73107816D01*
%TO.C,R38*%
X143549029Y68918836D02*
X143241747Y68918836D01*
X143549029Y69678836D02*
X143241747Y69678836D01*
%TO.C,R49*%
X125272888Y48361578D02*
X125272888Y48836094D01*
X126317888Y48361578D02*
X126317888Y48836094D01*
%TO.C,C68*%
X128835388Y84991000D02*
X128835388Y85206672D01*
X129555388Y84991000D02*
X129555388Y85206672D01*
%TO.C,R37*%
X143449029Y63018836D02*
X143141747Y63018836D01*
X143449029Y63778836D02*
X143141747Y63778836D01*
D19*
%TO.C,J5*%
X-11699970Y46969980D02*
X-9499970Y46969980D01*
X-15169970Y46969980D02*
X-15169970Y38029980D01*
X-11699970Y38029980D02*
X-9499970Y38029980D01*
D11*
X-6219970Y45547980D02*
G75*
G03*
X-6219970Y45547980I-100000J0D01*
G01*
D17*
%TO.C,R9*%
X143449029Y62018836D02*
X143141747Y62018836D01*
X143449029Y62778836D02*
X143141747Y62778836D01*
%TO.C,R1*%
X16846389Y38629980D02*
X17153671Y38629980D01*
X16846389Y37869980D02*
X17153671Y37869980D01*
%TO.C,J2*%
X16847530Y13342480D02*
X-7032470Y13342480D01*
X16847530Y30332480D02*
X16847530Y13342480D01*
X10377530Y12612480D02*
X9877530Y13212480D01*
X10377530Y12612480D02*
X9377530Y12612480D01*
X9377530Y12612480D02*
X9877530Y13212480D01*
X-7042470Y30332480D02*
X16847530Y30332480D01*
X-16372470Y13342480D02*
X-10042470Y13342480D01*
X-16372470Y30332480D02*
X-10032470Y30332480D01*
X-16372470Y30332480D02*
X-16372470Y13342480D01*
%TO.C,C41*%
X93487552Y79458836D02*
X93703224Y79458836D01*
X93487552Y78738836D02*
X93703224Y78738836D01*
%TO.C,R14*%
X-6153611Y76879980D02*
X-5846329Y76879980D01*
X-6153611Y76119980D02*
X-5846329Y76119980D01*
%TO.C,C73*%
X-1609970Y34639980D02*
X1410030Y34639980D01*
X1410030Y34639980D02*
X1410030Y38849980D01*
X-1609970Y38849980D02*
X-1609970Y34639980D01*
%TO.C,R2*%
X16846389Y37629980D02*
X17153671Y37629980D01*
X16846389Y36869980D02*
X17153671Y36869980D01*
%TO.C,R35*%
X132601747Y97788836D02*
X132909029Y97788836D01*
X132601747Y97028836D02*
X132909029Y97028836D01*
%TO.C,C71*%
X143160388Y84991000D02*
X143160388Y85206672D01*
X143880388Y84991000D02*
X143880388Y85206672D01*
%TO.C,CM4_MODULE1*%
X59700030Y18899980D02*
X59700030Y66899980D01*
X58510030Y33999980D02*
X54810030Y33999980D01*
X58510030Y56799980D02*
X58510030Y55799980D01*
X58510030Y56799980D02*
X54810030Y56799980D01*
X56200030Y70399980D02*
X23200030Y70399980D01*
X54810030Y56799980D02*
X54810030Y55799980D01*
X24590030Y33999980D02*
X24590030Y34999980D01*
X24590030Y33999980D02*
X20810030Y33999980D01*
X24590030Y56799980D02*
X24590030Y55799980D01*
X24590030Y56799980D02*
X20810030Y56799980D01*
X23200030Y15399980D02*
X56200030Y15399980D01*
X20810030Y33999980D02*
X20810030Y34999980D01*
X20810030Y56799980D02*
X20810030Y55799980D01*
X19700030Y66899980D02*
X19700030Y18899980D01*
X56200030Y15399980D02*
G75*
G03*
X59700030Y18899980I1J3499999D01*
G01*
X59700030Y66899980D02*
G75*
G03*
X56200030Y70399980I-3499999J1D01*
G01*
X19700030Y18899980D02*
G75*
G03*
X23200030Y15399980I3500000J0D01*
G01*
X23200030Y70399980D02*
G75*
G03*
X19700030Y66899980I0J-3500000D01*
G01*
%TO.C,U5*%
X21890030Y22459980D02*
X23190030Y22459980D01*
X21890030Y25259980D02*
X22890030Y25259980D01*
%TO.C,U3*%
X-4749970Y43149980D02*
X-6049970Y43149980D01*
X-4749970Y40349980D02*
X-5749970Y40349980D01*
%TO.C,C54*%
X137655388Y60906672D02*
X137655388Y60691000D01*
X136935388Y60906672D02*
X136935388Y60691000D01*
%TO.C,R4*%
X16846389Y35629980D02*
X17153671Y35629980D01*
X16846389Y34869980D02*
X17153671Y34869980D01*
%TO.C,J6*%
X14670030Y75669980D02*
X14670030Y76999980D01*
X16000030Y75669980D02*
X14670030Y75669980D01*
X17270030Y75669980D02*
X40190030Y75669980D01*
X17270030Y75669980D02*
X17270030Y78329980D01*
X40190030Y75669980D02*
X40190030Y78329980D01*
X17270030Y78329980D02*
X40190030Y78329980D01*
%TO.C,C46*%
X131903224Y66538836D02*
X131687552Y66538836D01*
X131903224Y67258836D02*
X131687552Y67258836D01*
%TO.C,C76*%
X115047552Y92638836D02*
X115263224Y92638836D01*
X115047552Y91918836D02*
X115263224Y91918836D01*
%TO.C,R48*%
X123072888Y48361578D02*
X123072888Y48836094D01*
X124117888Y48361578D02*
X124117888Y48836094D01*
D18*
%TO.C,U13*%
X114575388Y92978836D02*
X114575388Y92978836D01*
X114575388Y92878836D02*
X114575388Y92878836D01*
X114575388Y92878836D02*
G75*
G03*
X114575388Y92978836I0J50000D01*
G01*
X114575388Y92978836D02*
G75*
G03*
X114575388Y92878836I0J-50000D01*
G01*
D17*
%TO.C,C45*%
X135835388Y70391000D02*
X135835388Y70606672D01*
X136555388Y70391000D02*
X136555388Y70606672D01*
%TO.C,R25*%
X136732646Y72176336D02*
X136258130Y72176336D01*
X136732646Y73221336D02*
X136258130Y73221336D01*
%TO.C,R11*%
X16846389Y34629980D02*
X17153671Y34629980D01*
X16846389Y33869980D02*
X17153671Y33869980D01*
%TO.C,R27*%
X129271747Y65588836D02*
X129579029Y65588836D01*
X129271747Y64828836D02*
X129579029Y64828836D01*
%TO.C,C1*%
X-8592134Y72239980D02*
X-8807806Y72239980D01*
X-8592134Y72959980D02*
X-8807806Y72959980D01*
%TO.C,U6*%
X21915030Y27269980D02*
X23215030Y27269980D01*
X21915030Y30069980D02*
X22915030Y30069980D01*
%TO.C,C44*%
X133435388Y70391000D02*
X133435388Y70606672D01*
X134155388Y70391000D02*
X134155388Y70606672D01*
%TO.C,R21*%
X96389Y46369980D02*
X403671Y46369980D01*
X96389Y45609980D02*
X403671Y45609980D01*
%TO.C,C82*%
X141135388Y93608836D02*
X141135388Y90588836D01*
X141135388Y90588836D02*
X145345388Y90588836D01*
X145345388Y93608836D02*
X141135388Y93608836D01*
%TO.C,R18*%
X-3903611Y79379980D02*
X-3596329Y79379980D01*
X-3903611Y78619980D02*
X-3596329Y78619980D01*
%TO.C,C58*%
X110455388Y90906672D02*
X110455388Y90691000D01*
X109735388Y90906672D02*
X109735388Y90691000D01*
%TO.C,C63*%
X93487552Y81658836D02*
X93703224Y81658836D01*
X93487552Y80938836D02*
X93703224Y80938836D01*
%TO.C,R46*%
X121517888Y34436094D02*
X121517888Y33961578D01*
X120472888Y34436094D02*
X120472888Y33961578D01*
%TO.C,R51*%
X101572888Y82761578D02*
X101572888Y83236094D01*
X102617888Y82761578D02*
X102617888Y83236094D01*
%TO.C,C77*%
X131630724Y33218836D02*
X131415052Y33218836D01*
X131630724Y33938836D02*
X131415052Y33938836D01*
%TO.C,C65*%
X121803224Y45938836D02*
X121587552Y45938836D01*
X121803224Y46658836D02*
X121587552Y46658836D01*
%TO.C,R20*%
X-1903611Y47619980D02*
X-1596329Y47619980D01*
X-1903611Y46859980D02*
X-1596329Y46859980D01*
D18*
%TO.C,U11*%
X142595388Y89898836D02*
X142595388Y89898836D01*
X142495388Y89898836D02*
X142495388Y89898836D01*
X142495388Y89898836D02*
G75*
G03*
X142595388Y89898836I50000J0D01*
G01*
X142595388Y89898836D02*
G75*
G03*
X142495388Y89898836I-50000J0D01*
G01*
D16*
%TO.C,U19*%
X23350530Y106229980D02*
X23500530Y106229980D01*
X24950530Y104754980D02*
X24950530Y103844980D01*
X21900530Y104754980D02*
X21900530Y103844980D01*
X23350530Y102369980D02*
X23500530Y102369980D01*
D13*
X22700530Y101969980D02*
G75*
G03*
X22700530Y101969980I-125000J0D01*
G01*
D17*
%TO.C,U7*%
X620030Y70089980D02*
X620030Y68789980D01*
X3420030Y70089980D02*
X3420030Y69089980D01*
%TO.C,R24*%
X135349029Y73718836D02*
X135041747Y73718836D01*
X135349029Y74478836D02*
X135041747Y74478836D01*
%TO.C,C60*%
X93687552Y96058836D02*
X93903224Y96058836D01*
X93687552Y95338836D02*
X93903224Y95338836D01*
%TO.C,R12*%
X-3596329Y76119980D02*
X-3903611Y76119980D01*
X-3596329Y76879980D02*
X-3903611Y76879980D01*
%TO.C,R45*%
X101617888Y94636094D02*
X101617888Y94161578D01*
X100572888Y94636094D02*
X100572888Y94161578D01*
%TO.C,C53*%
X141287552Y65158836D02*
X141503224Y65158836D01*
X141287552Y64438836D02*
X141503224Y64438836D01*
%TO.C,C61*%
X93687552Y94858836D02*
X93903224Y94858836D01*
X93687552Y94138836D02*
X93903224Y94138836D01*
%TO.C,R7*%
X140649029Y59618836D02*
X140341747Y59618836D01*
X140649029Y60378836D02*
X140341747Y60378836D01*
%TO.C,R22*%
X403671Y46859980D02*
X96389Y46859980D01*
X403671Y47619980D02*
X96389Y47619980D01*
%TO.C,R13*%
X-3903611Y78129980D02*
X-3596329Y78129980D01*
X-3903611Y77369980D02*
X-3596329Y77369980D01*
%TO.C,R31*%
X134075388Y73752477D02*
X134075388Y73445195D01*
X133315388Y73752477D02*
X133315388Y73445195D01*
%TO.C,C66*%
X110355388Y84906672D02*
X110355388Y84691000D01*
X109635388Y84906672D02*
X109635388Y84691000D01*
D18*
%TO.C,U14*%
X132127888Y35708836D02*
X132127888Y35708836D01*
X132127888Y35808836D02*
X132127888Y35808836D01*
X132127888Y35808836D02*
G75*
G03*
X132127888Y35708836I0J-50000D01*
G01*
X132127888Y35708836D02*
G75*
G03*
X132127888Y35808836I0J50000D01*
G01*
D17*
%TO.C,C47*%
X131903224Y63138836D02*
X131687552Y63138836D01*
X131903224Y63858836D02*
X131687552Y63858836D01*
%TO.C,C103*%
X140010968Y75588836D02*
X139729808Y75588836D01*
X140010968Y76608836D02*
X139729808Y76608836D01*
%TO.C,C50*%
X145055388Y89106672D02*
X145055388Y88891000D01*
X144335388Y89106672D02*
X144335388Y88891000D01*
%TO.C,R26*%
X133635388Y58425195D02*
X133635388Y58732477D01*
X134395388Y58425195D02*
X134395388Y58732477D01*
%TO.C,R23*%
X133649029Y75318836D02*
X133341747Y75318836D01*
X133649029Y76078836D02*
X133341747Y76078836D01*
%TO.C,R54*%
X140649029Y58618836D02*
X140341747Y58618836D01*
X140649029Y59378836D02*
X140341747Y59378836D01*
D16*
%TO.C,U4*%
X29335030Y106229980D02*
X29485030Y106229980D01*
X30935030Y104754980D02*
X30935030Y103844980D01*
X27885030Y104754980D02*
X27885030Y103844980D01*
X29335030Y102369980D02*
X29485030Y102369980D01*
D13*
X28685030Y101969980D02*
G75*
G03*
X28685030Y101969980I-125000J0D01*
G01*
D17*
%TO.C,R34*%
X136241747Y57578836D02*
X136549029Y57578836D01*
X136241747Y56818836D02*
X136549029Y56818836D01*
%TO.C,C59*%
X108535388Y90691000D02*
X108535388Y90906672D01*
X109255388Y90691000D02*
X109255388Y90906672D01*
%TO.C,R55*%
X143449029Y61018836D02*
X143141747Y61018836D01*
X143449029Y61778836D02*
X143141747Y61778836D01*
%TO.C,U2*%
X120935388Y41798836D02*
X120935388Y38348836D01*
X120935388Y41798836D02*
X120935388Y43748836D01*
X126055388Y41798836D02*
X126055388Y39848836D01*
X126055388Y41798836D02*
X126055388Y43748836D01*
%TO.C,C55*%
X136935388Y69891000D02*
X136935388Y70106672D01*
X137655388Y69891000D02*
X137655388Y70106672D01*
D16*
%TO.C,U23*%
X11355030Y106229980D02*
X11505030Y106229980D01*
X12955030Y104754980D02*
X12955030Y103844980D01*
X9905030Y104754980D02*
X9905030Y103844980D01*
X11355030Y102369980D02*
X11505030Y102369980D01*
D13*
X10705030Y101969980D02*
G75*
G03*
X10705030Y101969980I-125000J0D01*
G01*
D17*
%TO.C,R36*%
X40919998Y77014859D02*
X40919998Y77322141D01*
X41679998Y77014859D02*
X41679998Y77322141D01*
%TO.C,C52*%
X144887552Y65758836D02*
X145103224Y65758836D01*
X144887552Y65038836D02*
X145103224Y65038836D01*
D20*
%TO.C,J1*%
X-16321470Y69407480D02*
X-13519470Y69407480D01*
X-16321470Y69407480D02*
X-16321470Y54407480D01*
X-16321470Y54407480D02*
X-13519470Y54407480D01*
X-3043470Y57353480D02*
G75*
G03*
X-3043470Y57353480I-114000J0D01*
G01*
D17*
%TO.C,U9*%
X97915388Y90434758D02*
X97915388Y86269158D01*
X108075388Y86269158D02*
X108075388Y90434758D01*
D21*
X107705665Y92551958D02*
G75*
G03*
X107705665Y92551958I-210277J0D01*
G01*
D11*
%TO.C,U10*%
X133245388Y68748836D02*
X133245388Y62248836D01*
X133245388Y68748836D02*
X133895388Y68748836D01*
X133895388Y62248836D02*
X133245388Y62248836D01*
X139095388Y68748836D02*
X139745388Y68748836D01*
X139745388Y68748836D02*
X139745388Y62248836D01*
X139745388Y62248836D02*
X139095388Y62248836D01*
D17*
%TO.C,R40*%
X140049029Y73018836D02*
X139741747Y73018836D01*
X140049029Y73778836D02*
X139741747Y73778836D01*
%TO.C,C64*%
X93487552Y80558836D02*
X93703224Y80558836D01*
X93487552Y79838836D02*
X93703224Y79838836D01*
%TO.C,R32*%
X136258130Y76221336D02*
X136732646Y76221336D01*
X136258130Y75176336D02*
X136732646Y75176336D01*
%TO.C,C75*%
X115077552Y95398836D02*
X115293224Y95398836D01*
X115077552Y94678836D02*
X115293224Y94678836D01*
%TO.C,C69*%
X129935388Y84991000D02*
X129935388Y85206672D01*
X130655388Y84991000D02*
X130655388Y85206672D01*
%TO.C,R57*%
X140049029Y72018836D02*
X139741747Y72018836D01*
X140049029Y72778836D02*
X139741747Y72778836D01*
%TO.C,R28*%
X104317888Y79936094D02*
X104317888Y79461578D01*
X103272888Y79936094D02*
X103272888Y79461578D01*
%TO.C,R29*%
X100917888Y79936094D02*
X100917888Y79461578D01*
X99872888Y79936094D02*
X99872888Y79461578D01*
%TO.C,C56*%
X141287552Y66188836D02*
X141503224Y66188836D01*
X141287552Y65468836D02*
X141503224Y65468836D01*
%TO.C,C74*%
X123655388Y66101000D02*
X123655388Y66316672D01*
X124375388Y66101000D02*
X124375388Y66316672D01*
D11*
%TO.C,PS2*%
X131220388Y87518836D02*
X133145388Y87518836D01*
X133495388Y87573836D02*
X140295388Y87573836D01*
X133495388Y77223836D02*
X133495388Y87573836D01*
X140295388Y87573836D02*
X140295388Y77223836D01*
X140295388Y77223836D02*
X133495388Y77223836D01*
D17*
%TO.C,C39*%
X18412194Y17359980D02*
X18627866Y17359980D01*
X18412194Y16639980D02*
X18627866Y16639980D01*
%TO.C,R17*%
X131641747Y62778836D02*
X131949029Y62778836D01*
X131641747Y62018836D02*
X131949029Y62018836D01*
%TO.C,R19*%
X-1596329Y45609980D02*
X-1903611Y45609980D01*
X-1596329Y46369980D02*
X-1903611Y46369980D01*
%TO.C,C67*%
X108535388Y84691000D02*
X108535388Y84906672D01*
X109255388Y84691000D02*
X109255388Y84906672D01*
%TO.C,J7*%
X23670030Y7669980D02*
X23670030Y8999980D01*
X25000030Y7669980D02*
X23670030Y7669980D01*
X26270030Y7669980D02*
X49190030Y7669980D01*
X26270030Y7669980D02*
X26270030Y10329980D01*
X49190030Y7669980D02*
X49190030Y10329980D01*
X26270030Y10329980D02*
X49190030Y10329980D01*
D19*
%TO.C,J4*%
X7240030Y76529980D02*
X7240030Y74329980D01*
X7240030Y79999980D02*
X-1699970Y79999980D01*
X-1699970Y76529980D02*
X-1699970Y74329980D01*
D11*
X5918030Y71149980D02*
G75*
G03*
X5918030Y71149980I-100000J0D01*
G01*
D17*
%TO.C,R30*%
X102617888Y79936094D02*
X102617888Y79461578D01*
X101572888Y79936094D02*
X101572888Y79461578D01*
%TO.C,C43*%
X134635388Y70391000D02*
X134635388Y70606672D01*
X135355388Y70391000D02*
X135355388Y70606672D01*
%TO.C,C48*%
X131903224Y65338836D02*
X131687552Y65338836D01*
X131903224Y66058836D02*
X131687552Y66058836D01*
%TO.C,R15*%
X-5846329Y77369980D02*
X-6153611Y77369980D01*
X-5846329Y78129980D02*
X-6153611Y78129980D01*
%TO.C,X1*%
X128190388Y68108836D02*
X125040388Y68108836D01*
X125040388Y68108836D02*
X125040388Y64308836D01*
%TO.C,C49*%
X142255388Y89086672D02*
X142255388Y88871000D01*
X141535388Y89086672D02*
X141535388Y88871000D01*
%TO.C,C42*%
X94735388Y77991000D02*
X94735388Y78206672D01*
X95455388Y77991000D02*
X95455388Y78206672D01*
D16*
%TO.C,U21*%
X17355030Y106229980D02*
X17505030Y106229980D01*
X18955030Y104754980D02*
X18955030Y103844980D01*
X15905030Y104754980D02*
X15905030Y103844980D01*
X17355030Y102369980D02*
X17505030Y102369980D01*
D13*
X16705030Y101969980D02*
G75*
G03*
X16705030Y101969980I-125000J0D01*
G01*
D17*
%TO.C,R16*%
X-6153611Y79379980D02*
X-5846329Y79379980D01*
X-6153611Y78619980D02*
X-5846329Y78619980D01*
%TO.C,R3*%
X16846389Y36629980D02*
X17153671Y36629980D01*
X16846389Y35869980D02*
X17153671Y35869980D01*
%TO.C,R39*%
X143549029Y69918836D02*
X143241747Y69918836D01*
X143549029Y70678836D02*
X143241747Y70678836D01*
D11*
%TO.C,PS1*%
X96315388Y93473836D02*
X96315388Y91548836D01*
X96370388Y91198836D02*
X96370388Y84398836D01*
X86020388Y91198836D02*
X96370388Y91198836D01*
X96370388Y84398836D02*
X86020388Y84398836D01*
X86020388Y84398836D02*
X86020388Y91198836D01*
D17*
%TO.C,R10*%
X16846389Y33679980D02*
X17153671Y33679980D01*
X16846389Y32919980D02*
X17153671Y32919980D01*
%TO.C,C70*%
X144335388Y84991000D02*
X144335388Y85206672D01*
X145055388Y84991000D02*
X145055388Y85206672D01*
%TO.C,R47*%
X124817888Y34436094D02*
X124817888Y33961578D01*
X123772888Y34436094D02*
X123772888Y33961578D01*
%TD*%
M02*
