%TF.GenerationSoftware,KiCad,Pcbnew,(7.0.0)*%
%TF.CreationDate,2023-02-14T07:36:11+09:00*%
%TF.ProjectId,audio,61756469-6f2e-46b6-9963-61645f706362,rev?*%
%TF.SameCoordinates,Original*%
%TF.FileFunction,Profile,NP*%
%FSLAX46Y46*%
G04 Gerber Fmt 4.6, Leading zero omitted, Abs format (unit mm)*
G04 Created by KiCad (PCBNEW (7.0.0)) date 2023-02-14 07:36:11*
%MOMM*%
%LPD*%
G01*
G04 APERTURE LIST*
%TA.AperFunction,Profile*%
%ADD10C,0.100000*%
%TD*%
%TA.AperFunction,Profile*%
%ADD11C,0.150000*%
%TD*%
G04 APERTURE END LIST*
D10*
X-18000000Y-66100000D02*
X-14000000Y-66100000D01*
X-14000000Y-66100000D02*
X-14000000Y-75060000D01*
X-14000000Y-75060000D02*
X-18000000Y-75060000D01*
X-18000000Y-75060000D02*
X-18000000Y-66100000D01*
X-24000000Y-66100000D02*
X-20000000Y-66100000D01*
X-20000000Y-66100000D02*
X-20000000Y-75060000D01*
X-20000000Y-75060000D02*
X-24000000Y-75060000D01*
X-24000000Y-75060000D02*
X-24000000Y-66100000D01*
X-12000000Y-66100000D02*
X-8000000Y-66100000D01*
X-8000000Y-66100000D02*
X-8000000Y-75060000D01*
X-8000000Y-75060000D02*
X-12000000Y-75060000D01*
X-12000000Y-75060000D02*
X-12000000Y-66100000D01*
X193500000Y45000000D02*
X197000000Y41500000D01*
D11*
X75000000Y0D02*
X75000000Y-75000000D01*
D10*
X79260000Y-23490000D02*
X132500000Y-23500000D01*
X91500000Y-46500000D02*
X77000000Y-46500000D01*
X79260000Y-23490000D02*
X77000000Y-23500000D01*
D11*
X0Y-75000000D02*
X0Y0D01*
D10*
X77000000Y-71500000D02*
X77000000Y-46500000D01*
X134500000Y-46500000D02*
X91500000Y-46500000D01*
X193500000Y-75000000D02*
X80500000Y-75000000D01*
X80500000Y45000000D02*
X193500000Y45000000D01*
X197000000Y-71500000D02*
X193500000Y-75000000D01*
X-5980000Y-66100000D02*
X-1980000Y-66100000D01*
X-1980000Y-66100000D02*
X-1980000Y-75060000D01*
X-1980000Y-75060000D02*
X-5980000Y-75060000D01*
X-5980000Y-75060000D02*
X-5980000Y-66100000D01*
X80500000Y45000000D02*
X77000000Y41500000D01*
X134500000Y-25500000D02*
G75*
G03*
X132500000Y-23500000I-2000000J0D01*
G01*
D11*
X75000000Y0D02*
X0Y0D01*
X0Y-75000000D02*
X75000000Y-75000000D01*
D10*
X197000000Y41500000D02*
X197000000Y-71500000D01*
X77000000Y-23500000D02*
X77000000Y41500000D01*
X77000000Y-71500000D02*
X80500000Y-75000000D01*
X134500000Y-25500000D02*
X134500000Y-46500000D01*
M02*
