%TF.GenerationSoftware,KiCad,Pcbnew,(7.0.0)*%
%TF.CreationDate,2023-02-14T21:30:46+09:00*%
%TF.ProjectId,audio,61756469-6f2e-46b6-9963-61645f706362,rev?*%
%TF.SameCoordinates,Original*%
%TF.FileFunction,Legend,Top*%
%TF.FilePolarity,Positive*%
%FSLAX46Y46*%
G04 Gerber Fmt 4.6, Leading zero omitted, Abs format (unit mm)*
G04 Created by KiCad (PCBNEW (7.0.0)) date 2023-02-14 21:30:46*
%MOMM*%
%LPD*%
G01*
G04 APERTURE LIST*
%ADD10C,1.000000*%
%ADD11C,0.200000*%
%ADD12C,0.460555*%
%ADD13C,0.250000*%
%ADD14C,0.750000*%
%ADD15C,0.500000*%
%ADD16C,0.150000*%
%ADD17C,0.120000*%
%ADD18C,0.100000*%
%ADD19C,0.127000*%
%ADD20C,0.254000*%
%ADD21C,0.420555*%
G04 APERTURE END LIST*
D10*
X210655919Y-138535000D02*
X180655919Y-138535000D01*
D11*
X203400000Y-72600000D02*
X203400000Y-71600000D01*
D10*
X150655919Y-64535000D02*
X202155919Y-64535000D01*
X180655900Y-111535000D02*
G75*
G03*
X178655919Y-109535000I-2000000J0D01*
G01*
D12*
X156830277Y-72200000D02*
G75*
G03*
X156830277Y-72200000I-230277J0D01*
G01*
D10*
X180755919Y-125435000D02*
X202355919Y-125435000D01*
D13*
X52860364Y-94710000D02*
G75*
G03*
X52860364Y-94710000I-125000J0D01*
G01*
D10*
X197155919Y-111735000D02*
X197255919Y-77935000D01*
D12*
X185869722Y-97700000D02*
G75*
G03*
X185869722Y-97700000I-230277J0D01*
G01*
D10*
X178655919Y-109535000D02*
X145655919Y-109535000D01*
X202155919Y-72035000D02*
X202155919Y-64535000D01*
X197155919Y-78035000D02*
X202155919Y-72035000D01*
X202355919Y-125435000D02*
X197155919Y-111735000D01*
D13*
X84475000Y-139200000D02*
G75*
G03*
X84475000Y-139200000I-125000J0D01*
G01*
D10*
X197255919Y-77935000D02*
X145655919Y-77935000D01*
D13*
X61675000Y-98100000D02*
G75*
G03*
X61675000Y-98100000I-125000J0D01*
G01*
D10*
X210655919Y-133935000D02*
X202355919Y-125435000D01*
D11*
X63200000Y-131900000D02*
X63200000Y-130900000D01*
D10*
X150655919Y-64535000D02*
X145655919Y-69535000D01*
D13*
X84375000Y-144200000D02*
G75*
G03*
X84375000Y-144200000I-125000J0D01*
G01*
D10*
X210655919Y-133935000D02*
X210655919Y-138535000D01*
D11*
X62700000Y-131400000D02*
X63700000Y-131400000D01*
X202900000Y-72100000D02*
X203900000Y-72100000D01*
D12*
X191169722Y-79500000D02*
G75*
G03*
X191169722Y-79500000I-230277J0D01*
G01*
D10*
X180655919Y-111535000D02*
X180655919Y-138535000D01*
D12*
X181769722Y-128700000D02*
G75*
G03*
X181769722Y-128700000I-230277J0D01*
G01*
X192969722Y-97900000D02*
G75*
G03*
X192969722Y-97900000I-230277J0D01*
G01*
D10*
X145655919Y-109535000D02*
X145655919Y-69535000D01*
D14*
X173463062Y-93494285D02*
X173873777Y-93637142D01*
X173873777Y-93637142D02*
X174588062Y-93637142D01*
X174588062Y-93637142D02*
X174891634Y-93494285D01*
X174891634Y-93494285D02*
X175052348Y-93351428D01*
X175052348Y-93351428D02*
X175230920Y-93065714D01*
X175230920Y-93065714D02*
X175266634Y-92780000D01*
X175266634Y-92780000D02*
X175159491Y-92494285D01*
X175159491Y-92494285D02*
X175034491Y-92351428D01*
X175034491Y-92351428D02*
X174766634Y-92208571D01*
X174766634Y-92208571D02*
X174213062Y-92065714D01*
X174213062Y-92065714D02*
X173945205Y-91922857D01*
X173945205Y-91922857D02*
X173820205Y-91780000D01*
X173820205Y-91780000D02*
X173713062Y-91494285D01*
X173713062Y-91494285D02*
X173748777Y-91208571D01*
X173748777Y-91208571D02*
X173927348Y-90922857D01*
X173927348Y-90922857D02*
X174088062Y-90780000D01*
X174088062Y-90780000D02*
X174391634Y-90637142D01*
X174391634Y-90637142D02*
X175105920Y-90637142D01*
X175105920Y-90637142D02*
X175516634Y-90780000D01*
X177391634Y-90637142D02*
X177963063Y-90637142D01*
X177963063Y-90637142D02*
X178230920Y-90780000D01*
X178230920Y-90780000D02*
X178480920Y-91065714D01*
X178480920Y-91065714D02*
X178552348Y-91637142D01*
X178552348Y-91637142D02*
X178427348Y-92637142D01*
X178427348Y-92637142D02*
X178213063Y-93208571D01*
X178213063Y-93208571D02*
X177891634Y-93494285D01*
X177891634Y-93494285D02*
X177588063Y-93637142D01*
X177588063Y-93637142D02*
X177016634Y-93637142D01*
X177016634Y-93637142D02*
X176748777Y-93494285D01*
X176748777Y-93494285D02*
X176498777Y-93208571D01*
X176498777Y-93208571D02*
X176427348Y-92637142D01*
X176427348Y-92637142D02*
X176552348Y-91637142D01*
X176552348Y-91637142D02*
X176766634Y-91065714D01*
X176766634Y-91065714D02*
X177088063Y-90780000D01*
X177088063Y-90780000D02*
X177391634Y-90637142D01*
X179963062Y-90637142D02*
X179659491Y-93065714D01*
X179659491Y-93065714D02*
X179766634Y-93351428D01*
X179766634Y-93351428D02*
X179891634Y-93494285D01*
X179891634Y-93494285D02*
X180159491Y-93637142D01*
X180159491Y-93637142D02*
X180730920Y-93637142D01*
X180730920Y-93637142D02*
X181034491Y-93494285D01*
X181034491Y-93494285D02*
X181195205Y-93351428D01*
X181195205Y-93351428D02*
X181373777Y-93065714D01*
X181373777Y-93065714D02*
X181677348Y-90637142D01*
X182730919Y-93637142D02*
X183105919Y-90637142D01*
X183105919Y-90637142D02*
X184445205Y-93637142D01*
X184445205Y-93637142D02*
X184820205Y-90637142D01*
X185873776Y-93637142D02*
X186248776Y-90637142D01*
X186248776Y-90637142D02*
X186963062Y-90637142D01*
X186963062Y-90637142D02*
X187373776Y-90780000D01*
X187373776Y-90780000D02*
X187623776Y-91065714D01*
X187623776Y-91065714D02*
X187730919Y-91351428D01*
X187730919Y-91351428D02*
X187802348Y-91922857D01*
X187802348Y-91922857D02*
X187748776Y-92351428D01*
X187748776Y-92351428D02*
X187534491Y-92922857D01*
X187534491Y-92922857D02*
X187355919Y-93208571D01*
X187355919Y-93208571D02*
X187034491Y-93494285D01*
X187034491Y-93494285D02*
X186588062Y-93637142D01*
X186588062Y-93637142D02*
X185873776Y-93637142D01*
X188873776Y-93637142D02*
X189248776Y-90637142D01*
X190248776Y-90637142D02*
X191963062Y-90637142D01*
X190730919Y-93637142D02*
X191105919Y-90637142D01*
D15*
X102281633Y-126899761D02*
X102531633Y-124899761D01*
X102531633Y-124899761D02*
X103007823Y-124899761D01*
X103007823Y-124899761D02*
X103281633Y-124995000D01*
X103281633Y-124995000D02*
X103448299Y-125185476D01*
X103448299Y-125185476D02*
X103519728Y-125375952D01*
X103519728Y-125375952D02*
X103567347Y-125756904D01*
X103567347Y-125756904D02*
X103531633Y-126042619D01*
X103531633Y-126042619D02*
X103388776Y-126423571D01*
X103388776Y-126423571D02*
X103269728Y-126614047D01*
X103269728Y-126614047D02*
X103055442Y-126804523D01*
X103055442Y-126804523D02*
X102757823Y-126899761D01*
X102757823Y-126899761D02*
X102281633Y-126899761D01*
X104198299Y-126804523D02*
X104472109Y-126899761D01*
X104472109Y-126899761D02*
X104948299Y-126899761D01*
X104948299Y-126899761D02*
X105150680Y-126804523D01*
X105150680Y-126804523D02*
X105257823Y-126709285D01*
X105257823Y-126709285D02*
X105376871Y-126518809D01*
X105376871Y-126518809D02*
X105400680Y-126328333D01*
X105400680Y-126328333D02*
X105329252Y-126137857D01*
X105329252Y-126137857D02*
X105245918Y-126042619D01*
X105245918Y-126042619D02*
X105067347Y-125947380D01*
X105067347Y-125947380D02*
X104698299Y-125852142D01*
X104698299Y-125852142D02*
X104519728Y-125756904D01*
X104519728Y-125756904D02*
X104436395Y-125661666D01*
X104436395Y-125661666D02*
X104364966Y-125471190D01*
X104364966Y-125471190D02*
X104388776Y-125280714D01*
X104388776Y-125280714D02*
X104507823Y-125090238D01*
X104507823Y-125090238D02*
X104614966Y-124995000D01*
X104614966Y-124995000D02*
X104817347Y-124899761D01*
X104817347Y-124899761D02*
X105293538Y-124899761D01*
X105293538Y-124899761D02*
X105567347Y-124995000D01*
X106186395Y-126899761D02*
X106436395Y-124899761D01*
X106436395Y-124899761D02*
X107198300Y-124899761D01*
X107198300Y-124899761D02*
X107376871Y-124995000D01*
X107376871Y-124995000D02*
X107460204Y-125090238D01*
X107460204Y-125090238D02*
X107531633Y-125280714D01*
X107531633Y-125280714D02*
X107495919Y-125566428D01*
X107495919Y-125566428D02*
X107376871Y-125756904D01*
X107376871Y-125756904D02*
X107269728Y-125852142D01*
X107269728Y-125852142D02*
X107067347Y-125947380D01*
X107067347Y-125947380D02*
X106305442Y-125947380D01*
X104726871Y-129092142D02*
X105000680Y-129187380D01*
X105000680Y-129187380D02*
X105084014Y-129282619D01*
X105084014Y-129282619D02*
X105155442Y-129473095D01*
X105155442Y-129473095D02*
X105119728Y-129758809D01*
X105119728Y-129758809D02*
X105000680Y-129949285D01*
X105000680Y-129949285D02*
X104893537Y-130044523D01*
X104893537Y-130044523D02*
X104691157Y-130139761D01*
X104691157Y-130139761D02*
X103929252Y-130139761D01*
X103929252Y-130139761D02*
X104179252Y-128139761D01*
X104179252Y-128139761D02*
X104845918Y-128139761D01*
X104845918Y-128139761D02*
X105024490Y-128235000D01*
X105024490Y-128235000D02*
X105107823Y-128330238D01*
X105107823Y-128330238D02*
X105179252Y-128520714D01*
X105179252Y-128520714D02*
X105155442Y-128711190D01*
X105155442Y-128711190D02*
X105036395Y-128901666D01*
X105036395Y-128901666D02*
X104929252Y-128996904D01*
X104929252Y-128996904D02*
X104726871Y-129092142D01*
X104726871Y-129092142D02*
X104060204Y-129092142D01*
X106560204Y-128139761D02*
X106941157Y-128139761D01*
X106941157Y-128139761D02*
X107119728Y-128235000D01*
X107119728Y-128235000D02*
X107286395Y-128425476D01*
X107286395Y-128425476D02*
X107334014Y-128806428D01*
X107334014Y-128806428D02*
X107250680Y-129473095D01*
X107250680Y-129473095D02*
X107107823Y-129854047D01*
X107107823Y-129854047D02*
X106893537Y-130044523D01*
X106893537Y-130044523D02*
X106691157Y-130139761D01*
X106691157Y-130139761D02*
X106310204Y-130139761D01*
X106310204Y-130139761D02*
X106131633Y-130044523D01*
X106131633Y-130044523D02*
X105964966Y-129854047D01*
X105964966Y-129854047D02*
X105917347Y-129473095D01*
X105917347Y-129473095D02*
X106000680Y-128806428D01*
X106000680Y-128806428D02*
X106143537Y-128425476D01*
X106143537Y-128425476D02*
X106357823Y-128235000D01*
X106357823Y-128235000D02*
X106560204Y-128139761D01*
X108000680Y-129568333D02*
X108953061Y-129568333D01*
X107738775Y-130139761D02*
X108655442Y-128139761D01*
X108655442Y-128139761D02*
X109072109Y-130139761D01*
X110881633Y-130139761D02*
X110334014Y-129187380D01*
X109738776Y-130139761D02*
X109988776Y-128139761D01*
X109988776Y-128139761D02*
X110750681Y-128139761D01*
X110750681Y-128139761D02*
X110929252Y-128235000D01*
X110929252Y-128235000D02*
X111012585Y-128330238D01*
X111012585Y-128330238D02*
X111084014Y-128520714D01*
X111084014Y-128520714D02*
X111048300Y-128806428D01*
X111048300Y-128806428D02*
X110929252Y-128996904D01*
X110929252Y-128996904D02*
X110822109Y-129092142D01*
X110822109Y-129092142D02*
X110619728Y-129187380D01*
X110619728Y-129187380D02*
X109857823Y-129187380D01*
X111738776Y-130139761D02*
X111988776Y-128139761D01*
X111988776Y-128139761D02*
X112464966Y-128139761D01*
X112464966Y-128139761D02*
X112738776Y-128235000D01*
X112738776Y-128235000D02*
X112905442Y-128425476D01*
X112905442Y-128425476D02*
X112976871Y-128615952D01*
X112976871Y-128615952D02*
X113024490Y-128996904D01*
X113024490Y-128996904D02*
X112988776Y-129282619D01*
X112988776Y-129282619D02*
X112845919Y-129663571D01*
X112845919Y-129663571D02*
X112726871Y-129854047D01*
X112726871Y-129854047D02*
X112512585Y-130044523D01*
X112512585Y-130044523D02*
X112214966Y-130139761D01*
X112214966Y-130139761D02*
X111738776Y-130139761D01*
X131364137Y-156704108D02*
X129949924Y-158118321D01*
X129949924Y-158118321D02*
X130488672Y-156636764D01*
X130488672Y-156636764D02*
X129007114Y-157175512D01*
X129007114Y-157175512D02*
X130421328Y-155761299D01*
X129747893Y-155087864D02*
X128333680Y-156502078D01*
X128131649Y-153740994D02*
X128266336Y-153740994D01*
X128266336Y-153740994D02*
X128535710Y-153875681D01*
X128535710Y-153875681D02*
X128670397Y-154010368D01*
X128670397Y-154010368D02*
X128805084Y-154279742D01*
X128805084Y-154279742D02*
X128805084Y-154549116D01*
X128805084Y-154549116D02*
X128737741Y-154751146D01*
X128737741Y-154751146D02*
X128535710Y-155087864D01*
X128535710Y-155087864D02*
X128333680Y-155289894D01*
X128333680Y-155289894D02*
X127996962Y-155491925D01*
X127996962Y-155491925D02*
X127794932Y-155559268D01*
X127794932Y-155559268D02*
X127525558Y-155559268D01*
X127525558Y-155559268D02*
X127256184Y-155424581D01*
X127256184Y-155424581D02*
X127121497Y-155289894D01*
X127121497Y-155289894D02*
X126986810Y-155020520D01*
X126986810Y-155020520D02*
X126986810Y-154885833D01*
X126919466Y-152259437D02*
X127727588Y-153067559D01*
X127323527Y-152663498D02*
X125909313Y-154077711D01*
X125909313Y-154077711D02*
X126246031Y-154010368D01*
X126246031Y-154010368D02*
X126515405Y-154010368D01*
X126515405Y-154010368D02*
X126717436Y-154077711D01*
X173986871Y-76069761D02*
X174236871Y-74069761D01*
X174855918Y-75974523D02*
X175129728Y-76069761D01*
X175129728Y-76069761D02*
X175605918Y-76069761D01*
X175605918Y-76069761D02*
X175808299Y-75974523D01*
X175808299Y-75974523D02*
X175915442Y-75879285D01*
X175915442Y-75879285D02*
X176034490Y-75688809D01*
X176034490Y-75688809D02*
X176058299Y-75498333D01*
X176058299Y-75498333D02*
X175986871Y-75307857D01*
X175986871Y-75307857D02*
X175903537Y-75212619D01*
X175903537Y-75212619D02*
X175724966Y-75117380D01*
X175724966Y-75117380D02*
X175355918Y-75022142D01*
X175355918Y-75022142D02*
X175177347Y-74926904D01*
X175177347Y-74926904D02*
X175094014Y-74831666D01*
X175094014Y-74831666D02*
X175022585Y-74641190D01*
X175022585Y-74641190D02*
X175046395Y-74450714D01*
X175046395Y-74450714D02*
X175165442Y-74260238D01*
X175165442Y-74260238D02*
X175272585Y-74165000D01*
X175272585Y-74165000D02*
X175474966Y-74069761D01*
X175474966Y-74069761D02*
X175951157Y-74069761D01*
X175951157Y-74069761D02*
X176224966Y-74165000D01*
X177474966Y-74069761D02*
X177855919Y-74069761D01*
X177855919Y-74069761D02*
X178034490Y-74165000D01*
X178034490Y-74165000D02*
X178201157Y-74355476D01*
X178201157Y-74355476D02*
X178248776Y-74736428D01*
X178248776Y-74736428D02*
X178165442Y-75403095D01*
X178165442Y-75403095D02*
X178022585Y-75784047D01*
X178022585Y-75784047D02*
X177808299Y-75974523D01*
X177808299Y-75974523D02*
X177605919Y-76069761D01*
X177605919Y-76069761D02*
X177224966Y-76069761D01*
X177224966Y-76069761D02*
X177046395Y-75974523D01*
X177046395Y-75974523D02*
X176879728Y-75784047D01*
X176879728Y-75784047D02*
X176832109Y-75403095D01*
X176832109Y-75403095D02*
X176915442Y-74736428D01*
X176915442Y-74736428D02*
X177058299Y-74355476D01*
X177058299Y-74355476D02*
X177272585Y-74165000D01*
X177272585Y-74165000D02*
X177474966Y-74069761D01*
X179891633Y-76069761D02*
X178939252Y-76069761D01*
X178939252Y-76069761D02*
X179189252Y-74069761D01*
X180534490Y-75498333D02*
X181486871Y-75498333D01*
X180272585Y-76069761D02*
X181189252Y-74069761D01*
X181189252Y-74069761D02*
X181605919Y-76069761D01*
X182236871Y-74069761D02*
X183379729Y-74069761D01*
X182558300Y-76069761D02*
X182808300Y-74069761D01*
X183796396Y-76069761D02*
X184046396Y-74069761D01*
X185379729Y-74069761D02*
X185760682Y-74069761D01*
X185760682Y-74069761D02*
X185939253Y-74165000D01*
X185939253Y-74165000D02*
X186105920Y-74355476D01*
X186105920Y-74355476D02*
X186153539Y-74736428D01*
X186153539Y-74736428D02*
X186070205Y-75403095D01*
X186070205Y-75403095D02*
X185927348Y-75784047D01*
X185927348Y-75784047D02*
X185713062Y-75974523D01*
X185713062Y-75974523D02*
X185510682Y-76069761D01*
X185510682Y-76069761D02*
X185129729Y-76069761D01*
X185129729Y-76069761D02*
X184951158Y-75974523D01*
X184951158Y-75974523D02*
X184784491Y-75784047D01*
X184784491Y-75784047D02*
X184736872Y-75403095D01*
X184736872Y-75403095D02*
X184820205Y-74736428D01*
X184820205Y-74736428D02*
X184963062Y-74355476D01*
X184963062Y-74355476D02*
X185177348Y-74165000D01*
X185177348Y-74165000D02*
X185379729Y-74069761D01*
X186844015Y-76069761D02*
X187094015Y-74069761D01*
X187094015Y-74069761D02*
X187986872Y-76069761D01*
X187986872Y-76069761D02*
X188236872Y-74069761D01*
X190139253Y-76069761D02*
X190389253Y-74069761D01*
X191222586Y-74260238D02*
X191329729Y-74165000D01*
X191329729Y-74165000D02*
X191532110Y-74069761D01*
X191532110Y-74069761D02*
X192008300Y-74069761D01*
X192008300Y-74069761D02*
X192186872Y-74165000D01*
X192186872Y-74165000D02*
X192270205Y-74260238D01*
X192270205Y-74260238D02*
X192341634Y-74450714D01*
X192341634Y-74450714D02*
X192317824Y-74641190D01*
X192317824Y-74641190D02*
X192186872Y-74926904D01*
X192186872Y-74926904D02*
X190901158Y-76069761D01*
X190901158Y-76069761D02*
X192139253Y-76069761D01*
X192913062Y-75974523D02*
X193186872Y-76069761D01*
X193186872Y-76069761D02*
X193663062Y-76069761D01*
X193663062Y-76069761D02*
X193865443Y-75974523D01*
X193865443Y-75974523D02*
X193972586Y-75879285D01*
X193972586Y-75879285D02*
X194091634Y-75688809D01*
X194091634Y-75688809D02*
X194115443Y-75498333D01*
X194115443Y-75498333D02*
X194044015Y-75307857D01*
X194044015Y-75307857D02*
X193960681Y-75212619D01*
X193960681Y-75212619D02*
X193782110Y-75117380D01*
X193782110Y-75117380D02*
X193413062Y-75022142D01*
X193413062Y-75022142D02*
X193234491Y-74926904D01*
X193234491Y-74926904D02*
X193151158Y-74831666D01*
X193151158Y-74831666D02*
X193079729Y-74641190D01*
X193079729Y-74641190D02*
X193103539Y-74450714D01*
X193103539Y-74450714D02*
X193222586Y-74260238D01*
X193222586Y-74260238D02*
X193329729Y-74165000D01*
X193329729Y-74165000D02*
X193532110Y-74069761D01*
X193532110Y-74069761D02*
X194008301Y-74069761D01*
X194008301Y-74069761D02*
X194282110Y-74165000D01*
X184239252Y-130569761D02*
X184489252Y-128569761D01*
X185108299Y-130474523D02*
X185382109Y-130569761D01*
X185382109Y-130569761D02*
X185858299Y-130569761D01*
X185858299Y-130569761D02*
X186060680Y-130474523D01*
X186060680Y-130474523D02*
X186167823Y-130379285D01*
X186167823Y-130379285D02*
X186286871Y-130188809D01*
X186286871Y-130188809D02*
X186310680Y-129998333D01*
X186310680Y-129998333D02*
X186239252Y-129807857D01*
X186239252Y-129807857D02*
X186155918Y-129712619D01*
X186155918Y-129712619D02*
X185977347Y-129617380D01*
X185977347Y-129617380D02*
X185608299Y-129522142D01*
X185608299Y-129522142D02*
X185429728Y-129426904D01*
X185429728Y-129426904D02*
X185346395Y-129331666D01*
X185346395Y-129331666D02*
X185274966Y-129141190D01*
X185274966Y-129141190D02*
X185298776Y-128950714D01*
X185298776Y-128950714D02*
X185417823Y-128760238D01*
X185417823Y-128760238D02*
X185524966Y-128665000D01*
X185524966Y-128665000D02*
X185727347Y-128569761D01*
X185727347Y-128569761D02*
X186203538Y-128569761D01*
X186203538Y-128569761D02*
X186477347Y-128665000D01*
X187727347Y-128569761D02*
X188108300Y-128569761D01*
X188108300Y-128569761D02*
X188286871Y-128665000D01*
X188286871Y-128665000D02*
X188453538Y-128855476D01*
X188453538Y-128855476D02*
X188501157Y-129236428D01*
X188501157Y-129236428D02*
X188417823Y-129903095D01*
X188417823Y-129903095D02*
X188274966Y-130284047D01*
X188274966Y-130284047D02*
X188060680Y-130474523D01*
X188060680Y-130474523D02*
X187858300Y-130569761D01*
X187858300Y-130569761D02*
X187477347Y-130569761D01*
X187477347Y-130569761D02*
X187298776Y-130474523D01*
X187298776Y-130474523D02*
X187132109Y-130284047D01*
X187132109Y-130284047D02*
X187084490Y-129903095D01*
X187084490Y-129903095D02*
X187167823Y-129236428D01*
X187167823Y-129236428D02*
X187310680Y-128855476D01*
X187310680Y-128855476D02*
X187524966Y-128665000D01*
X187524966Y-128665000D02*
X187727347Y-128569761D01*
X190144014Y-130569761D02*
X189191633Y-130569761D01*
X189191633Y-130569761D02*
X189441633Y-128569761D01*
X190786871Y-129998333D02*
X191739252Y-129998333D01*
X190524966Y-130569761D02*
X191441633Y-128569761D01*
X191441633Y-128569761D02*
X191858300Y-130569761D01*
X192489252Y-128569761D02*
X193632110Y-128569761D01*
X192810681Y-130569761D02*
X193060681Y-128569761D01*
X194048777Y-130569761D02*
X194298777Y-128569761D01*
X195632110Y-128569761D02*
X196013063Y-128569761D01*
X196013063Y-128569761D02*
X196191634Y-128665000D01*
X196191634Y-128665000D02*
X196358301Y-128855476D01*
X196358301Y-128855476D02*
X196405920Y-129236428D01*
X196405920Y-129236428D02*
X196322586Y-129903095D01*
X196322586Y-129903095D02*
X196179729Y-130284047D01*
X196179729Y-130284047D02*
X195965443Y-130474523D01*
X195965443Y-130474523D02*
X195763063Y-130569761D01*
X195763063Y-130569761D02*
X195382110Y-130569761D01*
X195382110Y-130569761D02*
X195203539Y-130474523D01*
X195203539Y-130474523D02*
X195036872Y-130284047D01*
X195036872Y-130284047D02*
X194989253Y-129903095D01*
X194989253Y-129903095D02*
X195072586Y-129236428D01*
X195072586Y-129236428D02*
X195215443Y-128855476D01*
X195215443Y-128855476D02*
X195429729Y-128665000D01*
X195429729Y-128665000D02*
X195632110Y-128569761D01*
X197096396Y-130569761D02*
X197346396Y-128569761D01*
X197346396Y-128569761D02*
X198239253Y-130569761D01*
X198239253Y-130569761D02*
X198489253Y-128569761D01*
X200391634Y-130569761D02*
X200641634Y-128569761D01*
X201474967Y-128760238D02*
X201582110Y-128665000D01*
X201582110Y-128665000D02*
X201784491Y-128569761D01*
X201784491Y-128569761D02*
X202260681Y-128569761D01*
X202260681Y-128569761D02*
X202439253Y-128665000D01*
X202439253Y-128665000D02*
X202522586Y-128760238D01*
X202522586Y-128760238D02*
X202594015Y-128950714D01*
X202594015Y-128950714D02*
X202570205Y-129141190D01*
X202570205Y-129141190D02*
X202439253Y-129426904D01*
X202439253Y-129426904D02*
X201153539Y-130569761D01*
X201153539Y-130569761D02*
X202391634Y-130569761D01*
X204415443Y-130379285D02*
X204308301Y-130474523D01*
X204308301Y-130474523D02*
X204010682Y-130569761D01*
X204010682Y-130569761D02*
X203820205Y-130569761D01*
X203820205Y-130569761D02*
X203546396Y-130474523D01*
X203546396Y-130474523D02*
X203379729Y-130284047D01*
X203379729Y-130284047D02*
X203308301Y-130093571D01*
X203308301Y-130093571D02*
X203260682Y-129712619D01*
X203260682Y-129712619D02*
X203296396Y-129426904D01*
X203296396Y-129426904D02*
X203439253Y-129045952D01*
X203439253Y-129045952D02*
X203558301Y-128855476D01*
X203558301Y-128855476D02*
X203772586Y-128665000D01*
X203772586Y-128665000D02*
X204070205Y-128569761D01*
X204070205Y-128569761D02*
X204260682Y-128569761D01*
X204260682Y-128569761D02*
X204534491Y-128665000D01*
X204534491Y-128665000D02*
X204617824Y-128760238D01*
D14*
X90103062Y-119244285D02*
X90513777Y-119387142D01*
X90513777Y-119387142D02*
X91228062Y-119387142D01*
X91228062Y-119387142D02*
X91531634Y-119244285D01*
X91531634Y-119244285D02*
X91692348Y-119101428D01*
X91692348Y-119101428D02*
X91870920Y-118815714D01*
X91870920Y-118815714D02*
X91906634Y-118530000D01*
X91906634Y-118530000D02*
X91799491Y-118244285D01*
X91799491Y-118244285D02*
X91674491Y-118101428D01*
X91674491Y-118101428D02*
X91406634Y-117958571D01*
X91406634Y-117958571D02*
X90853062Y-117815714D01*
X90853062Y-117815714D02*
X90585205Y-117672857D01*
X90585205Y-117672857D02*
X90460205Y-117530000D01*
X90460205Y-117530000D02*
X90353062Y-117244285D01*
X90353062Y-117244285D02*
X90388777Y-116958571D01*
X90388777Y-116958571D02*
X90567348Y-116672857D01*
X90567348Y-116672857D02*
X90728062Y-116530000D01*
X90728062Y-116530000D02*
X91031634Y-116387142D01*
X91031634Y-116387142D02*
X91745920Y-116387142D01*
X91745920Y-116387142D02*
X92156634Y-116530000D01*
X94031634Y-116387142D02*
X94603063Y-116387142D01*
X94603063Y-116387142D02*
X94870920Y-116530000D01*
X94870920Y-116530000D02*
X95120920Y-116815714D01*
X95120920Y-116815714D02*
X95192348Y-117387142D01*
X95192348Y-117387142D02*
X95067348Y-118387142D01*
X95067348Y-118387142D02*
X94853063Y-118958571D01*
X94853063Y-118958571D02*
X94531634Y-119244285D01*
X94531634Y-119244285D02*
X94228063Y-119387142D01*
X94228063Y-119387142D02*
X93656634Y-119387142D01*
X93656634Y-119387142D02*
X93388777Y-119244285D01*
X93388777Y-119244285D02*
X93138777Y-118958571D01*
X93138777Y-118958571D02*
X93067348Y-118387142D01*
X93067348Y-118387142D02*
X93192348Y-117387142D01*
X93192348Y-117387142D02*
X93406634Y-116815714D01*
X93406634Y-116815714D02*
X93728063Y-116530000D01*
X93728063Y-116530000D02*
X94031634Y-116387142D01*
X96603062Y-116387142D02*
X96299491Y-118815714D01*
X96299491Y-118815714D02*
X96406634Y-119101428D01*
X96406634Y-119101428D02*
X96531634Y-119244285D01*
X96531634Y-119244285D02*
X96799491Y-119387142D01*
X96799491Y-119387142D02*
X97370920Y-119387142D01*
X97370920Y-119387142D02*
X97674491Y-119244285D01*
X97674491Y-119244285D02*
X97835205Y-119101428D01*
X97835205Y-119101428D02*
X98013777Y-118815714D01*
X98013777Y-118815714D02*
X98317348Y-116387142D01*
X99370919Y-119387142D02*
X99745919Y-116387142D01*
X99745919Y-116387142D02*
X101085205Y-119387142D01*
X101085205Y-119387142D02*
X101460205Y-116387142D01*
X102513776Y-119387142D02*
X102888776Y-116387142D01*
X102888776Y-116387142D02*
X103603062Y-116387142D01*
X103603062Y-116387142D02*
X104013776Y-116530000D01*
X104013776Y-116530000D02*
X104263776Y-116815714D01*
X104263776Y-116815714D02*
X104370919Y-117101428D01*
X104370919Y-117101428D02*
X104442348Y-117672857D01*
X104442348Y-117672857D02*
X104388776Y-118101428D01*
X104388776Y-118101428D02*
X104174491Y-118672857D01*
X104174491Y-118672857D02*
X103995919Y-118958571D01*
X103995919Y-118958571D02*
X103674491Y-119244285D01*
X103674491Y-119244285D02*
X103228062Y-119387142D01*
X103228062Y-119387142D02*
X102513776Y-119387142D01*
X105513776Y-119387142D02*
X105888776Y-116387142D01*
X106888776Y-116387142D02*
X108603062Y-116387142D01*
X107370919Y-119387142D02*
X107745919Y-116387142D01*
D15*
X233947700Y-45865891D02*
X235361913Y-44451678D01*
X235361913Y-44451678D02*
X234823165Y-45933235D01*
X234823165Y-45933235D02*
X236304723Y-45394487D01*
X236304723Y-45394487D02*
X234890509Y-46808700D01*
X235563944Y-47482135D02*
X236978157Y-46067921D01*
X237180188Y-48829005D02*
X237045501Y-48829005D01*
X237045501Y-48829005D02*
X236776127Y-48694318D01*
X236776127Y-48694318D02*
X236641440Y-48559631D01*
X236641440Y-48559631D02*
X236506753Y-48290257D01*
X236506753Y-48290257D02*
X236506753Y-48020883D01*
X236506753Y-48020883D02*
X236574096Y-47818853D01*
X236574096Y-47818853D02*
X236776127Y-47482135D01*
X236776127Y-47482135D02*
X236978157Y-47280105D01*
X236978157Y-47280105D02*
X237314875Y-47078074D01*
X237314875Y-47078074D02*
X237516905Y-47010731D01*
X237516905Y-47010731D02*
X237786279Y-47010731D01*
X237786279Y-47010731D02*
X238055653Y-47145418D01*
X238055653Y-47145418D02*
X238190340Y-47280105D01*
X238190340Y-47280105D02*
X238325027Y-47549479D01*
X238325027Y-47549479D02*
X238325027Y-47684166D01*
X238931119Y-48020883D02*
X239806585Y-48896349D01*
X239806585Y-48896349D02*
X238796432Y-48963692D01*
X238796432Y-48963692D02*
X238998462Y-49165723D01*
X238998462Y-49165723D02*
X239065806Y-49367753D01*
X239065806Y-49367753D02*
X239065806Y-49502440D01*
X239065806Y-49502440D02*
X238998462Y-49704471D01*
X238998462Y-49704471D02*
X238661745Y-50041188D01*
X238661745Y-50041188D02*
X238459714Y-50108532D01*
X238459714Y-50108532D02*
X238325027Y-50108532D01*
X238325027Y-50108532D02*
X238122997Y-50041188D01*
X238122997Y-50041188D02*
X237718936Y-49637127D01*
X237718936Y-49637127D02*
X237651592Y-49435097D01*
X237651592Y-49435097D02*
X237651592Y-49300410D01*
X127486810Y-50243218D02*
X126072597Y-48829005D01*
X126072597Y-48829005D02*
X127554154Y-49367753D01*
X127554154Y-49367753D02*
X127015406Y-47886195D01*
X127015406Y-47886195D02*
X128429619Y-49300409D01*
X129103054Y-48626974D02*
X127688840Y-47212761D01*
X130449924Y-47010730D02*
X130449924Y-47145417D01*
X130449924Y-47145417D02*
X130315237Y-47414791D01*
X130315237Y-47414791D02*
X130180550Y-47549478D01*
X130180550Y-47549478D02*
X129911176Y-47684165D01*
X129911176Y-47684165D02*
X129641802Y-47684165D01*
X129641802Y-47684165D02*
X129439772Y-47616822D01*
X129439772Y-47616822D02*
X129103054Y-47414791D01*
X129103054Y-47414791D02*
X128901024Y-47212761D01*
X128901024Y-47212761D02*
X128698993Y-46876043D01*
X128698993Y-46876043D02*
X128631650Y-46674013D01*
X128631650Y-46674013D02*
X128631650Y-46404639D01*
X128631650Y-46404639D02*
X128766337Y-46135265D01*
X128766337Y-46135265D02*
X128901024Y-46000578D01*
X128901024Y-46000578D02*
X129170398Y-45865891D01*
X129170398Y-45865891D02*
X129305085Y-45865891D01*
X130853985Y-44990425D02*
X131796794Y-45933234D01*
X129978520Y-44788394D02*
X130651955Y-46135265D01*
X130651955Y-46135265D02*
X131527420Y-45259799D01*
X240065027Y-142606781D02*
X241479240Y-144020994D01*
X241479240Y-144020994D02*
X239997683Y-143482246D01*
X239997683Y-143482246D02*
X240536431Y-144963804D01*
X240536431Y-144963804D02*
X239122218Y-143549590D01*
X238448783Y-144223025D02*
X239862997Y-145637238D01*
X237101913Y-145839269D02*
X237101913Y-145704582D01*
X237101913Y-145704582D02*
X237236600Y-145435208D01*
X237236600Y-145435208D02*
X237371287Y-145300521D01*
X237371287Y-145300521D02*
X237640661Y-145165834D01*
X237640661Y-145165834D02*
X237910035Y-145165834D01*
X237910035Y-145165834D02*
X238112065Y-145233177D01*
X238112065Y-145233177D02*
X238448783Y-145435208D01*
X238448783Y-145435208D02*
X238650813Y-145637238D01*
X238650813Y-145637238D02*
X238852844Y-145973956D01*
X238852844Y-145973956D02*
X238920187Y-146175986D01*
X238920187Y-146175986D02*
X238920187Y-146445360D01*
X238920187Y-146445360D02*
X238785500Y-146714734D01*
X238785500Y-146714734D02*
X238650813Y-146849421D01*
X238650813Y-146849421D02*
X238381439Y-146984108D01*
X238381439Y-146984108D02*
X238246752Y-146984108D01*
X237708004Y-147522856D02*
X237708004Y-147657543D01*
X237708004Y-147657543D02*
X237640661Y-147859574D01*
X237640661Y-147859574D02*
X237303943Y-148196292D01*
X237303943Y-148196292D02*
X237101913Y-148263635D01*
X237101913Y-148263635D02*
X236967226Y-148263635D01*
X236967226Y-148263635D02*
X236765195Y-148196292D01*
X236765195Y-148196292D02*
X236630508Y-148061605D01*
X236630508Y-148061605D02*
X236495821Y-147792230D01*
X236495821Y-147792230D02*
X236495821Y-146175986D01*
X236495821Y-146175986D02*
X235620356Y-147051452D01*
X165991633Y-103078333D02*
X166944014Y-103078333D01*
X165729728Y-103649761D02*
X166646395Y-101649761D01*
X166646395Y-101649761D02*
X167063062Y-103649761D01*
X167979729Y-101649761D02*
X167777348Y-103268809D01*
X167777348Y-103268809D02*
X167848776Y-103459285D01*
X167848776Y-103459285D02*
X167932110Y-103554523D01*
X167932110Y-103554523D02*
X168110681Y-103649761D01*
X168110681Y-103649761D02*
X168491634Y-103649761D01*
X168491634Y-103649761D02*
X168694014Y-103554523D01*
X168694014Y-103554523D02*
X168801157Y-103459285D01*
X168801157Y-103459285D02*
X168920205Y-103268809D01*
X168920205Y-103268809D02*
X169122586Y-101649761D01*
X169824967Y-103649761D02*
X170074967Y-101649761D01*
X170074967Y-101649761D02*
X170551157Y-101649761D01*
X170551157Y-101649761D02*
X170824967Y-101745000D01*
X170824967Y-101745000D02*
X170991633Y-101935476D01*
X170991633Y-101935476D02*
X171063062Y-102125952D01*
X171063062Y-102125952D02*
X171110681Y-102506904D01*
X171110681Y-102506904D02*
X171074967Y-102792619D01*
X171074967Y-102792619D02*
X170932110Y-103173571D01*
X170932110Y-103173571D02*
X170813062Y-103364047D01*
X170813062Y-103364047D02*
X170598776Y-103554523D01*
X170598776Y-103554523D02*
X170301157Y-103649761D01*
X170301157Y-103649761D02*
X169824967Y-103649761D01*
X171824967Y-103649761D02*
X172074967Y-101649761D01*
X173408300Y-101649761D02*
X173789253Y-101649761D01*
X173789253Y-101649761D02*
X173967824Y-101745000D01*
X173967824Y-101745000D02*
X174134491Y-101935476D01*
X174134491Y-101935476D02*
X174182110Y-102316428D01*
X174182110Y-102316428D02*
X174098776Y-102983095D01*
X174098776Y-102983095D02*
X173955919Y-103364047D01*
X173955919Y-103364047D02*
X173741633Y-103554523D01*
X173741633Y-103554523D02*
X173539253Y-103649761D01*
X173539253Y-103649761D02*
X173158300Y-103649761D01*
X173158300Y-103649761D02*
X172979729Y-103554523D01*
X172979729Y-103554523D02*
X172813062Y-103364047D01*
X172813062Y-103364047D02*
X172765443Y-102983095D01*
X172765443Y-102983095D02*
X172848776Y-102316428D01*
X172848776Y-102316428D02*
X172991633Y-101935476D01*
X172991633Y-101935476D02*
X173205919Y-101745000D01*
X173205919Y-101745000D02*
X173408300Y-101649761D01*
X169936871Y-105842142D02*
X170210680Y-105937380D01*
X170210680Y-105937380D02*
X170294014Y-106032619D01*
X170294014Y-106032619D02*
X170365442Y-106223095D01*
X170365442Y-106223095D02*
X170329728Y-106508809D01*
X170329728Y-106508809D02*
X170210680Y-106699285D01*
X170210680Y-106699285D02*
X170103537Y-106794523D01*
X170103537Y-106794523D02*
X169901157Y-106889761D01*
X169901157Y-106889761D02*
X169139252Y-106889761D01*
X169139252Y-106889761D02*
X169389252Y-104889761D01*
X169389252Y-104889761D02*
X170055918Y-104889761D01*
X170055918Y-104889761D02*
X170234490Y-104985000D01*
X170234490Y-104985000D02*
X170317823Y-105080238D01*
X170317823Y-105080238D02*
X170389252Y-105270714D01*
X170389252Y-105270714D02*
X170365442Y-105461190D01*
X170365442Y-105461190D02*
X170246395Y-105651666D01*
X170246395Y-105651666D02*
X170139252Y-105746904D01*
X170139252Y-105746904D02*
X169936871Y-105842142D01*
X169936871Y-105842142D02*
X169270204Y-105842142D01*
X171770204Y-104889761D02*
X172151157Y-104889761D01*
X172151157Y-104889761D02*
X172329728Y-104985000D01*
X172329728Y-104985000D02*
X172496395Y-105175476D01*
X172496395Y-105175476D02*
X172544014Y-105556428D01*
X172544014Y-105556428D02*
X172460680Y-106223095D01*
X172460680Y-106223095D02*
X172317823Y-106604047D01*
X172317823Y-106604047D02*
X172103537Y-106794523D01*
X172103537Y-106794523D02*
X171901157Y-106889761D01*
X171901157Y-106889761D02*
X171520204Y-106889761D01*
X171520204Y-106889761D02*
X171341633Y-106794523D01*
X171341633Y-106794523D02*
X171174966Y-106604047D01*
X171174966Y-106604047D02*
X171127347Y-106223095D01*
X171127347Y-106223095D02*
X171210680Y-105556428D01*
X171210680Y-105556428D02*
X171353537Y-105175476D01*
X171353537Y-105175476D02*
X171567823Y-104985000D01*
X171567823Y-104985000D02*
X171770204Y-104889761D01*
X173210680Y-106318333D02*
X174163061Y-106318333D01*
X172948775Y-106889761D02*
X173865442Y-104889761D01*
X173865442Y-104889761D02*
X174282109Y-106889761D01*
X176091633Y-106889761D02*
X175544014Y-105937380D01*
X174948776Y-106889761D02*
X175198776Y-104889761D01*
X175198776Y-104889761D02*
X175960681Y-104889761D01*
X175960681Y-104889761D02*
X176139252Y-104985000D01*
X176139252Y-104985000D02*
X176222585Y-105080238D01*
X176222585Y-105080238D02*
X176294014Y-105270714D01*
X176294014Y-105270714D02*
X176258300Y-105556428D01*
X176258300Y-105556428D02*
X176139252Y-105746904D01*
X176139252Y-105746904D02*
X176032109Y-105842142D01*
X176032109Y-105842142D02*
X175829728Y-105937380D01*
X175829728Y-105937380D02*
X175067823Y-105937380D01*
X176948776Y-106889761D02*
X177198776Y-104889761D01*
X177198776Y-104889761D02*
X177674966Y-104889761D01*
X177674966Y-104889761D02*
X177948776Y-104985000D01*
X177948776Y-104985000D02*
X178115442Y-105175476D01*
X178115442Y-105175476D02*
X178186871Y-105365952D01*
X178186871Y-105365952D02*
X178234490Y-105746904D01*
X178234490Y-105746904D02*
X178198776Y-106032619D01*
X178198776Y-106032619D02*
X178055919Y-106413571D01*
X178055919Y-106413571D02*
X177936871Y-106604047D01*
X177936871Y-106604047D02*
X177722585Y-106794523D01*
X177722585Y-106794523D02*
X177424966Y-106889761D01*
X177424966Y-106889761D02*
X176948776Y-106889761D01*
D16*
%TO.C,*%
%TO.C,U9*%
X169169299Y-75276377D02*
X169407395Y-75276377D01*
X169312157Y-75514472D02*
X169407395Y-75276377D01*
X169407395Y-75276377D02*
X169312157Y-75038282D01*
X169597871Y-75419234D02*
X169407395Y-75276377D01*
X169407395Y-75276377D02*
X169597871Y-75133520D01*
X169169299Y-75276377D02*
X169407395Y-75276377D01*
X169312157Y-75514472D02*
X169407395Y-75276377D01*
X169407395Y-75276377D02*
X169312157Y-75038282D01*
X169597871Y-75419234D02*
X169407395Y-75276377D01*
X169407395Y-75276377D02*
X169597871Y-75133520D01*
%TO.C,*%
D17*
%TO.C,R53*%
X160533419Y-83772258D02*
X160533419Y-83297742D01*
X161578419Y-83772258D02*
X161578419Y-83297742D01*
%TO.C,C62*%
X182648083Y-128675000D02*
X182863755Y-128675000D01*
X182648083Y-129395000D02*
X182863755Y-129395000D01*
%TO.C,C78*%
X192321255Y-130405000D02*
X192105583Y-130405000D01*
X192321255Y-129685000D02*
X192105583Y-129685000D01*
%TO.C,R43*%
X166478419Y-71897742D02*
X166478419Y-72372258D01*
X165433419Y-71897742D02*
X165433419Y-72372258D01*
%TO.C,C51*%
X205548083Y-101775000D02*
X205763755Y-101775000D01*
X205548083Y-102495000D02*
X205763755Y-102495000D01*
%TO.C,R8*%
X201309560Y-105915000D02*
X201002278Y-105915000D01*
X201309560Y-105155000D02*
X201002278Y-105155000D01*
%TO.C,R41*%
X200709560Y-92515000D02*
X200402278Y-92515000D01*
X200709560Y-91755000D02*
X200402278Y-91755000D01*
%TO.C,C57*%
X201948083Y-99355000D02*
X202163755Y-99355000D01*
X201948083Y-100075000D02*
X202163755Y-100075000D01*
D18*
%TO.C,U12*%
X154935919Y-89520000D02*
X154935919Y-89520000D01*
X155035919Y-89520000D02*
X155035919Y-89520000D01*
X155035919Y-89520000D02*
G75*
G03*
X154935919Y-89520000I-50000J0D01*
G01*
X154935919Y-89520000D02*
G75*
G03*
X155035919Y-89520000I50000J0D01*
G01*
D17*
%TO.C,U1*%
X53095919Y-93035000D02*
X53095919Y-94710000D01*
X53095919Y-93035000D02*
X53095919Y-92385000D01*
X56215919Y-93035000D02*
X56215919Y-93685000D01*
X56215919Y-93035000D02*
X56215919Y-92385000D01*
%TO.C,R33*%
X196902278Y-107255000D02*
X197209560Y-107255000D01*
X196902278Y-108015000D02*
X197209560Y-108015000D01*
%TO.C,R56*%
X204209560Y-98615000D02*
X203902278Y-98615000D01*
X204209560Y-97855000D02*
X203902278Y-97855000D01*
%TO.C,C2*%
X56795919Y-93642836D02*
X56795919Y-93427164D01*
X57515919Y-93642836D02*
X57515919Y-93427164D01*
%TO.C,R38*%
X204209560Y-97615000D02*
X203902278Y-97615000D01*
X204209560Y-96855000D02*
X203902278Y-96855000D01*
%TO.C,R49*%
X185933419Y-118172258D02*
X185933419Y-117697742D01*
X186978419Y-118172258D02*
X186978419Y-117697742D01*
%TO.C,C68*%
X189495919Y-81542836D02*
X189495919Y-81327164D01*
X190215919Y-81542836D02*
X190215919Y-81327164D01*
%TO.C,R37*%
X204109560Y-103515000D02*
X203802278Y-103515000D01*
X204109560Y-102755000D02*
X203802278Y-102755000D01*
D19*
%TO.C,J5*%
X48955919Y-119565000D02*
X51155919Y-119565000D01*
X45485919Y-119565000D02*
X45485919Y-128505000D01*
X48955919Y-128505000D02*
X51155919Y-128505000D01*
D11*
X54435919Y-120987000D02*
G75*
G03*
X54435919Y-120987000I-100000J0D01*
G01*
D17*
%TO.C,R9*%
X204109560Y-104515000D02*
X203802278Y-104515000D01*
X204109560Y-103755000D02*
X203802278Y-103755000D01*
%TO.C,R1*%
X77502278Y-127905000D02*
X77809560Y-127905000D01*
X77502278Y-128665000D02*
X77809560Y-128665000D01*
%TO.C,J2*%
X77503419Y-153192500D02*
X53623419Y-153192500D01*
X77503419Y-136202500D02*
X77503419Y-153192500D01*
X71033419Y-153922500D02*
X70533419Y-153322500D01*
X71033419Y-153922500D02*
X70033419Y-153922500D01*
X70033419Y-153922500D02*
X70533419Y-153322500D01*
X53613419Y-136202500D02*
X77503419Y-136202500D01*
X44283419Y-153192500D02*
X50613419Y-153192500D01*
X44283419Y-136202500D02*
X50623419Y-136202500D01*
X44283419Y-136202500D02*
X44283419Y-153192500D01*
%TO.C,C41*%
X154148083Y-87075000D02*
X154363755Y-87075000D01*
X154148083Y-87795000D02*
X154363755Y-87795000D01*
%TO.C,R14*%
X54502278Y-89655000D02*
X54809560Y-89655000D01*
X54502278Y-90415000D02*
X54809560Y-90415000D01*
%TO.C,C73*%
X59045919Y-131895000D02*
X62065919Y-131895000D01*
X62065919Y-131895000D02*
X62065919Y-127685000D01*
X59045919Y-127685000D02*
X59045919Y-131895000D01*
%TO.C,R2*%
X77502278Y-128905000D02*
X77809560Y-128905000D01*
X77502278Y-129665000D02*
X77809560Y-129665000D01*
%TO.C,R35*%
X193262278Y-68745000D02*
X193569560Y-68745000D01*
X193262278Y-69505000D02*
X193569560Y-69505000D01*
%TO.C,C71*%
X203820919Y-81542836D02*
X203820919Y-81327164D01*
X204540919Y-81542836D02*
X204540919Y-81327164D01*
%TO.C,CM4_MODULE1*%
X120355919Y-147635000D02*
X120355919Y-99635000D01*
X119165919Y-132535000D02*
X115465919Y-132535000D01*
X119165919Y-109735000D02*
X119165919Y-110735000D01*
X119165919Y-109735000D02*
X115465919Y-109735000D01*
X116855919Y-96135000D02*
X83855919Y-96135000D01*
X115465919Y-109735000D02*
X115465919Y-110735000D01*
X85245919Y-132535000D02*
X85245919Y-131535000D01*
X85245919Y-132535000D02*
X81465919Y-132535000D01*
X85245919Y-109735000D02*
X85245919Y-110735000D01*
X85245919Y-109735000D02*
X81465919Y-109735000D01*
X83855919Y-151135000D02*
X116855919Y-151135000D01*
X81465919Y-132535000D02*
X81465919Y-131535000D01*
X81465919Y-109735000D02*
X81465919Y-110735000D01*
X80355919Y-99635000D02*
X80355919Y-147635000D01*
X116855919Y-151135000D02*
G75*
G03*
X120355919Y-147635000I1J3499999D01*
G01*
X120355919Y-99635000D02*
G75*
G03*
X116855919Y-96135000I-3499999J1D01*
G01*
X80355919Y-147635000D02*
G75*
G03*
X83855919Y-151135000I3500000J0D01*
G01*
X83855919Y-96135000D02*
G75*
G03*
X80355919Y-99635000I0J-3500000D01*
G01*
%TO.C,U5*%
X82545919Y-144075000D02*
X83845919Y-144075000D01*
X82545919Y-141275000D02*
X83545919Y-141275000D01*
%TO.C,U3*%
X55905919Y-123385000D02*
X54605919Y-123385000D01*
X55905919Y-126185000D02*
X54905919Y-126185000D01*
%TO.C,C54*%
X198315919Y-105627164D02*
X198315919Y-105842836D01*
X197595919Y-105627164D02*
X197595919Y-105842836D01*
%TO.C,R4*%
X77502278Y-130905000D02*
X77809560Y-130905000D01*
X77502278Y-131665000D02*
X77809560Y-131665000D01*
%TO.C,J6*%
X75325919Y-90865000D02*
X75325919Y-89535000D01*
X76655919Y-90865000D02*
X75325919Y-90865000D01*
X77925919Y-90865000D02*
X100845919Y-90865000D01*
X77925919Y-90865000D02*
X77925919Y-88205000D01*
X100845919Y-90865000D02*
X100845919Y-88205000D01*
X77925919Y-88205000D02*
X100845919Y-88205000D01*
%TO.C,C46*%
X192563755Y-99995000D02*
X192348083Y-99995000D01*
X192563755Y-99275000D02*
X192348083Y-99275000D01*
%TO.C,C76*%
X175708083Y-73895000D02*
X175923755Y-73895000D01*
X175708083Y-74615000D02*
X175923755Y-74615000D01*
%TO.C,R48*%
X183733419Y-118172258D02*
X183733419Y-117697742D01*
X184778419Y-118172258D02*
X184778419Y-117697742D01*
D18*
%TO.C,U13*%
X175235919Y-73555000D02*
X175235919Y-73555000D01*
X175235919Y-73655000D02*
X175235919Y-73655000D01*
X175235919Y-73655000D02*
G75*
G03*
X175235919Y-73555000I0J50000D01*
G01*
X175235919Y-73555000D02*
G75*
G03*
X175235919Y-73655000I0J-50000D01*
G01*
D17*
%TO.C,C45*%
X196495919Y-96142836D02*
X196495919Y-95927164D01*
X197215919Y-96142836D02*
X197215919Y-95927164D01*
%TO.C,R25*%
X197393177Y-94357500D02*
X196918661Y-94357500D01*
X197393177Y-93312500D02*
X196918661Y-93312500D01*
%TO.C,R11*%
X77502278Y-131905000D02*
X77809560Y-131905000D01*
X77502278Y-132665000D02*
X77809560Y-132665000D01*
%TO.C,R27*%
X189932278Y-100945000D02*
X190239560Y-100945000D01*
X189932278Y-101705000D02*
X190239560Y-101705000D01*
%TO.C,C1*%
X52063755Y-94295000D02*
X51848083Y-94295000D01*
X52063755Y-93575000D02*
X51848083Y-93575000D01*
%TO.C,U6*%
X82570919Y-139265000D02*
X83870919Y-139265000D01*
X82570919Y-136465000D02*
X83570919Y-136465000D01*
%TO.C,C44*%
X194095919Y-96142836D02*
X194095919Y-95927164D01*
X194815919Y-96142836D02*
X194815919Y-95927164D01*
%TO.C,R21*%
X60752278Y-120165000D02*
X61059560Y-120165000D01*
X60752278Y-120925000D02*
X61059560Y-120925000D01*
%TO.C,C82*%
X201795919Y-72925000D02*
X201795919Y-75945000D01*
X201795919Y-75945000D02*
X206005919Y-75945000D01*
X206005919Y-72925000D02*
X201795919Y-72925000D01*
%TO.C,R18*%
X56752278Y-87155000D02*
X57059560Y-87155000D01*
X56752278Y-87915000D02*
X57059560Y-87915000D01*
%TO.C,C58*%
X171115919Y-75627164D02*
X171115919Y-75842836D01*
X170395919Y-75627164D02*
X170395919Y-75842836D01*
%TO.C,C63*%
X154148083Y-84875000D02*
X154363755Y-84875000D01*
X154148083Y-85595000D02*
X154363755Y-85595000D01*
%TO.C,R46*%
X182178419Y-132097742D02*
X182178419Y-132572258D01*
X181133419Y-132097742D02*
X181133419Y-132572258D01*
%TO.C,R51*%
X162233419Y-83772258D02*
X162233419Y-83297742D01*
X163278419Y-83772258D02*
X163278419Y-83297742D01*
%TO.C,C77*%
X192291255Y-133315000D02*
X192075583Y-133315000D01*
X192291255Y-132595000D02*
X192075583Y-132595000D01*
%TO.C,C65*%
X182463755Y-120595000D02*
X182248083Y-120595000D01*
X182463755Y-119875000D02*
X182248083Y-119875000D01*
%TO.C,R20*%
X58752278Y-118915000D02*
X59059560Y-118915000D01*
X58752278Y-119675000D02*
X59059560Y-119675000D01*
D18*
%TO.C,U11*%
X203255919Y-76635000D02*
X203255919Y-76635000D01*
X203155919Y-76635000D02*
X203155919Y-76635000D01*
X203155919Y-76635000D02*
G75*
G03*
X203255919Y-76635000I50000J0D01*
G01*
X203255919Y-76635000D02*
G75*
G03*
X203155919Y-76635000I-50000J0D01*
G01*
D16*
%TO.C,U19*%
X35580919Y-153405000D02*
X35730919Y-153405000D01*
X37180919Y-154880000D02*
X37180919Y-155790000D01*
X34130919Y-154880000D02*
X34130919Y-155790000D01*
X35580919Y-157265000D02*
X35730919Y-157265000D01*
D13*
X34930919Y-157665000D02*
G75*
G03*
X34930919Y-157665000I-125000J0D01*
G01*
D17*
%TO.C,U7*%
X61275919Y-96445000D02*
X61275919Y-97745000D01*
X64075919Y-96445000D02*
X64075919Y-97445000D01*
%TO.C,R24*%
X196009560Y-92815000D02*
X195702278Y-92815000D01*
X196009560Y-92055000D02*
X195702278Y-92055000D01*
%TO.C,C60*%
X154348083Y-70475000D02*
X154563755Y-70475000D01*
X154348083Y-71195000D02*
X154563755Y-71195000D01*
%TO.C,R12*%
X57059560Y-90415000D02*
X56752278Y-90415000D01*
X57059560Y-89655000D02*
X56752278Y-89655000D01*
%TO.C,R45*%
X162278419Y-71897742D02*
X162278419Y-72372258D01*
X161233419Y-71897742D02*
X161233419Y-72372258D01*
%TO.C,C53*%
X201948083Y-101375000D02*
X202163755Y-101375000D01*
X201948083Y-102095000D02*
X202163755Y-102095000D01*
%TO.C,C61*%
X154348083Y-71675000D02*
X154563755Y-71675000D01*
X154348083Y-72395000D02*
X154563755Y-72395000D01*
%TO.C,R7*%
X201309560Y-106915000D02*
X201002278Y-106915000D01*
X201309560Y-106155000D02*
X201002278Y-106155000D01*
%TO.C,R22*%
X61059560Y-119675000D02*
X60752278Y-119675000D01*
X61059560Y-118915000D02*
X60752278Y-118915000D01*
%TO.C,R13*%
X56752278Y-88405000D02*
X57059560Y-88405000D01*
X56752278Y-89165000D02*
X57059560Y-89165000D01*
%TO.C,R31*%
X194735919Y-92781359D02*
X194735919Y-93088641D01*
X193975919Y-92781359D02*
X193975919Y-93088641D01*
%TO.C,C66*%
X171015919Y-81627164D02*
X171015919Y-81842836D01*
X170295919Y-81627164D02*
X170295919Y-81842836D01*
D18*
%TO.C,U14*%
X192788419Y-130825000D02*
X192788419Y-130825000D01*
X192788419Y-130725000D02*
X192788419Y-130725000D01*
X192788419Y-130725000D02*
G75*
G03*
X192788419Y-130825000I0J-50000D01*
G01*
X192788419Y-130825000D02*
G75*
G03*
X192788419Y-130725000I0J50000D01*
G01*
D17*
%TO.C,C47*%
X192563755Y-103395000D02*
X192348083Y-103395000D01*
X192563755Y-102675000D02*
X192348083Y-102675000D01*
%TO.C,C103*%
X200671499Y-90945000D02*
X200390339Y-90945000D01*
X200671499Y-89925000D02*
X200390339Y-89925000D01*
%TO.C,C50*%
X205715919Y-77427164D02*
X205715919Y-77642836D01*
X204995919Y-77427164D02*
X204995919Y-77642836D01*
%TO.C,R26*%
X194295919Y-108108641D02*
X194295919Y-107801359D01*
X195055919Y-108108641D02*
X195055919Y-107801359D01*
%TO.C,R23*%
X194309560Y-91215000D02*
X194002278Y-91215000D01*
X194309560Y-90455000D02*
X194002278Y-90455000D01*
%TO.C,R54*%
X201309560Y-107915000D02*
X201002278Y-107915000D01*
X201309560Y-107155000D02*
X201002278Y-107155000D01*
D16*
%TO.C,U4*%
X41560919Y-153405000D02*
X41710919Y-153405000D01*
X43160919Y-154880000D02*
X43160919Y-155790000D01*
X40110919Y-154880000D02*
X40110919Y-155790000D01*
X41560919Y-157265000D02*
X41710919Y-157265000D01*
D13*
X40910919Y-157665000D02*
G75*
G03*
X40910919Y-157665000I-125000J0D01*
G01*
D17*
%TO.C,R34*%
X196902278Y-108955000D02*
X197209560Y-108955000D01*
X196902278Y-109715000D02*
X197209560Y-109715000D01*
%TO.C,C59*%
X169195919Y-75842836D02*
X169195919Y-75627164D01*
X169915919Y-75842836D02*
X169915919Y-75627164D01*
%TO.C,R55*%
X204109560Y-105515000D02*
X203802278Y-105515000D01*
X204109560Y-104755000D02*
X203802278Y-104755000D01*
%TO.C,U2*%
X181595919Y-124735000D02*
X181595919Y-128185000D01*
X181595919Y-124735000D02*
X181595919Y-122785000D01*
X186715919Y-124735000D02*
X186715919Y-126685000D01*
X186715919Y-124735000D02*
X186715919Y-122785000D01*
%TO.C,C55*%
X197595919Y-96642836D02*
X197595919Y-96427164D01*
X198315919Y-96642836D02*
X198315919Y-96427164D01*
D16*
%TO.C,U23*%
X23580919Y-153405000D02*
X23730919Y-153405000D01*
X25180919Y-154880000D02*
X25180919Y-155790000D01*
X22130919Y-154880000D02*
X22130919Y-155790000D01*
X23580919Y-157265000D02*
X23730919Y-157265000D01*
D13*
X22930919Y-157665000D02*
G75*
G03*
X22930919Y-157665000I-125000J0D01*
G01*
D17*
%TO.C,R36*%
X101575887Y-89520121D02*
X101575887Y-89212839D01*
X102335887Y-89520121D02*
X102335887Y-89212839D01*
%TO.C,C52*%
X205548083Y-100775000D02*
X205763755Y-100775000D01*
X205548083Y-101495000D02*
X205763755Y-101495000D01*
D20*
%TO.C,J1*%
X44334419Y-97127500D02*
X47136419Y-97127500D01*
X44334419Y-97127500D02*
X44334419Y-112127500D01*
X44334419Y-112127500D02*
X47136419Y-112127500D01*
X57612419Y-109181500D02*
G75*
G03*
X57612419Y-109181500I-114000J0D01*
G01*
D17*
%TO.C,U9*%
X158575919Y-76099078D02*
X158575919Y-80264678D01*
X168735919Y-80264678D02*
X168735919Y-76099078D01*
D21*
X168366196Y-73981878D02*
G75*
G03*
X168366196Y-73981878I-210277J0D01*
G01*
D11*
%TO.C,U10*%
X193905919Y-97785000D02*
X193905919Y-104285000D01*
X193905919Y-97785000D02*
X194555919Y-97785000D01*
X194555919Y-104285000D02*
X193905919Y-104285000D01*
X199755919Y-97785000D02*
X200405919Y-97785000D01*
X200405919Y-97785000D02*
X200405919Y-104285000D01*
X200405919Y-104285000D02*
X199755919Y-104285000D01*
D17*
%TO.C,R40*%
X200709560Y-93515000D02*
X200402278Y-93515000D01*
X200709560Y-92755000D02*
X200402278Y-92755000D01*
%TO.C,C64*%
X154148083Y-85975000D02*
X154363755Y-85975000D01*
X154148083Y-86695000D02*
X154363755Y-86695000D01*
%TO.C,R32*%
X196918661Y-90312500D02*
X197393177Y-90312500D01*
X196918661Y-91357500D02*
X197393177Y-91357500D01*
%TO.C,C75*%
X175738083Y-71135000D02*
X175953755Y-71135000D01*
X175738083Y-71855000D02*
X175953755Y-71855000D01*
%TO.C,C69*%
X190595919Y-81542836D02*
X190595919Y-81327164D01*
X191315919Y-81542836D02*
X191315919Y-81327164D01*
%TO.C,R57*%
X200709560Y-94515000D02*
X200402278Y-94515000D01*
X200709560Y-93755000D02*
X200402278Y-93755000D01*
%TO.C,R28*%
X164978419Y-86597742D02*
X164978419Y-87072258D01*
X163933419Y-86597742D02*
X163933419Y-87072258D01*
%TO.C,R29*%
X161578419Y-86597742D02*
X161578419Y-87072258D01*
X160533419Y-86597742D02*
X160533419Y-87072258D01*
%TO.C,C56*%
X201948083Y-100345000D02*
X202163755Y-100345000D01*
X201948083Y-101065000D02*
X202163755Y-101065000D01*
%TO.C,C74*%
X184315919Y-100432836D02*
X184315919Y-100217164D01*
X185035919Y-100432836D02*
X185035919Y-100217164D01*
D11*
%TO.C,PS2*%
X191880919Y-79015000D02*
X193805919Y-79015000D01*
X194155919Y-78960000D02*
X200955919Y-78960000D01*
X194155919Y-89310000D02*
X194155919Y-78960000D01*
X200955919Y-78960000D02*
X200955919Y-89310000D01*
X200955919Y-89310000D02*
X194155919Y-89310000D01*
D17*
%TO.C,C39*%
X79068083Y-149175000D02*
X79283755Y-149175000D01*
X79068083Y-149895000D02*
X79283755Y-149895000D01*
%TO.C,R17*%
X192302278Y-103755000D02*
X192609560Y-103755000D01*
X192302278Y-104515000D02*
X192609560Y-104515000D01*
%TO.C,R19*%
X59059560Y-120925000D02*
X58752278Y-120925000D01*
X59059560Y-120165000D02*
X58752278Y-120165000D01*
%TO.C,C67*%
X169195919Y-81842836D02*
X169195919Y-81627164D01*
X169915919Y-81842836D02*
X169915919Y-81627164D01*
%TO.C,J7*%
X84325919Y-158865000D02*
X84325919Y-157535000D01*
X85655919Y-158865000D02*
X84325919Y-158865000D01*
X86925919Y-158865000D02*
X109845919Y-158865000D01*
X86925919Y-158865000D02*
X86925919Y-156205000D01*
X109845919Y-158865000D02*
X109845919Y-156205000D01*
X86925919Y-156205000D02*
X109845919Y-156205000D01*
D19*
%TO.C,J4*%
X67895919Y-90005000D02*
X67895919Y-92205000D01*
X67895919Y-86535000D02*
X58955919Y-86535000D01*
X58955919Y-90005000D02*
X58955919Y-92205000D01*
D11*
X66573919Y-95385000D02*
G75*
G03*
X66573919Y-95385000I-100000J0D01*
G01*
D17*
%TO.C,R30*%
X163278419Y-86597742D02*
X163278419Y-87072258D01*
X162233419Y-86597742D02*
X162233419Y-87072258D01*
%TO.C,C43*%
X195295919Y-96142836D02*
X195295919Y-95927164D01*
X196015919Y-96142836D02*
X196015919Y-95927164D01*
%TO.C,C48*%
X192563755Y-101195000D02*
X192348083Y-101195000D01*
X192563755Y-100475000D02*
X192348083Y-100475000D01*
%TO.C,R15*%
X54809560Y-89165000D02*
X54502278Y-89165000D01*
X54809560Y-88405000D02*
X54502278Y-88405000D01*
%TO.C,X1*%
X188850919Y-98425000D02*
X185700919Y-98425000D01*
X185700919Y-98425000D02*
X185700919Y-102225000D01*
%TO.C,C49*%
X202915919Y-77447164D02*
X202915919Y-77662836D01*
X202195919Y-77447164D02*
X202195919Y-77662836D01*
%TO.C,C42*%
X155395919Y-88542836D02*
X155395919Y-88327164D01*
X156115919Y-88542836D02*
X156115919Y-88327164D01*
D16*
%TO.C,U21*%
X29580919Y-153405000D02*
X29730919Y-153405000D01*
X31180919Y-154880000D02*
X31180919Y-155790000D01*
X28130919Y-154880000D02*
X28130919Y-155790000D01*
X29580919Y-157265000D02*
X29730919Y-157265000D01*
D13*
X28930919Y-157665000D02*
G75*
G03*
X28930919Y-157665000I-125000J0D01*
G01*
D17*
%TO.C,R16*%
X54502278Y-87155000D02*
X54809560Y-87155000D01*
X54502278Y-87915000D02*
X54809560Y-87915000D01*
%TO.C,R3*%
X77502278Y-129905000D02*
X77809560Y-129905000D01*
X77502278Y-130665000D02*
X77809560Y-130665000D01*
%TO.C,R39*%
X204209560Y-96615000D02*
X203902278Y-96615000D01*
X204209560Y-95855000D02*
X203902278Y-95855000D01*
D11*
%TO.C,PS1*%
X156975919Y-73060000D02*
X156975919Y-74985000D01*
X157030919Y-75335000D02*
X157030919Y-82135000D01*
X146680919Y-75335000D02*
X157030919Y-75335000D01*
X157030919Y-82135000D02*
X146680919Y-82135000D01*
X146680919Y-82135000D02*
X146680919Y-75335000D01*
D17*
%TO.C,R10*%
X77502278Y-132855000D02*
X77809560Y-132855000D01*
X77502278Y-133615000D02*
X77809560Y-133615000D01*
%TO.C,C70*%
X204995919Y-81542836D02*
X204995919Y-81327164D01*
X205715919Y-81542836D02*
X205715919Y-81327164D01*
%TO.C,R47*%
X185478419Y-132097742D02*
X185478419Y-132572258D01*
X184433419Y-132097742D02*
X184433419Y-132572258D01*
%TD*%
M02*
