M48
; DRILL file {KiCad (7.0.0)} date Tue Feb 14 21:30:51 2023
; FORMAT={-:-/ absolute / inch / decimal}
; #@! TF.CreationDate,2023-02-14T21:30:51+09:00
; #@! TF.GenerationSoftware,Kicad,Pcbnew,(7.0.0)
; #@! TF.FileFunction,Plated,1,4,PTH
FMAT,2
INCH
; #@! TA.AperFunction,Plated,PTH,ViaDrill
T1C0.0079
; #@! TA.AperFunction,Plated,PTH,ComponentDrill
T2C0.0256
; #@! TA.AperFunction,Plated,PTH,ComponentDrill
T3C0.0315
; #@! TA.AperFunction,Plated,PTH,ComponentDrill
T4C0.0350
; #@! TA.AperFunction,Plated,PTH,ComponentDrill
T5C0.0394
; #@! TA.AperFunction,Plated,PTH,ComponentDrill
T6C0.0404
; #@! TA.AperFunction,Plated,PTH,ComponentDrill
T7C0.0618
; #@! TA.AperFunction,Plated,PTH,ComponentDrill
T8C0.0634
; #@! TA.AperFunction,Plated,PTH,ComponentDrill
T9C0.0890
%
G90
G05
T1
X0.8723Y-6.1864
X0.877Y-6.0443
X0.9038Y-6.1156
X0.9235Y-6.1431
X0.9904Y-6.0329
X0.9904Y-6.1037
X1.1085Y-6.1864
X1.1132Y-6.0443
X1.14Y-6.1156
X1.1597Y-6.1431
X1.2266Y-6.0329
X1.2266Y-6.1037
X1.3447Y-6.1864
X1.3494Y-6.0443
X1.3762Y-6.1156
X1.3959Y-6.1431
X1.4628Y-6.0329
X1.4628Y-6.1037
X1.5802Y-6.1864
X1.5849Y-6.0443
X1.6117Y-6.1156
X1.6313Y-6.1431
X1.6983Y-6.0329
X1.6983Y-6.1037
X1.8368Y-3.6825
X1.8447Y-6.0841
X1.8759Y-5.8075
X1.8762Y-3.9187
X1.8762Y-4.1156
X1.8762Y-4.3124
X1.8762Y-4.5486
X1.8762Y-5.4148
X1.8762Y-5.6116
X1.8762Y-6.0053
X1.9746Y-4.7494
X1.9746Y-4.7691
X1.9746Y-4.7888
X1.9746Y-4.8085
X1.9746Y-4.8281
X1.9746Y-4.8478
X1.9746Y-4.8675
X1.9746Y-4.8872
X1.9746Y-4.9069
X1.9746Y-4.9266
X1.9746Y-4.9463
X1.9746Y-4.9659
X1.9746Y-4.9856
X1.9746Y-5.0053
X1.9746Y-5.025
X2.0022Y-4.903
X2.0112Y-4.8715
X2.0494Y-3.4384
X2.0731Y-3.9581
X2.0731Y-4.0762
X2.0731Y-4.2337
X2.0782Y-6.3206
X2.0888Y-4.8831
X2.0928Y-5.5722
X2.0928Y-5.7691
X2.1124Y-3.9817
X2.1124Y-4.0998
X2.1124Y-4.1589
X2.1124Y-4.2179
X2.1124Y-4.277
X2.1124Y-6.2022
X2.1164Y-3.647
X2.1164Y-3.6671
X2.1262Y-4.7494
X2.1262Y-4.7691
X2.1262Y-4.7888
X2.1262Y-4.8085
X2.1262Y-4.9463
X2.1262Y-4.9659
X2.1262Y-4.9856
X2.1262Y-5.0053
X2.1262Y-5.025
X2.1321Y-3.5447
X2.1853Y-4.8144
X2.2031Y-3.5681
X2.2305Y-6.3203
X2.2605Y-3.5447
X2.262Y-4.0998
X2.262Y-4.1589
X2.2648Y-4.2176
X2.2648Y-4.2767
X2.2684Y-3.4735
X2.2699Y-3.6195
X2.3172Y-4.34
X2.3388Y-4.6947
X2.3605Y-4.0683
X2.3782Y-4.6947
X2.3841Y-4.336
X2.388Y-6.3203
X2.4463Y-3.7537
X2.4574Y-3.618
X2.4628Y-4.3085
X2.466Y-3.7404
X2.4668Y-3.7644
X2.4825Y-4.0683
X2.5203Y-3.7577
X2.5317Y-3.7364
X2.5376Y-3.5681
X2.5376Y-3.6195
X2.554Y-3.7573
X2.5652Y-3.5486
X2.577Y-3.7376
X2.5809Y-5.6313
X2.5849Y-4.3085
X2.5864Y-6.3209
X2.5967Y-3.7652
X2.5967Y-4.0683
X2.5988Y-5.6628
X2.6951Y-4.3124
X2.6991Y-4.0683
X2.7463Y-4.3596
X2.7817Y-4.0683
X2.7817Y-6.3203
X2.8093Y-4.4187
X2.8329Y-4.1156
X2.8683Y-4.4778
X2.8959Y-4.1825
X2.9294Y-5.2671
X2.9353Y-4.5447
X2.9392Y-6.3203
X2.9589Y-4.2455
X3.0081Y-5.0407
X3.0081Y-5.0998
X3.0081Y-5.1687
X3.0219Y-4.3085
X3.0298Y-4.6431
X3.0573Y-5.0112
X3.0967Y-4.3833
X3.1065Y-5.0407
X3.1065Y-5.1096
X3.1065Y-5.2634
X3.1175Y-6.3169
X3.1439Y-4.4423
X3.1475Y-4.8069
X3.1518Y-4.651
X3.1518Y-4.7258
X3.1794Y-5.0959
X3.2034Y-4.3321
X3.2271Y-5.4284
X3.2288Y-5.618
X3.2416Y-4.3321
X3.2542Y-6.3203
X3.2857Y-4.8006
X3.2857Y-4.8833
X3.2857Y-4.962
X3.2857Y-5.0289
X3.3014Y-4.4226
X3.3014Y-4.4699
X3.3014Y-4.5171
X3.3014Y-4.5644
X3.3014Y-4.6116
X3.3014Y-4.6589
X3.3014Y-4.7061
X3.3054Y-4.3596
X3.309Y-5.6178
X3.3137Y-5.4284
X3.3329Y-5.336
X3.3723Y-5.6805
X3.4312Y-5.2433
X3.451Y-5.6805
X3.4904Y-6.3203
X3.4932Y-5.1814
X3.5002Y-5.6313
X3.5494Y-5.5821
X3.5719Y-5.1026
X3.6183Y-5.5132
X3.6872Y-5.4443
X3.6872Y-6.3203
X3.7502Y-5.0547
X3.7561Y-5.3754
X3.766Y-3.9581
X3.766Y-4.1156
X3.766Y-4.2337
X3.766Y-4.3518
X3.766Y-4.4699
X3.766Y-4.588
X3.766Y-4.7455
X3.766Y-4.8636
X3.8054Y-5.336
X3.8841Y-4.7442
X3.8841Y-4.1156
X3.8841Y-4.2337
X3.8841Y-4.3518
X3.8841Y-4.4699
X3.8841Y-4.588
X3.8841Y-4.8636
X3.8841Y-6.3203
X3.892Y-5.0519
X3.892Y-5.336
X3.9943Y-5.0519
X3.9943Y-5.336
X4.0022Y-3.8793
X4.0416Y-6.1234
X4.0809Y-3.9581
X4.0809Y-6.3203
X4.1046Y-5.0519
X4.1203Y-5.336
X4.1991Y-3.9187
X4.1991Y-4.0368
X4.1991Y-4.4699
X4.1991Y-4.588
X4.1991Y-4.7061
X4.1991Y-4.8242
X4.1991Y-4.9423
X4.1991Y-5.336
X4.2187Y-5.0519
X4.2778Y-6.3203
X4.388Y-5.3636
X4.3987Y-4.962
X4.4109Y-5.3715
X4.4152Y-4.9856
X4.4156Y-3.8557
X4.4321Y-4.8844
X4.4353Y-6.1234
X4.4353Y-6.2022
X4.4471Y-4.1589
X4.4471Y-4.214
X4.4471Y-4.2612
X4.4471Y-4.3163
X4.4506Y-4.8589
X4.4731Y-4.6632
X4.4904Y-4.025
X4.4904Y-6.3281
X4.5022Y-5.3203
X4.513Y-4.9661
X4.514Y-4.1589
X4.514Y-4.214
X4.514Y-4.2612
X4.514Y-4.3163
X4.514Y-5.014
X4.514Y-5.0368
X4.5223Y-4.399
X4.5246Y-5.1077
X4.527Y-5.1553
X4.5731Y-4.1589
X4.5731Y-4.214
X4.5731Y-4.2612
X4.5731Y-4.3163
X4.5809Y-5.3163
X4.6046Y-5.2061
X4.6215Y-5.0652
X4.6282Y-4.3163
X4.6282Y-4.3715
X4.6282Y-4.4266
X4.6282Y-4.4817
X4.6282Y-4.5368
X4.6321Y-4.1589
X4.6321Y-4.214
X4.6321Y-4.2612
X4.6321Y-4.6274
X4.6321Y-4.8636
X4.6321Y-5.4935
X4.6439Y-5.0447
X4.6479Y-5.0211
X4.6483Y-5.1077
X4.6553Y-4.9502
X4.6553Y-4.777
X4.6813Y-4.3136
X4.6951Y-4.2022
X4.6991Y-4.0486
X4.7109Y-6.0998
X5.7778Y-2.8596
X5.7935Y-3.5053
X5.8014Y-3.3439
X5.8054Y-2.9738
X5.8329Y-3.151
X5.8998Y-3.3478
X5.9077Y-2.9738
X5.9471Y-3.3478
X5.951Y-3.5447
X6.0613Y-2.5841
X6.0691Y-3.151
X6.0723Y-3.4707
X6.0723Y-3.5284
X6.0928Y-3.3557
X6.0928Y-3.399
X6.0928Y-3.4423
X6.1046Y-2.9738
X6.1046Y-3.2848
X6.1282Y-2.7888
X6.1282Y-2.836
X6.1321Y-3.3951
X6.1321Y-3.4226
X6.1321Y-3.4624
X6.1557Y-2.9738
X6.1557Y-3.2848
X6.2266Y-3.5447
X6.266Y-2.9226
X6.266Y-3.2337
X6.2683Y-3.3671
X6.2695Y-3.2793
X6.292Y-3.438
X6.3179Y-3.0258
X6.3215Y-2.9033
X6.3239Y-2.7652
X6.3447Y-3.1116
X6.3585Y-3.5116
X6.4002Y-2.9085
X6.4431Y-3.5545
X6.4623Y-3.1111
X6.492Y-2.6778
X6.4955Y-3.5986
X6.5022Y-3.7022
X6.5022Y-3.899
X6.5022Y-4.0959
X6.5022Y-4.2533
X6.5219Y-3.414
X6.5467Y-3.3608
X6.5699Y-3.6691
X6.5809Y-3.1116
X6.5876Y-3.2856
X6.59Y-3.2329
X6.64Y-3.49
X6.6542Y-2.7778
X6.6557Y-2.9081
X6.6597Y-4.2533
X6.6754Y-3.0014
X6.6754Y-3.2376
X6.6833Y-2.6301
X6.7085Y-3.7364
X6.7156Y-3.5907
X6.7187Y-3.2376
X6.7227Y-3.0014
X6.7687Y-3.6848
X6.8156Y-2.7722
X6.8172Y-3.151
X6.8329Y-3.8624
X6.8341Y-2.6278
X6.8876Y-2.8687
X6.8939Y-3.8053
X6.8959Y-4.2533
X6.9305Y-2.9935
X6.9325Y-3.9719
X6.9538Y-2.8683
X6.9664Y-2.9238
X6.9668Y-2.8148
X6.9715Y-2.886
X6.9746Y-4.0565
X6.9983Y-4.0289
X6.9987Y-3.9089
X7.014Y-3.151
X7.014Y-4.0447
X7.014Y-4.0959
X7.0298Y-4.0604
X7.0455Y-4.0762
X7.0526Y-2.7711
X7.0534Y-3.9738
X7.0691Y-3.9896
X7.0849Y-4.0053
X7.0872Y-4.1211
X7.0928Y-3.9384
X7.0928Y-4.2533
X7.1006Y-4.0211
X7.1321Y-3.9778
X7.1451Y-4.175
X7.1467Y-2.9884
X7.1577Y-4.0711
X7.1715Y-4.3321
X7.1715Y-4.4896
X7.1715Y-5.3951
X7.1991Y-4.6982
X7.2109Y-3.151
X7.216Y-5.2222
X7.2183Y-2.7632
X7.2215Y-4.2175
X7.227Y-4.1411
X7.2365Y-5.0805
X7.2396Y-5.2053
X7.2506Y-5.0593
X7.2585Y-4.5396
X7.2636Y-4.3955
X7.2707Y-3.997
X7.2754Y-5.0715
X7.2833Y-2.9152
X7.3069Y-5.4226
X7.3223Y-4.7419
X7.3258Y-4.14
X7.3278Y-4.2211
X7.3345Y-4.5415
X7.3357Y-2.9951
X7.3368Y-5.2128
X7.3408Y-4.4376
X7.3416Y-4.0325
X7.3447Y-4.34
X7.3546Y-4.273
X7.3605Y-4.3754
X7.3605Y-4.8124
X7.3636Y-5.2002
X7.3857Y-2.5923
X7.3865Y-2.6774
X7.4069Y-4.1407
X7.4077Y-3.151
X7.4077Y-5.0014
X7.4081Y-2.7742
X7.4211Y-4.2167
X7.4302Y-4.0506
X7.4471Y-4.0998
X7.4471Y-4.1274
X7.4491Y-4.3285
X7.464Y-3.9136
X7.464Y-5.4226
X7.4711Y-2.8447
X7.4715Y-4.0238
X7.4746Y-3.1116
X7.4746Y-3.1392
X7.4746Y-3.1628
X7.4865Y-4.8045
X7.4951Y-4.2219
X7.5128Y-3.9301
X7.5226Y-5.2344
X7.5249Y-5.1187
X7.5258Y-5.0014
X7.5281Y-5.1778
X7.5285Y-5.1549
X7.5569Y-4.1384
X7.5573Y-3.9226
X7.5573Y-3.9699
X7.5573Y-4.0565
X7.5923Y-3.3877
X7.5923Y-3.4874
X7.5959Y-3.9699
X7.5971Y-4.0577
X7.6027Y-3.8911
X7.6029Y-5.1778
X7.6038Y-4.2195
X7.6046Y-3.6628
X7.6046Y-3.7809
X7.6046Y-4.3321
X7.6439Y-4.1352
X7.6439Y-5.0014
X7.655Y-5.4222
X7.6557Y-3.7612
X7.6833Y-3.1116
X7.6833Y-3.2297
X7.6833Y-3.3478
X7.6833Y-3.4659
X7.6833Y-4.5289
X7.6833Y-4.8045
X7.6951Y-3.9305
X7.6951Y-3.9778
X7.6951Y-4.025
X7.703Y-3.7612
X7.703Y-4.3045
X7.7266Y-3.9305
X7.7266Y-3.9778
X7.7266Y-4.025
X7.762Y-4.7258
X7.7778Y-4.2376
X7.7778Y-4.3045
X7.7935Y-3.8195
X7.7935Y-4.1439
X7.7935Y-4.1825
X7.8014Y-3.7376
X7.8014Y-5.0014
X7.8034Y-5.4183
X7.8605Y-4.1431
X7.8605Y-4.2376
X7.8605Y-4.3045
X7.8644Y-3.5604
X7.8644Y-3.8167
X7.8802Y-3.0329
X7.9111Y-3.9266
X7.9195Y-5.0014
X7.9471Y-3.0722
X7.9628Y-3.6274
X7.9775Y-4.1664
X7.9881Y-3.6492
X7.9983Y-4.0053
X8.0022Y-3.9266
X8.0022Y-3.962
X8.0039Y-3.6651
X8.0164Y-5.4191
X8.0268Y-3.338
X8.0268Y-3.3872
X8.0294Y-3.0719
X8.0298Y-3.0108
X8.0298Y-3.4876
X8.0307Y-4.2888
X8.0376Y-5.1195
X8.0524Y-4.2888
X8.0573Y-3.0723
X8.0849Y-3.1156
X8.0849Y-3.1392
X8.0849Y-3.1667
X8.0849Y-3.7888
X8.0888Y-3.3163
X8.0888Y-4.0604
X8.1164Y-3.2691
X8.1164Y-5.1982
X8.1245Y-4.1586
X8.1357Y-3.8009
X8.1398Y-4.1433
X8.1439Y-3.9817
X8.1439Y-4.0211
X8.1515Y-3.8167
X8.1518Y-2.9305
X8.1557Y-3.0329
T3
X0.892Y-6.2415
X0.892Y-6.3203
X0.9707Y-6.2415
X0.9707Y-6.3203
X1.1282Y-6.2415
X1.1282Y-6.3203
X1.2069Y-6.2415
X1.2069Y-6.3203
X1.3644Y-6.2415
X1.3644Y-6.3203
X1.4431Y-6.2415
X1.4431Y-6.3203
X1.6006Y-6.2411
X1.6006Y-6.3199
X1.6794Y-6.2411
X1.6794Y-6.3199
X4.9055Y-6.2274
X4.9095Y-1.7675
X4.9612Y-6.1717
X4.9612Y-6.2831
X4.9651Y-1.7118
X4.9651Y-1.8232
X5.0169Y-6.2274
X5.0208Y-1.7675
X9.3615Y-1.7675
X9.3655Y-6.2274
X9.4172Y-1.7118
X9.4172Y-1.8232
X9.4211Y-6.1717
X9.4211Y-6.2831
X9.4729Y-1.7675
X9.4768Y-6.2274
T4
X2.4391Y-5.4767
X2.4391Y-5.9168
X2.497Y-5.4767
X2.497Y-5.9168
X2.7769Y-5.4966
X2.7769Y-5.5766
X2.7769Y-5.6566
X2.7769Y-5.7366
X2.7769Y-5.8166
X2.7769Y-5.8966
X2.8769Y-5.4566
X2.8769Y-5.5366
X2.8769Y-5.6166
X2.8769Y-5.7766
X2.8769Y-5.8566
X2.8769Y-5.9366
T5
X3.0179Y-3.525
X3.1179Y-3.525
X3.2179Y-3.525
X3.3179Y-3.525
X3.3723Y-6.2022
X3.4179Y-3.525
X3.4723Y-6.2022
X3.5179Y-3.525
X3.5723Y-6.2022
X3.6179Y-3.525
X3.6723Y-6.2022
X3.7179Y-3.525
X3.7723Y-6.2022
X3.8179Y-3.525
X3.8723Y-6.2022
X3.9179Y-3.525
X3.9723Y-6.2022
X4.0723Y-6.2022
X4.1723Y-6.2022
X4.2723Y-6.2022
X6.9353Y-2.6392
X7.0353Y-2.6392
X7.1353Y-2.6392
X7.2353Y-2.6392
X7.2896Y-5.3163
X7.3353Y-2.6392
X7.3896Y-5.3163
X7.4353Y-2.6392
X7.4896Y-5.3163
X7.5353Y-2.6392
X7.5896Y-5.3163
X7.6353Y-2.6392
X7.6896Y-5.3163
X7.7353Y-2.6392
X7.7896Y-5.3163
X7.8353Y-2.6392
X7.8896Y-5.3163
X7.9896Y-5.3163
X8.0896Y-5.3163
X8.1896Y-5.3163
T6
X2.9769Y-5.4566
X2.9769Y-5.5566
X2.9769Y-5.8366
X2.9769Y-5.9366
T7
X2.0519Y-5.3791
X2.0519Y-6.0141
T8
X1.9246Y-3.8338
X1.9246Y-4.4046
T9
X2.1608Y-3.8338
X2.1608Y-4.4046
T2
G00X1.8905Y-4.7132
M15
G01X1.8304Y-4.7132
M16
G05
G00X1.8905Y-5.0533
M15
G01X1.8304Y-5.0533
M16
G05
G00X2.0922Y-4.7132
M15
G01X2.0508Y-4.7132
M16
G05
G00X2.0927Y-5.0533
M15
G01X2.0503Y-5.0533
M16
G05
G00X2.327Y-3.5066
M15
G01X2.327Y-3.4465
M16
G05
G00X2.327Y-3.7088
M15
G01X2.327Y-3.6664
M16
G05
G00X2.6672Y-3.5066
M15
G01X2.6672Y-3.4465
M16
G05
G00X2.6672Y-3.7083
M15
G01X2.6672Y-3.6669
M16
G05
T0
M30
